<svg xmlns="http://www.w3.org/2000/svg" viewBox="0 0 46.14 56.93"><defs><style>.cls-1{fill:#010101;}</style></defs><title>Asset 25</title><g id="Layer_2" data-name="Layer 2"><g id="Layer_9" data-name="Layer 9"><path class="cls-1" d="M34.94,33.14V29.3a6.14,6.14,0,0,0-4.73-5.93l-4.25-1a1.25,1.25,0,0,0-1.5.84L20.2,34.64l-1.44-7.19h.12a1.25,1.25,0,0,0,1.26-1.2V24.63a1.27,1.27,0,0,0-1.26-1.26H16.06a1.22,1.22,0,0,0-1.2,1.26v1.62a1.2,1.2,0,0,0,1.2,1.2h.18L14.8,34.64,10.55,23.19A1.34,1.34,0,0,0,9,22.35l-4.25,1A6.14,6.14,0,0,0,.06,29.3L0,40.93a3.7,3.7,0,0,0,3.72,3.72H22.53A13.7,13.7,0,0,1,34.94,33.14Z"/><circle class="cls-1" cx="17.5" cy="10.61" r="10.61"/><path class="cls-1" d="M36.08,36.8A10.07,10.07,0,1,0,46.14,46.86,10.05,10.05,0,0,0,36.08,36.8ZM35.3,46h1.56A3.09,3.09,0,0,1,40,49.08a3.16,3.16,0,0,1-3.06,3.12v1.32H35.18V52.2a3.16,3.16,0,0,1-3.06-3.12h1.74a1.36,1.36,0,0,0,1.38,1.38h1.62a1.38,1.38,0,0,0,0-2.76H35.3a3.09,3.09,0,0,1-3.12-3.12,3.16,3.16,0,0,1,3.06-3.12V40.15H37v1.32A3.16,3.16,0,0,1,40,44.59H38.29a1.36,1.36,0,0,0-1.38-1.38H35.36A1.36,1.36,0,0,0,34,44.59,1.27,1.27,0,0,0,35.3,46Z"/></g></g></svg>