<svg xmlns="http://www.w3.org/2000/svg" viewBox="0 0 87.11 46.78"><defs><style>.cls-1,.cls-2{fill:#fff;}.cls-1{fill-rule:evenodd;}</style></defs><title>Asset 34</title><g id="Layer_2" data-name="Layer 2"><g id="Layer_9" data-name="Layer 9"><path class="cls-1" d="M32.86,44.82v1.29a.68.68,0,0,1-.67.67H26.36a.64.64,0,0,1-.62-.67V42.42a27,27,0,0,1,0-9,3.74,3.74,0,0,1,1.63-2.63c-.48-.24-1-.53-1.43-.77-.72-.62-1-1.24.1-1.72a6.62,6.62,0,0,1,3.44-.53c.19.29.43.57.62.86l2.3-4.74a4.51,4.51,0,0,1,2.77-2,50.59,50.59,0,0,1,17,0,4.42,4.42,0,0,1,2.73,2c.77,1.58,1.53,3.16,2.34,4.74.19-.29.43-.57.62-.86a6.71,6.71,0,0,1,3.44.53c1.05.48.81,1.1.1,1.72-.48.24-1,.53-1.43.77a4.08,4.08,0,0,1,1.63,2.63,27,27,0,0,1,0,9v3.68a.65.65,0,0,1-.67.67H55.11a.65.65,0,0,1-.67-.67V44.82A135.12,135.12,0,0,0,32.86,44.82Z"/><path class="cls-2" d="M21.05,8.35A8.35,8.35,0,1,0,29.4,0,8.36,8.36,0,0,0,21.05,8.35ZM29.4.5a7.85,7.85,0,1,1-7.85,7.85A7.86,7.86,0,0,1,29.4.5Zm0,6.72a2,2,0,1,0-2-2A2,2,0,0,0,29.4,7.22Zm0-3.53a1.5,1.5,0,1,1-1.5,1.5A1.5,1.5,0,0,1,29.4,3.7Zm-4.12,9.13C25.6,10,27,8.6,29.4,8.6s3.8,1.48,4.13,4.23a.23.23,0,0,1-.23.27h0a.27.27,0,0,1-.25-.23c-.3-2.5-1.52-3.77-3.63-3.77s-3.32,1.27-3.62,3.77a.27.27,0,0,1-.27.23A.25.25,0,0,1,25.28,12.83Z"/><path class="cls-2" d="M47.86,8.35A8.35,8.35,0,1,0,56.21,0,8.36,8.36,0,0,0,47.86,8.35ZM56.21.5a7.85,7.85,0,1,1-7.85,7.85A7.86,7.86,0,0,1,56.21.5Zm0,6.72a2,2,0,1,0-2-2A2,2,0,0,0,56.21,7.22Zm0-3.53a1.5,1.5,0,1,1-1.5,1.5A1.5,1.5,0,0,1,56.21,3.7Zm-4.12,9.13C52.41,10,53.84,8.6,56.21,8.6s3.8,1.48,4.13,4.23a.23.23,0,0,1-.23.27h0a.27.27,0,0,1-.25-.23c-.3-2.5-1.52-3.77-3.62-3.77s-3.32,1.27-3.62,3.77a.27.27,0,0,1-.27.23A.25.25,0,0,1,52.09,12.83Z"/><path class="cls-2" d="M0,31.09a8.35,8.35,0,1,0,8.35-8.35A8.36,8.36,0,0,0,0,31.09Zm8.35-7.85A7.85,7.85,0,1,1,.5,31.09,7.86,7.86,0,0,1,8.35,23.24Zm0,6.72a2,2,0,1,0-2-2A2,2,0,0,0,8.35,30Zm0-3.53a1.5,1.5,0,1,1-1.5,1.5A1.5,1.5,0,0,1,8.35,26.44ZM4.22,35.57c.32-2.78,1.75-4.23,4.13-4.23s3.8,1.48,4.12,4.23a.23.23,0,0,1-.23.27h0a.27.27,0,0,1-.25-.23c-.3-2.5-1.52-3.77-3.62-3.77S5,33.12,4.72,35.62a.27.27,0,0,1-.27.23A.25.25,0,0,1,4.22,35.57Z"/><path class="cls-2" d="M70.41,31.09a8.35,8.35,0,1,0,8.35-8.35A8.36,8.36,0,0,0,70.41,31.09Zm8.35-7.85a7.85,7.85,0,1,1-7.85,7.85A7.86,7.86,0,0,1,78.76,23.24Zm0,6.72a2,2,0,1,0-2-2A2,2,0,0,0,78.76,30Zm0-3.53a1.5,1.5,0,1,1-1.5,1.5A1.5,1.5,0,0,1,78.76,26.44Zm-4.12,9.13c.32-2.78,1.75-4.23,4.13-4.23s3.8,1.48,4.13,4.23a.23.23,0,0,1-.23.27h0a.27.27,0,0,1-.25-.23c-.3-2.5-1.52-3.77-3.62-3.77s-3.32,1.27-3.62,3.77a.27.27,0,0,1-.27.23A.25.25,0,0,1,74.64,35.57Z"/></g></g></svg>