<svg xmlns="http://www.w3.org/2000/svg" viewBox="0 0 34.91 46.87"><defs><style>.cls-1{fill:#010101;}</style></defs><title>Asset 21</title><g id="Layer_2" data-name="Layer 2"><g id="Layer_9" data-name="Layer 9"><path class="cls-1" d="M9,37.9a3.3,3.3,0,1,0-3.3-3.3A3.31,3.31,0,0,0,9,37.9Z"/><path class="cls-1" d="M33.49,28a1.42,1.42,0,0,0-1.42,1.42v7.51a9,9,0,0,0-8.49-6.09H13.68v8.49h18.4v.94H2.83V18.09a1.42,1.42,0,0,0-2.83,0V46.87H2.83V43.09H32.08v3.77h2.83V29.41A1.42,1.42,0,0,0,33.49,28Z"/><path class="cls-1" d="M9,21.23a3.3,3.3,0,1,0-3.3-3.3A3.31,3.31,0,0,0,9,21.23Z"/><path class="cls-1" d="M33.49,11.32a1.42,1.42,0,0,0-1.42,1.42v7.51a9,9,0,0,0-8.49-6.09H13.68v8.49h18.4v.94H2.83V1.42A1.42,1.42,0,0,0,0,1.42V30.19H2.83V26.42H32.08v3.77h2.83V12.74A1.42,1.42,0,0,0,33.49,11.32Z"/></g></g></svg>