<svg xmlns="http://www.w3.org/2000/svg" viewBox="0 0 41.74 48.78"><defs><style>.cls-1{fill:#fff;}</style></defs><title>Asset 34</title><g id="Layer_2" data-name="Layer 2"><g id="Layer_9" data-name="Layer 9"><path class="cls-1" d="M11.14,0a1,1,0,0,0-.71.92V7.58a3.76,3.76,0,0,0,1.74,3.15v5.05a8.64,8.64,0,0,0,3,6.41,4.25,4.25,0,0,1-1.9,3.15,26.56,26.56,0,0,1-5.05,2.5,15.32,15.32,0,0,0-5.6,3.59A11.05,11.05,0,0,0,0,39.21v.65l.54.22,8.75,3.8c.63.27.91.42,1.09.49a2,2,0,0,0,.22.05s.06,0,.11.05h.05l1,.43c1.22.52,3.66,1.56,8.59,3.7l.38.16.38-.16c5-2.13,7.52-3.17,8.8-3.7.61-.25.93-.43,1.09-.49h.05l.22-.05.16-.05,1.14-.49,8.59-3.75.54-.22v-.65a10.72,10.72,0,0,0-2.61-7.61,15.28,15.28,0,0,0-5.54-3.42,23.79,23.79,0,0,1-5-2.5,4.69,4.69,0,0,1-2-4.13,7.71,7.71,0,0,0,2.93-5.76V7.31a5.38,5.38,0,0,0-5.22-5.54H13.91a3.13,3.13,0,0,1-1.3-.22c-.22-.12-.27-.14-.27-.6A1,1,0,0,0,11.14,0ZM20.87,25.4a2.55,2.55,0,0,1,2.55,2.55,2.65,2.65,0,0,1-.77,1.86s-.63.31-.36,1.32l2.06,11.53L20.87,44.4l-3.41-1.76,2.1-11.51a1.18,1.18,0,0,0-.37-1.32,2.45,2.45,0,0,1-.86-1.86A2.55,2.55,0,0,1,20.87,25.4Z"/></g></g></svg>