<svg xmlns="http://www.w3.org/2000/svg" viewBox="0 0 52.52 52.69"><defs><style>.cls-1{fill:#fff;}</style></defs><title>Asset 32</title><g id="Layer_2" data-name="Layer 2"><g id="Layer_9" data-name="Layer 9"><path class="cls-1" d="M38.47,38.64a1.76,1.76,0,0,0,1.76,1.76V36.89A1.76,1.76,0,0,0,38.47,38.64Z"/><path class="cls-1" d="M42,45.67a1.76,1.76,0,1,0,0-3.51Z"/><path class="cls-1" d="M41.1,29.86A11.42,11.42,0,1,0,52.52,41.28,11.39,11.39,0,0,0,41.1,29.86Zm4.39,14.05A3.52,3.52,0,0,1,42,47.42v1.76H40.22V47.42a3.52,3.52,0,0,1-3.51-3.51h1.76a1.76,1.76,0,0,0,1.76,1.76V42.16a3.51,3.51,0,0,1,0-7V33.37H42v1.76a3.52,3.52,0,0,1,3.51,3.51H43.74A1.76,1.76,0,0,0,42,36.89V40.4A3.52,3.52,0,0,1,45.49,43.91Z"/><path class="cls-1" d="M27.93,41.28a13.29,13.29,0,0,1,2.37-7.55l-3.43-1.05a14.82,14.82,0,0,1-.79-6.41l.18-.18a9.72,9.72,0,0,0,3.34-7.38v-.26a1.76,1.76,0,0,0,1.76-1.76v-8a2.59,2.59,0,0,0-1.49-2.37l-.18-.18c0-1.76,0-3.51-3.43-3.51H12a2.43,2.43,0,0,1-1.14-.26L6.85,0V7a4.35,4.35,0,0,0,4.39,4.39H27a.83.83,0,0,1,.88.88v6.5a7.82,7.82,0,0,1-2.72,6L23.1,26.52a2.39,2.39,0,0,1-1.76.61h-.88a3.27,3.27,0,0,1-1.76-.61L16.6,24.77a7.82,7.82,0,0,1-2.72-6V13.17H11.24a3,3,0,0,1-.88-.09v3.6a1.76,1.76,0,0,0,1.76,1.76v.35a9.86,9.86,0,0,0,3.34,7.38l.18.18a16.11,16.11,0,0,1-.7,6.32L5.8,35.13A6.09,6.09,0,0,0,1.23,40.4L0,52.69H34.51A13.1,13.1,0,0,1,27.93,41.28ZM16.6,33.2a11.89,11.89,0,0,0,.88-5.36l.09.09A4.37,4.37,0,0,0,20.46,29h.88a4.53,4.53,0,0,0,2.9-1.05l.09-.09a11.89,11.89,0,0,0,.88,5.36C22.22,36.89,19.58,36.89,16.6,33.2Z"/></g></g></svg>