<svg xmlns="http://www.w3.org/2000/svg" viewBox="0 0 23.51 48.3"><defs><style>.cls-1{fill:#010101;}</style></defs><title>Asset 17</title><g id="Layer_2" data-name="Layer 2"><g id="Layer_9" data-name="Layer 9"><path class="cls-1" d="M23.51,24.15v21.5c0,2.09-.56,2.65-2.73,2.65H2.09c-1.44,0-2-.64-2-2.25,0-7.86,0-15.73-.08-23.59V2.89C0,.8.88,0,2.89,0c5.94,0,12,0,17.89.08,1.93,0,2.57.64,2.57,2.57.08,7.22.08,14.36.16,21.5ZM1.52,14V43.81c0,2.25.72,3,3,3H19.42c1.85,0,2.65-.8,2.65-2.65V16.93C15.16,16.93,8.42,14,1.52,14ZM22,15.65V3.45c0-.16-.08-.24-.08-.4A1.64,1.64,0,0,0,20.06,1.6H3.45A1.74,1.74,0,0,0,1.68,3a4.44,4.44,0,0,0-.16,1.44v7.7c0,.24.08.48.08.8C8.42,12.92,15.16,15.65,22,15.65Z"/></g></g></svg>