<svg xmlns="http://www.w3.org/2000/svg" viewBox="0 0 60.52 34.41"><defs><style>.cls-1{fill:#fff;}</style></defs><title>Asset 32</title><g id="Layer_2" data-name="Layer 2"><g id="Layer_9" data-name="Layer 9"><path class="cls-1" d="M44.57,0c3.35,1.82,10.23,9.09,10.76,12.87s-7.18-1-12.41,6.32a12.61,12.61,0,0,0-1.41,11.71H19.73S27.19,27.36,28,24s-.43-10.26,5.09-11.26,14.42-1.15,14.71-2.58S48.06,6,42.4,3A6.08,6.08,0,0,1,44.57,0Z"/><path class="cls-1" d="M24.36,25.59A5,5,0,0,0,26,23.52a19,19,0,0,0,.29-2.59c.25-3.42.67-9.15,6.4-10.19,2-.37,4.47-.62,6.81-.87l1.59-.17L39.45,7.84A5.37,5.37,0,0,0,34.7,6.08L28.24,7a2.68,2.68,0,0,0-2,1.37l-1.65,3L16.14,9.13,13.92,5.69l-9.83.93L22.31,17.24Z"/><path class="cls-1" d="M14.33,27.65a5.54,5.54,0,1,1-1.23-7.07l4.43-1a9.57,9.57,0,1,0,1.26,7.72Z"/><path class="cls-1" d="M52.38,18.07l-.58,0,1.68,3.46A4.8,4.8,0,1,1,48,24.2l-1.68-3.46a8.13,8.13,0,1,0,6-2.66Z"/><path class="cls-1" d="M49.07,17.1a7.93,7.93,0,0,0-1.86.78l4.26,8.78a1,1,0,1,0,1.81-.88Z"/><path class="cls-1" d="M21.11,20.81,8.83,23.63a1.22,1.22,0,0,0,.23,2.43L22.14,25Z"/></g></g></svg>