<svg xmlns="http://www.w3.org/2000/svg" viewBox="0 0 45.51 31.76"><defs><style>.cls-1{fill:#010101;fill-rule:evenodd;}</style></defs><title>Asset 29</title><g id="Layer_2" data-name="Layer 2"><g id="Layer_9" data-name="Layer 9"><path class="cls-1" d="M9.37,29.32v1.6a.85.85,0,0,1-.83.83H1.3a.8.8,0,0,1-.77-.83V26.35a33.53,33.53,0,0,1,0-11.16,4.64,4.64,0,0,1,2-3.26C2,11.63,1.36,11.28.77,11c-.89-.77-1.19-1.54.12-2.14a8.21,8.21,0,0,1,4.27-.65c.24.36.53.71.77,1.07L8.78,3.38A5.6,5.6,0,0,1,12.22.89a62.78,62.78,0,0,1,21.07,0,5.48,5.48,0,0,1,3.38,2.49c.95,2,1.9,3.92,2.91,5.88.24-.36.53-.71.77-1.07a8.33,8.33,0,0,1,4.27.65c1.31.59,1,1.37.12,2.14-.59.3-1.19.65-1.78.95a5.06,5.06,0,0,1,2,3.26,33.53,33.53,0,0,1,0,11.16v4.57a.81.81,0,0,1-.83.83H37a.81.81,0,0,1-.83-.83v-1.6A167.68,167.68,0,0,0,9.37,29.32ZM13.59,3A2.86,2.86,0,0,0,11,4.45c-.89,1.78-1.84,3.62-2.79,5.46a198.2,198.2,0,0,1,29.08,0c-.89-1.84-1.84-3.68-2.79-5.46A2.72,2.72,0,0,0,31.93,3,67.78,67.78,0,0,0,13.59,3ZM40.12,23.86H34.78a.71.71,0,1,0,0,1.42h5.34a.71.71,0,0,0,0-1.42Zm-4.57-2.14h5.64c1.48-.53,2.08-3.26,1.19-3.44-1.84.24-3.74.42-5.52.59C35.85,19.47,34.84,20.36,35.55,21.72ZM5.4,23.86h5.34a.71.71,0,0,1,0,1.42H5.4a.71.71,0,0,1,0-1.42Zm4.51-2.14H4.33c-1.54-.53-2.08-3.26-1.19-3.44,1.78.24,3.74.42,5.52.59C9.67,19.47,10.62,20.36,9.91,21.72Z"/></g></g></svg>