<svg xmlns="http://www.w3.org/2000/svg" viewBox="0 0 29.43 39.5"><defs><style>.cls-1{fill:#fff;}</style></defs><title>Asset 35</title><g id="Layer_2" data-name="Layer 2"><g id="Layer_9" data-name="Layer 9"><path class="cls-1" d="M22.62,0H6.75A6.69,6.69,0,0,0,0,6.63V29.88a6.7,6.7,0,0,0,4.71,6.37v2.1A1.14,1.14,0,0,0,5.86,39.5H7.65a1.14,1.14,0,0,0,1.15-1.15v-2H20.64v2a1.14,1.14,0,0,0,1.15,1.15h1.78a1.14,1.14,0,0,0,1.15-1.15v-2.1a6.7,6.7,0,0,0,4.71-6.37V6.63A6.83,6.83,0,0,0,22.62,0ZM10.83,2.74a.71.71,0,0,1,.7-.7h6.24a.71.71,0,0,1,.7.7V4.59a.71.71,0,0,1-.7.7H11.53a.71.71,0,0,1-.7-.7ZM6.56,32.3a2.5,2.5,0,0,1-2.48-2.55A2.54,2.54,0,0,1,6.56,27.2,2.54,2.54,0,0,1,9,29.75,2.46,2.46,0,0,1,6.56,32.3Zm16.12,0a2.5,2.5,0,0,1-2.48-2.55,2.54,2.54,0,0,1,2.48-2.55,2.55,2.55,0,0,1,0,5.1Zm2.55-18a3.05,3.05,0,0,1-.76,2.1,3,3,0,0,1-2.1.83H6.94a3,3,0,0,1-2.1-.83,2.94,2.94,0,0,1-.76-2.1v-4.2A2.75,2.75,0,0,1,6.94,7.2H22.36a2.75,2.75,0,0,1,2.87,2.93Z"/></g></g></svg>