<svg xmlns="http://www.w3.org/2000/svg" viewBox="0 0 50.3 48.76"><defs><style>.cls-1{fill:#010101;}</style></defs><title>Asset 19</title><g id="Layer_2" data-name="Layer 2"><g id="Layer_9" data-name="Layer 9"><path class="cls-1" d="M18.47,11.66A66,66,0,0,0,5,11.26,2.2,2.2,0,0,1,3,9.07a6.3,6.3,0,0,0,.16-3.89c-.16-1,.16-1.78,2.19-2,7-.32,8.1-.24,13.45.4,1.38.24,2.43.73,2,2.19-.57,1.62-.16,2.83-.16,3.89A2.26,2.26,0,0,1,18.47,11.66Z"/><path class="cls-1" d="M23.73,24.38V46.09c0,2.11-.57,2.67-2.75,2.67H2.11c-1.46,0-2-.65-2-2.27,0-7.94,0-15.88-.08-23.81V2.92C0,.81.89,0,2.92,0,8.91,0,15,0,21,.08c1.94,0,2.59.65,2.59,2.59.08,7.29.08,14.5.16,21.71ZM1.54,14.09V44.22c0,2.27.73,3,3,3H19.6c1.86,0,2.67-.81,2.67-2.67V17.09C15.31,17.09,8.5,14.09,1.54,14.09Zm20.65,1.7V3.48c0-.16-.08-.24-.08-.4a1.65,1.65,0,0,0-1.86-1.46H3.48A1.76,1.76,0,0,0,1.7,3a4.48,4.48,0,0,0-.16,1.46v7.78c0,.24.08.49.08.81C8.5,13,15.31,15.79,22.19,15.79Z"/><path class="cls-1" d="M45.12,11.66a66,66,0,0,0-13.45-.4,2.2,2.2,0,0,1-2-2.19,6.3,6.3,0,0,0,.16-3.89c-.16-1,.16-1.78,2.19-2,7-.32,8.1-.24,13.45.4,1.38.24,2.43.73,2,2.19-.57,1.62-.16,2.83-.16,3.89A2.26,2.26,0,0,1,45.12,11.66Z"/><path class="cls-1" d="M50.3,24.38V46.09c0,2.11-.57,2.67-2.75,2.67H28.67c-1.46,0-2-.65-2-2.27,0-7.94,0-15.88-.08-23.81V2.92C26.57.81,27.46,0,29.48,0c6,0,12.07,0,18.06.08,1.94,0,2.59.65,2.59,2.59.16,7.29.16,14.5.16,21.71ZM28.19,14.09V44.22c0,2.27.73,3,3,3H46.25c1.86,0,2.67-.81,2.67-2.67V17.09C42,17.09,35.07,14.09,28.19,14.09Zm20.65,1.7V3.48c0-.16-.08-.24-.08-.4A1.65,1.65,0,0,0,46.9,1.62H30.13A1.76,1.76,0,0,0,28.35,3a4.48,4.48,0,0,0-.16,1.46v7.78c0,.24.08.49.08.81C35.07,13,41.88,15.79,48.84,15.79Z"/></g></g></svg>