<svg xmlns="http://www.w3.org/2000/svg" viewBox="0 0 43.72 48.78"><defs><style>.cls-1{fill:#010101;}</style></defs><title>Asset 18</title><g id="Layer_2" data-name="Layer 2"><g id="Layer_9" data-name="Layer 9"><circle class="cls-1" cx="12.69" cy="4.03" r="4.03"/><circle class="cls-1" cx="31.08" cy="4.03" r="4.03"/><path class="cls-1" d="M43.16,17.11,37,10.91a2,2,0,0,0-1.31-.49H8.08A2,2,0,0,0,6.72,11L.54,17.13a2,2,0,0,0,0,2.73l6.73,8.31V46.28a2.52,2.52,0,0,0,5,.11V28.16h.83v18.1a2.52,2.52,0,0,0,5,.15V14.47h7.5V46.36a2.52,2.52,0,0,0,5,0V28.16h.83V46.31a2.52,2.52,0,0,0,5,.05V28.1l6.86-8.48a2,2,0,0,0-.22-2.51ZM4.37,18.63l2.88-2.88V22.2Zm32.16,3.48V15.8l2.82,2.82Z"/></g></g></svg>