<svg xmlns="http://www.w3.org/2000/svg" viewBox="0 0 50.06 49.7"><defs><style>.cls-1{fill:#010101;}</style></defs><title>Asset 20</title><g id="Layer_2" data-name="Layer 2"><g id="Layer_9" data-name="Layer 9"><path class="cls-1" d="M27.57,18.92a3.47,3.47,0,1,0-6.94,0,3.47,3.47,0,1,0,6.94,0Z"/><path class="cls-1" d="M24,24.44c-4.79,0-5.32,2.07-5.32,4.49v4.42c0,1.34.67,3.34,2.25,3.34h0l.58,13h5l.73-13c1.58,0,2.09-2,2.09-3.34V28.78C29.39,26.48,29,24.44,24,24.44Z"/><path class="cls-1" d="M11.38,3.86A3.79,3.79,0,0,0,7.52,0,3.79,3.79,0,0,0,3.66,3.86a3.86,3.86,0,1,0,7.72,0Z"/><path class="cls-1" d="M7.45,10C2.66,10,0,12.08,0,14.5V26.21c0,1.34,1.58,3.34,3.16,3.34h0L4.83,49.7h5.31l1.64-20.14c1.58,0,3.16-2,3.16-3.34V14.35C14.94,12.05,12.45,10,7.45,10Z"/><path class="cls-1" d="M46.25,3.86a3.86,3.86,0,1,0-7.72,0,3.86,3.86,0,1,0,7.72,0Z"/><path class="cls-1" d="M50.06,36,47.36,24.18A3.81,3.81,0,0,0,49.2,21V15.26C49.2,13,47.32,10,42.32,10c-4.79,0-6.69,3-6.69,5.4V21a3.83,3.83,0,0,0,1.81,3.12L34.72,36l4,.44,1,13.27H45l.9-13.25h0Z"/></g></g></svg>