<svg xmlns="http://www.w3.org/2000/svg" viewBox="0 0 60.11 60.02"><defs><style>.cls-1{fill:#fff;}</style></defs><title>Asset 33</title><g id="Layer_2" data-name="Layer 2"><g id="Layer_9" data-name="Layer 9"><path class="cls-1" d="M25.21,29.12A16,16,0,0,0,27,4.42,16,16,0,0,0,0,15.32a15.94,15.94,0,0,0,6.8,13.8A3,3,0,0,1,8,31.52V35H6v2H8v5.1A4.93,4.93,0,0,0,9.91,46l2.4,1.9a5.1,5.1,0,0,0,3.1,1.1h1.2a5.1,5.1,0,0,0,3.1-1.1l2.4-1.9a5.08,5.08,0,0,0,1.9-3.9V37h2V35H24v-3.5A3,3,0,0,1,25.21,29.12ZM16,11.82l1.9.5-2,8-1.9-.5ZM22,39H10V37H22Zm-.2,4H10.21a2.92,2.92,0,0,1-.2-.9V41H22v1.1A2.92,2.92,0,0,1,21.81,43ZM7,16l4.3-4.7,1.4,1.4L9.41,16l3.3,3.3-1.4,1.4Zm11.5,30.3a3.16,3.16,0,0,1-1.9.7h-1.2a2.81,2.81,0,0,1-1.9-.7L11.91,45h8.3Zm2.2-25.6-1.4-1.4,3.3-3.3-3.3-3.3,1.4-1.4L25,16Z"/><path class="cls-1" d="M56.11,46.32l-5.5-1.2c-.9-1.1-.8-2.9-.6-4.6l.2-.2a6.68,6.68,0,0,0,2-4.3l.2-1.5,1-1.5a4.39,4.39,0,0,0,.7-2.2V21l-2,1.3a4.39,4.39,0,0,1-2.2.7h-7.6a1.89,1.89,0,0,0-1.8,1.1L40,25l-.9.4a1.89,1.89,0,0,0-1.1,1.8v3.6a3.41,3.41,0,0,0,.7,2.2l1,1.5.2,1.5a7.8,7.8,0,0,0,2,4.3l.2.2c.3,3.3-.2,4.3-.5,4.6L36,46.42a4.94,4.94,0,0,0-3.9,4.9V60h28v-8.8A5.13,5.13,0,0,0,56.11,46.32Zm-14.3-10.5-.3-2.8.4-3.9,8.2.8.4,3.1-.3,2.8a4.94,4.94,0,0,1-1.4,3l-1.9,1.9a.91.91,0,0,1-.7.3h-.3a.91.91,0,0,1-.7-.3l-1.9-1.9A4.57,4.57,0,0,1,41.81,35.82Zm1.5,10.3a7.85,7.85,0,0,0,.9-3.6,3.37,3.37,0,0,0,1.7.5h.3a3.37,3.37,0,0,0,1.7-.5,6.76,6.76,0,0,0,.9,3.5L46,50.22Z"/></g></g></svg>