<svg xmlns="http://www.w3.org/2000/svg" viewBox="0 0 39.08 55.69"><defs><style>.cls-1{fill:#fff;}</style></defs><title>Asset 26</title><g id="Layer_2" data-name="Layer 2"><g id="Layer_9" data-name="Layer 9"><path class="cls-1" d="M6.77,6.38l.86.37-.07.58a.7.7,0,0,0-.1,1.35L6.94,16a3.36,3.36,0,0,0,.14,1.08l.43,1.27c.1.29.25.29.35,0l.43-1.27A3.36,3.36,0,0,0,8.42,16L7.89,8.69a.7.7,0,0,0-.1-1.35l-.07-.54,2,.86,1,.42v3.57A9.54,9.54,0,0,0,10,15.3c0,5.29,4.29,13.24,9.57,13.24s9.57-8,9.57-13.24a9.54,9.54,0,0,0-.72-3.65V8.08l1-.42,2.94-1.27c.77-.33.77-.88,0-1.21L20.94.25a4,4,0,0,0-2.8,0L6.77,5.17C6,5.5,6,6,6.77,6.38Z"/><path class="cls-1" d="M36.88,39.43c0-.3,0-.62,0-1C36.93,27,32.35,27.57,26.51,27c0,2.09-3.15,3.78-7,3.78s-6.92-1.69-7-3.78c-5.85.53-10.42,0-10.42,11.43,0,.34,0,.66,0,1A3.91,3.91,0,0,0,0,42.94v2.52a3.91,3.91,0,0,0,3.41,3.88A3.89,3.89,0,0,0,7.2,53.08l11.56,2.44.78.16.78-.16,11.56-2.44a3.88,3.88,0,0,0,3.79-3.74,3.91,3.91,0,0,0,3.41-3.88V42.94A3.91,3.91,0,0,0,36.88,39.43ZM7.37,51.53H7.29A2.33,2.33,0,0,1,5,49.34a3.92,3.92,0,0,0,3.4-3.88V42.94A3.92,3.92,0,0,0,5,39.06V37.12A2.33,2.33,0,0,1,7.21,34.8l11.55,2.44v16.7Zm24.42,0h-.08L20.31,53.94V37.24L31.86,34.8a2.33,2.33,0,0,1,2.25,2.33v1.93a3.91,3.91,0,0,0-3.41,3.88v2.52a3.92,3.92,0,0,0,3.4,3.88A2.33,2.33,0,0,1,31.79,51.53Z"/></g></g></svg>