<svg xmlns="http://www.w3.org/2000/svg" viewBox="0 0 57.45 33.58"><defs><style>.cls-1{fill:#010101;}</style></defs><title>Asset 32</title><g id="Layer_2" data-name="Layer 2"><g id="Layer_9" data-name="Layer 9"><path class="cls-1" d="M46.47,33.58a11,11,0,1,1,11-11A11,11,0,0,1,46.47,33.58Zm0-20.66a9.69,9.69,0,1,0,9.69,9.69A9.7,9.7,0,0,0,46.47,12.92Z"/><path class="cls-1" d="M28.39,24.54H11.61a.65.65,0,0,1-.57-1l9-16.79a.65.65,0,0,1,.57-.34H40a.65.65,0,0,1,.53,1L28.93,24.26A.65.65,0,0,1,28.39,24.54ZM12.69,23.25H28.06L38.78,7.75H21Z"/><path class="cls-1" d="M31,28.41H27.1a.65.65,0,0,1-.65-.65V20.18L16.2.95A.65.65,0,0,1,17.34.34L27.67,19.71a.65.65,0,0,1,.08.3v7.1H31a.65.65,0,1,1,0,1.29Z"/><path class="cls-1" d="M21.94,1.29H14.19a.65.65,0,0,1,0-1.29h7.75a.65.65,0,1,1,0,1.29Z"/><path class="cls-1" d="M11.61,33.58a11,11,0,1,1,11-11A11,11,0,0,1,11.61,33.58Zm0-20.66a9.69,9.69,0,1,0,9.69,9.69A9.7,9.7,0,0,0,11.61,12.92Z"/><path class="cls-1" d="M.65,12.92a.65.65,0,0,1-.5-1.06,14.86,14.86,0,0,1,19.56-3A.65.65,0,1,1,19,9.94,13.57,13.57,0,0,0,1.14,12.68.64.64,0,0,1,.65,12.92Z"/><path class="cls-1" d="M37.43,11.62H23.23a.65.65,0,0,1,0-1.29H37.43a.65.65,0,1,1,0,1.29Z"/><path class="cls-1" d="M46.47,24.54h0a.65.65,0,0,1-.57-.44L38.11.85A.65.65,0,0,1,38.73,0H42.6a4.64,4.64,0,0,1,4.52,4.75.65.65,0,1,1-1.29,0A3.35,3.35,0,0,0,42.6,1.29h-3l7,20.92,1.89-3.77a.65.65,0,1,1,1.15.58l-2.58,5.17A.65.65,0,0,1,46.47,24.54Z"/></g></g></svg>