<svg xmlns="http://www.w3.org/2000/svg" width="18.806" height="19.37" viewBox="0 0 18.806 19.37">
  <g id="Group_3248" data-name="Group 3248" transform="translate(-4211.931 -1839.901)">
    <path id="Path_1009" data-name="Path 1009" d="M4225.189,1852.02a35,35,0,0,1-1.877,3.786.059.059,0,0,1-.08.021.062.062,0,0,1-.021-.021c-.137-.422-.68-1.877-1.5-1.772a.071.071,0,0,1-.093-.039.073.073,0,0,1,.04-.093h0a26.413,26.413,0,0,0,2.784-2.473v-1.677a4.3,4.3,0,0,0,.528-1.461c.205,0,.474-.305.764-1.329.385-1.355,0-1.582-.342-1.582.864-3.965-1.366-3.981-1.366-3.981a2.247,2.247,0,0,0-2.468-1.466,15.017,15.017,0,0,1-3.37-.032,1.054,1.054,0,0,0,.4.818c-1.994,1.218-1.535,3.892-1.356,4.661-.337,0-.691.259-.316,1.582.29,1.024.559,1.314.765,1.329a4.28,4.28,0,0,0,.527,1.461v1.7A26.37,26.37,0,0,0,4221,1853.9a.053.053,0,0,1,.024.072.053.053,0,0,1-.071.023h0c-.817-.1-1.361,1.356-1.5,1.772a.058.058,0,0,1-.079.021.051.051,0,0,1-.021-.021,34.645,34.645,0,0,1-1.877-3.786,30.286,30.286,0,0,0-4.868,3.206,1.87,1.87,0,0,0-.675,1.445v2.637h18.806v-2.637a1.87,1.87,0,0,0-.675-1.445A30.322,30.322,0,0,0,4225.189,1852.02Z" fill="#040505"/>
  </g>
</svg>
