<svg xmlns="http://www.w3.org/2000/svg" width="31.141" height="29.271" viewBox="0 0 31.141 29.271">
  <g id="Group_3246" data-name="Group 3246" transform="translate(-4289.904 -1835.516)">
    <path id="Path_1008" data-name="Path 1008" d="M4317.716,1860.414a20.63,20.63,0,0,1-1.126,2.272.035.035,0,0,1-.048.013.043.043,0,0,1-.012-.013c-.082-.253-.408-1.126-.9-1.063a.042.042,0,0,1-.055-.024.042.042,0,0,1,.024-.055h0a15.91,15.91,0,0,0,1.67-1.484v-1.006a2.588,2.588,0,0,0,.317-.876c.123,0,.284-.184.458-.8.231-.813,0-.949-.205-.949.519-2.379-.82-2.389-.82-2.389a1.348,1.348,0,0,0-1.48-.88,8.988,8.988,0,0,1-2.022-.019.633.633,0,0,0,.237.491c-1.2.731-.921,2.335-.813,2.8-.2,0-.415.155-.19.949.174.614.335.788.459.8a2.586,2.586,0,0,0,.316.876v1.019a15.87,15.87,0,0,0,1.674,1.471.032.032,0,0,1,.014.043.031.031,0,0,1-.042.014h0c-.491-.06-.817.813-.9,1.063a.035.035,0,0,1-.048.013.039.039,0,0,1-.012-.013,21.066,21.066,0,0,1-1.127-2.272,18.228,18.228,0,0,0-2.92,1.924,1.122,1.122,0,0,0-.4.867v1.582h11.283v-1.582a1.122,1.122,0,0,0-.4-.867A18.163,18.163,0,0,0,4317.716,1860.414Zm-16.525,2.791a1.125,1.125,0,0,0-.4-.867,18.28,18.28,0,0,0-2.921-1.924,20.721,20.721,0,0,1-1.126,2.272.035.035,0,0,1-.048.013.036.036,0,0,1-.012-.013c-.083-.253-.409-1.126-.9-1.063a.032.032,0,0,1-.043-.014.033.033,0,0,1,.014-.043h0a15.728,15.728,0,0,0,1.671-1.484v-1.028a2.588,2.588,0,0,0,.317-.876c.123,0,.284-.184.458-.8.231-.813,0-.949-.2-.949.519-2.379-.82-2.389-.82-2.389a1.349,1.349,0,0,0-1.481-.88,8.98,8.98,0,0,1-2.021-.019.632.632,0,0,0,.231.491c-1.2.731-.921,2.335-.814,2.8-.2,0-.414.155-.189.949.174.614.335.788.458.8a2.609,2.609,0,0,0,.317.876v1.019a15.7,15.7,0,0,0,1.677,1.471.032.032,0,0,1,.014.043.032.032,0,0,1-.043.014h0c-.49-.06-.816.813-.9,1.063a.035.035,0,0,1-.048.013.048.048,0,0,1-.013-.013,20.88,20.88,0,0,1-1.126-2.272,18.228,18.228,0,0,0-2.92,1.924,1.121,1.121,0,0,0-.412.889v1.582h11.287Zm9.1-18.149a1.216,1.216,0,0,0-.7-.978,5.618,5.618,0,0,0-1.013-.382,10.876,10.876,0,0,1-1.6-.564l-.044-.028a.38.38,0,0,1-.171-.316v-.494h0v-.165a3.424,3.424,0,0,0,2.177-.67s-1.019-.288-.835-2.146-.228-3.48-1.722-3.347a1.662,1.662,0,0,0-1.933-.288c-.443.168-1.629.592-1.582,3.164s-.914,2.588-.914,2.588.5.731,2.215.715v.633a.382.382,0,0,1-.171.316l-.038.023a11.021,11.021,0,0,1-1.6.563,5.636,5.636,0,0,0-.988.392,1.214,1.214,0,0,0-.689.978v2.1h9.615Z" fill="#040505"/>
    <g id="Group_3245" data-name="Group 3245">
      <line id="Line_415" data-name="Line 415" y2="6.46" transform="translate(4305.501 1848.586)" fill="#040505" stroke="#030504" stroke-linecap="round" stroke-miterlimit="10" stroke-width="0.633"/>
      <line id="Line_416" data-name="Line 416" y1="3.23" x2="5.594" transform="translate(4299.885 1855.046)" fill="#040505" stroke="#030504" stroke-linecap="round" stroke-miterlimit="10" stroke-width="0.633"/>
      <line id="Line_417" data-name="Line 417" x1="5.594" y1="3.23" transform="translate(4305.479 1855.046)" fill="#040505" stroke="#030504" stroke-linecap="round" stroke-miterlimit="10" stroke-width="0.633"/>
    </g>
  </g>
</svg>
