<?xml version="1.0" encoding="utf-8"?>
<!-- Generator: Adobe Illustrator 21.0.0, SVG Export Plug-In . SVG Version: 6.00 Build 0)  -->
<svg version="1.1" id="Layer_1" xmlns="http://www.w3.org/2000/svg" xmlns:xlink="http://www.w3.org/1999/xlink" x="0px" y="0px"
	 viewBox="0 0 77.9 77.9" style="enable-background:new 0 0 77.9 77.9;" xml:space="preserve">
<style type="text/css">
	.st0{fill:#848484;}
</style>
<g>
	<g>
		<g>
			<g>
				<path class="st0" d="M0,39C0,17.4,17.4,0,39,0l0,0c21.5,0,39,17.4,39,39l0,0c0,21.5-17.4,39-39,39l0,0C17.4,77.9,0,60.5,0,39
					L0,39z M12.1,12.1C5.3,19,1,28.5,1,39l0,0c0,10.5,4.2,20,11.1,26.8l0,0C19,72.7,28.5,76.9,39,76.9l0,0c10.5,0,20-4.2,26.8-11.1
					l0,0c6.9-6.9,11.1-16.4,11.1-26.8l0,0c0-10.5-4.2-20-11.1-26.8l0,0C58.9,5.3,49.5,1,39,1l0,0C28.5,1,19,5.3,12.1,12.1L12.1,12.1
					z"/>
			</g>
		</g>
	</g>
	<g>
		<g>
			<polygon class="st0" points="38.2,61.2 38.2,16.7 39.4,16.7 39.4,61.2 			"/>
		</g>
		<g>
			<polygon class="st0" points="16.8,38.4 16.8,37.2 61.1,37.2 61.1,38.4 			"/>
		</g>
	</g>
</g>
</svg>
