<svg xmlns="http://www.w3.org/2000/svg" viewBox="0 0 30.42 43.15"><defs><style>.cls-1{fill:#fff;}</style></defs><title>Asset 14</title><g id="Layer_2" data-name="Layer 2"><g id="Layer_11" data-name="Layer 11"><path class="cls-1" d="M5.39,35.73H25A4.78,4.78,0,0,0,29.79,31V10.14a7.64,7.64,0,0,0-7.62-7.62h-.24A3.19,3.19,0,0,0,18.83,0H11.59A3.19,3.19,0,0,0,8.48,2.52H8.25A7.64,7.64,0,0,0,.63,10.14V31A4.78,4.78,0,0,0,5.39,35.73ZM8.1,32a3,3,0,1,1,3-3A3,3,0,0,1,8.1,32Zm14.22,0a3,3,0,1,1,3-3A3,3,0,0,1,22.32,32ZM3.54,12.9a4.74,4.74,0,0,1,.08-.83,5.27,5.27,0,0,1-.08-.89c0-3.48,3.43-6.32,7.62-6.32h8.1c4.19,0,7.62,2.85,7.62,6.32a5.32,5.32,0,0,1-.08.89,4.74,4.74,0,0,1,.08.83v2.5a4.78,4.78,0,0,1-4.76,4.76H8.3A4.78,4.78,0,0,1,3.54,15.4ZM23.79,36.81H20.52l4.36,6.34h5.54ZM0,43.15H5.54L9.9,36.81H6.63Z"/></g></g></svg>