<svg xmlns="http://www.w3.org/2000/svg" viewBox="0 0 46.21 35.71"><defs><style>.cls-1{fill:#fff;}</style></defs><title>Asset 15</title><g id="Layer_2" data-name="Layer 2"><g id="Layer_11" data-name="Layer 11"><path class="cls-1" d="M14.7,0a3.17,3.17,0,0,0-3.15,3.15v4.2H1.05A1.09,1.09,0,0,0,0,8.4V34.66a1.09,1.09,0,0,0,1.05,1.05H45.16a1.09,1.09,0,0,0,1.05-1.05V8.4a1.09,1.09,0,0,0-1-1.05H34.66V3.15A3.17,3.17,0,0,0,31.51,0Zm0,2.1H31.51a1,1,0,0,1,1.05,1.05v4.2H13.65V3.15A1,1,0,0,1,14.7,2.1ZM2.1,9.45h42v11H36.76V17.86a1.05,1.05,0,1,0-2.1,0v2.63H11.55V17.86a1.05,1.05,0,1,0-2.1,0v2.63H2.1Zm0,13.13H9.45v2.63a1.05,1.05,0,1,0,2.1,0V22.58H34.66v2.63a1.05,1.05,0,1,0,2.1,0V22.58h7.35v11H2.1Z"/></g></g></svg>