<svg xmlns="http://www.w3.org/2000/svg" width="48.027" height="48.026" viewBox="0 0 48.027 48.026">
  <g id="Group_1" data-name="Group 1" transform="translate(0.028 0.01)">
    <path id="Path_1" data-name="Path 1" d="M38.262,16.606,23.969,30.155l-5.944-6.317a2.545,2.545,0,0,0-3.678,3.508h0l7.76,8.039a2.39,2.39,0,0,0,1.754.745,2.313,2.313,0,0,0,1.754-.667l16.141-15.3a2.514,2.514,0,0,0,.093-3.508,2.437,2.437,0,0,0-3.43-.171Z" transform="translate(-3.745 -0.559)" fill="#00a651" stroke="#010201" stroke-miterlimit="10" stroke-width="0.02"/>
    <path id="Path_2" data-name="Path 2" d="M31.294,6A23.994,23.994,0,1,0,55.288,29.916,23.994,23.994,0,0,0,31.294,6Zm0,44.077A20.083,20.083,0,1,1,51.377,29.916h0A20.083,20.083,0,0,1,31.294,50Z" transform="translate(-7.3 -6)" fill="#00a651" stroke="#010201" stroke-miterlimit="10" stroke-width="0.02"/>
  </g>
</svg>
