<svg xmlns="http://www.w3.org/2000/svg" viewBox="0 0 17.77 23.15"><defs><style>.cls-1{fill:#010101;}</style></defs><title>Asset 2</title><g id="Layer_2" data-name="Layer 2"><g id="Layer_1-2" data-name="Layer 1"><path class="cls-1" d="M.27,0A.27.27,0,0,0,0,.27V22.89a.28.28,0,0,0,.27.27H17.5a.28.28,0,0,0,.27-.27V5.12a.27.27,0,0,0-.08-.19L12.85.08A.27.27,0,0,0,12.65,0ZM.54.54H12.39V5.12a.28.28,0,0,0,.27.27h4.58V22.62H.54ZM12.92.92l3.93,3.93H12.92Zm-1.08,8a2.23,2.23,0,0,0-1.54.88L5.46,14.61a1.06,1.06,0,0,0-.34.72,1.08,1.08,0,0,0,.29.79l.77.78a1.14,1.14,0,0,0,.82.32,1,1,0,0,0,.73-.35l4.62-4.64a.27.27,0,0,0-.34-.42l0,0L7.35,16.5a.5.5,0,0,1-.34.19.61.61,0,0,1-.43-.16l-.77-.78a.54.54,0,0,1-.14-.4A.52.52,0,0,1,5.85,15l4.85-4.85c.41-.42.73-.72,1.15-.72a1.47,1.47,0,0,1,.93.23,3.46,3.46,0,0,1,1,1v0a2,2,0,0,1,.23.93,1.36,1.36,0,0,1-.44,1.14l0,0L8.15,18.11a1.67,1.67,0,0,1-2.31,0L4.23,16.5a1.58,1.58,0,0,1-.46-1.15,1.62,1.62,0,0,1,.46-1.16L8.54,9.88a.27.27,0,1,0-.39-.38L3.85,13.81a2.16,2.16,0,0,0-.61,1.54,2.13,2.13,0,0,0,.61,1.53l1.62,1.62a2.22,2.22,0,0,0,3.08,0l5.36-5.37,0,0h0a1.92,1.92,0,0,0,.62-1.52,2.5,2.5,0,0,0-.3-1.21v0a4,4,0,0,0-1.16-1.16A2.17,2.17,0,0,0,11.85,8.88Z"/></g></g></svg>