<svg xmlns="http://www.w3.org/2000/svg" viewBox="0 0 15.47 15.47"><defs><style>.cls-1{fill:#00a651;stroke-width:0.01px;}.cls-1,.cls-2{stroke:#010201;stroke-miterlimit:10;}.cls-2{fill:#fff;stroke-width:0.02px;}</style></defs><g id="Layer_2" data-name="Layer 2"><g id="Layer_1-2" data-name="Layer 1"><path class="cls-1" d="M7.73,0a7.73,7.73,0,1,0,7.73,7.73A7.73,7.73,0,0,0,7.73,0Z"/><path class="cls-2" d="M11.12,5.2,6.51,9.56l-1.91-2A.82.82,0,1,0,3.42,8.68h0L5.9,11.26a.74.74,0,0,0,.56.24A.75.75,0,0,0,7,11.29l5.2-4.93a.81.81,0,0,0,0-1.13.78.78,0,0,0-1.1-.06Z"/></g></g></svg>