<svg xmlns="http://www.w3.org/2000/svg" width="73.816" height="27.6" viewBox="0 0 73.816 27.6">
  <g id="Group_1458" data-name="Group 1458" transform="translate(-301.548 -3464.135)">
    <path id="Path_169" data-name="Path 169" d="M367.474,3481.37a49.524,49.524,0,0,1-2.67,5.385.083.083,0,0,1-.113.03.092.092,0,0,1-.03-.03c-.2-.6-.967-2.67-2.13-2.52a.1.1,0,0,1-.075-.187h0a37.584,37.584,0,0,0,3.96-3.518v-2.385a6.075,6.075,0,0,0,.75-2.077c.293,0,.675-.435,1.088-1.89.547-1.928,0-2.25-.488-2.25,1.23-5.64-1.942-5.663-1.942-5.663a3.2,3.2,0,0,0-3.51-2.085,21.449,21.449,0,0,1-4.793-.045,1.5,1.5,0,0,0,.563,1.163c-2.835,1.732-2.183,5.535-1.928,6.63-.48,0-.982.367-.45,2.25.413,1.455.8,1.867,1.088,1.89a6.118,6.118,0,0,0,.75,2.077v2.415a37.791,37.791,0,0,0,3.967,3.488.074.074,0,0,1,.034.1.076.076,0,0,1-.1.034h0c-1.163-.143-1.935,1.927-2.13,2.52a.083.083,0,0,1-.113.029.089.089,0,0,1-.03-.029,49.825,49.825,0,0,1-2.67-5.385,43.123,43.123,0,0,0-6.922,4.56,2.656,2.656,0,0,0-.96,2.055v3.75h26.745v-3.75a2.656,2.656,0,0,0-.96-2.055A43.1,43.1,0,0,0,367.474,3481.37Zm-39.173,6.615a2.651,2.651,0,0,0-.96-2.055,43.035,43.035,0,0,0-6.922-4.56,49.524,49.524,0,0,1-2.67,5.385.083.083,0,0,1-.113.03.092.092,0,0,1-.03-.03c-.195-.6-.967-2.67-2.13-2.52a.075.075,0,0,1-.1-.034.076.076,0,0,1,.034-.1h0a37.676,37.676,0,0,0,3.96-3.517v-2.438a6.117,6.117,0,0,0,.75-2.077c.292,0,.675-.435,1.087-1.89.548-1.928,0-2.25-.487-2.25,1.23-5.64-1.943-5.663-1.943-5.663a3.194,3.194,0,0,0-3.51-2.085,21.44,21.44,0,0,1-4.792-.045,1.5,1.5,0,0,0,.547,1.163c-2.835,1.732-2.182,5.535-1.927,6.63-.48,0-.983.367-.45,2.25.412,1.455.795,1.867,1.087,1.89a6.118,6.118,0,0,0,.75,2.077v2.415a37.765,37.765,0,0,0,3.975,3.488.074.074,0,0,1,.034.1.076.076,0,0,1-.1.034h0c-1.163-.143-1.935,1.927-2.13,2.52a.083.083,0,0,1-.113.029.089.089,0,0,1-.03-.029,49.819,49.819,0,0,1-2.67-5.385,43.123,43.123,0,0,0-6.922,4.56,2.653,2.653,0,0,0-.975,2.107v3.75H328.3Z" fill="#040505"/>
    <path id="Path_170" data-name="Path 170" d="M328.048,3474.331c0,.227,20.816,0,20.816,0" fill="#040505" stroke="#030504" stroke-linecap="round" stroke-miterlimit="10" stroke-width="1.329"/>
  </g>
</svg>
