<svg xmlns="http://www.w3.org/2000/svg" width="38.434" height="49.752" viewBox="0 0 38.434 49.752">
  <g id="Group_1454" data-name="Group 1454" transform="translate(-664.888 -3453.033)">
    <g id="Group_1453" data-name="Group 1453">
      <path id="Path_167" data-name="Path 167" d="M703.322,3489.1v5.422h-8.635a10.582,10.582,0,0,0-21.164,0h-8.635V3489.1a3.919,3.919,0,0,1,1.369-2.949,62.381,62.381,0,0,1,11.267-7.213.354.354,0,0,0,.211-.315v-7.634a3.572,3.572,0,0,1-1.58-2.949v-7.9a7.111,7.111,0,0,1,7.108-7.107h1.684a7.111,7.111,0,0,1,7.108,7.107v7.9a3.5,3.5,0,0,1-1.58,2.949v7.634a.288.288,0,0,0,.211.315,64.354,64.354,0,0,1,11.267,7.213A3.747,3.747,0,0,1,703.322,3489.1Zm-27.483,5.422a8.266,8.266,0,1,1,8.266,8.266A8.246,8.246,0,0,1,675.839,3494.519Zm3.422,1.211h3.633v3.633h2.422v-3.633h3.633v-2.422h-3.633v-3.632h-2.422v3.632h-3.633Z" fill="#fff"/>
    </g>
  </g>
</svg>
