<svg xmlns="http://www.w3.org/2000/svg" width="73.815" height="69.384" viewBox="0 0 73.815 69.384">
  <g id="Group_1457" data-name="Group 1457" transform="translate(-474.528 -3439.298)">
    <path id="Path_168" data-name="Path 168" d="M540.454,3498.317a49.717,49.717,0,0,1-2.67,5.385.083.083,0,0,1-.143,0c-.2-.6-.967-2.67-2.13-2.52a.1.1,0,1,1-.075-.187h0a37.689,37.689,0,0,0,3.96-3.518v-2.385a6.1,6.1,0,0,0,.75-2.077c.293,0,.675-.435,1.088-1.89.547-1.928,0-2.25-.488-2.25,1.23-5.64-1.942-5.663-1.942-5.663a3.2,3.2,0,0,0-3.51-2.085,21.463,21.463,0,0,1-4.793-.045,1.5,1.5,0,0,0,.563,1.163c-2.835,1.732-2.183,5.535-1.928,6.63-.48,0-.982.367-.45,2.25.413,1.455.8,1.867,1.088,1.89a6.076,6.076,0,0,0,.75,2.077v2.415a37.789,37.789,0,0,0,3.967,3.488.075.075,0,0,1,.034.1.076.076,0,0,1-.1.034h0c-1.163-.143-1.935,1.927-2.13,2.52a.083.083,0,0,1-.113.029.081.081,0,0,1-.03-.029,49.616,49.616,0,0,1-2.67-5.385,43.1,43.1,0,0,0-6.922,4.56,2.648,2.648,0,0,0-.96,2.055v3.75h26.745v-3.75a2.654,2.654,0,0,0-.96-2.055A43.088,43.088,0,0,0,540.454,3498.317Zm-39.173,6.615a2.654,2.654,0,0,0-.96-2.055,43.1,43.1,0,0,0-6.922-4.56,49.711,49.711,0,0,1-2.67,5.385.083.083,0,0,1-.143,0c-.2-.6-.967-2.67-2.13-2.52a.075.075,0,1,1-.067-.135h0a37.676,37.676,0,0,0,3.96-3.517v-2.438a6.118,6.118,0,0,0,.75-2.077c.292,0,.675-.435,1.087-1.89.548-1.928,0-2.25-.487-2.25,1.23-5.64-1.943-5.663-1.943-5.663a3.194,3.194,0,0,0-3.51-2.085,21.454,21.454,0,0,1-4.792-.045,1.5,1.5,0,0,0,.547,1.163c-2.835,1.732-2.182,5.535-1.927,6.63-.48,0-.983.367-.45,2.25.412,1.455.8,1.867,1.087,1.89a6.118,6.118,0,0,0,.75,2.077v2.415a37.765,37.765,0,0,0,3.975,3.488.075.075,0,0,1,.034.1.076.076,0,0,1-.1.034h0c-1.163-.143-1.935,1.927-2.13,2.52a.083.083,0,0,1-.113.029.081.081,0,0,1-.03-.029,49.616,49.616,0,0,1-2.67-5.385,43.1,43.1,0,0,0-6.922,4.56,2.65,2.65,0,0,0-.975,2.107v3.75h26.752Zm21.563-43.02a2.878,2.878,0,0,0-1.658-2.317,13.383,13.383,0,0,0-2.4-.908,25.968,25.968,0,0,1-3.8-1.335l-.1-.067a.9.9,0,0,1-.405-.75v-1.17h0v-.39s3.5.1,5.16-1.59c0,0-2.415-.683-1.98-5.085s-.54-8.25-4.08-7.935c0,0-1.5-1.845-4.583-.683-1.05.4-3.862,1.4-3.75,7.5s-2.167,6.135-2.167,6.135,1.192,1.733,5.25,1.7v1.5a.9.9,0,0,1-.4.75l-.09.053a25.98,25.98,0,0,1-3.8,1.335,13.255,13.255,0,0,0-2.34.93,2.88,2.88,0,0,0-1.635,2.317v4.973h22.793Z" fill="#040505"/>
    <g id="Group_1456" data-name="Group 1456">
      <line id="Line_143" data-name="Line 143" y2="15.312" transform="translate(511.499 3470.279)" fill="#040505" stroke="#030504" stroke-linecap="round" stroke-miterlimit="10" stroke-width="1.5"/>
      <line id="Line_144" data-name="Line 144" y1="7.656" x2="13.261" transform="translate(498.187 3485.591)" fill="#040505" stroke="#030504" stroke-linecap="round" stroke-miterlimit="10" stroke-width="1.5"/>
      <line id="Line_145" data-name="Line 145" x1="13.261" y1="7.656" transform="translate(511.447 3485.591)" fill="#040505" stroke="#030504" stroke-linecap="round" stroke-miterlimit="10" stroke-width="1.5"/>
    </g>
  </g>
</svg>
