<svg xmlns="http://www.w3.org/2000/svg" width="130" height="130" viewBox="0 0 130 130">
  <g id="Group_2369" data-name="Group 2369" transform="translate(-1245.813 -3396.27)" opacity="0.29">
    <g id="Path_549" data-name="Path 549" fill="#00a1ed" stroke-miterlimit="10">
      <path d="M 1310.81298828125 3526.259765625 C 1302.0390625 3526.259765625 1293.527709960938 3524.54150390625 1285.515380859375 3521.15283203125 C 1281.664428710938 3519.52392578125 1277.9501953125 3517.508056640625 1274.475952148438 3515.160888671875 C 1271.03466796875 3512.836181640625 1267.798583984375 3510.166015625 1264.857666015625 3507.225341796875 C 1261.916870117188 3504.284423828125 1259.246948242188 3501.04833984375 1256.921997070313 3497.60693359375 C 1254.574951171875 3494.1328125 1252.558959960938 3490.41845703125 1250.93017578125 3486.567626953125 C 1247.54150390625 3478.55517578125 1245.8232421875 3470.0439453125 1245.8232421875 3461.27001953125 C 1245.8232421875 3452.49609375 1247.54150390625 3443.98486328125 1250.93017578125 3435.972412109375 C 1252.558959960938 3432.12158203125 1254.574951171875 3428.4072265625 1256.921997070313 3424.93310546875 C 1259.246948242188 3421.49169921875 1261.916870117188 3418.255615234375 1264.857666015625 3415.314697265625 C 1267.798583984375 3412.3740234375 1271.03466796875 3409.703857421875 1274.475952148438 3407.379150390625 C 1277.9501953125 3405.031982421875 1281.664428710938 3403.01611328125 1285.515380859375 3401.38720703125 C 1293.527709960938 3397.99853515625 1302.0390625 3396.2802734375 1310.81298828125 3396.2802734375 C 1319.5869140625 3396.2802734375 1328.098266601563 3397.99853515625 1336.110595703125 3401.38720703125 C 1339.961547851563 3403.01611328125 1343.67578125 3405.031982421875 1347.150024414063 3407.379150390625 C 1350.59130859375 3409.703857421875 1353.827392578125 3412.3740234375 1356.768310546875 3415.314697265625 C 1359.709106445313 3418.255615234375 1362.379028320313 3421.49169921875 1364.703979492188 3424.93310546875 C 1367.051025390625 3428.4072265625 1369.067016601563 3432.12158203125 1370.69580078125 3435.972412109375 C 1374.08447265625 3443.98486328125 1375.802734375 3452.49609375 1375.802734375 3461.27001953125 C 1375.802734375 3470.0439453125 1374.08447265625 3478.55517578125 1370.69580078125 3486.567626953125 C 1369.067016601563 3490.41845703125 1367.051025390625 3494.1328125 1364.703979492188 3497.60693359375 C 1362.379028320313 3501.04833984375 1359.709106445313 3504.284423828125 1356.768310546875 3507.225341796875 C 1353.827392578125 3510.166015625 1350.59130859375 3512.836181640625 1347.150024414063 3515.160888671875 C 1343.67578125 3517.508056640625 1339.961547851563 3519.52392578125 1336.110595703125 3521.15283203125 C 1328.098266601563 3524.54150390625 1319.5869140625 3526.259765625 1310.81298828125 3526.259765625 Z M 1336.023681640625 3448.868896484375 C 1336.086791992188 3448.868896484375 1336.143188476563 3448.875732421875 1336.196411132813 3448.8896484375 C 1337.059448242188 3449.103759765625 1337.618530273438 3450.325927734375 1337.770874023438 3452.330810546875 C 1337.92333984375 3454.3388671875 1337.64892578125 3456.88916015625 1336.998168945313 3459.512451171875 C 1336.390014648438 3461.971435546875 1335.509155273438 3464.240234375 1334.517944335938 3465.90087890625 C 1333.536499023438 3467.54541015625 1332.52783203125 3468.463134765625 1331.677734375 3468.48486328125 L 1331.669311523438 3468.485107421875 L 1331.667846679688 3468.493408203125 C 1331.083984375 3471.76611328125 1330.341674804688 3474.604248046875 1329.461547851563 3476.928955078125 C 1328.443481445313 3479.617919921875 1327.208374023438 3481.708740234375 1325.790649414063 3483.142822265625 C 1324.13427734375 3484.819091796875 1323.451293945313 3486.6318359375 1323.760620117188 3488.531005859375 C 1324.2177734375 3491.337890625 1326.785766601563 3493.855224609375 1328.859497070313 3495.472900390625 C 1331.105712890625 3497.22509765625 1333.271728515625 3498.328369140625 1333.293334960938 3498.339111328125 C 1333.3408203125 3498.359130859375 1337.984985351563 3500.31689453125 1338.499145507813 3500.529541015625 C 1341.527954101563 3501.83349609375 1346.0859375 3503.852294921875 1350.598510742188 3506.064208984375 L 1350.604736328125 3506.067138671875 L 1350.60986328125 3506.0625 C 1363.455688476563 3494.634765625 1370.8232421875 3478.30859375 1370.8232421875 3461.27001953125 C 1370.8232421875 3428.18017578125 1343.902709960938 3401.259765625 1310.81298828125 3401.259765625 C 1277.723266601563 3401.259765625 1250.802734375 3428.18017578125 1250.802734375 3461.27001953125 C 1250.802734375 3478.307861328125 1258.166625976563 3494.63037109375 1271.006103515625 3506.052490234375 L 1271.01123046875 3506.05712890625 L 1271.017456054688 3506.05419921875 C 1275.541625976563 3503.842041015625 1280.08349609375 3501.828857421875 1283.097045898438 3500.529541015625 C 1283.611083984375 3500.31689453125 1288.255126953125 3498.359130859375 1288.301879882813 3498.339599609375 C 1288.32421875 3498.328369140625 1290.490234375 3497.22509765625 1292.736328125 3495.472900390625 C 1294.810180664063 3493.855224609375 1297.378173828125 3491.337890625 1297.835327148438 3488.531005859375 C 1298.144653320313 3486.6318359375 1297.461669921875 3484.819091796875 1295.805297851563 3483.142822265625 C 1294.386108398438 3481.707275390625 1293.150146484375 3479.615966796875 1292.131958007813 3476.927001953125 C 1291.253662109375 3474.607666015625 1290.510498046875 3471.770263671875 1289.923095703125 3468.493408203125 L 1289.921630859375 3468.485107421875 L 1289.913208007813 3468.48486328125 C 1289.0673828125 3468.462890625 1288.060791015625 3467.54541015625 1287.07861328125 3465.90087890625 C 1286.085815429688 3464.23876953125 1285.203125 3461.969970703125 1284.592895507813 3459.512451171875 C 1283.25537109375 3454.09716796875 1283.617553710938 3449.331787109375 1285.400390625 3448.889892578125 C 1285.476196289063 3448.86962890625 1285.554809570313 3448.859619140625 1285.64111328125 3448.859619140625 C 1285.760986328125 3448.859619140625 1285.894897460938 3448.87939453125 1286.050415039063 3448.919921875 L 1286.06494140625 3448.923583984375 L 1286.063110351563 3448.90869140625 C 1285.437377929688 3443.83349609375 1285.699584960938 3440.161865234375 1286.801391601563 3438.57080078125 C 1287.957763671875 3436.9130859375 1288.909057617188 3435.589111328125 1289.748413085938 3434.42138671875 C 1291.717529296875 3431.68115234375 1293.14013671875 3429.701416015625 1295.346801757813 3426.000244140625 C 1296.567138671875 3423.94482421875 1298.927612304688 3422.15478515625 1302.362915039063 3420.6796875 C 1305.112060546875 3419.499267578125 1308.551391601563 3418.516845703125 1312.58544921875 3417.760009765625 C 1319.238647460938 3416.511962890625 1325.354125976563 3416.294921875 1325.7890625 3416.281005859375 C 1325.652099609375 3416.431396484375 1324.685668945313 3417.509033203125 1323.80908203125 3418.897216796875 C 1322.93994140625 3420.2734375 1321.984130859375 3422.245361328125 1322.366455078125 3423.82275390625 C 1322.610229492188 3424.828369140625 1323.366577148438 3425.5673828125 1324.614501953125 3426.01953125 C 1328.63916015625 3427.46728515625 1330.036499023438 3430.17041015625 1331.805419921875 3433.5927734375 C 1332.589111328125 3435.109130859375 1333.477416992188 3436.82763671875 1334.699584960938 3438.575927734375 C 1335.285034179688 3439.4189453125 1335.655639648438 3440.830322265625 1335.800903320313 3442.770751953125 C 1335.928344726563 3444.471923828125 1335.8818359375 3446.535400390625 1335.662841796875 3448.904052734375 L 1335.661499023438 3448.917724609375 L 1335.674926757813 3448.9150390625 C 1335.783447265625 3448.8935546875 1335.906372070313 3448.868896484375 1336.023681640625 3448.868896484375 Z" stroke="none"/>
      <path d="M 1310.81298828125 3526.24951171875 C 1319.585571289063 3526.24951171875 1328.095581054688 3524.531494140625 1336.106567382813 3521.143310546875 C 1339.956909179688 3519.514892578125 1343.670532226563 3517.499267578125 1347.144287109375 3515.15234375 C 1350.585083007813 3512.827880859375 1353.820678710938 3510.158447265625 1356.760986328125 3507.218017578125 C 1359.701416015625 3504.277587890625 1362.370971679688 3501.0419921875 1364.695434570313 3497.601318359375 C 1367.042236328125 3494.12744140625 1369.057861328125 3490.413818359375 1370.686279296875 3486.5634765625 C 1374.074584960938 3478.552490234375 1375.79248046875 3470.04248046875 1375.79248046875 3461.27001953125 C 1375.79248046875 3452.49755859375 1374.074584960938 3443.987548828125 1370.686279296875 3435.9765625 C 1369.057861328125 3432.126220703125 1367.042236328125 3428.41259765625 1364.695434570313 3424.938720703125 C 1362.370971679688 3421.498046875 1359.701416015625 3418.262451171875 1356.760986328125 3415.322021484375 C 1353.820678710938 3412.381591796875 1350.585083007813 3409.712158203125 1347.144287109375 3407.3876953125 C 1343.670532226563 3405.040771484375 1339.956909179688 3403.025146484375 1336.106567382813 3401.396728515625 C 1328.095581054688 3398.008544921875 1319.585571289063 3396.29052734375 1310.81298828125 3396.29052734375 C 1302.040405273438 3396.29052734375 1293.530395507813 3398.008544921875 1285.519409179688 3401.396728515625 C 1281.669067382813 3403.025146484375 1277.955444335938 3405.040771484375 1274.481689453125 3407.3876953125 C 1271.040893554688 3409.712158203125 1267.805297851563 3412.381591796875 1264.864990234375 3415.322021484375 C 1261.924560546875 3418.262451171875 1259.255004882813 3421.498046875 1256.930541992188 3424.938720703125 C 1254.583740234375 3428.41259765625 1252.568115234375 3432.126220703125 1250.939697265625 3435.9765625 C 1247.551391601563 3443.987548828125 1245.83349609375 3452.49755859375 1245.83349609375 3461.27001953125 C 1245.83349609375 3470.04248046875 1247.551391601563 3478.552490234375 1250.939697265625 3486.5634765625 C 1252.568115234375 3490.413818359375 1254.583740234375 3494.12744140625 1256.930541992188 3497.601318359375 C 1259.255004882813 3501.0419921875 1261.924560546875 3504.277587890625 1264.864990234375 3507.218017578125 C 1267.805297851563 3510.158447265625 1271.040893554688 3512.827880859375 1274.481689453125 3515.15234375 C 1277.955444335938 3517.499267578125 1281.669067382813 3519.514892578125 1285.519409179688 3521.143310546875 C 1293.530395507813 3524.531494140625 1302.040405273438 3526.24951171875 1310.81298828125 3526.24951171875 M 1336.023681640625 3448.879150390625 C 1335.907348632813 3448.879150390625 1335.784912109375 3448.903564453125 1335.677001953125 3448.925048828125 L 1335.650024414063 3448.930419921875 L 1335.652587890625 3448.903076171875 C 1335.87158203125 3446.534912109375 1335.918090820313 3444.47216796875 1335.790771484375 3442.771484375 C 1335.645629882813 3440.8330078125 1335.275634765625 3439.42333984375 1334.691284179688 3438.581787109375 C 1333.468627929688 3436.8330078125 1332.580200195313 3435.114013671875 1331.79638671875 3433.59765625 C 1330.028442382813 3430.17724609375 1328.631958007813 3427.4755859375 1324.611083984375 3426.029296875 C 1323.359619140625 3425.575927734375 1322.60107421875 3424.834228515625 1322.3564453125 3423.824951171875 C 1321.973266601563 3422.244140625 1322.93017578125 3420.269775390625 1323.800415039063 3418.8916015625 C 1324.6484375 3417.548828125 1325.580688476563 3416.496337890625 1325.765258789063 3416.2919921875 C 1325.166259765625 3416.312255859375 1319.137573242188 3416.541259765625 1312.58740234375 3417.770263671875 C 1308.553955078125 3418.52685546875 1305.115356445313 3419.509033203125 1302.366943359375 3420.68896484375 C 1298.933715820313 3422.1630859375 1296.574829101563 3423.951904296875 1295.355590820313 3426.005615234375 C 1293.148681640625 3429.70703125 1291.725952148438 3431.68701171875 1289.756713867188 3434.42724609375 C 1288.917358398438 3435.59521484375 1287.966186523438 3436.9189453125 1286.809814453125 3438.57666015625 C 1285.709350585938 3440.165771484375 1285.44775390625 3443.834716796875 1286.0732421875 3448.907470703125 L 1286.076904296875 3448.937255859375 L 1286.0478515625 3448.9296875 C 1285.89306640625 3448.889404296875 1285.760131835938 3448.869873046875 1285.64111328125 3448.869873046875 C 1285.555786132813 3448.869873046875 1285.477905273438 3448.879638671875 1285.40283203125 3448.899658203125 C 1283.62548828125 3449.34033203125 1283.2666015625 3454.10009765625 1284.602905273438 3459.510009765625 C 1285.212768554688 3461.966552734375 1286.09521484375 3464.234375 1287.08740234375 3465.895751953125 C 1288.067626953125 3467.536865234375 1289.0712890625 3468.452880859375 1289.913452148438 3468.474609375 L 1289.93017578125 3468.47509765625 L 1289.93310546875 3468.491455078125 C 1290.520385742188 3471.767822265625 1291.263427734375 3474.604736328125 1292.141479492188 3476.92333984375 C 1293.1591796875 3479.611083984375 1294.394287109375 3481.701171875 1295.8125 3483.135498046875 C 1297.471313476563 3484.814208984375 1298.1552734375 3486.630126953125 1297.845458984375 3488.53271484375 C 1297.3876953125 3491.3427734375 1294.81787109375 3493.8623046875 1292.74267578125 3495.48095703125 C 1290.495727539063 3497.23388671875 1288.328857421875 3498.33740234375 1288.305908203125 3498.348876953125 C 1288.259033203125 3498.36865234375 1283.614990234375 3500.326171875 1283.10107421875 3500.538818359375 C 1280.087646484375 3501.838134765625 1275.5458984375 3503.851318359375 1271.02197265625 3506.063232421875 L 1271.009643554688 3506.0693359375 L 1270.999389648438 3506.060302734375 C 1258.157592773438 3494.635986328125 1250.79248046875 3478.310791015625 1250.79248046875 3461.27001953125 C 1250.79248046875 3428.174560546875 1277.717529296875 3401.24951171875 1310.81298828125 3401.24951171875 C 1343.908447265625 3401.24951171875 1370.83349609375 3428.174560546875 1370.83349609375 3461.27001953125 C 1370.83349609375 3478.3115234375 1363.464721679688 3494.640380859375 1350.616577148438 3506.0703125 L 1350.606323242188 3506.079345703125 L 1350.593994140625 3506.0732421875 C 1346.08154296875 3503.861572265625 1341.523803710938 3501.8427734375 1338.495239257813 3500.538818359375 C 1337.981079101563 3500.326171875 1333.3369140625 3498.36865234375 1333.288696289063 3498.348388671875 C 1333.26708984375 3498.33740234375 1331.10009765625 3497.23388671875 1328.853271484375 3495.48095703125 C 1326.778076171875 3493.8623046875 1324.208251953125 3491.3427734375 1323.75048828125 3488.53271484375 C 1323.440673828125 3486.630126953125 1324.124633789063 3484.814208984375 1325.783447265625 3483.135498046875 C 1327.200073242188 3481.702392578125 1328.434448242188 3479.613037109375 1329.452026367188 3476.92529296875 C 1330.331909179688 3474.60107421875 1331.073974609375 3471.763671875 1331.657836914063 3468.491455078125 L 1331.660766601563 3468.47509765625 L 1331.677490234375 3468.474609375 C 1332.52392578125 3468.452880859375 1333.529541015625 3467.536865234375 1334.509155273438 3465.895751953125 C 1335.499877929688 3464.23583984375 1336.380249023438 3461.968017578125 1336.988159179688 3459.510009765625 C 1337.638793945313 3456.8876953125 1337.9130859375 3454.33837890625 1337.760620117188 3452.33154296875 C 1337.608642578125 3450.331298828125 1337.05224609375 3449.112548828125 1336.193725585938 3448.899658203125 C 1336.141479492188 3448.8857421875 1336.0859375 3448.879150390625 1336.023681640625 3448.879150390625 M 1310.81298828125 3526.27001953125 C 1274.912963867188 3526.27001953125 1245.81298828125 3497.169921875 1245.81298828125 3461.27001953125 C 1245.81298828125 3425.3701171875 1274.912963867188 3396.27001953125 1310.81298828125 3396.27001953125 C 1346.713012695313 3396.27001953125 1375.81298828125 3425.3701171875 1375.81298828125 3461.27001953125 C 1375.81298828125 3497.169921875 1346.713012695313 3526.27001953125 1310.81298828125 3526.27001953125 Z M 1336.023681640625 3448.858642578125 C 1336.082885742188 3448.858642578125 1336.1416015625 3448.86474609375 1336.198974609375 3448.8798828125 C 1337.993041992188 3449.324951171875 1338.35400390625 3454.090087890625 1337.008056640625 3459.514892578125 C 1335.743041992188 3464.6298828125 1333.432983398438 3468.449951171875 1331.677978515625 3468.4951171875 C 1330.60302734375 3474.52001953125 1328.828002929688 3480.0849609375 1325.797973632813 3483.14990234375 C 1318.297973632813 3490.739990234375 1333.297973632813 3498.330078125 1333.297973632813 3498.330078125 C 1333.297973632813 3498.330078125 1337.983032226563 3500.304931640625 1338.503051757813 3500.52001953125 C 1341.81298828125 3501.945068359375 1346.277954101563 3503.93505859375 1350.60302734375 3506.054931640625 C 1362.968017578125 3495.054931640625 1370.81298828125 3479.080078125 1370.81298828125 3461.27001953125 C 1370.81298828125 3428.18505859375 1343.892944335938 3401.27001953125 1310.81298828125 3401.27001953125 C 1277.733032226563 3401.27001953125 1250.81298828125 3428.18505859375 1250.81298828125 3461.27001953125 C 1250.81298828125 3479.074951171875 1258.64794921875 3495.044921875 1271.012939453125 3506.044921875 C 1275.328002929688 3503.93505859375 1279.787963867188 3501.945068359375 1283.093017578125 3500.52001953125 C 1283.613037109375 3500.304931640625 1288.297973632813 3498.330078125 1288.297973632813 3498.330078125 C 1288.297973632813 3498.330078125 1303.297973632813 3490.739990234375 1295.797973632813 3483.14990234375 C 1292.762939453125 3480.080078125 1290.993041992188 3474.52001953125 1289.912963867188 3468.4951171875 C 1288.16796875 3468.449951171875 1285.85302734375 3464.6298828125 1284.5830078125 3459.514892578125 C 1283.243041992188 3454.090087890625 1283.60302734375 3449.324951171875 1285.39794921875 3448.8798828125 C 1285.476928710938 3448.858642578125 1285.55810546875 3448.849365234375 1285.64111328125 3448.849365234375 C 1285.77392578125 3448.849365234375 1285.911499023438 3448.873046875 1286.052978515625 3448.909912109375 C 1285.512939453125 3444.530029296875 1285.54296875 3440.3701171875 1286.79296875 3438.56494140625 C 1290.66796875 3433.010009765625 1292.192993164063 3431.27001953125 1295.338012695313 3425.9951171875 C 1300.692993164063 3416.97509765625 1325.81298828125 3416.27001953125 1325.81298828125 3416.27001953125 C 1325.81298828125 3416.27001953125 1318.753051757813 3423.885009765625 1324.618041992188 3426.010009765625 C 1330.498046875 3428.125 1330.828002929688 3433.02001953125 1334.7080078125 3438.570068359375 C 1335.9580078125 3440.3701171875 1336.078002929688 3444.52490234375 1335.672973632813 3448.905029296875 C 1335.788940429688 3448.8818359375 1335.907470703125 3448.858642578125 1336.023681640625 3448.858642578125 Z" stroke="none" fill="#1a1818"/>
    </g>
  </g>
</svg>
