<svg xmlns="http://www.w3.org/2000/svg" width="24.171" height="13.99" viewBox="0 0 24.171 13.99">
  <path id="Path_17" data-name="Path 17" d="M1901.087,1305.337a4.854,4.854,0,0,0-.806.068l-.5-1.908v0l-.583-2.208a.428.428,0,0,0-.415-.32h-1.6a.43.43,0,1,0,0,.859h1.266l.228.864-7.95.469-.321-1.08h.644a.429.429,0,1,0,0-.858h-2.643a.429.429,0,0,0,0,.858h1.312l.411,1.38-1.425,2.4a4.809,4.809,0,1,0,2.56,5.169,1.484,1.484,0,0,0,2.524-1.543l5.344-5.064.318,1.207a4.81,4.81,0,1,0,1.637-.287Zm-10.7-1.02,1.349,4.536a1.481,1.481,0,0,0-.468.416,4.823,4.823,0,0,0-1.995-3.077Zm-2.984,5.4a.993.993,0,0,0-.118-.182l1.577-2.652a4.013,4.013,0,0,1,1.662,2.834Zm-.865,4.438a4.008,4.008,0,1,1,1.758-7.61l-1.577,2.653a1.075,1.075,0,0,0-.181-.017.966.966,0,1,0,.865,1.4h3.12A4.014,4.014,0,0,1,1886.535,1314.155Zm6.662-5.3a1.477,1.477,0,0,0-.735-.2c-.033,0-.065,0-.1,0l-1.446-4.86,7.929-.467.034.131Zm7.89,5.3a4.008,4.008,0,0,1-1.431-7.752l.857,3.253a.755.755,0,1,0,.831-.22l-.858-3.252a4.008,4.008,0,1,1,.6,7.971Z" transform="translate(-1881.726 -1300.966)"/>
</svg>
