<svg xmlns="http://www.w3.org/2000/svg" width="21.565" height="13.975" viewBox="0 0 21.565 13.975">
  <g id="Group_79" data-name="Group 79" transform="translate(-1646.396 -1300.974)">
    <path id="Path_18" data-name="Path 18" d="M1667.431,1304.912h-1.9c-.12-.192-.216-.36-.336-.529-.1-.12-.168-.264-.264-.384-.361-.5-1.1-1.464-1.681-2.161a2.32,2.32,0,0,0-1.873-.864h-8.4a2.279,2.279,0,0,0-1.873.864c-.553.7-1.849,2.4-1.945,2.545h0c-.12.169-.216.361-.336.529h-1.873a.543.543,0,0,0-.553.552v.648a.544.544,0,0,0,.553.553h1.152a9.462,9.462,0,0,0-.384,2.761v4.97a.543.543,0,0,0,.552.553h2.041a.544.544,0,0,0,.553-.553v-1.44c1.921.168,4.058.264,6.315.264s4.394-.1,6.315-.264v1.44a.543.543,0,0,0,.552.553h2.041a.543.543,0,0,0,.552-.553v-4.97a9.462,9.462,0,0,0-.384-2.761h1.153a.544.544,0,0,0,.552-.553v-.648A.523.523,0,0,0,1667.431,1304.912Zm-13.639,3.337-.576.769a.917.917,0,0,1-.673.336h-3.265a.4.4,0,0,1-.408-.408l.048-.6a.464.464,0,0,1,.456-.408h4.274C1653.864,1307.913,1653.936,1308.057,1653.792,1308.249Zm1.729-2.329h-4.947a.533.533,0,0,1-.528-.528.812.812,0,0,1,.168-.384c.12-.192,1.3-1.729,1.7-2.233a1.8,1.8,0,0,1,1.465-.673h2.425v.1a.544.544,0,0,0,.552.553h1.705a.544.544,0,0,0,.552-.553v-.1h2.45a1.8,1.8,0,0,1,1.464.673c.409.5.961,1.224,1.249,1.608.024.024.048.048.048.072.12.169.264.361.384.553a.812.812,0,0,1,.168.384.533.533,0,0,1-.528.528h-8.332Zm9.557,3.41h-3.29a.917.917,0,0,1-.672-.336l-.577-.769c-.144-.192-.072-.336.168-.336h4.275a.447.447,0,0,1,.456.408l.048.6A.4.4,0,0,1,1665.078,1309.33Z"/>
  </g>
</svg>
