<svg xmlns="http://www.w3.org/2000/svg" width="64.545" height="64.553" viewBox="0 0 64.545 64.553">
  <g id="Group_343" data-name="Group 343" transform="translate(-2043.869 -134.311)">
    <path id="Path_155" data-name="Path 155" d="M2046.1,156.582h-2.228v4.448h2.228v-4.448Z"/>
    <path id="Path_156" data-name="Path 156" d="M2048.325,149.907h11.139v-15.6h-15.6v15.6Zm-2.22-4.448v-8.912h11.14v11.14H2046.1Z"/>
    <path id="Path_157" data-name="Path 157" d="M2046.1,174.39v6.676h2.22v-2.228h2.228V174.39H2046.1Z"/>
    <path id="Path_158" data-name="Path 158" d="M2052.781,145.459h2.228v-6.684h-6.684v6.684h4.456Z"/>
    <path id="Path_159" data-name="Path 159" d="M2052.781,161.03h2.228v-6.675h6.675v-2.22H2046.1v2.22h2.22v2.227h2.227v-2.227h2.228v2.227h-2.228v2.228h-2.227v2.22h-2.22v2.228h4.447V161.03Z"/>
    <path id="Path_160" data-name="Path 160" d="M2050.553,178.837h2.228v2.228h-2.228Z"/>
    <path id="Path_161" data-name="Path 161" d="M2050.553,187.741h-2.228v6.676h6.684v-6.676h-4.456Z"/>
    <path id="Path_162" data-name="Path 162" d="M2055.009,165.486v-2.228h-4.456v2.228h2.228v2.22h2.228Z"/>
    <path id="Path_163" data-name="Path 163" d="M2055.009,169.934h-2.228v-2.228h-8.9v2.228h2.228v2.227h4.448v2.228h4.456v6.676h4.448v-2.228h-2.228v-2.228h2.228V174.39h-2.228v-2.228h2.228v-2.228h-4.448Z"/>
    <path id="Path_164" data-name="Path 164" d="M2055.009,183.285h-11.14v15.579h15.6v-15.6h-4.455Zm2.219,4.456v8.911h-11.139V185.513h11.139Z"/>
    <path id="Path_165" data-name="Path 165" d="M2057.228,156.582h2.228v2.228h-2.228Z"/>
    <path id="Path_166" data-name="Path 166" d="M2061.684,165.486V161.03h2.22v-2.22h2.228v-2.228h4.448v2.228h2.228v2.22h4.448v-4.448h-2.22v-2.228h-11.131v2.228h-2.22v2.228h-2.228v2.22h-4.448v2.228h4.448v2.228h-2.228v2.22h2.228v2.228h2.228v-4.448Z"/>
    <path id="Path_167" data-name="Path 167" d="M2061.684,134.328h2.228v2.228h-2.228Z"/>
    <path id="Path_168" data-name="Path 168" d="M2061.684,169.934h2.228v2.227h-2.228Z"/>
    <path id="Path_169" data-name="Path 169" d="M2063.9,167.706h2.228v2.228H2063.9Z"/>
    <path id="Path_170" data-name="Path 170" d="M2063.9,172.162h2.228v2.228H2063.9Z"/>
    <path id="Path_171" data-name="Path 171" d="M2063.9,181.065h-2.22v15.571h2.22v-2.219h4.456v2.219h-2.228v2.228h4.448v-6.676h-2.22V189.96h-2.228v2.228h-2.227v-8.9h2.227v-4.448h-2.227Z"/>
    <path id="Path_172" data-name="Path 172" d="M2066.132,176.609v2.228h2.228V174.39h-2.228Z"/>
    <path id="Path_173" data-name="Path 173" d="M2066.132,187.741h2.228v-4.456h-2.228v4.456Z"/>
    <path id="Path_174" data-name="Path 174" d="M2068.36,149.907v-2.228h-2.228v2.228H2063.9v2.228h8.9v-4.456h-2.228v2.228Z"/>
    <path id="Path_175" data-name="Path 175" d="M2072.808,178.837v-2.228h-2.228v4.456h4.456v-2.228Z"/>
    <path id="Path_176" data-name="Path 176" d="M2077.255,147.679h-2.219v4.456h4.447v-2.228h-2.228Z"/>
    <path id="Path_177" data-name="Path 177" d="M2075.036,163.258v2.228h6.675v2.22h2.22v-2.22h4.456v2.22h6.676v-4.448h-2.228V161.03h-2.22v2.228h-6.684V161.03h-6.675v2.228Z"/>
    <path id="Path_178" data-name="Path 178" d="M2077.255,176.609V174.39h-2.219v-4.456h2.219v4.456h4.456v-2.228h-2.228v-4.456h-6.675V161.03h-2.228v-2.219h-2.22v2.219h-2.228v2.228H2063.9v2.228h4.456v-2.228h2.22v4.448h-2.22v6.684h4.448v2.219h4.447Z"/>
    <path id="Path_179" data-name="Path 179" d="M2077.255,189.961v-2.22h-4.448v-4.456h-2.228v6.676h2.228v2.228h2.228v-2.228Z"/>
    <path id="Path_180" data-name="Path 180" d="M2077.255,183.285v-2.22h-2.219v4.448h4.447v-2.228Z"/>
    <path id="Path_181" data-name="Path 181" d="M2079.483,147.679v2.228h2.228v-4.448h-2.228Z"/>
    <path id="Path_182" data-name="Path 182" d="M2079.483,156.582v2.228h2.228v-4.456h-2.228Z"/>
    <path id="Path_183" data-name="Path 183" d="M2079.483,176.609h2.228v2.228h-2.228Z"/>
    <path id="Path_184" data-name="Path 184" d="M2083.931,141h-2.22v-4.447h-2.227v-2.228h-8.9v2.228h-2.22v-2.228h-2.228v2.228H2063.9v2.219h4.456v4.456h-2.228V141H2063.9v2.228h-2.22v6.676h2.22v-2.228h2.228v-2.22h2.228v2.22h2.22v-4.448h2.228v2.228h2.228v-6.684h-2.228v-2.22h4.447v2.22h2.228v4.456h2.228v2.228h2.22V141Z"/>
    <path id="Path_185" data-name="Path 185" d="M2081.711,192.188h-2.227V189.96h-2.228v2.228h-2.22v2.228h-2.228v2.22h4.448v2.228h2.228v-4.448h4.447v-2.228Z"/>
    <path id="Path_186" data-name="Path 186" d="M2086.159,138.775v-2.219h-2.228V141h2.228Z"/>
    <path id="Path_187" data-name="Path 187" d="M2083.931,196.636h-2.22v2.228h4.448v-4.447h-2.228Z"/>
    <path id="Path_188" data-name="Path 188" d="M2086.159,145.459h4.456V141h-4.456v4.456Z"/>
    <path id="Path_189" data-name="Path 189" d="M2088.387,189.961h-4.456v2.228h2.228v2.228h2.228v-4.456Z"/>
    <path id="Path_190" data-name="Path 190" d="M2088.387,138.775h2.228v-4.448h-4.456v2.228h2.228Z"/>
    <path id="Path_191" data-name="Path 191" d="M2088.387,149.907v2.228h2.228v-4.456h-2.228Z"/>
    <path id="Path_192" data-name="Path 192" d="M2088.387,194.416h2.228v2.228h-2.228Z"/>
    <path id="Path_193" data-name="Path 193" d="M2090.615,192.188v2.228h2.22v4.448h2.227v-6.676h-4.447Z"/>
    <path id="Path_194" data-name="Path 194" d="M2092.835,183.285h2.227v2.228h-2.227Z"/>
    <path id="Path_195" data-name="Path 195" d="M2097.29,161.03v-2.22h-2.227v-2.228h6.675v-2.227h-2.228v-2.22h-4.447v2.22h-8.9v-8.9h-2.228v6.676h-2.22v2.219h2.22v2.228h8.9v4.448h4.455Z"/>
    <path id="Path_196" data-name="Path 196" d="M2097.29,163.258v2.228h4.448v-2.228h-4.448Z"/>
    <path id="Path_197" data-name="Path 197" d="M2097.29,172.162h2.228v2.228h-2.228Z"/>
    <path id="Path_198" data-name="Path 198" d="M2099.51,138.775h-2.219v6.684h6.676v-6.684h-4.457Z"/>
    <path id="Path_199" data-name="Path 199" d="M2099.51,158.81h2.228v2.228h-2.228Z"/>
    <path id="Path_200" data-name="Path 200" d="M2101.738,178.837v-2.228h-4.456v2.228h-2.228v-6.683H2090.6v-2.228h-2.227v2.228h-2.228v-2.228h-2.228v4.455h-2.228v2.228h4.456v-2.228h2.228v2.228h-2.228v4.456h2.228v2.228h-2.228v2.228h-2.228v-6.684h-2.228v2.228h-2.228v2.228h2.228v2.228h-2.228v4.456h2.228v-2.228h6.684v2.228h6.683v2.228h2.228v-2.228h2.228v2.228h-2.228v6.659h2.228v-2.228h2.228v-6.683h2.228v-2.228h-2.228V185.5h-2.228v-2.228h2.228v-2.228h2.228v-2.228h-2.228Zm-11.123-4.447h2.228v4.456h-2.228Zm6.675,11.123v2.228h-6.683v-6.684h6.683Z"/>
    <path id="Path_201" data-name="Path 201" d="M2101.738,196.636h2.228v2.228h-2.228Z"/>
    <path id="Path_202" data-name="Path 202" d="M2106.186,158.81h-2.22v2.22h-2.228v2.228h4.448v2.228h2.228V161.03h-2.228Z"/>
    <path id="Path_203" data-name="Path 203" d="M2103.966,169.934h-2.228v-2.228h-2.228v4.455h2.228v2.228h6.676v-4.455h-4.448Z"/>
    <path id="Path_204" data-name="Path 204" d="M2106.186,194.416v-2.228h-2.22v4.448h2.22Z"/>
    <path id="Path_205" data-name="Path 205" d="M2106.186,134.328h-13.368v15.6h15.6v-15.6Zm0,4.447v8.912h-11.14v-11.14h11.14Z"/>
    <path id="Path_206" data-name="Path 206" d="M2106.186,154.355v2.227h2.228v-4.447h-2.228Z"/>
    <path id="Path_207" data-name="Path 207" d="M2106.186,181.065h-2.22v2.22h4.448v-4.448h-2.228Z"/>
    <path id="Path_208" data-name="Path 208" d="M2106.186,185.513h2.228v2.228h-2.228Z"/>
  </g>
</svg>
