<svg xmlns="http://www.w3.org/2000/svg" width="13.828" height="16.124" viewBox="0 0 13.828 16.124">
  <path id="Path_19" data-name="Path 19" d="M1789.024,1312.718a2.88,2.88,0,0,0,1.7-3.021l-1.151-8.557a2.31,2.31,0,0,0-2.28-1.995h-6.907a2.311,2.311,0,0,0-2.282,1.994l-1.151,8.558a2.88,2.88,0,0,0,1.706,3.021l-1.558,1.561a.575.575,0,0,0,.8.828l.015-.014,2.134-2.134h7.582l2.133,2.134a.576.576,0,1,0,.828-.8l-.014-.014Zm-9.95-10.119h9.539l.617,4.6h-10.773Zm1.316,8.634a1.151,1.151,0,1,1,1.151-1.152A1.151,1.151,0,0,1,1780.39,1311.233Zm5.756-1.152a1.151,1.151,0,1,1,1.151,1.152A1.151,1.151,0,0,1,1786.146,1310.081Z" transform="translate(-1776.929 -1299.145)"/>
</svg>
