<svg xmlns="http://www.w3.org/2000/svg" viewBox="0 0 26.69 22.87"><defs><style>.cls-1{fill:#808285;}</style></defs><g id="Layer_2" data-name="Layer 2"><g id="Layer_1-2" data-name="Layer 1"><circle class="cls-1" cx="2.15" cy="11.6" r="1.29"/><path class="cls-1" d="M3.27,22.23V17.88h.2a.83.83,0,0,0,.83-.83h0v-3a.83.83,0,0,0-.83-.82H.83a.83.83,0,0,0-.83.82v3a.83.83,0,0,0,.83.83H1v4.35a.63.63,0,0,0,.64.64h1A.63.63,0,0,0,3.27,22.23Z"/><circle class="cls-1" cx="7.75" cy="11.6" r="1.29"/><path class="cls-1" d="M8.87,22.23V17.88h.2a.83.83,0,0,0,.83-.83h0v-3a.83.83,0,0,0-.83-.82H6.43a.83.83,0,0,0-.83.82v3a.83.83,0,0,0,.82.83h.21v4.35a.63.63,0,0,0,.63.64h1A.63.63,0,0,0,8.87,22.23Z"/><circle class="cls-1" cx="13.35" cy="11.6" r="1.29"/><path class="cls-1" d="M14.47,22.23V17.92s0,0,0,0h.21a.83.83,0,0,0,.82-.83h0v-3a.82.82,0,0,0-.82-.82H12a.82.82,0,0,0-.82.82v3a.83.83,0,0,0,.82.83h.21s0,0,0,0v4.31a.64.64,0,0,0,.64.64h1A.64.64,0,0,0,14.47,22.23Z"/><circle class="cls-1" cx="18.94" cy="11.6" r="1.29"/><path class="cls-1" d="M20.07,22.23V17.92s0,0,0,0h.21a.83.83,0,0,0,.82-.83h0v-3a.82.82,0,0,0-.82-.82H17.62a.83.83,0,0,0-.83.82v3a.83.83,0,0,0,.83.83h.2v4.35a.64.64,0,0,0,.64.64h1A.64.64,0,0,0,20.07,22.23Z"/><circle class="cls-1" cx="24.54" cy="11.6" r="1.29"/><path class="cls-1" d="M25.87,13.24H23.22a.83.83,0,0,0-.83.82v3a.83.83,0,0,0,.83.83h.2v4.35a.63.63,0,0,0,.64.64h1a.63.63,0,0,0,.64-.64V17.88h.2a.83.83,0,0,0,.83-.83h0v-3A.82.82,0,0,0,25.87,13.24Z"/><circle class="cls-1" cx="7.75" cy="6.44" r="1.29"/><circle class="cls-1" cx="13.35" cy="6.44" r="1.29"/><circle class="cls-1" cx="13.35" cy="1.29" r="1.29"/><circle class="cls-1" cx="18.94" cy="6.44" r="1.29"/><circle class="cls-1" cx="4.95" cy="9.02" r="1.29"/><circle class="cls-1" cx="10.55" cy="9.02" r="1.29"/><circle class="cls-1" cx="16.14" cy="9.02" r="1.29"/><circle class="cls-1" cx="10.55" cy="3.87" r="1.29"/><circle class="cls-1" cx="16.14" cy="3.87" r="1.29"/><circle class="cls-1" cx="21.74" cy="9.02" r="1.29"/></g></g></svg>