<svg xmlns="http://www.w3.org/2000/svg" viewBox="0 0 15.74 18"><defs><style>.cls-1{fill:#bdbec1;}</style></defs><g id="Layer_2" data-name="Layer 2"><g id="Layer_1-2" data-name="Layer 1"><circle class="cls-1" cx="2.18" cy="6.54" r="1.31"/><path class="cls-1" d="M3.32,17.35V12.93h.21a.85.85,0,0,0,.84-.84h0v-3a.85.85,0,0,0-.84-.84H.84A.85.85,0,0,0,0,9.05v3a.85.85,0,0,0,.84.84h.21v4.42a.65.65,0,0,0,.65.65h1A.65.65,0,0,0,3.32,17.35Z"/><circle class="cls-1" cx="7.87" cy="6.54" r="1.31"/><path class="cls-1" d="M9,17.35V12.93h.2a.84.84,0,0,0,.84-.84h0v-3a.84.84,0,0,0-.84-.84H6.53a.84.84,0,0,0-.84.84v3a.84.84,0,0,0,.84.84h.2v4.42a.65.65,0,0,0,.65.65h1A.65.65,0,0,0,9,17.35Z"/><circle class="cls-1" cx="13.56" cy="6.54" r="1.31"/><path class="cls-1" d="M14.9,8.21H12.21a.85.85,0,0,0-.84.84v3a.85.85,0,0,0,.84.84h.21v4.42a.65.65,0,0,0,.64.65h1a.65.65,0,0,0,.65-.65V12.93h.21a.85.85,0,0,0,.84-.84h0v-3A.84.84,0,0,0,14.9,8.21Z"/><circle class="cls-1" cx="7.87" cy="1.31" r="1.31"/><circle class="cls-1" cx="5.03" cy="3.93" r="1.31"/><circle class="cls-1" cx="10.71" cy="3.93" r="1.31"/></g></g></svg>