<svg xmlns="http://www.w3.org/2000/svg" viewBox="0 0 21 20"><defs><style>.cls-1{fill:#d1d3d4;fill-rule:evenodd;}</style></defs><g id="Layer_2" data-name="Layer 2"><g id="Layer_1-2" data-name="Layer 1"><path class="cls-1" d="M0,20V0H21V20ZM20,6H1V19H20V6ZM4,12H2V10H4v2Zm0,3H2V13H4v2Zm0,3H2V16H4v2ZM7,9H5V7H7V9Zm0,3H5V10H7v2Zm0,3H5V13H7v2Zm0,3H5V16H7v2Zm3-9H8V7h2V9Zm0,3H8V10h2v2Zm0,3H8V13h2v2Zm0,3H8V16h2v2Zm3-9H11V7h2V9Zm0,3H11V10h2v2Zm0,3H11V13h2v2Zm0,3H11V16h2v2Zm3-9H14V7h2V9Zm0,3H14V10h2v2Zm0,3H14V13h2v2Zm3-6H17V7h2V9Zm0,3H17V10h2v2Zm0,3H17V13h2v2Z"/></g></g></svg>