<svg xmlns="http://www.w3.org/2000/svg" viewBox="0 0 30.93 30.93"><defs><style>.cls-1{fill:#00a651;stroke:#010201;stroke-miterlimit:10;stroke-width:0.02px;}</style></defs><g id="Layer_2" data-name="Layer 2"><g id="Layer_1-2" data-name="Layer 1"><path class="cls-1" d="M22.24,10.4,13,19.13l-3.83-4a1.64,1.64,0,1,0-2.37,2.26h0l5,5.17a1.57,1.57,0,0,0,1.13.49,1.53,1.53,0,0,0,1.13-.43l10.4-9.86a1.62,1.62,0,0,0,.06-2.27,1.56,1.56,0,0,0-2.21-.1Z"/><path class="cls-1" d="M15.47,0A15.46,15.46,0,1,0,30.92,15.47,15.46,15.46,0,0,0,15.47,0Zm0,28.39A12.94,12.94,0,1,1,28.4,15.47h0A12.93,12.93,0,0,1,15.47,28.4Z"/></g></g></svg>