<svg xmlns="http://www.w3.org/2000/svg" viewBox="0 0 31.15 31.15"><defs><style>.cls-1{fill:red;}</style></defs><g id="Layer_2" data-name="Layer 2"><g id="Layer_1-2" data-name="Layer 1"><path class="cls-1" d="M15.58,0A15.58,15.58,0,1,0,31.15,15.58,15.6,15.6,0,0,0,15.58,0Zm0,28.86A13.28,13.28,0,1,1,28.86,15.58,13.29,13.29,0,0,1,15.58,28.86Z"/><path class="cls-1" d="M17.55,15.58,23,10.17a1.39,1.39,0,0,0,0-2,1.41,1.41,0,0,0-2,0l-5.4,5.41L10.17,8.19a1.4,1.4,0,0,0-2,2l5.41,5.41L8.19,21a1.4,1.4,0,0,0,2,2l5.41-5.41L21,23a1.4,1.4,0,0,0,2-2Z"/></g></g></svg>