<svg xmlns="http://www.w3.org/2000/svg" viewBox="0 0 115.95 126.49"><defs><style>.cls-1{fill:#fff;}.cls-2{fill:#9fa5ac;}.cls-3{fill:#fefefe;}.cls-4{fill:#252b32;}.cls-5{fill:#576878;}.cls-6{fill:#ddbcac;}.cls-7{fill:#ddbdad;}.cls-8{fill:#caa694;}.cls-9{fill:#fbfbfa;}.cls-10{fill:#dfe2e5;}.cls-11{fill:#faf9f6;}.cls-12{fill:#d4d8da;}.cls-13{fill:#debcac;}.cls-14{fill:#d9ddda;}.cls-15{fill:#dbdadb;}.cls-16{fill:#d1d7db;}.cls-17{fill:#917055;}.cls-18{fill:#e6e8eb;}.cls-19{fill:#cf9772;}.cls-20{fill:#c9a696;}.cls-21{fill:#e8e8ea;}.cls-22{fill:#e0c5b1;}.cls-23{fill:#c1a296;}.cls-24{fill:#545a62;}.cls-25{fill:#d7d1cf;}.cls-26{fill:#786560;}.cls-27{fill:#5b6575;}.cls-28{fill:#fefffe;}.cls-29{fill:#d0b6ac;}.cls-30{fill:#202327;}.cls-31{fill:#878d97;}.cls-32{fill:#c3a9a5;}.cls-33{fill:#727173;}.cls-34{fill:#292a32;}.cls-35{fill:#836b5b;}.cls-36{fill:#6f6763;}.cls-37{fill:#252729;}.cls-38{fill:#573225;}.cls-39{fill:#513827;}.cls-40{fill:#111315;}.cls-41{fill:#282424;}.cls-42{fill:#262a30;}.cls-43{fill:#858c96;}.cls-44{fill:#848b94;}.cls-45{fill:#555d63;}.cls-46{fill:#232b30;}.cls-47{fill:#25292e;}.cls-48{fill:#c2b8b6;}.cls-49{fill:#292d32;}.cls-50{fill:#232a2c;}.cls-51{fill:#282e33;}.cls-52{fill:#24282d;}.cls-53{fill:#676f75;}.cls-54{fill:#242930;}.cls-55{fill:#24292f;}.cls-56{fill:#898f99;}.cls-57{fill:#70777f;}.cls-58{fill:#828892;}.cls-59{fill:#999fa8;}.cls-60{fill:#2e3338;}.cls-61{fill:#8d939d;}.cls-62{fill:#6b727a;}.cls-63{fill:#2d3235;}.cls-64{fill:#656c73;}.cls-65{fill:#282d31;}.cls-66{fill:#181b1f;}.cls-67{fill:#282e31;}.cls-68{fill:#272c30;}.cls-69{fill:#21262b;}.cls-70{fill:#262a2f;}.cls-71{fill:#626970;}.cls-72{fill:#222730;}.cls-73{fill:#30241f;}.cls-74{fill:#7c6968;}.cls-75{fill:#282a31;}.cls-76{fill:#f9f8f6;}.cls-77{fill:#f7f6f2;}.cls-78{fill:#9a7263;}.cls-79{fill:#596371;}.cls-80{fill:#e5e6ea;}.cls-81{fill:#282c33;}.cls-82{fill:#23282f;}.cls-83{fill:#252a30;}.cls-84{fill:#262930;}.cls-85{fill:#252930;}.cls-86{fill:#232930;}.cls-87{fill:#25292f;}.cls-88{fill:#222a2d;}.cls-89{fill:#25282e;}.cls-90{fill:#262b32;}.cls-91{fill:#23262d;}.cls-92{fill:#24282f;}.cls-93{fill:#24282e;}.cls-94{fill:#24292e;}.cls-95{fill:#312e33;}.cls-96{fill:#a3a9b3;}.cls-97{fill:#697179;}.cls-98{fill:#9197a2;}.cls-99{fill:#23292e;}.cls-100{fill:#8b8e97;}.cls-101{fill:#3f362c;}.cls-102{fill:#252627;}.cls-103{fill:#372d2b;}.cls-104{fill:#c1c3cd;}.cls-105{fill:#372c28;}.cls-106{fill:#262a31;}.cls-107{fill:#b3b8c2;}.cls-108{fill:#8a919b;}.cls-109{fill:#262b31;}.cls-110{fill:#24272e;}.cls-111{fill:#272b31;}.cls-112{fill:#252a31;}.cls-113{fill:#966856;}.cls-114{fill:#ad6f55;}.cls-115{fill:#fdfdfd;}.cls-116{fill:#332624;}.cls-117{fill:#b0c4d2;}.cls-118{fill:#557688;}</style></defs><g id="Layer_2" data-name="Layer 2"><g id="Layer_1-2" data-name="Layer 1"><g id="bxGje9"><path class="cls-1" d="M115.93,63.32q0,31.23,0,62.45c0,.58-.13.72-.72.72q-57.25,0-114.51,0c-.59,0-.72-.14-.72-.72Q0,63.24,0,.72C0,.13.13,0,.72,0Q58,0,115.23,0c.59,0,.72.13.72.72Q115.92,32,115.93,63.32Z"/><path class="cls-2" d="M95.92,23.07c.1.71.6.71,1.19.7,4.36,0,8.71,0,13.06,0,1.42,0,2.85,0,4.27,0,1.18,0,1.18,0,1.18,1.21V52.19q0,19,0,37.9c0,.47.4,1.07-.06,1.37s-.92.08-1.39.09c-18.23.36-36.47.07-54.7.17a11.32,11.32,0,0,1-2.18-.17c-.81-.15-1.08.28-1.09,1A1.64,1.64,0,0,1,55,94.27c-.35.12-.53.51-.1.85,1.23,1,1.12,2.13-.27,3-.42.26-.61.73-1.09,1a25,25,0,0,1-3.33,1.73c-.57.23-1,.73-1.7.7-.23,0-.5.28-.66.59a4.19,4.19,0,0,1-1.45,1.26,4.31,4.31,0,0,0-2.07,2.52,22.9,22.9,0,0,0-.55,4.85c0,.64.51,1.14.33,1.79-.07.27.13.64-.33.77-.16,0-.17.28-.13.42.34,1-.29,1.83-.73,2.65A9.27,9.27,0,0,1,40.75,119c-.72.6-1.3,1.35-2.07,1.92-.46.33-1.08.33-1.46.81-.13.16-.43.22-.37.5a.66.66,0,0,0,.64.59c.67-.06.77.26.77.82a6.34,6.34,0,0,1,.12,1.16.72.72,0,0,1-1.26.47c-.19-.16-.49-.29-.58-.5-.45-1.07-1.37-.92-2.25-1-.56,0-.75.38-1.11.59a12.4,12.4,0,0,1-9.35,1.44,13.9,13.9,0,0,1-3.56-1.43,3.37,3.37,0,0,0-1.9-.57c-.53,0-1,.13-1.15.8s-1,.46-1.4.88c-.14.14-.62-.15-.75-.44a1.06,1.06,0,0,1,.21-1.35c.06,0,.13-.15.12-.19-.25-.67.24-.64.64-.74.17,0,.45,0,.48-.32a.5.5,0,0,0-.33-.55c-.6-.27-.93-1-1.73-1-.16,0-.35-.16-.48-.35a13.85,13.85,0,0,1-1.79-2.32c-.61-1.39-1.75-2.49-2-4.06-.24-1.23-.76-2.39-.39-3.71a17,17,0,0,1,1-3.77,8.58,8.58,0,0,0,.71-2.31c.13-.61-.68-1.21-1.39-1.16-1.41.09-2-.92-2.85-1.64-.13-.12-.25-.35-.42-.28-.44.17-.78-.09-1.16-.19a26.1,26.1,0,0,0-3.16-.67c-1.1-.16-2.24-1.79-1.44-3a9.61,9.61,0,0,0,.83-1.63,2.61,2.61,0,0,0,.21-1.82c-.07-.21-.34-.72.39-.7a.63.63,0,0,0,.42-.91,3.2,3.2,0,0,1-.22-.66c-.09-.37-.27-.42-.63-.34C.7,91.75.31,91.42.33,90,.69,69.87.4,49.75.46,29.62c0-1.68.09-3.37,0-5.06,0-.63.4-.85.73-1.19a.36.36,0,0,1,.28,0c.36.78,1.05.41,1.58.41q21.08,0,42.15,0c.23,0,.47,0,.71,0,1.12-.1,1.09-.11,1.14-1.24a16.64,16.64,0,0,1,.8-3.54,2,2,0,0,1,.8-1.35c1.08-.68.89-2.52,0-3.34a9.39,9.39,0,0,1-.83-.84c-.24-.3-.49-.62-.08-1a1,1,0,0,1,1.16-.22c1,.29,1.4,1.06,1.89,1.79.24.36.45.36.78.19a4.34,4.34,0,0,0,.77-.52c.56-.47,1-1.11,1.86-1.15.41,0,.61-.52.84-.86A11.16,11.16,0,0,1,57,9.41a3.9,3.9,0,0,1,1.68-.83A1.58,1.58,0,0,0,59.71,8a1.57,1.57,0,0,1,1.55-.66A1.93,1.93,0,0,0,63,6.49a2.44,2.44,0,0,1,2-.92c1.66-.24,3.22-1,4.93-1a1.75,1.75,0,0,0,.91-.51,4.17,4.17,0,0,1,1.74-.71A.66.66,0,0,0,73.08,3C73.84,1.12,75.53.7,77.2.35a10.41,10.41,0,0,1,5.74.5,6.25,6.25,0,0,1,1.32.81c.15.1.28.33.41.33,1.09,0,.94.73.9,1.39s.11.84.72,1a9.93,9.93,0,0,1,3.82,1.24c.24.16.51.27.65.55a12,12,0,0,1,1.47,4,17,17,0,0,0,1,3.09,15.24,15.24,0,0,1,1.05,4.91c0,.95.18,1.84-.72,2.5a.25.25,0,0,0,.08.45c.94.31,1.11,1.1,1.29,1.93.06.23-.08.7.41.73S95.49,23.19,95.92,23.07Z"/><path class="cls-3" d="M2.52,91.22c-.1,0-.21,0-.31,0-1.48.27-1.74.07-1.72-1.48.35-20.2.06-40.41.13-60.61,0-1.48.08-2.95,0-4.43a.9.9,0,0,1,.5-1c.17-.09.23-.19.36.07s.38.1.58.1H45.8c.18,0,.36,0,.55,0,.71,0,.9-.38.88-1.1A12.19,12.19,0,0,1,48,19.23a2.62,2.62,0,0,1,.86-1.49,2.51,2.51,0,0,0,0-3.59c-.27-.25-.53-.51-.77-.78s-.5-.44-.14-.79.47-.25.87-.17c1,.2,1.34,1,1.8,1.68a.75.75,0,0,0,1,.29,6.11,6.11,0,0,0,1.67-1.27,1.15,1.15,0,0,1,.58-.34c.47-.07.24.23.21.43a7.25,7.25,0,0,1-1.86,2.64,5.23,5.23,0,0,0-.87.89A3.4,3.4,0,0,0,51,18.39a5.11,5.11,0,0,1-.18,1.7,4.22,4.22,0,0,0-.52,1.62,1.53,1.53,0,0,1-.64,1,2.82,2.82,0,0,0-1,2A2.19,2.19,0,0,0,50.06,27a4.32,4.32,0,0,1,1.56,1.14,7.48,7.48,0,0,0,1.75,1.31c2.67.82,4.83,2.71,7.49,3.54.9.28,1.78.62,2.67.95a.83.83,0,0,0,.82-.06A6.75,6.75,0,0,0,66,32.34a.61.61,0,0,0-.17-1c-.55-.36-1.09-.74-1.65-1.07a23.39,23.39,0,0,1-2.27-1.81c-.16-.12-.37-.28-.29-.51s.36-.25.6-.21A20.22,20.22,0,0,0,67,28.84a12.2,12.2,0,0,0,2.42-.13,18.77,18.77,0,0,1,3-.49A.76.76,0,0,0,73,28a2.79,2.79,0,0,1,2.8-.57A5,5,0,0,0,81,25.72l.28-.27a.94.94,0,0,1,1.45-.05,1.14,1.14,0,0,0,1.39.16,16.32,16.32,0,0,1-4-1.71c-.75-.48-1.53-.91-2.31-1.35a8.64,8.64,0,0,0-3-1.18,6.51,6.51,0,0,1-3.92-2,1.52,1.52,0,0,1-.52-.86,23.94,23.94,0,0,1-.06-5.92,11.43,11.43,0,0,0,0-1.17,2.42,2.42,0,0,1,1-2.1,1,1,0,0,0,.45-1.13,2,2,0,0,1,.53-1.95.41.41,0,0,1,.11-.07c.19-.09.23-.29.29-.45a1.89,1.89,0,0,0,0-1.75c-.34-.52-.83.11-1.33.11a.69.69,0,0,1,.77-.41,1.15,1.15,0,0,0,1.14-.79c.48-1.24,1.63-1.65,2.69-2a9.31,9.31,0,0,1,5-.32,6.34,6.34,0,0,1,3.09,1.35c.12.1.24.27.36.27,1,0,1,.7.92,1.39s.16.89.78,1a10.15,10.15,0,0,1,3.74,1.21,2.29,2.29,0,0,1,.83.89A8.52,8.52,0,0,1,91.9,9.37a27.17,27.17,0,0,0,1.45,5A18.15,18.15,0,0,1,94.16,19a1.5,1.5,0,0,1-.61,1.36.57.57,0,0,0-.11.93c.07.8-.4,1.45-1.37,1.91-1.38-.07-2,1.21-3,1.73-.22.11-.12.23,0,.35.41.42.1.67-.24.85a41.28,41.28,0,0,0-6.11,4.39,32.71,32.71,0,0,0-3.65,3,1.13,1.13,0,0,1-1.14.39c-1.78-.52-3.59-.23-5.39-.29H70.15a2.67,2.67,0,0,1-1.36-.31c-.39-.22-.65-.08-.94.23a3.16,3.16,0,0,0-.66,2.41c0,.35.33.52.54.74a1.36,1.36,0,0,0,.71.46c.89.35,1.33,1.16,1.88,1.84.37.45,0,.85-.42,1.09-1,.67-2,1.48-2.94,2.21s-1,1.17-.26,2.13q1.71,2.3,3.43,4.58a7.24,7.24,0,0,1,1.07,1.34,5.65,5.65,0,0,0,1.38,1.86,1.27,1.27,0,0,1,.22.25,45.14,45.14,0,0,0,3.63,4.86,15.27,15.27,0,0,0,1,1.36c.34.46.65,1,1.36.72.19-.06.43-.22.58,0s-.07.45-.23.59c-.58.46-.47.89-.06,1.39,1.83,2.25,3.57,4.57,5.35,6.86.81,1,1.07,1.11,2.11.36,2.25-1.61,4.46-3.29,6.66-5,1.05-.78,2.12-1.53,3.13-2.35,3.21-2.4,6.42-4.79,9.62-7.2,2.44-1.85,4.9-3.68,7.32-5.56.3-.23.58-.47.51-.9s-.42-.54-.77-.68q-5-2-9.9-4a1.22,1.22,0,0,0-1.25.07c-.46.31-.87.68-1.32,1a.87.87,0,0,1-.8.21.51.51,0,0,1-.36-.39c0-.27.19-.24.36-.28a3.18,3.18,0,0,0,1.57-1.12.81.81,0,0,0,.09-1,6.37,6.37,0,0,0-1-1.59c-1.37-1.36-2.24-3.09-3.49-4.54a3.27,3.27,0,0,1-.54-2.33,17.15,17.15,0,0,0-1.11-6.14,16.63,16.63,0,0,1-.56-2.21c0-.23-.09-.46.12-.65s.75.22,1-.27a1.45,1.45,0,0,0,.79.28c1.1,0,2.2,0,3.3,0,3.59,0,7.19-.07,10.77,0,1.25,0,2.49,0,3.73,0,1,0,1,0,1,1V90.37c0,1,0,1-1,1-18.37.34-36.73.06-55.1.14-1,0-1.92-.1-2.88-.16-.25-.37.2-.68.09-1a9.27,9.27,0,0,0-.22-5.42c0-.56.23-.77.79-.59a10.94,10.94,0,0,1,1.32.47c.4.18.64,0,.79-.35,1.08-2.78,2.36-5.46,3.39-8.26.44-1.2,1-2.34,1.56-3.51a10.5,10.5,0,0,0,.44-1.34.63.63,0,0,0-.44-.86c-2.24-.86-4.45-1.82-6.67-2.74-.91-.38-1.83-.77-2.76-1.12s-.84-.31-1.12.59c-1,2.41-1.87,4.86-3,7.21a10.72,10.72,0,0,0-.57,1.24,3.49,3.49,0,0,1-.37.75c-.26.36-.55.43-.86,0a2.11,2.11,0,0,0-.85-1,47.94,47.94,0,0,1-6.13-6.61,9.63,9.63,0,0,1-1.45-3,17.23,17.23,0,0,0-1.65-3.63,1.78,1.78,0,0,0-1.27-1,1.49,1.49,0,0,1-.81-.45c-.2-.18-.45-.4-.7-.29-.74.32-1.17-.16-1.66-.53a2.42,2.42,0,0,0-1.48-.06c-.42.16-.52.38-.18.73a7.6,7.6,0,0,0,.83.67c.18.27.74.49.41.85s-.66-.09-.95-.28c-.55-.35-1-.85-1.54-1.19-.29-.17-.72-.49-.66.29,0,.35-.29.38-.54.44a8.9,8.9,0,0,0-2.37,1,4.89,4.89,0,0,0-1.14.93,1.64,1.64,0,0,1-.26.2,3.23,3.23,0,0,0-1,.78,3.09,3.09,0,0,1-.43.37c-.18.09-.37.28-.57.13s-.06-.38,0-.57c.19-.58.45-1.12.68-1.68a1.86,1.86,0,0,0,.18-.83c0-.24.12-.59-.22-.68s-.45.2-.62.4a5.43,5.43,0,0,0-.63,1.25c-.19.36-.39.88-.88.74s-.29-.66-.31-1a1,1,0,0,1,.46-1c.38-.21.28-.51.08-.8a1.59,1.59,0,0,0-1.8-.6,6.23,6.23,0,0,0-1.72.93c-.62.44-1.22.9-1.88,1.28a1.71,1.71,0,0,0-.72,1.64,24.22,24.22,0,0,1-.28,4.07,9.49,9.49,0,0,1-1.69,4,43.66,43.66,0,0,1-3.93,4.68c-2.36,2.41-4.74,4.79-7,7.34a6.75,6.75,0,0,0-1.61,6.19C2.66,90.47,2.86,90.87,2.52,91.22Z"/><path class="cls-4" d="M17,122.21a18.14,18.14,0,0,0-2.64-1.89,7.51,7.51,0,0,1-2.17-2.72c-.52-1-1-2-1.46-3a9.08,9.08,0,0,1,.1-6.74c.31-.89.64-1.77,1-2.65a1.39,1.39,0,0,0-.79-2c-.6-.31-1.25-.52-1.87-.79a23.54,23.54,0,0,0-4.07-1.9c-.77-.18-1.54-.3-2.3-.5-1.35-.35-1.68-1-1.33-2.32a27.24,27.24,0,0,0,1.08-3c-.11-.18-.11-.32.15-.34A12.32,12.32,0,0,0,3.78,92a5.17,5.17,0,0,1,4.29-3.68,20.32,20.32,0,0,1,2.81.11A15,15,0,0,0,15,88.18a19.36,19.36,0,0,0,2.12-.54,17,17,0,0,1,5-.7,5.88,5.88,0,0,0,.93-.1c.65-.06.87.26.58.86a4,4,0,0,1-.82,1.15c-.42.42-.85.84-1.27,1.28a2.34,2.34,0,0,0-.23,3.32,6.57,6.57,0,0,0,3.43,2.24,13.17,13.17,0,0,0,4.71.7c1.34,0,2.67,0,4,0A5.17,5.17,0,0,0,36.92,95a3.79,3.79,0,0,0,.13-5.37c-.34-.4-.77-.72-1.07-1.15a.85.85,0,0,1-.16-1c.19-.34.53-.24.84-.19,1.81.33,3.66.19,5.44.69a15,15,0,0,0,1.6.4,3.52,3.52,0,0,0,2.14-.26,3.49,3.49,0,0,1,3.23.08c2.49,1.18,3.86,3.29,5.09,5.58a.63.63,0,0,1,.08.38,3.57,3.57,0,0,0,.65,1.29A1.82,1.82,0,0,1,54.43,98c-2,1.27-4.21,2.21-6.19,3.48a37.16,37.16,0,0,0-3.62,2.68,3,3,0,0,0-.87,2.29,34.62,34.62,0,0,0-.18,4.55c.32,3.86-1.5,6.67-4.35,9-.92.74-1.84,1.49-2.82,2.14a5.67,5.67,0,0,1-2.69.77c-2.14.21-4.29-.17-6.43.19a49.66,49.66,0,0,1-6.56.59,3.72,3.72,0,0,1-3.38-1.26,1.06,1.06,0,0,0-.33-.19Z"/><path class="cls-5" d="M70.63,18.58c.17.21.23.51.5.65a4.84,4.84,0,0,0,2,2.51,2.27,2.27,0,0,1,.77,1.66c.13.87.22.91,1,.56a2.75,2.75,0,0,1,1.83-.13c1.45.33,2.81,1,4.34,1,.37,0,.69.16.44.65a5.05,5.05,0,0,1-5.7,2.12,2.63,2.63,0,0,0-2.88.66.61.61,0,0,1-.56.23,5.63,5.63,0,0,0-2.37.35,12,12,0,0,1-6.56-.53,4.49,4.49,0,0,1-1.3-.47,14,14,0,0,1-1.53-.55,2.65,2.65,0,0,0-3.58,1c-.06.08,0,0,0,.06-1.22,2-1.68,1.77-3.59,1.24a2.94,2.94,0,0,1-1.27-.76,11.41,11.41,0,0,0-2.55-1.91,2.54,2.54,0,0,1-.42-3.83c.58-.66,1.19-1.23,1.12-2.21,0-.24.26-.49.4-.74A3.42,3.42,0,0,0,51,18.34a4,4,0,0,1,.3-1.82A17.53,17.53,0,0,0,54.1,13.2a6.94,6.94,0,0,0,1.81-2A3.2,3.2,0,0,1,57.6,9.78c0-.39.4-.34.62-.48,1-.44,1.81-1.22,2.85-1.58a16.48,16.48,0,0,0,3-1.24A.84.84,0,0,1,65,6.15a38.62,38.62,0,0,0,6.08-1.61c.24-.1.49-.18.74-.27.87-.32.94-.29.9.65a10.39,10.39,0,0,1-.17,1.23h0a2.33,2.33,0,0,0-.45,2.33c.16.44-.2.64-.46.81a2.37,2.37,0,0,0-1.07,2.12c-.08,1.67-.24,3.34-.21,5A5.47,5.47,0,0,0,70.63,18.58Z"/><path class="cls-6" d="M54.24,94.24c-.83-1.08-1.37-2.34-2.22-3.41a9.94,9.94,0,0,0-3.72-2.67,2.35,2.35,0,0,0-2.13.11,3.76,3.76,0,0,1-3.26.23c-2.14-.78-4.41-.52-6.58-1-.48-.1-.55.17-.37.56a3,3,0,0,0,.86,1.1A4,4,0,0,1,35,96.29c-4,.73-8.21.87-12-1.16a4.14,4.14,0,0,1-2.44-3.08,2.43,2.43,0,0,1,1-2.25,8.09,8.09,0,0,0,1.91-2.17c.08-.15.28-.3.16-.49s-.38-.11-.57-.09a31.65,31.65,0,0,0-5.82.75.18.18,0,0,1,0-.24,8,8,0,0,1,3.71-.76c.71,0,1.4-.13,2.11-.2a1.09,1.09,0,0,0,1-1c.18-1,.36-1.92-.57-2.66a.62.62,0,0,1-.25-.55c.31-.36.51,0,.68.14a11.11,11.11,0,0,1,1.46,1.53,20.36,20.36,0,0,0,2.21,2.43,3.26,3.26,0,0,0,1.1.73,1,1,0,0,0,1.15-.17,2.73,2.73,0,0,1,1.83-.76,4.11,4.11,0,0,0,3-1.42c.22-.27.44-.7.94-.51a2.3,2.3,0,0,1,.19,1.37c-.08,1.07.17,1.39,1.22,1.49a26,26,0,0,0,2.66.2,10.11,10.11,0,0,1,3.07.62,4.22,4.22,0,0,0,3.2-.12,3.56,3.56,0,0,1,1.76-.34c.28,0,.61.13.75-.24a.74.74,0,0,0-.25-.85,14.29,14.29,0,0,1-2.34-3.13,49.6,49.6,0,0,1-2.34-4.45,27.63,27.63,0,0,0-2.69-4.69,8.17,8.17,0,0,0-.78-.88.94.94,0,0,1-.1-.23,13.83,13.83,0,0,0-.88-4.26,6.85,6.85,0,0,1,.62-.9,1.09,1.09,0,0,0-.22-1.48c-.09-.08-.14-.26-.3-.17-.65.39-.78-.14-.89-.55a1.2,1.2,0,0,0-.94-.85,1.35,1.35,0,0,1-.94-.84c-.23-.47-.32-.86.34-1a.46.46,0,0,0,.14-.07c.23-.27.77-.36.72-.74s-.53-.2-.81-.3-.6-.42-.95-.53c-.61-.2-.89,0-.84.61,0,.42-.1.82-.07,1.23-.61.12-.83-.28-1-.75a.78.78,0,0,0-.59-1.16,2.37,2.37,0,0,1-.86-.61c-.53-.54-.51-.64.23-1a4.38,4.38,0,0,1,1.73,0c.44.35.82.89,1.5.48a.31.31,0,0,1,.31,0c.93.86,2.35.93,3,2.35.78,1.65,1.26,3.4,2.09,5a13.19,13.19,0,0,0,1.93,2.73,65.64,65.64,0,0,0,4.86,5c.22.34.57.57.77.92s.46.37.65,0c.12-.25.22-.51.33-.76a.15.15,0,0,1,.2,0c.13.63-.27,1.25,0,1.88-.11.21-.25.4-.37.6a.44.44,0,0,1-.67.19,3.26,3.26,0,0,1-1.26-1c-.36-.7-.91-1.28-1.27-2a1.32,1.32,0,0,0-.42-.56,4.62,4.62,0,0,1-1.75-1.76c-.34-.53-1-.52-1.48-.84s-.75-.54-.64-1.12-.32-.86-.5-1.29c0-.12-.16-.23-.31-.17s-.25.29-.17.39a2.49,2.49,0,0,1,.26,1.77.65.65,0,0,0,.09.3,22.42,22.42,0,0,1,1.8,4.22c.08.23.2.5.42.55.79.18,1.18.92,1.86,1.25a.59.59,0,0,1,.29.35,2,2,0,0,0,.94,1c.63.36.59.9,0,1.25-.94.52-1,.86-.19,1.59a5.69,5.69,0,0,0,.61.49,2.07,2.07,0,0,1,1,1.55,1.36,1.36,0,0,0,.39.91c.26-.15.22-.41.26-.63.08-.56.38-.71.88-.54A2.06,2.06,0,0,1,51,86.35a1.61,1.61,0,0,0,1,2.33,2.45,2.45,0,0,1,1.33,2.07A1.67,1.67,0,0,0,54.08,92c.32.23.52.13.77-.19,1.18-1.52.95-3.3.95-5a.58.58,0,0,0-.29-.53,1.35,1.35,0,0,1-.81-1.39.67.67,0,0,0-.08,1,1.33,1.33,0,0,1,.27,1.18A1.62,1.62,0,0,0,55,88.2c.15.28.3.64-.15.77a.57.57,0,0,1-.75-.5,3.29,3.29,0,0,0-.39-1.1,2.31,2.31,0,0,0-.64-.68c-.38-.25-.53-.52-.24-1s0-1-.19-1.42a1.3,1.3,0,0,1,.43-1.54c.28-.29.53-.3.77,0a2.36,2.36,0,0,0,.77.77c.43.26.55.06.55-.35.55-.17.82.24,1.16.54-.4.4-.08.71.11,1a7.74,7.74,0,0,1,.46,4.91,3.28,3.28,0,0,0-.14.76,4.21,4.21,0,0,0-.47.92c-.23.28-.19.65-.32,1a3.33,3.33,0,0,1-1.09,1.71C54.66,94,54.53,94.43,54.24,94.24Z"/><path class="cls-7" d="M17.16,87.65a.76.76,0,0,0,0,.15,16.61,16.61,0,0,1-6.56.85,9.23,9.23,0,0,1-1.18-.06c-2.48-.38-4.09.84-5.27,2.86-.11.2-.25.39-.38.59-.31.1-.3.47-.53.63-.39-.41-.22-1.1-.73-1.45,0-.89-.29-1.74-.33-2.63A6.38,6.38,0,0,1,4.07,83.8C5.23,82.53,6.26,81.12,7.52,80c1.57-1.44,2.91-3.08,4.46-4.53a24.55,24.55,0,0,0,3.27-4.17,11.2,11.2,0,0,0,1.59-6.64,10.07,10.07,0,0,1,0-1.1A1.79,1.79,0,0,1,17.71,62c.94-.54,1.82-1.2,2.74-1.79a1.92,1.92,0,0,1,2.59,0,1.33,1.33,0,0,1,.57.9c.07.47-.2.53-.59.59-.24,0-.32,1.58-.1,1.68s.35-.14.48-.29c.41-.46.39-1.12.79-1.59s.63-.86,1.09-.72.22.7.2,1.06c-.05,1.06-.73,1.91-1,2.93L25,64.5c.09.55-.38.76-.66,1.06a10,10,0,0,0-2.8,5.59,16.49,16.49,0,0,0,.18,5.38,25.88,25.88,0,0,0,1.13,4.23.93.93,0,0,1,0,.83c-.36.22-.41-.14-.48-.31a7.88,7.88,0,0,0-1.23-2,3.79,3.79,0,0,1-.5-3.31,5.61,5.61,0,0,0,0-2.79c-.28-.06-.37.17-.52.3a28,28,0,0,0-4.23,5.22,25.38,25.38,0,0,0-3.13,5.52,28,28,0,0,1-2.16,3.93,21.74,21.74,0,0,0,3.81-.1c.61-.12,1.23-.27,1.83-.44C16.55,87.57,16.87,87.38,17.16,87.65Z"/><path class="cls-8" d="M92,23a2.41,2.41,0,0,0,1.4-1.73l.5.17c.86,1.47.77,3.2,1.28,4.78.19.59.34,1.2.54,1.79a12.71,12.71,0,0,1,.75,4.27,11.23,11.23,0,0,0,1.07,5.07c-.4.53-.13,1.07.08,1.54.38.81.24,1.74.67,2.53,0,.07,0,.2-.1.29s-.22.32.12.23.38-.25.61-.1c0,.72-.72.73-1,1.17.18.16.47-.11.61.14a13.25,13.25,0,0,0-1.23,2c-1.08.26-1.37,1.65-2.55,1.79-.19,0-.31.18-.43.32-.77.87-.77.87-1.75.31-.26-.31.06-.44.21-.61s.39-.36.13-.63c-.08-.43.31-.51.52-.72a3.8,3.8,0,0,0,.42-.48c.4-.92.75-1.85,1.18-2.78-.43.59-.54,1.43-1.37,1.66-1.25-.2-1.47-.47-1.38-1.67.06-.73.17-1.45.24-2.17a1.23,1.23,0,0,0-.06-.76c-.12-.4.13-.83-.1-1.22a.91.91,0,0,1-.12-.31.34.34,0,0,1,.2-.36c.56-.13.41-.66.57-1s0-.92.15-1.36c0-.07,0-.13-.05-.2-.21-.48.37-1.07-.2-1.5a6.81,6.81,0,0,0-1-2.22,26,26,0,0,1-2.66-5.67.73.73,0,0,0-.3-.35c-.22-.18-.2-.31.07-.45a4.21,4.21,0,0,0,1.45-1.17.86.86,0,0,1,.68-.33A1.63,1.63,0,0,0,92,23Z"/><path class="cls-9" d="M20.08,124a45.33,45.33,0,0,0,5-.4c3.12-.6,6.27-.18,9.38-.59a5,5,0,0,0,.77-.16c.64-.18,1.31-.83,1.89.1,1.16-.11.89.86,1.06,1.45a.73.73,0,0,1-.37.86c-.39.24-.5-.13-.71-.28s-.36-.19-.42-.33c-.61-1.4-1.84-1-2.9-1-.41,0-.49.41-.79.57a12,12,0,0,1-8.88,1.47A12.23,12.23,0,0,1,20.08,124Z"/><path class="cls-10" d="M97.53,37.43a2.25,2.25,0,0,1-.74-1.49,20.67,20.67,0,0,1-.36-3.42,13.13,13.13,0,0,0-.85-4.67A40,40,0,0,1,94.4,23c-.11-.54-.48-1-.46-1.56a3.91,3.91,0,0,1,.92,2.5,19.05,19.05,0,0,0,1,4,13.12,13.12,0,0,1,.73,4.6A5.75,5.75,0,0,0,98,36.36a47.86,47.86,0,0,1,3.58,4.8,1,1,0,0,1-.19,1.47c-.58.42-1,1.2-1.88,1,.22.37.45.48.82.2.53-.42,1.1-.8,1.64-1.2a1,1,0,0,1,1.1-.07c2.12.93,4.28,1.76,6.44,2.6,1.33.52,2.64,1.12,4,1.61.74.26.76,1.18.08,1.7q-2,1.56-4,3.07-5.28,4-10.56,8c-.84.63-1.69,1.23-2.53,1.85a.13.13,0,0,1-.19,0c0-.38.28-.53.52-.72,2.87-2.19,5.78-4.33,8.66-6.51,2.4-1.82,4.84-3.58,7.16-5.5.39-.28,1-.47.94-1s-.66-.54-1-.7c-2.93-1.18-5.91-2.24-8.79-3.54a2.07,2.07,0,0,0-2.52.39c-1.23,1-1.49,1-2.49-.29-.09-.1-.14-.22-.22-.32a.78.78,0,0,0-.22,0c-.22.07-.45.47-.62.11a.55.55,0,0,1,.43-.69,1.37,1.37,0,0,0,.87-.71c0-.52.6-.54.79-.9s-.41-.68-.59-1a3,3,0,0,1-.52-.69c-.22-.28-.53-.53-.41-1s.07-.6-.37-.63A.29.29,0,0,1,97.53,37.43Z"/><path class="cls-11" d="M17,122.21c.29.58.84.89,1.3,1.39a1.41,1.41,0,0,0-1.35,1c-.15.43-.83.54-1.31.59a.55.55,0,0,1-.51-.72c.29-.57.24-1.48,1.12-1.56.54,0,.27-.74.76-.72Z"/><path class="cls-12" d="M65,6.15,64,6.48c-.19-.12-.52.22-.6-.08s.33-.31.5-.34a11,11,0,0,0,1.15-.37,8.89,8.89,0,0,1,1.28-.17C65.85,5.86,65.34,5.84,65,6.15Z"/><path class="cls-13" d="M54.91,94.06c.44-.52.6-1.22,1.09-1.71A1.55,1.55,0,0,1,54.91,94.06Z"/><path class="cls-14" d="M2.68,94.36l-.15.34c0-.11-.15-.22-.15-.33s-.32-.48,0-.71a.36.36,0,0,1,.35,0C2.93,93.87,2.59,94.12,2.68,94.36Z"/><path class="cls-15" d="M8.68,102.44l1.13.47C9.36,103,8.86,103.25,8.68,102.44Z"/><path class="cls-16" d="M58.22,9.3l-.62.48L57,9.72C57.34,9.23,57.79,9.3,58.22,9.3Z"/><path class="cls-13" d="M56.32,91.38a.82.82,0,0,1,.47-.92c.11.37-.32.58-.3.92Z"/><path class="cls-17" d="M22.81,81.64a3.1,3.1,0,0,0-.38-1.5,20,20,0,0,1-1.17-8.55,10.14,10.14,0,0,1,3.24-6.52c.19-.18.45-.28.5-.57l.34-.32a11.6,11.6,0,0,1,1.07-.77l.2-.18a9.92,9.92,0,0,1,1.16-.89,6.22,6.22,0,0,1,4-1A6,6,0,0,1,34,62.47a2.54,2.54,0,0,0,1,.81A2.32,2.32,0,0,1,36.3,64.7a6.54,6.54,0,0,0,1.85,2.69,3.21,3.21,0,0,1,1,1.36,9.23,9.23,0,0,1,.94,4.38,13.41,13.41,0,0,1-1.74,7.19c-.45.74-.88,1.49-1.36,2.2s-.9,1.17-1.35,1.75l-.1,0a3.31,3.31,0,0,0-.53.45,4.67,4.67,0,0,1-3.76,1.77,1.74,1.74,0,0,0-1.3.62,1,1,0,0,1-1.4.26,8.66,8.66,0,0,1-2.76-2.49,16.15,16.15,0,0,0-2.52-2.64C22.86,82.28,22.75,82,22.81,81.64Z"/><path class="cls-18" d="M92,23s-.05.12-.08.12c-1.23.26-2,1.25-3,1.92.63.44.68,1.21,1,1.86.87,2,2,3.84,3,5.76.14.26.39.53.12.85,0,.11,0,.26-.06.29-.93.38-1.38,1.4-2.34,1.72a3.1,3.1,0,0,1-.53.36,7.3,7.3,0,0,1-1.34,1c-.25.25-.54.46-.81.69-.4.47-1,.66-1.44,1.09-2.08,1.57-4.2,3.08-6.25,4.68-.39.37-.92.54-1.28.95a2.39,2.39,0,0,1-.52.38,7.43,7.43,0,0,1-1.27.89c-.48.27-.74.85-1.34,1-.23.14-.42.35-.65.51a4.93,4.93,0,0,1-.93.7A2.43,2.43,0,0,1,74,48,9.46,9.46,0,0,1,72.43,49c-.13.08-.26.16-.41.07a.42.42,0,0,1,0-.43c-.36.39-.93.66-.54,1.39.11.19,0,.48-.39.3-1.81-1.93-3.19-4.18-4.86-6.22a1.19,1.19,0,0,1,.23-1.79c1.11-.77,2.09-1.73,3.27-2.41.69-.41.62-.62.15-1.28a7.65,7.65,0,0,0-2.25-1.84,1.71,1.71,0,0,1,1.83.76,21.07,21.07,0,0,0,5.68,4.66A9,9,0,0,0,77,43a3.43,3.43,0,0,0-.91-1c-.18-.14-.46-.29-.33-.56s.45-.18.7-.11a2.52,2.52,0,0,1,.69.36,3.36,3.36,0,0,0,2.49-.36c.45-.24.82-.52,1.37-.34.19.07.45.07.52-.18s-.17-.36-.36-.45A7.12,7.12,0,0,0,79,39.82a4.09,4.09,0,0,1-1-.4c-.33-.15-.76-.32-.63-.76s.57-.33.89-.28a12.3,12.3,0,0,0,2.35.1c.31,0,.85.14.88-.23s-.52-.44-.86-.5A32.08,32.08,0,0,1,77.26,37a3.94,3.94,0,0,1-2-1.56c-.32-.41-.1-.78.47-.86a5.33,5.33,0,0,1,2.09.26c.33.08.82.39,1,0s-.44-.51-.78-.64a7.25,7.25,0,0,0-2.53-.45c-.73,0-1.46,0-2.19,0-.29,0-.66.08-.75-.36,1.82.07,3.66-.23,5.45.33.47.14.76-.18,1-.44,1.54-1.58,3.49-2.64,5.1-4.12a43.89,43.89,0,0,1,4-2.87,2.49,2.49,0,0,1,.48-.26c.42-.19,1-.31.12-.73-.36-.16-.16-.38.09-.49a3.7,3.7,0,0,0,1.63-1.27C90.78,23,91.5,23.2,92,23Z"/><path class="cls-19" d="M56.32,83.85l-1.1-.64a.73.73,0,0,1-.5-.33c-1.37-1.74-2.89-3.33-4.41-4.94A.85.85,0,0,1,50,77.4c-.63-.63,0-1.26,0-1.88.27-.32.17-.8.45-1.11q1.48-3.63,3-7.24c.4-.94.41-1,1.38-.58,2.6,1,5.15,2.12,7.72,3.19.48.2,1,.37,1.47.55.74.26.89.52.61,1.27-.44,1.23-1.05,2.39-1.52,3.61-.63,1.62-1.37,3.2-2,4.83-.41,1.09-.89,2.17-1.4,3.22-.17.33-.22.69-.36,1s-.36.77-.78.6A6.93,6.93,0,0,1,56.32,83.85Z"/><path class="cls-20" d="M77.1,41.85a2.39,2.39,0,0,0-1.39-.45l1.47,1.29c.21.17.31.39.15.61s-.36,0-.54-.07a22.47,22.47,0,0,1-4-2.35,13.85,13.85,0,0,1-3.31-3.08,2.81,2.81,0,0,0-1.81-1c-.27-.24-.79-.42-.72-.75.13-.67-.09-1.37.24-2,.11-.2.29-.37.4-.58.36-.65.74-.84,1.47-.36s1.63.19,2.46.23c.34,0,.68,0,1,0a4.41,4.41,0,0,0,2.07.16,9.43,9.43,0,0,1,3.54.48c.53.2,1.24.55,1.05,1s-.92.21-1.45,0a5.37,5.37,0,0,0-2-.28c-.19,0-.39,0-.46.22s.11.32.22.47c.9,1.26,2.3,1.51,3.67,1.81.68.15,1.39.22,2.07.38.32.07.71.25.68.66s-.49.37-.81.38A16.38,16.38,0,0,1,78,38.56c-.16,0-.41-.1-.48.12s.15.37.33.45c.42.19.87.35,1.3.52a2.36,2.36,0,0,0,1,.24,1,1,0,0,1,.77.47c.13.18.17.46,0,.55C79.64,41.43,78.48,42.08,77.1,41.85Z"/><path class="cls-20" d="M53.38,29.6c.17,0,.36,0,.53.09,1.76.43,2.22-.27,2.85-1.36A2.84,2.84,0,0,1,60.6,27.1a5.28,5.28,0,0,1,1.52.76c-.26,0-.65,0-.18.38a29.49,29.49,0,0,0,3.83,2.85c.94.59.92.61.28,1.52a6.86,6.86,0,0,1-1.75,1.56.65.65,0,0,1-.66.09c-3-1.21-6.15-2.22-8.82-4.17C54.38,29.76,53.75,30.08,53.38,29.6Z"/><path class="cls-21" d="M71.11,50.35c.22,0,.41-.22.26-.35-.74-.65,0-.89.31-1.23s.34-.47.74-.45c0,.32-.4.44-.37.74s-.16.52,0,.79a2.46,2.46,0,0,1,.14.38.48.48,0,0,1-.14.38c.11,0,.18-.17.31-.16a.5.5,0,0,1,.28.14c.29.32.26.87.73,1.07a3.17,3.17,0,0,1,.39.34,5.75,5.75,0,0,1,.63.84,4.09,4.09,0,0,1,.23.47,8.24,8.24,0,0,1,.93,1.49,14.85,14.85,0,0,1,1.32,1.75,1.54,1.54,0,0,0,.77.74c.46.1.65-.35,1-.47a3.82,3.82,0,0,0,1-.76,7.38,7.38,0,0,1,.81-.67,6.61,6.61,0,0,0,1.1-.7,3.07,3.07,0,0,1,.38-.34,3.78,3.78,0,0,0,.72-.52c.25-.24.55-.39.79-.63a2,2,0,0,1,.8-.62,4.32,4.32,0,0,1,.53-.34c.43-.23.73-.64,1.14-.89.23-.22.48-.4.7-.62s.53-.31.79-.49.51-.33.75-.51a4.44,4.44,0,0,1,.76-.52l.17-.11a1.54,1.54,0,0,0,.8-.75c.33-.46.92-.56,1.32-.93.62-.27,1-.91,1.77-1,.12,0,.27-.13.35-.08s0,.2,0,.31c-.12.4-.58.5-.73.86-.1.57-.61.76-1,1.05-3.37,2.53-6.76,5-10.13,7.57-.84.64-.86.65-.34,1.54A.85.85,0,0,1,80.83,59c-.47.33-.94.67-1.38,1a.67.67,0,0,0-.13,1.07c1.8,2.41,3.66,4.78,5.51,7.16.53.68.8.71,1.51.19,1.52-1.12,3-2.23,4.54-3.38s2.91-2.23,4.39-3.31c.28-.2.53-.55,1-.38l.21,0c-1.51,1.15-3,2.32-4.53,3.46q-2.68,2-5.41,4c-.89.65-1.3.59-2-.28-1.65-2.11-3.28-4.25-4.91-6.38-.06-.08-.11-.17-.18-.25-1-1.27-1-1.27-.07-2.55l-.54.11,0-.11c.19-.43.7-.51,1-.88.15-.22.4-.37.16-.66a.47.47,0,0,0-.68-.12,4,4,0,0,1-1.73.75.39.39,0,0,1,0,.15l-.06.08c-.72-.33-1-1.1-1.46-1.64-1.09-1.22-2-2.62-3-3.95a1.39,1.39,0,0,1-.31-.7c.49-.07.51.48.92.66-.44-.26-.45-.92-1.08-.81A3.35,3.35,0,0,1,71.11,50.35Z"/><path class="cls-22" d="M28.53,51.28h-9c-1.52,0-1.84-.28-1.84-1.83,0-1.83.11-3.66.13-5.49s.12-3.76.15-5.64c0-.81.29-.77.84-.91a9.42,9.42,0,0,1,2.49,0q8.8,0,17.6,0c1,0,1.47.38,1.41,1.41-.08,1.54-.26,3.07-.39,4.6q0,.47-.06.93c-.06,1.41-.06,2.83-.2,4.23a15.32,15.32,0,0,1-.35,1.89c-.15.61-.75.78-1.39.78-3.12,0-6.23,0-9.35,0Z"/><path class="cls-23" d="M81.49,25.5c0-.31-.08-.51-.45-.47-1.43.15-2.69-.55-4-.89a3,3,0,0,0-2.51.23c-.47.3-.69.16-.73-.34a3.16,3.16,0,0,0-1.71-2.86c-.76-.39-.85-1.18-.94-1.94a6.28,6.28,0,0,0,3.76,1.88,13.23,13.23,0,0,1,4.74,2.16,15.6,15.6,0,0,0,4.5,2c.16,0,.43,0,.43.24s-.24.23-.41.3a1.4,1.4,0,0,1-1.59-.31A.67.67,0,0,0,81.49,25.5Z"/><path class="cls-24" d="M46.21,64.83a4,4,0,1,1,5.71-5.37,4.25,4.25,0,0,1,.24,3.76,1.14,1.14,0,0,1-.85.82,2.11,2.11,0,0,0-.75.41c-.28.17-.55.24-.64-.2.08-.53.48-.85.77-1.25a2.66,2.66,0,0,0,0-2.88,3,3,0,0,0-2.58-1A2.51,2.51,0,0,0,47.63,64c.26.12.56.14.74.41a1.05,1.05,0,0,1-1.46.81C46.67,65.08,46.46,64.92,46.21,64.83Z"/><path class="cls-25" d="M58.84,41.8c-.1.46.28,1-.13,1.52.84,1.19.17,2.6.54,3.85a8.42,8.42,0,0,1,.22,2.17A9,9,0,0,0,59.54,51a1.42,1.42,0,0,1-1.47,1.87c-1.09,0-2.18,0-3.26,0s-1.25-.31-1.34-1.29a44.9,44.9,0,0,0-.2-4.52A35.34,35.34,0,0,1,53,42.72c0-.53-.42-1-.19-1.58a1.12,1.12,0,0,1,1.07-.85c1.12-.07,2.24-.14,3.36-.16C58.53,40.1,58.85,40.44,58.84,41.8Z"/><path class="cls-26" d="M61.84,55.35a4.55,4.55,0,0,1,.16-5,3.79,3.79,0,0,1,2.47-1.46,5.55,5.55,0,0,1,2.5.13,5.74,5.74,0,0,1,2,2.13,4.37,4.37,0,0,1-1.27,5.25C65.51,58,62.66,57.11,61.84,55.35Z"/><path class="cls-18" d="M61.84,55.35a6.59,6.59,0,0,0,1.79,1.35A4.1,4.1,0,0,0,68.78,55a4.15,4.15,0,0,0-1.22-5.37c-.19-.13-.39-.25-.59-.37a1.9,1.9,0,0,1,0-1.37,5.35,5.35,0,0,0,.08-.7c0-.28-.06-.54-.38-.58s-.39.2-.46.43A5.58,5.58,0,0,0,66,48c-.11.95-.13,1-1.12,1-.17,0-.36-.06-.52.07-1,0-1.59.81-2.34,1.31.44-1,1.38-1.24,2.25-1.6a1.78,1.78,0,0,1,.68-.16c.54,0,.67-.34.66-.77a3.47,3.47,0,0,1,.19-1.15.76.76,0,0,1,.94-.61.89.89,0,0,1,.77.85,4.62,4.62,0,0,1-.19,1.62.66.66,0,0,0,.27.8,4.52,4.52,0,0,1,2,4.25,2.5,2.5,0,0,1-.16.68c-.21.62-.84,1.11-.52,1.88,0,.11-.11.36-.23.48-1.78,1.72-3.84,2.53-6.24.39C61.75,56.47,62,55.91,61.84,55.35Z"/><path class="cls-13" d="M56.32,83.85c.63.26,1.27.49,1.88.78s.91.13,1.14-.47C61,80,62.69,76,64.44,71.87c.39-.93.32-1.12-.59-1.49l-8.43-3.49a2.92,2.92,0,0,1-.52-.19c-.69-.49-1.1-.16-1.41.47.19-1,.39-1.15,1.3-.77,3.15,1.29,6.3,2.59,9.46,3.85a.85.85,0,0,1,.59,1.21c-.43,1.54-1.31,2.9-1.83,4.4s-1.12,2.8-1.68,4.2c-.61,1.57-1.36,3.08-2,4.66-.18.46-.45.44-.8.32a11.51,11.51,0,0,1-1.52-.56c-.41-.21-.51,0-.58.31a4.23,4.23,0,0,1-.4-.34c-.13-.13-.38-.24-.29-.47S56.14,83.88,56.32,83.85Z"/><path class="cls-27" d="M46.21,64.83a3.76,3.76,0,0,1,.6.15c.75.35,1.13-.1,1.49-.63a.61.61,0,0,1,.69-.12c.36.2,0,.65.31.9.39-.26,0-.76.3-1a.37.37,0,0,1,.43.08c0,.32.2.33.41.13s.52-.57,1-.52c.28,0,.47-.39.63-.71.6-1.25.1-2.43-.19-3.63a3.85,3.85,0,0,1-.17,4.63c-.38.43-.48.74,0,1.15a5.52,5.52,0,0,1,.74.92c.24.34.36.73,0,1a.68.68,0,0,1-1-.15A10,10,0,0,1,50.54,66a.86.86,0,0,0-1-.41A3.48,3.48,0,0,1,46.21,64.83Z"/><path class="cls-13" d="M34,62.47c-.7-.2-1.18-.83-2-.95a5.54,5.54,0,0,0-3.68.62c-.2.12-.42.21-.63.31-.05,0-.07-.07-.05-.11s0-.06,0-.06a6.88,6.88,0,0,1,2.49-1.06c.31-.07.6,0,.3-.49s0-.46.32-.47a1.86,1.86,0,0,1,1.27.67,4.47,4.47,0,0,0,1.83,1.12l-.55-.69c.38-.21.86-.65.7.33,0,.09.11.22.2.32C34.63,62.46,34.25,62.44,34,62.47Z"/><path class="cls-2" d="M70.63,18.58a3.17,3.17,0,0,1-.43-2.1,54.07,54.07,0,0,1,.29-5.69,1.92,1.92,0,0,1,1-1.53.82.82,0,0,0,.41-1.1,1.81,1.81,0,0,1,.64-2,3,3,0,0,0-.34,2.45c.14.37-.24.62-.52.8a2.19,2.19,0,0,0-1,2c0,1.38-.14,2.77-.18,4.15A14.83,14.83,0,0,0,70.63,18.58Z"/><path class="cls-2" d="M51.28,16.52a10.88,10.88,0,0,0-.18,2.41,1.5,1.5,0,0,1-.44,1.22,8.49,8.49,0,0,0,.19-2.24A1.9,1.9,0,0,1,51.28,16.52Z"/><path class="cls-18" d="M72.52,52.24c0-.22,0-.59.34-.22A4.22,4.22,0,0,1,74,53.44c-.72-.09-.82-.8-1.27-1Z"/><path class="cls-21" d="M78.82,59.47c-.67.22-1.07,0-1.42-.79h0c.59,0,.95.51,1.41.79Z"/><path class="cls-7" d="M27.69,62.28v.17c-.37.25-.61.69-1.09.78A2.61,2.61,0,0,1,27.69,62.28Z"/><path class="cls-13" d="M34.45,59.78H32.72A2.26,2.26,0,0,1,34.45,59.78Z"/><path class="cls-7" d="M26.41,63.41a1.89,1.89,0,0,1-1.07.77A1.52,1.52,0,0,1,26.41,63.41Z"/><path class="cls-13" d="M50.5,74.41c-.13.37,0,.85-.45,1.11H49.9C50.22,75.21,50.06,74.65,50.5,74.41Z"/><path class="cls-13" d="M48.92,76.3c-.32-.25-.68-.47-.77-.92C48.5,75.61,48.85,75.83,48.92,76.3Z"/><path class="cls-28" d="M22.81,81.64c.18.2.21.51.48.65,0,.24.17.37.31.52a3.11,3.11,0,0,1,.55,3.34,1.27,1.27,0,0,1-1.15.68c-1.14.08-2.27.2-3.41.29a11.09,11.09,0,0,0-2.43.53,16.6,16.6,0,0,1-6,.76c-.28,0-.65.15-.8-.14s.24-.41.37-.62a21.11,21.11,0,0,0,2-3.68,20.86,20.86,0,0,1,2.86-5.08c.73-1,1.33-2,2.06-3a29.2,29.2,0,0,1,2.95-3c.25-.25.34,0,.36.24a12.13,12.13,0,0,1-.07,3.18,3.17,3.17,0,0,0,1,3.52C22.48,80.19,22.38,81.07,22.81,81.64Z"/><path class="cls-1" d="M40.15,73.36c.85.32,1.16,1.16,1.58,1.83,1.45,2.31,2.47,4.86,3.79,7.25a14.12,14.12,0,0,0,2.66,3.73c.13.12.26.26.39.39.34.35.18.72,0,1.09s-.47.18-.71.14a3.11,3.11,0,0,0-1.91.33,4,4,0,0,1-3.18.15,12.84,12.84,0,0,0-4-.67,12.46,12.46,0,0,1-2.1-.21c-1-.15-1.21-.41-1.14-1.45a14.6,14.6,0,0,0,0-1.62h0a23.27,23.27,0,0,0,1.38-1.88,16.91,16.91,0,0,0,1.65-2.82,4.2,4.2,0,0,1,.68-1,3.44,3.44,0,0,0,.79-3.41A3.58,3.58,0,0,1,40.15,73.36Z"/><path class="cls-13" d="M50,77.4a71.37,71.37,0,0,1,5.18,5.81c.07.24.46.42.23.68s-.52,0-.78-.08a2.19,2.19,0,0,1-1.1-1.16c-1.18.61-.74,1.49-.46,2.34.12.35.35.69-.19,1-.34.19,0,.41.2.5a2,2,0,0,1,1.16,1.86c0,.3.18.42.42.49a.3.3,0,0,0,.28,0c.17-.23,0-.37-.15-.55s-.25-.41-.22-.57a2.07,2.07,0,0,0-.43-2.09c-.27-.29.16-.76.4-1s.33.11.32.33a1,1,0,0,0,.77,1.18c.33.07.34.35.34.63,0,1.09,0,2.18,0,3.27a1.73,1.73,0,0,1-.5,1,2.48,2.48,0,0,0-.45.81c-.28.76-.46.83-1.12.32-.46-.37-1.07-.66-.79-1.5.15-.46-.83-1.62-1.35-1.78a1.82,1.82,0,0,1-1.06-2.34,1.84,1.84,0,0,0-.93-2.41c-.41-.19-.69-.2-.73.39,0,.36,0,.93-.38,1s-.49-.55-.51-.85a3.26,3.26,0,0,0-1.67-2.37,1.83,1.83,0,0,1-.52-.59c-.35-.64-.23-.9.46-1.18.29-.12.73-.09.74-.58s-.34-.44-.64-.53a.66.66,0,0,1-.32-.32c-.33-.65-1-1-1.39-1.57-.13-.16-.31-.36-.49-.38-.93-.08-1.11-.71-1.3-1.49-.24-1-.92-1.85-1.11-2.91-.06-.28-.54-.56-.64-1-.06-.26-.15-.53,0-.75s.19-.44-.1-.63c-.5-.32-.22-.75-.05-1.1s.51-.27.57,0c.18.65.91,1,.69,1.9s.74.83,1.16,1a2.12,2.12,0,0,1,1.11.89A2.78,2.78,0,0,0,46,74.32a1.07,1.07,0,0,1,.53.54c.34.81,1,1.38,1.37,2.19.21.54.87.64,1.23,1,.14.16.34.08.42-.16S49.7,77.42,50,77.4Z"/><path class="cls-13" d="M39.17,68.75c-1.1-1.32-2.64-2.29-3.09-4.12-.14-.58-.84-.83-1.15-1.35s-.08-1.23-.16-1.84c0-.36.71-.36,1.06-.23.61.24,1.12.74,1.85.69.15,0,.33.18.34.39a.3.3,0,0,1-.28.32c-.53.06-.57.93-1.27.72-.12,0-.12.27,0,.39.27.4.35.93,1,1,.35,0,.94.19,1,.85,0,.25,0,.64.37.72s.25-.43.6-.47c.07.66,1.07,1,.67,1.82C39.86,68.06,39.79,68.66,39.17,68.75Z"/><path class="cls-29" d="M40.15,73.36c-.24,1,.32,2,.3,3a2.88,2.88,0,0,1-.66,2c-1.09,1.13-1.61,2.61-2.51,3.84l-.32.45a.1.1,0,0,1-.17,0c.62-1.18,1.36-2.28,2-3.47A13.39,13.39,0,0,0,39.83,75a7.66,7.66,0,0,1,.28-1.84Z"/><path class="cls-13" d="M52.31,90.25c.24.08.4.22.36.49a.14.14,0,0,1-.23.1A.4.4,0,0,1,52.31,90.25Z"/><path class="cls-30" d="M90.94,65.14c-1.54,1.33-3.21,2.49-4.87,3.68-.59.42-1,.06-1.31-.39-1.75-2.25-3.51-4.49-5.24-6.76-1-1.28-1-1.3.35-2.26l.26-.18c1.17-.83,1.19-.84.37-2-.34-.5,0-.64.33-.85l8.36-6.25c1.13-.85,2.24-1.73,3.36-2.59.12,0,.33-.06.37,0,.66.88.88.08,1.2-.3.15-.18.25-.47.51-.43.7.09,1-.38,1.26-.86s.4-.73,1-.67c.31,0,.49-.29.51-.51.08-.76.63-1.15,1.11-1.61.54.08.67.61,1,.93s.6.45,1,0c1.18-1.31,2.39-1.49,4.07-.68,2.77,1.34,5.69,2.35,8.55,3.49,1.06.42,1.12.76.25,1.49-.19.15-.34.42-.65.37a.2.2,0,0,1,0-.26c.35-.28-.16-.11-.11-.22a1.62,1.62,0,0,0-.8-.61c-3.07-1.18-6.1-2.48-9.18-3.65a1.1,1.1,0,0,0-1.2.2c-4.27,3.23-8.61,6.39-12.88,9.63-.83.53-1.58,1.18-2.38,1.75q-1.87,1.32-3.66,2.75l-.18.13a5,5,0,0,0-1.1.83l-.18.12c-.3.26-.8.31-.8.85l.08.2c1.51,2,3.09,3.89,4.61,5.85a7,7,0,0,0,.59.73c.56.71.66.74,1.37.17s1.7-1.32,2.59-1.93c.21-.14.39-.36.7-.23.13.34-.14.4-.34.51C90.2,65.54,90.37,64.79,90.94,65.14Z"/><path class="cls-31" d="M77.05,45.42l1.3-.89c0,.54.08,1,.72,1.21a1.21,1.21,0,0,1,.52.13c.2.17.27.43.45.63s.54.47.92.15.15-.58-.06-.85a3.59,3.59,0,0,0-.32-.35,1.21,1.21,0,0,1-.31-.46.53.53,0,0,1,0-.33c.11-.28.42-.29.61-.45a22.36,22.36,0,0,1,2.93-2c.21,0,.38.06.43.29a.42.42,0,0,1,0,.22c-.13.36-.51.38-.77.56a1.12,1.12,0,0,0-.37.38.63.63,0,0,0,.17.77c.21.24.45.17.69,0a2.8,2.8,0,0,0,.59-.6,1,1,0,0,1,.26-.2c.12-.06.24-.09.36-.15.74-.37.8-.67.27-1.3l-.27-.28a.67.67,0,0,1-.15-.54,6.76,6.76,0,0,1,2-1.52c.33,0,.44.24.59.46.65.83.69.84,1.49.18a1.68,1.68,0,0,1,.79-.49,6.24,6.24,0,0,0,.77-.68c.16-.18.28-.42.56-.46a2.32,2.32,0,0,0,1.23-.75c.4.39.23.81.07,1.23.3.38,0,.76,0,1.12A22.09,22.09,0,0,0,92.2,43c0,.24,0,.48-.26.6-.1,0-.2-.1-.2-.21a8.24,8.24,0,0,0-.41-2.09,2.1,2.1,0,0,0,.57-1c.08-.19.18-.44,0-.58s-.37.09-.54.2a1.8,1.8,0,0,0-.29.26,1.25,1.25,0,0,1-.4.36,2.86,2.86,0,0,0-1.22.77,3.55,3.55,0,0,1-.8.52c-.21.2-.63.3-.52.67a1.21,1.21,0,0,0,.95.8.47.47,0,0,1,.05.83.93.93,0,0,1-.49.09c-.32,0-.49-.24-.66-.47s-.41-.87-1-.57-.58.67.2,1.33c.27.07.64.08.54.48s-.45.35-.76.31a.89.89,0,0,1-.47-.24,3.86,3.86,0,0,1-.48-.51.5.5,0,0,0-.81-.06c-.31.26-.18.5,0,.75a.9.9,0,0,0,.58.37.87.87,0,0,1,.54.36c.23.28.5.53.72.82a.64.64,0,0,1,.21.71c-.49.54-.68.06-.92-.27-.53-.71-.62-.72-1.35-.18-.19.22-.24.57-.6.62a2,2,0,0,1-.69.08c-.53-.56.13-.69.35-1s1-.54.45-1.09-.91,0-1.3.29a1.9,1.9,0,0,1-.4.35,4.69,4.69,0,0,0-1,.73,1.6,1.6,0,0,1-.84.6c-.24.2-.65.32-.57.73a.83.83,0,0,0,.83.68c.28,0,.42.26.56.46a9.28,9.28,0,0,0,.75.89.47.47,0,0,1,.12.41.47.47,0,0,1-.23.23c-.4.12-.61-.15-.83-.41-.59-.7-.7-.7-1.36,0-.17.23-.27.54-.65.46s0-.43,0-.64a.68.68,0,0,1,.07-.2c.16-.3.6-.47.4-.94s-.66-.43-1-.53a.39.39,0,0,1,0-.32,1.28,1.28,0,0,1,.47-.51c.41-.27.43-.55.09-.89s-.66-.17-.93.11-.16.39-.32.54c-.39,0-.37-.41-.53-.63a.34.34,0,0,1,0-.22c.48-.8.39-1-.5-1.28A.25.25,0,0,1,77.05,45.42Z"/><path class="cls-32" d="M91.87,43.57c.36-.83,0-1.73.3-2.57a12.83,12.83,0,0,0,.33-1.66c.29.13.33.36.29.65-.14.94-.26,1.88-.37,2.83-.07.62.32.92,1.38,1.09,0,.39.44.82-.09,1.17-.08.08-.17.14-.25.21-.47.4-.67,1.09-1.35,1.28a.61.61,0,0,1-.65-.24,1,1,0,0,1-.08-.47,1.54,1.54,0,0,1,.29-.74c.12-.25.34-.47.14-.77s-.41-.15-.51-.36a.46.46,0,0,1,.09-.46A.42.42,0,0,1,91.87,43.57Z"/><path class="cls-31" d="M88.55,36.8,90,35.73c.11.23,0,.51.2.74s.44.45.77.22a.52.52,0,0,0,.09-.86c-.16-.21-.47-.22-.62-.44.86-.29,1.19-1.36,2.17-1.49.13,0,.23-.26.35-.4.49.1.63.43.37.79s0,.55-.06.81c-.26,0-.38-.14-.5-.3s-.46-.4-.79-.15a.51.51,0,0,0-.13.8A.62.62,0,0,1,92,36a1.62,1.62,0,0,0-.2.56c.18-.16.11-.37.18-.54a4.57,4.57,0,0,1,1.24-.94c-.06.48.11,1-.11,1.42l-.1,0c-.63.11-.66.16-.51,1.06l-.06.09-.16.34c-.08,0-.18,0-.22,0-.5-.68-1-.37-1.41.06-.32.26-.62.69-1,0C89.84,37,89.76,37,88.55,36.8Z"/><path class="cls-33" d="M97.53,37.43l.29.22a.22.22,0,0,1,.06.28c-.38.12-.24.35-.11.6.19-.1.08-.33.2-.45s.27,0,.32.17c-.06.43.31.64.48.94-.31.26-.75.42-.59,1,0,.15,0,.34.16.41s.34-.08.47-.2.25-.4.44-.55c.75.89.75.89.65,1.26-.33-.22-.56,0-.82.17s-.57.64-1.07.46c.06-.14.22-.33.18-.4-.66-1.05-.5-2.35-1.06-3.44C97,37.53,97.21,37.41,97.53,37.43Z"/><path class="cls-34" d="M90.64,37.8c.86-.78.86-.78,1.68.17l.11.14c-.13.65-.65.78-1.18.9C90.77,38.74,90.25,38.5,90.64,37.8Z"/><path class="cls-35" d="M93.6,45c.09-.17.44-.26.09-.55s0-.37.11-.54a3.36,3.36,0,0,0,.88-1.5c.06-.22.22-.59.51-.47s.11.46,0,.67c-.41.91-.85,1.81-1.28,2.71A.59.59,0,0,1,93.6,45Z"/><path class="cls-36" d="M92.18,46.42c.52-.32.67-1,1.25-1.28.14.19-.06.46.15.64-.16.26-.65.2-.62.64l-1.7,1.12A1.25,1.25,0,0,1,91,47C91.25,46.41,91.79,46.57,92.18,46.42Z"/><path class="cls-37" d="M98,41.71a3.35,3.35,0,0,0,1.26-.88c.39-.33.54-.14.63.25l-1,.8c-.25,0-.33.2-.5.3s-.32.24-.48.11S97.86,41.89,98,41.71Z"/><path class="cls-38" d="M92.73,42.71c0-.37,0-.75.08-1.12,0-.18.14-.36.37-.31s.22.23.2.43C93.34,42.15,93,42.38,92.73,42.71Z"/><path class="cls-39" d="M93.58,45.78c-.92,0-.17-.41-.15-.64L93.6,45a.31.31,0,0,1,.32.32C93.8,45.47,93.69,45.62,93.58,45.78Z"/><path class="cls-31" d="M93.15,36.52c-.06.32-.11.65-.18,1s-.25.34-.49.14l.06-.07c.17-.37.07-.87.54-1.09Z"/><path class="cls-40" d="M90.94,65.14c-.47,0-.74.39-1.17.66,0-.37.38-.46.34-.73s.29-.48.51-.65c4.53-3.38,9-6.77,13.56-10.15,2.26-1.68,4.53-3.36,6.76-5.09a4.19,4.19,0,0,1,1.62-.91c.59.09.06.34.07.51A18.45,18.45,0,0,1,109.9,51c-4.46,3.38-8.93,6.73-13.4,10.09a2.4,2.4,0,0,0-.27.28C94.55,62.41,93,63.7,91.4,64.86A5.11,5.11,0,0,1,90.94,65.14Z"/><path class="cls-41" d="M99.25,39.82c.09.6-.4.79-.76,1.06-.12.09-.38.08-.41-.08a3,3,0,0,1-.14-1.21c.06-.34.46-.45.83-.4C99,39.37,99,39.7,99.25,39.82Z"/><path class="cls-3" d="M97.85,37.92l0-.27c.05-.12.09-.4.24-.24s.66.44.23.84l-.3-.16C97.87,38.1,97.8,38.06,97.85,37.92Z"/><path class="cls-6" d="M36.79,82.58H37a6,6,0,0,1-1.4,1.73C35.77,83.6,36.38,83.16,36.79,82.58Z"/><path class="cls-42" d="M83.82,42.3,81,44.38c-.78,0-1.07-.32-1-1.14q3.09-2.43,6.31-4.69c.15-.1.33-.16.47-.27.39-.33.74-.46,1.1.06s.33.79-.19,1.25A2.39,2.39,0,0,1,87,40c-.63.47-1.26.94-1.9,1.4A1.88,1.88,0,0,1,83.82,42.3Z"/><path class="cls-43" d="M75.65,46.39c.58-.15.88-.72,1.4-1l.07.1a1.6,1.6,0,0,0,0,1.49c0,.29-.17.58,0,.88-.12.34-.38.64-.09,1s.63.19,1,.16.45.11.44.4-.31.36-.52.48-.69.35-.63.79a.86.86,0,0,0,.84.68.72.72,0,0,1,.46.63.34.34,0,0,1-.2.39,2.2,2.2,0,0,1-.81-.09.81.81,0,0,1-.39-.23,6.49,6.49,0,0,0-.74-1.06.64.64,0,0,1-.16-.8c.51-.67,0-1-.43-1.41a.3.3,0,0,1-.08-.18c0-.22.43-.21.32-.52a.34.34,0,0,1,0-.2C76.61,47.17,76.61,47.17,75.65,46.39Z"/><path class="cls-44" d="M72.53,50.68l-.19-.17a1.11,1.11,0,0,1-.29-.32l-.16-.32c.26-.19.45,0,.63.14a.52.52,0,0,0,.71,0c.17-.14.32-.3.19-.54s-.28-.52-.65-.45c-.15,0-.31.09-.43-.08.45-.48,1.1-.66,1.57-1.09.15.19,0,.33-.06.49a.61.61,0,0,0,.38.76.57.57,0,0,0,.71-.32c.18-.31-.08-.52-.28-.72s-.44-.15-.58-.36l1-.74a2.93,2.93,0,0,0,1,1.18l.06.07c.07.31-.51.2-.35.57l0,.07c0,.42-.42.5-.67.71-.73.62-1.65,1-2.06,2C72.58,51.48,72.94,50.79,72.53,50.68Z"/><path class="cls-45" d="M87,40l.54-.44c.35-.29.66-.49.26-1.05s-.64-.31-1-.07a2,2,0,0,1-.43.15c.34-.53,1-.6,1.42-1.11.16.1.22.28.33.43a.67.67,0,0,0,1.06.22c.19-.13.39-.29.65-.17.4.85.54-.13.82-.12-.19.6.39.81.61,1.21-.34,0-.29.36-.5.46a1.33,1.33,0,0,1-.42-.46c-.21-.3-.44-.43-.78-.17s-.15.54,0,.81.31.28.4.47c-.24.18-.62.16-.76.49-.75-1-.75-1-1.76-.17C87.29,40.29,87.33,40,87,40Z"/><path class="cls-46" d="M89.82,37.92c-.16.08-.32.16-.47.25-.87.55-1.35.33-1.57-.73l.77-.64c.51-.2,1-.38,1.32.3C90.05,37.44,90.09,37.66,89.82,37.92Z"/><path class="cls-47" d="M80.37,44.7V45a1.79,1.79,0,0,1-1.39,1c-.79-.39-1-.81-.62-1.41l.45-.33C79.73,43.59,80,43.67,80.37,44.7Z"/><path class="cls-48" d="M77.1,41.85a8.37,8.37,0,0,0,3.52-1c.27-.14.26-.29.12-.48A.89.89,0,0,0,80,40a1,1,0,0,1-.84-.32,7.11,7.11,0,0,1,2.27.54c.27.1.7.37.47.76a.66.66,0,0,1-.94.27c-.39-.27-.64,0-1,.17A3.32,3.32,0,0,1,77.1,41.85Z"/><path class="cls-49" d="M72.34,48.9c.32.13.65-.58.93,0,.15.33.83.56.26,1.09s-.93.67-1.36-.07c0-.05-.18,0-.28-.05a.49.49,0,0,1,.16-.81Z"/><path class="cls-50" d="M74.08,47.66c.67-.14.92.36,1.15.81s-.21.46-.41.65-.63.38-.91,0-.69-.67-.08-1.08c0,0,.06-.13.08-.2Z"/><path class="cls-51" d="M90.44,35.39c.61-.14.81.36,1.06.73s-.06.48-.28.63-.5.57-.86.21-.83-.65-.36-1.23Z"/><path class="cls-52" d="M76.1,48.1c-.76,0-1-.48-1-1.18l.58-.53c.62-.06.89.42,1.06.84S76.28,47.78,76.1,48.1Z"/><path class="cls-53" d="M80.37,44.7s-.05,0-.06-.05c-.35-.68-.83-.9-1.51-.45.28-.49.91-.54,1.25-1,.11.56.32,1,1,1.14C80.87,44.62,80.51,44.42,80.37,44.7Z"/><path class="cls-54" d="M73.13,51.46a.69.69,0,0,1,.31-.84c.82-.58,1.61-1.2,2.42-1.81,1,.39,1.15.91.57,1.5a8.59,8.59,0,0,1-2,1.64c-.25.16-.52.37-.85.13l-.33-.32C73.22,51.67,73.07,51.62,73.13,51.46Z"/><path class="cls-55" d="M76.61,51c.22.35.6.61.6,1.08s-.45.55-.71.79-.6.42-.89.63c-.46.34-.85.33-1.17-.18-.07-.15-.13-.29-.19-.44a.4.4,0,0,1-.1-.29A2.89,2.89,0,0,1,76.61,51Z"/><path class="cls-56" d="M92.18,46.42c-.36.22-.8.28-1.1.62a4.46,4.46,0,0,1-1.58,1.41c-.24.15-.91.19-.47.79-.18.32-.56.38-.82.6-.4-.34-.71.21-1.09.12a.44.44,0,0,1-.28-.31,4.59,4.59,0,0,0-.76-1.15A.62.62,0,0,1,86,48c.15-.32.38-.31.63-.14a1.72,1.72,0,0,1,.36.4c.59.7.59.7,1.33.08a1.24,1.24,0,0,1,1-.61,3.54,3.54,0,0,0,.63-.53,1.92,1.92,0,0,1,.81-.63c.28-.15.49-.49.88-.33C91.69,46.5,92,46.4,92.18,46.42Z"/><path class="cls-18" d="M78.81,59.47c-.62,0-.94-.52-1.41-.79,0-.25-.21-.4-.34-.79,1,.79,1.54-.06,2.09-.43s.71.14,1,.33.09.44-.09.67A10.73,10.73,0,0,1,78.81,59.47Z"/><path class="cls-57" d="M76.45,52.7l.76-.63.38.19a.22.22,0,0,1,0,.08c-.06.36-.6.59-.21,1.08s.75.08,1.12.11a.61.61,0,0,1,.37.22c.17.4.62.62.64,1.1a.54.54,0,0,1-.13.3.27.27,0,0,1-.3.1c-.91-.8-.9-.79-1.86,0-.35.29-.64.55-.26,1a.35.35,0,0,1,0,.37.14.14,0,0,1-.2,0c-.6-.46-.77-1.25-1.35-1.73a.23.23,0,0,1,.09-.19c.2,0,.34.1.51.14a.8.8,0,0,0,.75-.33c.22-.23.09-.43,0-.64a1,1,0,0,1-.19-.51A1.45,1.45,0,0,0,76.45,52.7Z"/><path class="cls-58" d="M86,51.41c-.39.35-.68.83-1.24,1,0-.32,0-.35-.16-.28a3.71,3.71,0,0,1-.77.39.47.47,0,0,1-.33,0c-.29-.24-.15-.46,0-.68s.29-.44.57-.49c1.1-.38,1.14-.61.28-1.64a.64.64,0,0,1-.15-.42.41.41,0,0,1,.23-.25.67.67,0,0,1,.71.29c.27.33.5.7.79,1a.55.55,0,0,1,.14.4C86.22,50.94,85.45,51.09,86,51.41Z"/><path class="cls-43" d="M79.29,55.06l.19-.18a5.34,5.34,0,0,0,1.17-1c.22-.26.59-.2.84-.39a2.67,2.67,0,0,0,.71-.75,1.47,1.47,0,0,1,.72-.32.67.67,0,0,1,.46.07.34.34,0,0,1,.07.32c-.13.26-.39.39-.6.57s-.35.31-.12.56a1.19,1.19,0,0,1-.75.51c-.6-.31-.82.3-1.2.52a1.37,1.37,0,0,1-.68.34h-.22A.93.93,0,0,1,79.29,55.06Z"/><path class="cls-59" d="M79.29,55.06c.22,0,.48-.08.64.18,0,.58-.64.64-.85,1a6.11,6.11,0,0,0-1.53,1.14c-.46-.07-.64-.41-.78-.79l.18,0a4.94,4.94,0,0,0,1.47-1,1.45,1.45,0,0,1,.73-.42Z"/><path class="cls-60" d="M89,49.24c-.17,0-.39.1-.51-.08s0-.3.16-.39L91.08,47c.43,0,.21.3.18.5-.33.44-.94.48-1.28.91s-.64.51-1,.79Z"/><path class="cls-61" d="M75.55,54.71l-.13.2-1-1.6c.48.41.9.21,1.31-.13.22-.18.47-.32.7-.48.49.14.38.39.13.66C76.14,53.74,75.49,54,75.55,54.71Z"/><path class="cls-62" d="M76.61,51a3.48,3.48,0,0,0-2.36,1.88c-.32-.17-.36-.58-.63-.79,1-.16,1.52-1,2.3-1.43.17-.1.34-.23.51-.34C76.24,50.6,76.4,50.8,76.61,51Z"/><path class="cls-63" d="M77.55,57.43c.16-.82.93-.91,1.49-1.26a.21.21,0,0,1,.16.13c0,.35-.33.47-.55.65C78.26,57,78.18,57.86,77.55,57.43Z"/><path class="cls-64" d="M86.05,50.65l-.15-.31a1.14,1.14,0,0,1,1-.81l.21.35c.1.17.24.31.33.49-.19.27-.54.29-.8.47C86.49,50.74,86.24,50.78,86.05,50.65Z"/><path class="cls-65" d="M82.73,53.94c-.15,0-.33.08-.42-.08a.28.28,0,0,1,.12-.39c.34-.17.55-.54.94-.63s.25.28.16.5Z"/><path class="cls-66" d="M79.13,56.24a.13.13,0,0,0-.09-.07c.11-.49.69-.53.89-.93l.14-.05c.49-.07.53,0,.45.33l-.78.62C79.55,56.25,79.39,56.57,79.13,56.24Z"/><path class="cls-67" d="M80.69,54.91c.16-.46.67-.54,1-.84A.38.38,0,0,1,82,54c.16.12-.1.27,0,.41-.1.11-.21.21-.32.31C81.34,54.83,81.1,55.48,80.69,54.91Z"/><path class="cls-68" d="M86.05,50.65c.25-.06.57-.36.64.19a1.71,1.71,0,0,1-.68.57c-.2,0-.42.35-.59,0s.16-.33.31-.46A3.22,3.22,0,0,0,86.05,50.65Z"/><path class="cls-69" d="M83.83,52.38c.27-.19.54-.37.8-.57s.3-.26.47-.1,0,.3-.13.43-.13.15-.2.23l-.44.35C84,52.79,83.73,52.9,83.83,52.38Z"/><path class="cls-70" d="M87.49,50.37c-.37,0-.63,0-.33-.49a5.58,5.58,0,0,1,.71-.43c.41-.17.39.11.34.39Z"/><path class="cls-57" d="M80.69,54.91c.39.43.62-.26,1-.15a2.67,2.67,0,0,1-1.14.76c0-.31-.23-.31-.45-.33Z"/><path class="cls-71" d="M83.83,52.38c0,.36.29.3.5.34a2.4,2.4,0,0,0-.8.62c0-.19,0-.39-.16-.5v-.4l0-.06Z"/><path class="cls-57" d="M79.13,56.24c.22.09.4-.09.61-.1a2.2,2.2,0,0,1-1.09.81C78.8,56.71,79.08,56.56,79.13,56.24Z"/><path class="cls-18" d="M73.13,51.46l.16.3c-.67-.06-.53-.7-.76-1.08C73.06,50.68,72.69,51.39,73.13,51.46Z"/><path class="cls-18" d="M72.05,50.19a.43.43,0,0,1,.29.32c-.26.08-.22.38-.41.52C71.45,50.67,72.1,50.48,72.05,50.19Z"/><path class="cls-56" d="M89,49.24c.21-.39.64-.51,1-.79C89.88,49,89.42,49.07,89,49.24Z"/><path class="cls-72" d="M18.12,48.44c0-2.72.08-5.43.1-8.15,0-2.89.34-2.38,2.53-2.39,5.89,0,11.78,0,17.67,0,1.27,0,1.5.2,1.4,1.47-.26,3.52-.56,7-.85,10.56a.52.52,0,0,1-.11.19c-.12,0-.13-.27-.36-.16-.57.29-.7.21-.73-.4a15,15,0,0,1,.06-2.13c0,.39-.1,1.11-.07,1.84s-.34.9-.91,1a6.78,6.78,0,0,1-.78,0c-5.06,0-10.12,0-15.17,0a3.34,3.34,0,0,1-2.29-1.14.52.52,0,0,1-.19-.42c0-1,0-1.94-.08-2.8-.08.56.15,1.22.07,1.88C18.39,48.06,18.52,48.38,18.12,48.44Z"/><path class="cls-73" d="M18.12,48.44c.34-.91,0-1.86.22-2.94a17.53,17.53,0,0,1,.24,2.87c0,.43,0,.87.63.89.07,0,.19,0,.2.08.23,1.08,1.09.68,1.71.68,5.09,0,10.17,0,15.26,0,1.16,0,1.22-.06,1.23-1.26a4.53,4.53,0,0,1,.11-1.09,7.52,7.52,0,0,1,.2-1.08v2.9c0,.22-.08.56.25.56s.2-.31.22-.51,0-.37.18-.38.28.2.29.39,0,.37,0,.55a.94.94,0,0,1-.74.72,2,2,0,0,1-.85.06H21.8a23.33,23.33,0,0,0-2.51,0c-.72.07-1.09-.36-1.11-1.09a2.23,2.23,0,0,0-.06-.85A.52.52,0,0,1,18.12,48.44Z"/><path class="cls-72" d="M18.12,48.94c.26.27.13.6.13.9,0,.68.48,1,1,.93a12.37,12.37,0,0,1,2.79,0c5.36,0,10.72,0,16.08,0a1,1,0,0,1-.68.12H19.85C18.14,51,17.91,50.65,18.12,48.94Z"/><path class="cls-74" d="M49.09,64.35H48.3a2.75,2.75,0,0,1-2.16-1.48A2.59,2.59,0,0,1,46.36,60a2.54,2.54,0,0,1,2.53-1c2.07.4,2.54,1.53,2.39,3.31-.07.83-.88,1.25-1.25,1.93h-.47C49.43,64.31,49.3,64.46,49.09,64.35Z"/><path class="cls-75" d="M56,42c.57,0,1.15-.05,1.72-.11s.62.14.64.56c.17,2.59.33,5.17.51,7.76,0,.47-.13.58-.56.6-1.23,0-2.46.13-3.68.23-.5,0-.7-.11-.73-.64-.16-2.51-.36-5-.56-7.51,0-.49.09-.74.62-.76s1.35-.11,2-.17Z"/><path class="cls-76" d="M55.11,41.85H53.93c-.27,0-.65.09-.68-.31a.68.68,0,0,1,.6-.71,14.38,14.38,0,0,1,1.85-.23c.57,0,1.15,0,1.72,0a.83.83,0,0,1,.81.51c.19.36.18.59-.32.58A26.3,26.3,0,0,1,55.11,41.85Z"/><path class="cls-77" d="M55.52,51.29l3-.16c.29,0,.64,0,.63.39s-.29.54-.64.55c-1.22,0-2.43.14-3.64.29a.68.68,0,0,1-.83-.62c0-.5.41-.44.74-.45Z"/><path class="cls-78" d="M68.75,52.94a3.48,3.48,0,1,1-3.5-3.49A3.49,3.49,0,0,1,68.75,52.94Z"/><path class="cls-79" d="M64.34,49.08s0,0,.06,0c1.23.09,1.49-.67,1.47-1.68A1.85,1.85,0,0,1,66,46.9c.11-.38.3-.72.75-.61a.71.71,0,0,1,.56.89c-.11.69-.19,1.39-.29,2.08A9.28,9.28,0,0,0,64.34,49.08Z"/><path class="cls-24" d="M49.09,64.35l.47-.16a4.25,4.25,0,0,1,.15.59c0,.34,0,.65-.46.64S49,65,49,64.78A1.36,1.36,0,0,1,49.09,64.35Z"/><path class="cls-18" d="M112.56,48.27,95.79,60.77c-1.9,1.42-3.79,2.86-5.68,4.3-1.18.85-2.37,1.69-3.53,2.58-.42.33-.7.38-1-.1s-.54-.75-.81-1.13l.08-.07c.42,0,.63.36.84.66s.53.38.91.1c1.79-1.32,3.55-2.68,5.34-4s3.69-2.75,5.53-4.14c2.89-2.17,5.8-4.3,8.66-6.5,1.74-1.34,3.53-2.63,5.28-3.95.16-.12.44-.18.4-.43s-.33-.21-.51-.3c-.75-.38-1.56-.59-2.32-1a.73.73,0,0,0-.9.16c-1.22,1-2.53,1.94-3.8,2.91-2.22,1.7-4.51,3.31-6.73,5S92.9,58.24,90.66,60c-1.9,1.48-3.91,2.81-5.76,4.35a1.55,1.55,0,0,1-1.22.44.65.65,0,0,1-.38-.41A1.52,1.52,0,0,1,84,63.23c4.64-3.31,9.15-6.8,13.76-10.16,2.46-1.78,4.91-3.57,7.29-5.46a14.35,14.35,0,0,1,2.11-1.41c-.14-.18-.36-.18-.52-.27a1,1,0,0,0-1.37.25,19.86,19.86,0,0,1-2.88,2.16C100,50.18,97.5,52,95.05,53.81c-3.87,2.9-7.75,5.78-11.61,8.68-.42.32-.83.56-1.36.26-.8-.67-1.28-1.61-2-2.32h0c-.14-.36.12-.52.35-.68a2.31,2.31,0,0,0,.6-.48h0a6.57,6.57,0,0,0,1.27-1h0a.79.79,0,0,1,.2,0c.29.06.52-.19.8-.13s.36.29.63.27c0-.26-.24-.31-.36-.45a.51.51,0,0,1-.18-.26c0-.19.13-.24.29-.25s.42,0,.62.06c.45.42,1.15.76.52,1.56-.11.14,0,.3.07.44a.77.77,0,0,1-.09.88,11.37,11.37,0,0,1,1.48-1.1,10.23,10.23,0,0,1-1.94-1.89c.23-.54.82-.7,1.24-1a14.6,14.6,0,0,1,3-1.85,24.31,24.31,0,0,0,3.17-2.16.32.32,0,0,0,.14-.47c-.16-.23-.33-.05-.46.06-.5.43-1.06.77-1.57,1.18a2.6,2.6,0,0,1-1.21.7.27.27,0,0,1-.18-.11c1.34-1.21,2.85-2.2,4.29-3.29,2.88-2.17,5.79-4.3,8.67-6.47a1.07,1.07,0,0,1,1.25-.18c3.12,1.28,6.27,2.49,9.4,3.75C112.25,47.7,112.87,47.65,112.56,48.27Z"/><path class="cls-80" d="M83.38,64.33a.51.51,0,0,0,.31.33c.5.49,1.15.87,1.13,1.71l-.06,0c-1.64-1.94-3.22-3.94-4.71-6C81,61,81.3,62,82.12,62.61,82.58,63.15,83.2,63.58,83.38,64.33Z"/><path class="cls-80" d="M82.45,58.38l-.21,0A34.65,34.65,0,0,1,86,55.5a.24.24,0,0,1,.08.2,8.35,8.35,0,0,1-2.42,1.88.3.3,0,0,0-.31.16A1.09,1.09,0,0,1,82.45,58.38Z"/><path class="cls-18" d="M86.05,55.7l0-.2a16,16,0,0,1,2.36-1.72l0,.06c0,.37-.26.55-.51.72C87.31,55,86.82,55.56,86.05,55.7Z"/><path class="cls-80" d="M81,59.27c-.12.55-.93.54-1,1.16-.32-.21-.14-.4,0-.55A2.52,2.52,0,0,1,81,59.27Z"/><path class="cls-80" d="M82.25,58.33a2,2,0,0,1-1.27,1A4.23,4.23,0,0,1,82.25,58.33Z"/><path class="cls-64" d="M89.36,47.83c-.28.27-.87.06-.92.64-.37-.4-.62-1-1.29-1,.1-.31-.17-.44-.3-.64.12-.14.31-.17.46-.26s.5-.43.26-.78a.61.61,0,0,0-.83-.18c-.22.1-.34.32-.53.45-.16-.11-.24-.35-.49-.33.11-.43.51-.61.78-.91a1.37,1.37,0,0,0,.22.2.68.68,0,0,0,.79,0c.18-.13.18-.4-.18-.32-.14,0-.24,0-.33-.08.28-.43.85-.57,1.07-1.06.24.07.16.5.51.45,0,.27-.18.35-.33.48a.43.43,0,0,0,0,.67.55.55,0,0,0,.81.15c.24-.16.39-.34.21-.64s-.28-.38-.21-.64.37-.52-.13-.65c0,0,0-.1,0-.14.63-.95.63-.95-.31-1.6l.78-.47c.23.1.34.32.51.47a.56.56,0,0,0,.78.09.48.48,0,0,0,.13-.74.65.65,0,0,1-.17-.58l.3-.35c.37.28.77.56.65,1.12a1.74,1.74,0,0,0-.12.18c.75.6.38,1.42.45,2.16H91.4a.18.18,0,0,1,0-.2,1.52,1.52,0,0,0,.09-1.11c-.32-.06-.32.28-.5.39s-.34-.08-.56-.08c.28.24.72.35.57.84-.26.17-.43-.1-.64-.13a.6.6,0,0,0-.66.32c-.14.25,0,.44.2.61a.5.5,0,0,0,.7,0c.25-.18.31-.48.51-.69.38,0,.13.38.32.5s.48-.13.62.17c-.49.25-.64.55-.14,1-.12.21-.35.36-.36.63-.25,0-.36-.16-.5-.31-.33-.35-.61-.17-.88.07s-.12.55.12.78.36.2.49.37a1.87,1.87,0,0,0-.79.63,4,4,0,0,1-.46-.62.51.51,0,0,0-.85-.09c-.37.34-.12.59.12.84S89.21,47.63,89.36,47.83Z"/><path class="cls-71" d="M84.17,51.44c-.34,0-.27.37-.49.47a4.64,4.64,0,0,0-1.1-1.11l-.16-.28a.91.91,0,0,1,.41-.55c.3-.23.38-.48.11-.79s-.59-.21-.88,0-.22.36-.39.49c-.23-.1-.18-.49-.51-.47a.24.24,0,0,1,0-.22c.61-.45.37-.85-.08-1.23a1,1,0,0,1-.27-.27,1.53,1.53,0,0,0,.81-.6c.17.13.2.35.32.52a.56.56,0,0,0,.86.2.51.51,0,0,0,.12-.8c-.12-.17-.3-.31-.22-.55a.55.55,0,0,1,.32-.33,12.39,12.39,0,0,0,1.1.94c-.16.27-.8.26-.46.81-.42,1-.38,1.16.57,1.51l.2.35A1.32,1.32,0,0,0,84.17,51.44Z"/><path class="cls-81" d="M87.15,47.51c.7-.25,1,0,1.29,1-1,.76-1,.76-1.78-.28-.17-.23-.28-.54-.63-.22s-.88.37-1.19-.2a.85.85,0,0,1,0-.87c.89-.71,1-.69,1.68.26C86.65,47.4,86.71,47.81,87.15,47.51Z"/><path class="cls-71" d="M82.92,52.57c-.18.2-.51,0-.65.3-.29.07-.44-.14-.58-.32-.32-.44-.66-.27-.9,0s.06.56.28.77.41.11.56.28c-.21.36-.66.08-.9.35,0,0-.06,0-.07,0-.56-.73-1.19-.62-1.85-.15l-.33-.18c0-.41-.27-.79-.16-1.22a.27.27,0,0,0,.14-.3l.09-.07a.54.54,0,0,1,.46.26c.31.41.58.19.84,0s0-.51-.14-.72a1.13,1.13,0,0,0-.3-.24.57.57,0,0,1-.15-.16c0-.13,0-.2.19-.17.42.12.44-.26.6-.47.17.08.24.26.34.41.22.34.48.52.9.33a.56.56,0,0,1,.77.14A3,3,0,0,0,82.92,52.57Z"/><path class="cls-82" d="M82,51.45a.38.38,0,0,0-.48-.13c-.9.27-1.17.12-1.42-.83.81-.86,1.1-.85,1.71.15a.63.63,0,0,0,.68.36C82.55,51.45,82.3,51.5,82,51.45Z"/><path class="cls-83" d="M88.07,43.61c.05.76-.62.79-1.07,1.06-.11-.11-.23-.2-.33-.32-.33-.4-.71-.7,0-1.23s.95-.19,1.28.3Z"/><path class="cls-82" d="M79,48.76c.64-.42.9.05,1.19.5.45.69-.34.74-.55,1.1a.63.63,0,0,1-.93-.2.94.94,0,0,1-.05-1.26A.35.35,0,0,1,79,48.76Z"/><path class="cls-84" d="M87.82,41.65a1.37,1.37,0,0,1-1.14.81c-.46,0-.79-.55-.8-.91s.54-.78,1-.81S87.43,41.39,87.82,41.65Z"/><path class="cls-42" d="M78.23,47.66c-.21-.73.37-1,.83-1.06s.69.53.93.89c.1.16-.11.33-.25.44l-.76.52C78.42,48.48,78.32,48.07,78.23,47.66Z"/><path class="cls-85" d="M84.17,46.89c-.65,0-.9-.43-1.1-.94.65-1,1.14-1,1.68-.23S84.43,46.54,84.17,46.89Z"/><path class="cls-86" d="M84.6,43.9a1.05,1.05,0,0,1-.38.57c-.36.22-.66.67-1.12.12s-.55-.88,0-1.31l.24-.19C84.1,42.87,84.39,43.33,84.6,43.9Z"/><path class="cls-87" d="M84.28,49.21c-.66.42-.82-.25-1-.56-.42-.56.37-.6.48-.95a.75.75,0,0,1,.59-.16,1.14,1.14,0,0,1,.49.35c.45.56.36.9-.33,1.18Z"/><path class="cls-88" d="M85.27,41.84l.12.09c.32.3.81.61.6,1.07a1.21,1.21,0,0,1-1.19.72c-.34-.28-.67-.57-.62-1.07h0C84.41,42.21,84.65,41.77,85.27,41.84Z"/><path class="cls-87" d="M88.56,41.69c.62-.13.89.36,1,.75s-.48.64-.71,1c-.64,0-.87-.55-1-1S88.37,42,88.56,41.69Z"/><path class="cls-89" d="M80.86,47.51c.62,0,.86.52,1,.91s-.44.55-.7.81c-.67.15-.88-.41-1-.8C79.9,47.85,80.64,47.85,80.86,47.51Z"/><path class="cls-52" d="M80.67,45.35c.19.18.37.35.55.54s.39.59,0,.83-.63.76-1.08.14c-.21-.29-.57-.49-.5-.92C79.85,45.52,80.09,45.14,80.67,45.35Z"/><path class="cls-54" d="M89,44.08a4.37,4.37,0,0,1,.25.4c.11.24.54.41.27.72s-.58.61-1,.55a1,1,0,0,1-.75-.82c-.1-.53.55-.53.77-.87Z"/><path class="cls-42" d="M83.05,45.18a1.1,1.1,0,0,1-1,.75c-.45,0-.77-.53-.8-.92s.56-.75.91-.75S82.78,44.83,83.05,45.18Z"/><path class="cls-90" d="M90.59,40.46a1.85,1.85,0,0,0,.21.33c.42.42.49.79,0,1.2s-.85.07-1.18-.29a.75.75,0,0,1-.23-.48A1.77,1.77,0,0,1,90.59,40.46Z"/><path class="cls-91" d="M82.75,46.28a3.44,3.44,0,0,0,.35.41c.43.41.35.77-.08,1.11a.7.7,0,0,1-1.13-.17.86.86,0,0,1-.22-.72C82,46.71,82.25,46.24,82.75,46.28Z"/><path class="cls-92" d="M81.67,49.7c-.11-.65.44-.77.82-1s.52.23.71.44a.51.51,0,0,1-.15.89c-.22.13-.42.31-.63.46A3.08,3.08,0,0,1,81.67,49.7Z"/><path class="cls-93" d="M82,51.45c.2-.11.46-.16.49-.45,0-.06.09-.13.14-.2a1.1,1.1,0,0,1,1.1,1.11.4.4,0,0,0-.26.47s-.06,0,0,.06l-.45.13A1.17,1.17,0,0,1,82,51.45Z"/><path class="cls-54" d="M87.46,40.44a1,1,0,0,1,1.07-.9c.5.05.66.58.69,1.07C88.21,41.47,88.21,41.47,87.46,40.44Z"/><path class="cls-42" d="M86.5,44.86c0,.53-.49.63-.78.91-.64,0-.82-.52-1-.94s.35-.44.55-.65a.42.42,0,0,1,.72.07C86.17,44.46,86.34,44.66,86.5,44.86Z"/><path class="cls-94" d="M77.12,47c-.33-.5-.91-1,0-1.49.53-.39.73,0,1,.37s.18.64-.17.88l-.3.24A.32.32,0,0,1,77.12,47Z"/><path class="cls-92" d="M86.21,46.1c0-.68.59-.77,1-.75a.74.74,0,0,1,.68.81.86.86,0,0,1-1.08.71C86.63,46.62,86.42,46.36,86.21,46.1Z"/><path class="cls-55" d="M90,40.12c-.58,0-.72-.56-.91-1s.3-.37.47-.55c.31-.35.61-.24.82.11s.41.42.39.75Z"/><path class="cls-95" d="M91.54,41.23c-.07-.45-.58-.66-.65-1.12a1.76,1.76,0,0,1,.34-.33c.28-.14.52-.64.86-.37s.17.8-.07,1.06S92.16,41.29,91.54,41.23Z"/><path class="cls-71" d="M84.46,49.07c1-.62,0-1-.16-1.53.43,0,.2-.54.51-.64,0,1,.46,1.37,1.22,1.07l.18.49a5.37,5.37,0,0,1-1.12.95A.59.59,0,0,0,84.46,49.07Z"/><path class="cls-71" d="M78.8,48.92c-.48.79-.16,1.35.81,1.44a.49.49,0,0,1,0,.11c-.07.22-.5.25-.32.61l0,.07c-.13.41-.61.54-.78.91l-.06,0c-.14-.18-.09-.52-.44-.52,0,0,0-.06,0-.07.59-.93.59-.93-.29-1.64.09-.28.64,0,.58-.46,0-.25-.28-.17-.44-.19,0-.34.3-.53.46-.79C78.68,48.4,78.67,48.73,78.8,48.92Z"/><path class="cls-96" d="M78.8,48.92c-.38.07-.23-.38-.46-.46-.45-.17-.72-.71-1.29-.64-.28-.3-.17-.56.07-.81h.55c.46,0,.23.55.56.65l.75.79c0,.1,0,.21,0,.31Z"/><path class="cls-97" d="M84.18,42.65c.14.39.57.62.62,1.07l-.2.18c-.46-.19-.53-1-1.23-.81C83.6,42.87,84,43,84.18,42.65Z"/><path class="cls-97" d="M85.27,41.84l-1.09.81c0-.23-.15-.32-.36-.35l1.27-.94Z"/><path class="cls-53" d="M80.67,45.35c-.43,0-.68.43-1,.59H79l1.39-1Z"/><path class="cls-98" d="M79.25,51.08c-.26,0-.31-.16-.26-.35s.38-.19.58-.26c.38.27,0,.33-.12.49Z"/><path class="cls-99" d="M90.75,46.71a.92.92,0,0,1-1-.85c-.08-.48.5-.69.84-.8.54-.19.62.51,1,.74,0,.14,0,.28,0,.42A2.23,2.23,0,0,0,90.75,46.71Z"/><path class="cls-100" d="M91.4,44.05l-.32-.46c-.14,0-.21,0-.15-.17-.06-.65-.63-.56-1.18-.74.48-.38.81-.52,1.17,0a.66.66,0,0,1,.5.76l0,.17Z"/><path class="cls-101" d="M91.88,45.17a.51.51,0,0,1-.61-.61c.06-.44.45-.34.75-.34C92.32,44.59,91.92,44.85,91.88,45.17Z"/><path class="cls-102" d="M92,36a2,2,0,0,0-.26-.39c-.44-.43-.47-.74.09-1.17s.81-.1,1.1.29a3.28,3.28,0,0,0,.31.34h0A1.8,1.8,0,0,1,92,36Z"/><path class="cls-103" d="M93.08,36.47c-.35.28,0,.92-.54,1.09-.47-.73-.43-1,.18-1.37C93.08,36,93.11,36.18,93.08,36.47Z"/><path class="cls-104" d="M92,36c.24.43.07.75-.67.95.4-.32.21-.82.67-.95Z"/><path class="cls-105" d="M97.85,37.92l.14.17c0,.22.25.43.06.65a.54.54,0,0,1-.3.19s-.15-.13-.18-.21a5.72,5.72,0,0,1-.17-.59c0-.14-.14-.33,0-.39S97.71,37.86,97.85,37.92Z"/><path class="cls-70" d="M77.05,47.82c.77-.47.92.31,1.29.64.1.42-.24.56-.48.77s-.63.33-.87-.08-.74-.65-.11-1.08C77,48,77,47.9,77.05,47.82Z"/><path class="cls-106" d="M77.72,49.88c.63-.1.84.42,1,.82s-.46.58-.69.89c-.64.11-.82-.46-1-.82C76.8,50.24,77.51,50.21,77.72,49.88Z"/><path class="cls-87" d="M78.32,52.41c.11.4.65.75.16,1.22-.38.06-.66.59-1.16.06-.65-.69-.19-1,.27-1.43A.86.86,0,0,1,78.32,52.41Z"/><path class="cls-107" d="M75.81,48.74c-.38,0-.41-.19-.14-.4a1.89,1.89,0,0,1,.49-.17c.44.07.33.26.08.43A2,2,0,0,1,75.81,48.74Z"/><path class="cls-108" d="M88.25,39c0-.19.08-.29.27-.29s.32,0,.33.24-.07.35-.31.33S88.25,39.21,88.25,39Z"/><path class="cls-109" d="M85.09,49.41c.17-.56.64-.76,1.12-.95.3.32.67.59.74,1.07l-1,.81C85.5,50.14,85.35,49.73,85.09,49.41Z"/><path class="cls-110" d="M89.36,47.83c-.69.15-.92-.39-1.17-.82s.17-.37.35-.5.45-.56.78-.25.73.54.64,1.08Z"/><path class="cls-42" d="M79.15,55.23a15.43,15.43,0,0,1-1.71,1.41c-.16.14-.33.07-.49,0,0-.39-.72-.63-.38-1a4.69,4.69,0,0,1,1.64-1.28C78.68,54.15,78.85,54.89,79.15,55.23Z"/><path class="cls-92" d="M78.81,53.81c.1-.31.45-.32.64-.54s.57-.27.8.09.32.41.48.62a1.52,1.52,0,0,1-1.25.9C79.32,54.48,78.81,54.3,78.81,53.81Z"/><path class="cls-111" d="M75.55,54.71c-.33-.67,0-1.14,1-1.35l.21.33c.26.34.65.65.07,1.07S76,55.41,75.55,54.71Z"/><path class="cls-109" d="M84.17,51.44c-.1-.12-.19-.25-.29-.36-.44-.43-.54-.81.11-1.14a2.93,2.93,0,0,0,.49-.38,1.74,1.74,0,0,1,.29.25C85.56,50.72,85.39,51.17,84.17,51.44Z"/><path class="cls-112" d="M81.63,53.63c-.59.21-.86-.19-1.12-.59s-.22-.53.19-.67.59-.74,1-.14a2,2,0,0,0,.55.64C82.29,53.32,81.78,53.32,81.63,53.63Z"/><path class="cls-1" d="M29,39c2.73,0,5.45,0,8.18,0,.68,0,.82.2.77.86-.25,3.13-.45,6.27-.65,9.4,0,.45-.19.59-.62.59H20.37c-.48,0-.65-.15-.64-.64.08-3.19.14-6.39.19-9.58,0-.62.41-.62.86-.62H29Z"/><path class="cls-113" d="M48.21,63.56a1.38,1.38,0,0,1-1.49-1.79,2.58,2.58,0,0,0,.07-1.46.48.48,0,0,1,.48-.65,5.82,5.82,0,0,1,2.24,0c.74.24.76,1,.93,1.61a1.32,1.32,0,0,1-.38,1.5C49.49,63.16,49,63.81,48.21,63.56Z"/><path class="cls-114" d="M65.62,55.7c-.8,0-1.7.32-2-.27s-1.35-.83-1.34-1.75a4.26,4.26,0,0,1,1-3A2.8,2.8,0,0,1,65,49.93a3.35,3.35,0,0,1,3.33,2.73,2.39,2.39,0,0,1-.64,2.21A2.27,2.27,0,0,1,65.62,55.7Z"/><path class="cls-115" d="M84.82,66.37c-.21-.68-.87-1.06-1.13-1.71.9,0,1.39-.7,2-1.15C86.76,62.6,88,61.85,89.1,61c2.61-2.09,5.4-3.93,8-6,2.19-1.69,4.47-3.25,6.63-5,1.26-1,2.58-2,3.88-2.91.14-.11.34-.17.39-.36.11-.42.38-.36.67-.24l3.18,1.27c.48.19.37.39,0,.64-1.86,1.34-3.76,2.64-5.55,4.07-2.24,1.79-4.58,3.45-6.85,5.2S95.16,60.92,93,62.54s-4.3,3.21-6.43,4.85c-.4.3-.66.29-.9-.09A3.94,3.94,0,0,0,84.82,66.37Z"/><path class="cls-115" d="M83.38,64.33a6.46,6.46,0,0,1-1.26-1.72,1,1,0,0,0,1.12-.2c2.05-1.57,4.15-3.06,6.21-4.61,1.47-1.11,3-2.2,4.37-3.41,1-.85,2.15-1.53,3.22-2.31q3.46-2.53,6.92-5.1a5.32,5.32,0,0,0,1.2-.87c.13-.17.43-.2.31-.54s.13-.27.28-.21c.65.24,1.29.51,2,.77a80.74,80.74,0,0,0-7,5c-2.21,1.62-4.43,3.22-6.62,4.85-1.32,1-2.58,2-3.9,3-1.53,1.13-3.13,2.15-4.61,3.33C84.82,62.94,83.79,63.3,83.38,64.33Z"/><path class="cls-115" d="M86.05,55.7a17.9,17.9,0,0,0,2.38-1.86,21.37,21.37,0,0,0,2.91-2.08c.18-.13.45-.46.63-.12s.37.58,0,.84a21.33,21.33,0,0,1-3.35,2.25c-1,.46-1.85,1.12-2.78,1.65a11.64,11.64,0,0,1-1.52,1,.19.19,0,0,1-.16.16c-.16,0-.31.18-.47,0A23.72,23.72,0,0,1,86.05,55.7Z"/><path class="cls-115" d="M104.36,44.86a8.09,8.09,0,0,0-2.15,1.5.88.88,0,0,1-1.31.1c-.51-.42-.51-.79.09-1.12.3-.17.85-.21.28-.75-.19-.18.63-.73,1-.59C103,44.26,103.67,44.57,104.36,44.86Z"/><path class="cls-80" d="M84.16,57.58l.16-.16,1.28,1.14c.11.11.19.3.31.34,1.35.37.38.52,0,.87s-.86.39-1,.9a.27.27,0,0,1-.45.12c-.18-.17,0-.35.1-.46s.35-.3.24-.52c-.19-.4-.74-.81.12-1.1,0,0-.06-.23-.09-.35C84.71,58,84.32,57.88,84.16,57.58Z"/><path class="cls-80" d="M82.9,59.63c0,.1,0,.23,0,.3.41.57.68,1-.29,1.36-.28.09-.45.46,0,.73a.21.21,0,0,1,.06.33.25.25,0,0,1-.41,0c-.31-.38-.46-.76,0-1.17.18-.18.49-.31.43-.61s-.36-.16-.54-.2c-.48-.1-.25.33-.34.52s-.15.28-.32.3-.27-.12-.35-.26c-.25-.47.23-.7.35-1s.34-.26.57-.1S82.6,59.57,82.9,59.63Z"/><path class="cls-80" d="M82.78,59.74c.26-.46.4-.88.75-.6s.94.28.61.77C83.63,60.66,83.41,59.36,82.78,59.74Z"/><path class="cls-80" d="M85.85,62.72c0-.23.19-.32.31-.45s.49-.56.9-.54c0,0,.16.12.15.16-.13.42-.51.55-.86.73C86.2,62.7,86,62.81,85.85,62.72Z"/><path class="cls-80" d="M83.53,57.9c.43,0,.61.33.7.7,0,0-.11.17-.13.16-.34-.1-.75-.12-.88-.55S83.37,57.94,83.53,57.9Z"/><path class="cls-80" d="M90,59.71c-.37.27-.65.65-1,.93-.11.09-.26.12-.35,0a.21.21,0,0,1,.13-.31C89.23,60.18,89.49,59.73,90,59.71Z"/><path class="cls-115" d="M83.53,57.9l-.31.31c-.25.06-.42.53-.77.17l.93-.64Z"/><path class="cls-80" d="M82.58,59.13c-.11,0-.22,0-.24-.13s.1-.24.22-.28.29,0,.28.16A.29.29,0,0,1,82.58,59.13Z"/><path class="cls-87" d="M90.93,43.42l.15.17c.18.64-.41.77-.75,1s-.46-.11-.63-.3-.58-.6-.14-1,.76-.61,1.18-.06A1.33,1.33,0,0,0,90.93,43.42Z"/><path class="cls-116" d="M91.42,43.4l-.5-.76a.71.71,0,0,1,.33-.67c.13-.09.39-.16.4,0C91.67,42.44,92,43,91.42,43.4Z"/><path class="cls-93" d="M78.52,52.06c-.08-.59.41-.69.78-.91.67-.1.87.51,1,.89s-.56.47-.79.8c-.1.13-.32-.06-.45-.2Z"/><path class="cls-117" d="M97.12,56.66c.48,0,1.25.79,1.18,1.15s-.36.76-.73.66a1.57,1.57,0,0,1-1.08-1.12C96.41,57,96.8,56.74,97.12,56.66Z"/><path class="cls-118" d="M97.23,57a1.07,1.07,0,0,1,.81.73c.12.28-.1.45-.35.49s-.32-.14-.22-.35S97.29,57.33,97.23,57Z"/></g></g></g></svg>