<svg xmlns="http://www.w3.org/2000/svg" viewBox="0 0 24.25 19.79"><defs><style>.cls-1{opacity:0.6;}.cls-2{fill:#010101;}</style></defs><g id="Layer_2" data-name="Layer 2"><g id="Layer_1-2" data-name="Layer 1"><g class="cls-1"><path class="cls-2" d="M24,7.29H22.72a.28.28,0,0,0,.06-.16.65.65,0,0,0-.7-.59H21.6a1.22,1.22,0,0,0-.84-1.13l.75-1.49a.69.69,0,0,0,.65-.68.67.67,0,0,0-.68-.68l-.18,0L19.57,1.15a.26.26,0,0,0-.36,0,.25.25,0,0,0,0,.35L20.89,2.9a.75.75,0,0,0-.09.34.67.67,0,0,0,.24.51l-.82,1.61a1.22,1.22,0,0,0-1.06,1.18h-.47a.66.66,0,0,0-.7.61.33.33,0,0,0,0,.14H3V5.54a.25.25,0,0,0-.25-.25h0L3,4.75a.24.24,0,0,0-.1-.34.24.24,0,0,0-.33.1l-.34.61V4a.25.25,0,0,0-.5,0V5.29h0a.29.29,0,0,0,0-.09l-.25-.63a.24.24,0,0,0-.32-.14A.25.25,0,0,0,1,4.76l.21.53A.25.25,0,0,0,1,5.54V7.29H.25A.25.25,0,0,0,0,7.54v12a.25.25,0,0,0,.25.25.25.25,0,0,0,.25-.25V8.79H15.75V19.54a.25.25,0,0,0,.5,0v-.25h7.5v.25a.25.25,0,0,0,.5,0v-12A.25.25,0,0,0,24,7.29ZM16.25,12h7.5v3.25h-7.5Zm5.41-8.8a.18.18,0,1,1-.18-.18A.18.18,0,0,1,21.66,3.24ZM20.38,5.85a.71.71,0,0,1,.72.69H19.66A.72.72,0,0,1,20.38,5.85Zm-1.89,1.3s.07-.11.2-.11h3.39c.12,0,.2.06.2.09a.23.23,0,0,0,.06.16h-3.9A.24.24,0,0,0,18.49,7.15ZM1.5,5.79h1v1.5h-1Zm-1,2H23.75v.5H.5Zm23.25,1v2.75h-7.5V8.79Zm-7.5,10v-3h7.5v3Z"/><path class="cls-2" d="M19.25,10.54H21a.25.25,0,0,0,0-.5H19.25a.25.25,0,0,0,0,.5Z"/><path class="cls-2" d="M21.25,13.54h-2a.25.25,0,0,0,0,.5h2a.25.25,0,0,0,0-.5Z"/><path class="cls-2" d="M21.25,17h-2a.25.25,0,0,0,0,.5h2a.25.25,0,0,0,0-.5Z"/><path class="cls-2" d="M16,1.93l2.65,1.76a.23.23,0,0,0,.14,0h0a.27.27,0,0,0,.16-.1,2.17,2.17,0,0,0,0-2.31l.36-.47a.24.24,0,0,0,.05-.18.23.23,0,0,0-.1-.17L18.7.05a.25.25,0,0,0-.34,0l-.47.57-.23,0a2.21,2.21,0,0,0-1.76.94.26.26,0,0,0,0,.19A.25.25,0,0,0,16,1.93Zm1.68-.79a.86.86,0,0,1,.28,0,.25.25,0,0,0,.25-.09l.41-.5.2.15-.32.42a.24.24,0,0,0,0,.31,1.58,1.58,0,0,1,.19,1.65L16.48,1.66A1.69,1.69,0,0,1,17.65,1.14Z"/></g></g></g></svg>