<svg xmlns="http://www.w3.org/2000/svg" viewBox="0 0 61.46 61.46"><defs><style>.cls-1{fill:#3c5a9a;}.cls-2{fill:#b8bbd7;}.cls-3{fill:#bec0db;}.cls-4{fill:#d1d2e5;}.cls-5{fill:#cfd2e5;}.cls-6{fill:#5f70a9;}.cls-7{fill:#6775ac;}.cls-8{fill:#e5e5f0;}.cls-9{fill:#cbcce1;}.cls-10{fill:#6270a9;}.cls-11{fill:#6170a9;}.cls-12{fill:#d6d8e9;}.cls-13{fill:#9399c3;}.cls-14{fill:#cbcde2;}.cls-15{fill:#858bba;}.cls-16{fill:#858ebc;}.cls-17{fill:#acb1d1;}.cls-18{fill:#bcbfda;}.cls-19{fill:#8189b9;}.cls-20{fill:#a8adcf;}.cls-21{fill:#a3a7ca;}.cls-22{fill:#dddeec;}.cls-23{fill:#fff;}</style></defs><g id="Layer_2" data-name="Layer 2"><g id="Layer_1-2" data-name="Layer 1"><path class="cls-1" d="M31.22,61.46H30.3a1.48,1.48,0,0,0-.42,0h-.75a25,25,0,0,1-6.54-1,33.4,33.4,0,0,1-4.52-1.63,31.55,31.55,0,0,1-3.75-2,29.66,29.66,0,0,1-3.17-2.29,33.22,33.22,0,0,1-3.26-3.13A29.46,29.46,0,0,1,5,47.68,31.1,31.1,0,0,1,1.73,41.1,32.13,32.13,0,0,1,.2,34.75a23,23,0,0,1-.15-2.62c0-.87,0-1.75,0-2.62v-.3a23.77,23.77,0,0,1,.58-5,29.43,29.43,0,0,1,1.46-4.79,30.28,30.28,0,0,1,2.47-4.93A29.43,29.43,0,0,1,7.7,10.29,31,31,0,0,1,10,8a30,30,0,0,1,3.89-3A31,31,0,0,1,18.4,2.5,30.13,30.13,0,0,1,23.46.79,28.81,28.81,0,0,1,27.28.11a11.64,11.64,0,0,1,1.18,0c.4,0,.8,0,1.2,0h2.23a25.79,25.79,0,0,1,7.75,1.18A30.52,30.52,0,0,1,50.08,6.7c.67.54,1.3,1.12,1.93,1.71a29.94,29.94,0,0,1,4.55,5.43,31.35,31.35,0,0,1,3.18,6.34,30.3,30.3,0,0,1,1.6,6.62,20.35,20.35,0,0,1,.1,2.34v.79a1.15,1.15,0,0,0,0,.37v.87a1.4,1.4,0,0,0,0,.41v.79a23.8,23.8,0,0,1-1.08,7,29.52,29.52,0,0,1-2.14,5.39A31.37,31.37,0,0,1,52.1,53a31.32,31.32,0,0,1-3.56,2.93A31,31,0,0,1,39,60.46a31.71,31.71,0,0,1-4.21.85c-.52.07-1.06.08-1.59.1l-.79,0h-.79A1.14,1.14,0,0,0,31.22,61.46Z"/><path class="cls-2" d="M.1,32.19a1.11,1.11,0,0,1-.06-.4c0-.15,0-.32,0-.47V30.14c.07-.15,0-.31,0-.47l0-.19v0l0,0c0,.1,0,.2,0,.3a17.19,17.19,0,0,0,0,2Z"/><path class="cls-3" d="M31.58,0H29.94s0,0,0,0h1.64S31.61,0,31.58,0Z"/><path class="cls-4" d="M0,29.67a1.06,1.06,0,0,1,0,.47v-.46Z"/><path class="cls-5" d="M0,31.32a1.06,1.06,0,0,1,0,.47H0Z"/><path class="cls-6" d="M61.42,31.58a.72.72,0,0,1,0-.41v.41S61.44,31.61,61.42,31.58Z"/><path class="cls-7" d="M29.88,61.42a.76.76,0,0,1,.42,0h-.41s0,0,0,0Z"/><path class="cls-8" d="M31.58,0V0h.35V.05A2.08,2.08,0,0,1,31.58,0Z"/><path class="cls-9" d="M61.42,29.12s0,0,0,0v.36s0,0,0,0Z"/><path class="cls-10" d="M61.46,30.3a.59.59,0,0,1,0-.37s0,0,0,0Z"/><path class="cls-11" d="M31.22,61.46a.56.56,0,0,1,.36,0s0,0,0,0Z"/><path class="cls-8" d="M29.94,0V0a1.07,1.07,0,0,1-.31,0V0Z"/><path class="cls-12" d="M61.46,32.39h0v-.31s0,0,0,0Z"/><path class="cls-13" d="M29.88,61.42v0h-.31s0,0,0,0Z"/><path class="cls-14" d="M32.39,61.41v.05h-.3s0,0,0,0A1,1,0,0,1,32.39,61.41Z"/><path class="cls-15" d="M61.46,29.94h0v-.25s0,0,0,0Z"/><path class="cls-16" d="M61.42,31.58h0v.25s0,0,0,0Z"/><path class="cls-17" d="M61.42,31.84h0v.26h0Z"/><path class="cls-18" d="M29.58,61.42v0h-.26s0,0,0,0Z"/><path class="cls-19" d="M31.58,61.46v0h.26s0,0,0,0Z"/><path class="cls-20" d="M31.83,61.46a.06.06,0,0,1,0,0h.25v0Z"/><path class="cls-21" d="M61.46,29.68h0v-.21h0Z"/><path class="cls-22" d="M29.32,61.42v0h-.2v-.05A.67.67,0,0,1,29.32,61.42Z"/><path class="cls-23" d="M34.42,41.25V51.69c0,.36,0,.33-.32.33H25.89c-.36,0-.32,0-.32-.32V31c0-.39.05-.35-.36-.35H20.89c-.1,0-.14,0-.13-.14v-7c0-.37,0-.32.31-.32h4.22c.1,0,.14,0,.14-.14a1.33,1.33,0,0,1,0-.2v-6a8.49,8.49,0,0,1,.43-2.74,6.33,6.33,0,0,1,3.62-3.85,9.79,9.79,0,0,1,2.76-.73,14.31,14.31,0,0,1,2-.11h6.27c.31,0,.29,0,.29.29v6.76a.48.48,0,0,0,0,.12c0,.12,0,.17-.16.17-.35,0-.7,0-1.05,0-.94,0-1.88,0-2.82,0a3.23,3.23,0,0,0-1.15.19,1.88,1.88,0,0,0-1.3,1.73c0,.12,0,.25,0,.38V23c0,.1,0,.14.14.14H40.5c.29,0,.29-.05.27.29l-.18,2.42c-.08,1.12-.17,2.24-.25,3.37l-.06,1c0,.24,0,.24-.25.24h-5.3a1.08,1.08,0,0,1-.18,0c-.1,0-.13.05-.13.14V41.25Z"/><path class="cls-4" d="M.09,29.48h0a.48.48,0,0,1,0-.31A1.09,1.09,0,0,1,.09,29.48Z"/></g></g></svg>