<svg xmlns="http://www.w3.org/2000/svg" viewBox="0 0 59.64 60.97"><defs><style>.cls-1{fill:#e74233;}.cls-2{fill:#33a751;}.cls-3{fill:#527bbd;}.cls-4{fill:#f7bb18;}</style></defs><g id="Layer_2" data-name="Layer 2"><g id="Layer_1-2" data-name="Layer 1"><path class="cls-1" d="M3.27,16.8A29.25,29.25,0,0,1,22.58,1.11c10-2.59,19.2-.68,27.26,6,1.06.87,1,.89.11,1.82l-7.26,7.27c-.37.37-.61.6-1.14.13-8.28-7.44-22.7-4.76-27.72,7.34l-.42,1c-.47.2-.75-.15-1.06-.39Q8.09,21,3.83,17.66C3.55,17.45,3.19,17.26,3.27,16.8Z"/><path class="cls-2" d="M50.55,53.54a24.52,24.52,0,0,1-10.19,5.93C26,63.91,11.1,58.28,3.79,45.26c-.2-.35-.35-.72-.53-1.08A1.63,1.63,0,0,1,4,43.26c2.82-2.17,5.63-4.36,8.44-6.53a1.11,1.11,0,0,1,1-.37,18.56,18.56,0,0,0,6.46,8.85c6.33,4.53,13,4.72,19.85,1.31.36-.18.71-.38,1.06-.57.74,0,1.18.54,1.67.93,2.43,1.92,4.88,3.8,7.32,5.7C50.1,52.83,50.56,53,50.55,53.54Z"/><path class="cls-3" d="M50.55,53.54,40.78,46a14.93,14.93,0,0,0,5.65-7.69c.44-1.49.45-1.49-1.12-1.49-4.56,0-9.12,0-13.67,0-1,0-1.23-.28-1.21-1.23.05-3.21,0-6.42,0-9.63,0-.77.24-1,1-1q13.4,0,26.79,0c.57,0,.94.06,1,.77C60.58,36,58.7,45.32,51.22,53A7.27,7.27,0,0,1,50.55,53.54Z"/><path class="cls-4" d="M13.41,36.36,3.27,44.18A29.23,29.23,0,0,1,0,29,28.7,28.7,0,0,1,3.27,16.8c3.31,2.71,6.67,5.36,10.14,7.86A19.16,19.16,0,0,0,13.41,36.36Z"/></g></g></svg>