<svg xmlns="http://www.w3.org/2000/svg" viewBox="0 0 175.04 121.71"><defs><style>.cls-1{fill:#fff;}.cls-2{fill:#aab1bb;}.cls-3{fill:#ced2d9;}.cls-4{fill:#cdd3da;}.cls-5{fill:#dfc1b0;}.cls-6{fill:#dec1b0;}.cls-7{fill:#7a919a;}.cls-8{fill:#d1b7ac;}.cls-9{fill:#dcbfb2;}.cls-10{fill:#236676;}.cls-11{fill:#afbbc3;}.cls-12{fill:#dac2b5;}.cls-13{fill:#dabfb0;}.cls-14{fill:#93b4c9;}.cls-15{fill:#e4c9b9;}.cls-16{fill:#0081ab;}.cls-17{fill:#838588;}.cls-18{fill:#a8978c;}.cls-19{fill:#bdc9d1;}.cls-20{fill:#d9c5ba;}.cls-21{fill:#bbc6cd;}.cls-22{fill:#bcccd7;}.cls-23{fill:#edd1c2;}.cls-24{fill:#b4c0c8;}.cls-25{fill:#4688ac;}.cls-26{fill:#a2948d;}.cls-27{fill:#b5bec6;}.cls-28{fill:#bac7d0;}.cls-29{fill:#6ea1c4;}.cls-30{fill:#888788;}.cls-31{fill:#1182ae;}.cls-32{fill:#9ca2aa;}.cls-33{fill:#eaeaeb;}.cls-34{fill:#c2ced6;}.cls-35{fill:#a1a3a5;}.cls-36{fill:#998078;}.cls-37{fill:#898078;}.cls-38{fill:#a5b9c4;}.cls-39{fill:#e0c1b0;}.cls-40{fill:#6c8790;}.cls-41{fill:#75939f;}.cls-42{fill:#65514a;}.cls-43{fill:#c8b7b5;}.cls-44{fill:#607d83;}.cls-45{fill:#d4bbb4;}.cls-46{fill:#ccd0d8;}.cls-47{fill:#f6f9fa;}.cls-48{fill:#2a6472;}.cls-49{fill:#bcc1c8;}.cls-50{fill:#2d697c;}.cls-51{fill:#c9bcb8;}.cls-52{fill:#1b4f64;}.cls-53{fill:#b1a3a2;}.cls-54{fill:#d1c4bf;}.cls-55{fill:#c2bdbe;}.cls-56{fill:#d5d5d9;}.cls-57{fill:#6b828f;}.cls-58{fill:#7b8a91;}.cls-59{fill:#bbc4cd;}.cls-60{fill:#2b6171;}.cls-61{fill:#787f86;}.cls-62{fill:#e9e6e3;}.cls-63{fill:#305263;}.cls-64{fill:#d6dfe5;}.cls-65{fill:#2f6470;}.cls-66{fill:#e3cac0;}.cls-67{fill:#316474;}.cls-68{fill:#d1b6ab;}.cls-69{fill:#1d4658;}.cls-70{fill:#7d91a0;}.cls-71{fill:#998a80;}.cls-72{fill:#c2ced5;}.cls-73{fill:#85949e;}.cls-74{fill:#f4f0ed;}.cls-75{fill:#303737;}.cls-76{fill:#6c868d;}.cls-77{fill:#7294a1;}.cls-78{fill:#3b4546;}.cls-79{fill:#fcfbfb;}.cls-80{fill:#758890;}.cls-81{fill:#5d5c5c;}.cls-82{fill:#461c10;}.cls-83{fill:#f0f4f7;}.cls-84{fill:#35474b;}.cls-85{fill:#f8f9fa;}.cls-86{fill:#ccd4dc;}.cls-87{fill:#6d635a;}.cls-88{fill:#e3e7eb;}.cls-89{fill:#746b64;}.cls-90{fill:#52788f;}.cls-91{fill:#008ac7;}.cls-92{fill:#1e84ac;}.cls-93{fill:#25606d;}.cls-94{fill:#3580a4;}.cls-95{fill:#768386;}.cls-96{fill:#3b84a4;}.cls-97{fill:#014a5c;}.cls-98{fill:#1a3e4a;}.cls-99{fill:#4d595d;}.cls-100{fill:#18505d;}.cls-101{fill:#dbccc5;}.cls-102{fill:#dfcdc2;}.cls-103{fill:#d3bdb1;}.cls-104{fill:#615e54;}.cls-105{fill:#77919d;}.cls-106{fill:#16546d;}.cls-107{fill:#08607c;}.cls-108{fill:#3e4649;}.cls-109{fill:#68625d;}.cls-110{fill:#28708a;}.cls-111{fill:#37555c;}.cls-112{fill:#3f4648;}.cls-113{fill:#b8cddb;}.cls-114{fill:#a1a9b2;}.cls-115{fill:#342e26;}.cls-116{fill:#2f2d2b;}.cls-117{fill:#464642;}.cls-118{fill:#231915;}.cls-119{fill:#386e83;}.cls-120{fill:#2b565f;}.cls-121{fill:#3b6168;}.cls-122{fill:#adb0b8;}.cls-123{fill:#f7f8f8;}.cls-124{fill:#87929c;}.cls-125{fill:#2b5666;}.cls-126{fill:#295467;}.cls-127{fill:#698ea2;}.cls-128{fill:#4d6976;}.cls-129{fill:#384244;}.cls-130{fill:#266476;}.cls-131{fill:#073542;}.cls-132{fill:#2d6373;}.cls-133{fill:#718a9b;}.cls-134{fill:#70808c;}.cls-135{fill:#7f8c90;}.cls-136{fill:#c1cdd2;}.cls-137{fill:#43342a;}.cls-138{fill:#91bdde;}.cls-139{fill:#e3e5e7;}.cls-140{fill:#a1afb9;}.cls-141{fill:#c3d0d8;}.cls-142{fill:#121b23;}.cls-143{fill:#6b767b;}.cls-144{fill:#ebf1f4;}.cls-145{fill:#f9fbfb;}</style></defs><g id="Layer_2" data-name="Layer 2"><g id="Layer_1-2" data-name="Layer 1"><g id="ORRnBX"><path class="cls-1" d="M87.52,121.69q-43.26,0-86.51,0c-.85,0-1-.17-1-1Q0,60.85,0,1C0,.16.17,0,1,0Q87.52,0,174,0c.84,0,1,.16,1,1q0,59.85,0,119.69c0,.84-.16,1-1,1Q130.78,121.67,87.52,121.69Z"/><path class="cls-2" d="M59.52,53.6c-.13,1.06.3,1.34,1.27.95a1.64,1.64,0,0,1,1-.17c1.95.52,3.88-.13,5.82,0,.45,0,1-.09.9-.72A17.79,17.79,0,0,1,69.1,47c.6-2.73,1.26-5.44,2.12-8.11.57-1.78,2-2.36,3.49-2.89A19.76,19.76,0,0,0,79,34.24c.86-.56,1.2-.13,1.4.6.29,1,.52,2.13.76,3.2.07.32.07.71.5.71s.4-.42.51-.72c.27-.72.15-1.71,1.23-1.91.06-.09.13-.09.2,0,.79.15,1,.68,1,1.42a18.88,18.88,0,0,0,.13,2.9A5.9,5.9,0,0,0,86.05,38c.36-1,.9-1.92,1.17-2.93s.66-1,1.32-.43c-.27.38-.82.58-.75,1.17a56.46,56.46,0,0,1-2.06,5.48,1.38,1.38,0,0,1-.36.47c-.84.55-1.23.09-1.49-.66a1.83,1.83,0,0,1-.09-.39,27.06,27.06,0,0,0-.14-2.85c-.06-.15-.1-.36-.27-.38-.38,0-.36.27-.33.49a4.47,4.47,0,0,1-.55,2.7c-.88.62-1.08.58-1.48-.37a37.62,37.62,0,0,1-1.21-4.58c-.25-.85-.58-.84-1.13-.28a1.75,1.75,0,0,1-.29.18c-.67.34-1.51.22-2.11.76-.92.4-1.92.54-2.82,1-1.24.35-1.38,1.48-1.71,2.47a2.37,2.37,0,0,1-.13.34c-.61,2-1,4.1-1.46,6.14-.19.76-.43,1.49-.61,2.24A12.16,12.16,0,0,0,69.4,54a1.65,1.65,0,0,0,.85,1.41,3,3,0,0,1,1.34,2c.19.89.63,1.17,1.59.9,1.89-.53,3.88-.35,5.83-.5s4.23.07,6.35-.25a8.35,8.35,0,0,1,4.37,1c1.7.7,3.16.63,4.36-.94a19,19,0,0,1,1.85-1.6,5,5,0,0,0,1.42-2.38c.35-.83-.06-1.77.37-2.59a.26.26,0,0,1,.36-.07,5.66,5.66,0,0,1,.19,2.55c-.07.59.15.85.68.9a21.18,21.18,0,0,0,6,.06,3.66,3.66,0,0,1,2,.21.93.93,0,0,1,.68.24c1.05,1.3,2.51,1.18,3.93,1.09,2.72-.18,5.44.19,8.16,0a2.37,2.37,0,0,1,2.42,1.53c.23.52.52,1,.78,1.52s-.27.71-.66.73c-.84,0-1.09.52-1.06,1.27-1.07.38-1.63-.55-2.32-1a2.19,2.19,0,0,0-2.9-.12,5.26,5.26,0,0,0-1.82,1.78,1.42,1.42,0,0,1-.78.74,13.14,13.14,0,0,1-4-.12c.18.54.81.8.56,1.35s-.86.52-1.35.68a6.81,6.81,0,0,1-2.66-.06c-1.5-.08-3,0-4.52,0a1.16,1.16,0,0,1-.57-.21.33.33,0,0,1-.1-.36.72.72,0,0,1,.31-.21c2.24-.4,4.52.07,6.82-.16-.3-.24-.64-.23-.93-.37a8.54,8.54,0,0,1-1.11-.5c-.53-.3-1.29-.48-1.18-1.23s.89-.72,1.49-.78a3,3,0,0,0,1.18-.29c.29-.16.48-.36.11-.64-1-.75-1.87-1.65-3.34-1.42a20.57,20.57,0,0,1-2.94,0,5.29,5.29,0,0,0-2.46.66c-.64.35-.67.75,0,1.16,1.39.83,1.39,1,0,1.89-.65.44-.74,1-.21,1.52.17.18.41.29.39.59a20.33,20.33,0,0,0-.86,3.17c-.25.79.12,1.26.93,1.37a6.38,6.38,0,0,0,1,0c7.23,0,14.45,0,21.68,0,.59,0,1.25.19,1.71-.39.15-1.62.72-1.91,2.34-1.16a3.41,3.41,0,0,0,1.72.56c.69,0,1.1-.35.92-1.1-.22-.91-.36-1.88-1.63-2-.25,0-.88,0-.47-.65a2.8,2.8,0,0,1,1.43-.18,1.16,1.16,0,0,1,1.25,1.06c.84,3.58.86,3.43,4.52,3.66a54.86,54.86,0,0,0,6.29-.3,2.14,2.14,0,0,1,1.81.5c.36,1,.18,1.46-.73,1.77-1.13.39-1.13.39-.32,1.34a1.91,1.91,0,0,1,.26.41.6.6,0,0,1-.12.53c-.45.09-.76-.23-1.13-.38a26.18,26.18,0,0,1-4.51.17c-3.7-.46-7.42-.11-11.13-.11-1.95,0-3.91.21-5.87.11-7.18-.36-14.37-.31-21.55-.16-4.2.09-8.4-.26-12.59,0-3.25.2-6.51,0-9.76.19-1.2.07-1.44-.21-1.43-1.39a9.52,9.52,0,0,0-.33-1.92,18.3,18.3,0,0,1-.91-3c-.34-.78-1-.83-1.73-.84-3.49,0-7,.09-10.47,0-.28,0-.69-.11-.71-.36-.08-.88-.58-1.65-.63-2.53a14.58,14.58,0,0,1,4.12,0c1.5.22,1.59,0,1.4-1.45-.09-.77,0-1.56-.07-2.33s-.45-1.5-1.55-1.42a30.19,30.19,0,0,1-3.43,0c-1.31,0-1.52-.46-.94-1.72a6.42,6.42,0,0,1,.69-.69,1.11,1.11,0,0,0,.23-1.63c-.16-.24-.28-.5-.45-.73-1-1.37-1.07-1.51-2.39-.66a4.33,4.33,0,0,1-2.83,1c-.21-.3,0-.41.23-.54l3.65-1.78a1.24,1.24,0,0,1,1.84.6C58.82,51.82,59.63,52.51,59.52,53.6Z"/><path class="cls-3" d="M139.87,72l.74.5c.24,1.25.65,2.51-.35,3.64a4.83,4.83,0,0,1-1.69.14h-14.8a2.16,2.16,0,0,0-2,.79.82.82,0,0,1-.35.23.79.79,0,0,1-.48,0,10.73,10.73,0,0,0-7.61-.73c-1,.09-1.2.64-1.09,1.53a33.22,33.22,0,0,0,1,4.53,18.67,18.67,0,0,1,.33,7.14,6.93,6.93,0,0,0,.08,1.82,3.46,3.46,0,0,1-.41,2.7,1.16,1.16,0,0,1-.46.39.35.35,0,0,1-.38,0c.17-1.13.4-2.24.49-3.37a34.43,34.43,0,0,1,.24-4.64c.24-1.19-.49-2.29-.58-3.47-.17-2-1.08-3.89-1.39-5.9-.12-.83-.73-.82-1.38-.82H96.33a8.11,8.11,0,0,1-2.19-.18c-.87-.23-1.45.17-1.44,1.14a92.58,92.58,0,0,1-.54,9.27c-.14,1.47-.47,2.9.27,4.3-1.14-.57-1.33-1.12-1.25-2.57.16-3.3.56-6.59.65-9.89,0-1.64-.06-1.69-1.74-1.71-1.27,0-2.53,0-3.8-.08-.93-.09-1.43.33-1.35,1.27.17,1.79.11,3.58.17,5.38a10.59,10.59,0,0,1,0,2.32c-.24,1.34-.31,2.59.75,3.65a.66.66,0,0,1,.19.57,4.85,4.85,0,0,0,.49,3,1.69,1.69,0,0,1-1.33-2.3c.11-.38.14-.74-.29-.94-.83-.38-.86-1.1-.86-1.86,0-3.15,0-6.31,0-9.46,0-1-.2-1.87-1.39-2.09-.66-.12-1,.08-1.06.79-.2,3.42-.74,6.82-.5,10.25,0,.62.06,1.21-.66,1.56-.5.24-.55.66-.42,1.25a2.05,2.05,0,0,1-1.39,2.79,6.48,6.48,0,0,0,.47-3.54.94.94,0,0,1,.33-.89,3.06,3.06,0,0,0,.84-2.69,45.17,45.17,0,0,1,.36-7.71c.21-1.27-.15-1.64-1.38-1.42a24.29,24.29,0,0,1-3.42-.11c-1.53.07-1.83.27-1.73,1.82.11,2,.21,3.91.24,5.87,0,1.54-.41,3.08.09,4.63.22.69-.44,1.17-.89,1.64-1.25,1.32-.91,2.58.89,3a3.88,3.88,0,0,0,3.08-.33c.32-.22.68-.51,1.12-.23-1.07,1.85-5,2.1-6.4-.14a1.72,1.72,0,0,1,.42-2.31,2.82,2.82,0,0,0,.88-2.57c-.19-2.75-.09-5.53,0-8.29,0-.91-.26-1.77-.31-2.67,0-.35-.24-.77-.7-.7a28.82,28.82,0,0,1-4,0c-.68,0-.81.64-.85,1.27-.06,1,.26,1.95-.22,2.88-.53-.54-.29-1.22-.35-1.84a4.3,4.3,0,0,0-.18-1.78,1.5,1.5,0,0,0-.48-.39,5.67,5.67,0,0,0-1.59-.09H43.33a12.43,12.43,0,0,1-1.83,0c-1.49-.46-.76-1.7-.85-2.6-.07-.7.56-.91,1.18-1a7.87,7.87,0,0,0,3.39-.59c1-.49,2.22-.17,3.35-.18,7.81.37,15.62.13,23.44.19,2.62,0,5.26.12,7.89.13,4.53,0,9.06,0,13.59,0,3.15,0,6.29-.25,9.44-.2,3.95.06,7.91.09,11.86.19,3.26.09,6.53,0,9.79,0s6.53-.18,9.79,0A46.05,46.05,0,0,0,139.87,72Z"/><path class="cls-4" d="M17,67.9c.22-2.88.47-5.75.65-8.63.08-1.3,0-2.62.05-3.93A19.79,19.79,0,0,1,19,47.06a6.73,6.73,0,0,1,2.88-3.21,6.21,6.21,0,0,0,3-3.62c.42-1.2,1.28-2.35.24-3.64a.87.87,0,0,1,.68.25A1.62,1.62,0,0,1,26.25,39a31.77,31.77,0,0,1-1.24,3,2.65,2.65,0,0,0,.54,3c1,1.3,3.42,2.84,5.25,1.78.72-.41,1.22.08,1.59.69A49.52,49.52,0,0,1,33,53.56c0,.54,0,1.11-.62,1.36s-1-.14-1.4-.5A24,24,0,0,1,29,52a2.8,2.8,0,0,0-1.18-1,1.35,1.35,0,0,0-.08,1.3,45.44,45.44,0,0,1,2,8.31,2.38,2.38,0,0,0,1.44,1.86c3.77,1.78,7.55,3.54,11.25,5.45a1.46,1.46,0,0,1,.33.22,2.58,2.58,0,0,1-1.31,3.42,4.91,4.91,0,0,1-1.32.15c-1,.09-1.92-.5-2.91-.51-2.86-.68-5.56-2-8.44-2.42-3.5-.52-5.3-2.47-6.47-5.63a70.36,70.36,0,0,0-3.52-7.41c-.05,2.09-.38,4.13-.4,6.19A18,18,0,0,1,18,66.24a3.73,3.73,0,0,1-.64,1.57A.36.36,0,0,1,17,67.9Z"/><path class="cls-5" d="M128.81,84c-.87.25-1.29,1.27-1.14,2.65a19.45,19.45,0,0,1-1.61,9.86c-.77,1.82-2.17,3.26-2.77,5.16-.39,1.26-.89,2.44-.19,3.82a2.77,2.77,0,0,1-.16,3.12c-.5-.56,0-1.17-.1-1.76-.09-.43,0-1-.53-1.14s-.61.31-.88.54a17.92,17.92,0,0,0-4.81,5.58,1.88,1.88,0,0,1-.74.79,1.1,1.1,0,0,1-1.26,0c-.41-.32-.25-.73-.05-1.1a12.25,12.25,0,0,0,1.59-3.42,1.85,1.85,0,0,0-1.49,1.3,2.36,2.36,0,0,1-1.28,1.4,2.61,2.61,0,0,1-2-.5,12.58,12.58,0,0,0,3.13-5c.68-2,2.09-3.76,2.47-5.93.15-.92.09-1.66-.9-2a1.11,1.11,0,0,1,.64-.31c1.13-.26,1.26-.71.45-1.6s-.78-.92-.14-1.59c.6.5.79,0,.92-.43a29.62,29.62,0,0,0,.91-4.05c.41-2.42.8-4.85,1.06-7.29a1.46,1.46,0,0,1,.46-1.1,2.3,2.3,0,0,0,.72-1.75c.33-.39.65-.17,1,0,2.14,1.45,4.2,3,6.48,4.27A.47.47,0,0,1,128.81,84Z"/><path class="cls-6" d="M45,102.77c-.58,0-.85.2-1,.8-.42,1.75-.36,3.55-.7,5.31a3.3,3.3,0,0,1-.13.71,3,3,0,0,0,.1,3.48,2.9,2.9,0,0,1-2.45-3c0-1.84-.8-3.39-1.37-5a4.67,4.67,0,0,1,.28-3A4.18,4.18,0,0,0,40,98.94a11.33,11.33,0,0,0,.27-3,10.38,10.38,0,0,1,.4-4,1.67,1.67,0,0,0,.06-1.08c-.53-1.59.16-2.84,1-4a2.46,2.46,0,0,0,1.61-1.46c1-1.83,2.84-2.8,4.6-3.8.62-.23,1.14-.64,1.73-.92a.77.77,0,0,1,.91.07.72.72,0,0,1,.21.89c-1.16,1.86-.43,4.07-1.19,6a52.74,52.74,0,0,0-2,5.6,1.52,1.52,0,0,0,.15,1.45c1,1.44,1.75,3,2.78,4.46.76,1,.46,1.62-.85,2a2.1,2.1,0,0,1-1.1-.17c-.41-.62.21-.61.47-.64.92-.1.75-.54.37-1-.71-.94-1.37-1.92-2-2.92-.4-.63-.74-.51-1,.11a15.62,15.62,0,0,0-.75,3.3,1.78,1.78,0,0,0-.67,2.57A.39.39,0,0,1,45,102.77Z"/><path class="cls-7" d="M128.81,84a63.26,63.26,0,0,1-7.17-4.71,1.32,1.32,0,0,0-.45-.14c-1-.52-1-1.11,0-2l.2,0c.27-.16.34-.68.83-.43a.61.61,0,0,1,0,.51c-.69.83-.44,1.45.41,2,1.6,1.05,3.18,2.15,4.78,3.22s1.52,1,2.73-.3a2.59,2.59,0,0,1,1.65-.39q10.24-.1,20.5,0A3.32,3.32,0,0,0,156,79.49a12.2,12.2,0,0,0,0-8.09,5.83,5.83,0,0,1-.42-1.52,1.34,1.34,0,0,1-.06-.4c0-.2.07-.39.3-.45a3.66,3.66,0,0,1,1.42,2.57c.15.83.28,1.83,1.25,1.82s1.13-1,1.3-1.83c.23-1.11.4-2.11-.72-3-.68-.54-.43-1.16.45-1.51.27-.11.53-.14.53-.53,0-2,.54-3.84.53-5.79a4.24,4.24,0,0,1,.26-1.31c.08-.24.17-.48.45-.53s.51.2.66.45a1.59,1.59,0,0,1,.2.83c0,1.46.13,2.92.18,4.39a2.58,2.58,0,0,1,0,.39c-.21.87,0,1.75-.16,2.62-.46,2.33-.47,4.72-1,7-.43,1.75-1,2.23-2.77,2.28a1,1,0,0,0-1.05.81c-.13.38-.15.8-.31,1.18a3.73,3.73,0,0,1-1,2.47,1,1,0,0,0-.27.78c.21.47.68.35,1,.48a1.63,1.63,0,0,1,1.14,1.69c0,.77-.63.92-1.26,1.09a8.65,8.65,0,0,1-2.54,0c-1.54,0-3.09,0-4.64,0-1,0-1.58.22-1.57,1.32a.63.63,0,0,1-.36.59c-.44-1.23-1.25-1.37-2.51-1.32a12,12,0,0,1-2.87.16c-.22,0-.41,0-.42.31a.39.39,0,0,0,.26.38,2,2,0,0,0,.35.1c1.94.42,1.94.42,1.91,2.45a6.93,6.93,0,0,1-.07,1.58c-.16.67-.46,1.17-1.28.74a4.16,4.16,0,0,0,.58-3c-.15-.72-.46-1-1.14-.93-1.1.14-1.82-.11-1.95-1.39-.07-.73-.68-.94-1.35-1a21.5,21.5,0,0,0-3.31,0c-1.05.14-2.07-.22-3.14,0-.8.19-1.37-.78-1.15-1.73.08-.35.65-.7.13-1.07s-.75.25-1.1.46a2.17,2.17,0,0,0-.29.24C129.72,83.72,129.69,84.69,128.81,84Z"/><path class="cls-8" d="M49.67,100.81c1.14-.29,1.29-.65.56-1.53-1.3-1.57-1.91-3.58-3.31-5.07a.46.46,0,0,1,0-.56,37.91,37.91,0,0,0,2.89-8.29,1.8,1.8,0,0,0,.12-.83,2.65,2.65,0,0,1,.48-2.62c.21-.29.42-.65.11-1s-.62,0-.93.15c-.57.21-1,.76-1.62.81A3.82,3.82,0,0,1,50.22,80c.48,0,.9.28.87.69C51,82.34,52,82.81,53.34,83c-.08,1.19-1,.62-1.55.72s-.55.26-.47.65c.47,2.44,1.16,4.83,1.44,7.3,0,.19.2.23.38.13s.38-.29.59,0a1.36,1.36,0,0,1,.09.95,5.64,5.64,0,0,0,.13,3c.51,1.56.65,3.2,1.14,4.77a37.8,37.8,0,0,0,1.66,3.67,1.25,1.25,0,0,0,1.09.69,22.87,22.87,0,0,0,7.43,0,.42.42,0,0,1,.33.11c0,.88-.68.77-1.24.76-2,0-3.91,0-5.86,0-1,0-1.45.21-.77,1.25s1.05,2.45,2,3.42c-1,.71-1.66-.07-2.46-.39a22.52,22.52,0,0,1-2.77-2.58,3.74,3.74,0,0,0-1.26-1,5.51,5.51,0,0,1-1.67-1.59,3.74,3.74,0,0,0-1.73-1.08c-.47-.21-1.08-.38-1-1s.7-.68,1.22-.76a1,1,0,0,0,.45-.15c.22-.31,0-.37-.24-.46S49.62,101.28,49.67,100.81Z"/><path class="cls-9" d="M140.12,43.28a2.25,2.25,0,0,0,.5-1.71c0-.79-.38-1.25-1.19-1.24a2,2,0,0,1-2.09-1.79,3.94,3.94,0,0,0-1.08-2.17,2.31,2.31,0,0,1-.52-3c.31-.73.46-1.29-.34-1.9s-.59-1.83-.36-2.64a7.66,7.66,0,0,1,6.58-5.49c4.46-.44,8.23,3.63,9.09,7.79.74,3.55-.65,6.1-3.14,8.29-.7.62-.56,1.07-.07,1.64a.35.35,0,0,1,.06.34,25.39,25.39,0,0,0-1.82,3.7c-.21.52-.37,1.08-1,1.33a2.42,2.42,0,0,1-.76.12,2.58,2.58,0,0,1-3.27-2.11C140.63,44,140.15,43.76,140.12,43.28Z"/><path class="cls-10" d="M86.55,92.92a2.36,2.36,0,0,1-.78-2.72c.17-.48-.17-.86-.54-1.14a1.58,1.58,0,0,1-.64-1.5,69.46,69.46,0,0,0,0-9.89c-.06-1.1.52-1.44,1.39-1.36a44.26,44.26,0,0,0,5.15.08c.84,0,1.17.26,1.14,1.13-.12,3.71-.5,7.41-.82,11.11a2.76,2.76,0,0,0,1,2.35c.84,1.93-.13,3.22-2.31,3.12C88.82,94,87.51,94,86.55,92.92Z"/><path class="cls-11" d="M130.06,83.37a1.78,1.78,0,0,1,.82-.89.77.77,0,0,1,.92.08c.27.23.18.48.06.77-.64,1.55-.35,1.84,1.32,1.77,2-.09,4,0,6,0,.78,0,1.46.41,1.43,1.35s.47,1.08,1.24,1.08c1.75,0,1.75,0,1.75,1.77,0,.87.26,1.84-.78,2.37a1.3,1.3,0,0,1-.07.62,41.58,41.58,0,0,0,.11,6.79,8.46,8.46,0,0,1-.58,4.94c-.25.26-.67.34-.8.73-.4,1.27-1.49,1.39-2.55,1.51-1.62.18-3.24.38-4.84.63a2.26,2.26,0,0,1-.85.1c-2.43-.37-3.37,1.35-4.3,3.07a.91.91,0,0,0,.15,1.13.58.58,0,0,0,.78.08c.45-.25.39-.63.31-1.06a1.91,1.91,0,0,1,1.74-2.53c1.26-.14,2.52-.27,3.79-.31.58,0,1.22.05,1.37.76s-.4,1.08-.95,1.25a11.3,11.3,0,0,0-3.85,2.32,1.7,1.7,0,0,0-.76,1.06,1.24,1.24,0,0,0,.94,1.51c.68.19,1.06-.27,1.33-.82a.66.66,0,0,0,.08-.36c-.24-1.92,1-2.63,2.51-3.25q3.45-1.45,6.84-3a2.27,2.27,0,0,1,2.53.22c2,1.43,3.93,2.8,5.86,4.25,1.08.81,1.68,1.77,1.15,3.17a1.14,1.14,0,0,0,.67,1.52,1.07,1.07,0,0,0,1.4-.39c.44-.54.23-1-.06-1.56-1.09-2.16-3.06-3.33-4.94-4.62a12.48,12.48,0,0,1-1.19-.87c-.31-.27-.63-.58-.45-1a1,1,0,0,1,1.13-.55c1.78.21,3.57.42,5.34.73a1.61,1.61,0,0,1,1.45,1.71,1.78,1.78,0,0,0,.06.73c.13.33.38.58.75.49s.51-.46.43-.87a3.19,3.19,0,0,0-3.09-2.66c-1.66-.18-3.34-.32-5-.54a2.14,2.14,0,0,1-2-1.48c-.06-.2-.11-.44-.29-.53-1.36-.78-1.23-2.08-1.22-3.35,0-2.42,0-4.83,0-7.25,0-1,.05-2-.94-2.61-.2-.13-.24-.42-.27-.67a7.7,7.7,0,0,1,0-1c0-2.11.47-2.54,2.58-2.43l.21,0c.06-.06.15-.11.17-.17.47-2,.47-2,2.65-2,2,0,4,.14,6,.08.55,0,1.61.19,1.48-1a1.43,1.43,0,0,0-1.67-1.39c-.76.05-1-.29-.49-.95a2.51,2.51,0,0,0,1.14.64A1.8,1.8,0,0,1,158,84.59c-.13.9-.77,1.24-1.94,1.19-2.4-.1-4.79,0-7.19,0-.63,0-.88.34-.93.9-.08.94-.54,1.41-1.52,1.32-.81-.08-1.1.36-1.06,1.11s-.22,1.62.77,2.1c.46.22.47.8.47,1.31,0,3.19,0,6.38,0,9.57,0,.63,0,1.14.7,1.39s.43,1,.66,1.48c.38.68,1.09.63,1.72.71q3.08.41,6.17.74a1.25,1.25,0,0,1,.89.53,14.76,14.76,0,0,1,1.43,2.54,1.48,1.48,0,0,1-.44,1.78,1.52,1.52,0,0,1-1.73.2,1.32,1.32,0,0,1-.88-1.46c.18-1.2-.24-1.71-1.53-1.67a19.21,19.21,0,0,1-2.76-.42c-.29,0-.7-.16-.84.27s.18.62.44.79c.84.57,1.69,1.09,2.54,1.64a2.66,2.66,0,0,1,.7.46,18.1,18.1,0,0,1,2.2,3.46,1.33,1.33,0,0,1-.46,1.74,2,2,0,0,1-2.11.65,2.24,2.24,0,0,1-1.28-3.11c.23-.53.31-1.09-.25-1.42-2-1.2-3.7-2.9-5.7-4.16a3.29,3.29,0,0,0-3.63-.28c-2.29,1.16-4.65,2.18-7,3.24a1.2,1.2,0,0,0-.79,1.23c0,1.7-.57,2.47-1.76,2.6s-2-.36-2.39-2c-.15-.57-.47-.69-1-.7s-1.22,0-1.51-.75a1.84,1.84,0,0,1,.3-2.14,2.6,2.6,0,0,0,.75-1.37,2.1,2.1,0,0,1,2.16-1.82c2.5,0,4.92-.72,7.41-.81.86,0,2,0,2.06-1.37,0-.11.09-.28.18-.31,1.66-.62,1.15-2,1.17-3.22,0-2.67,0-5.33,0-8a1.83,1.83,0,0,1,.83-1.88c.59-.36.51-2,0-2.45a.92.92,0,0,0-.92-.13c-1.06.27-1.75,0-1.86-1.22-.06-.83-.59-1.13-1.45-1.11-2.11.07-4.22,0-6.33,0-.93,0-1.49-.92-1.25-2.08a6.17,6.17,0,0,1,.36-.92C130.76,82.69,130.58,83.42,130.06,83.37Z"/><path class="cls-12" d="M47.68,27.56c-.81,1-.55,2.13-.27,3.28.34,1.37.15,2.81.53,4.19.16.59-.26,1.09-.49,1.6A3.85,3.85,0,0,0,47,38.25c.1,1-.55,1.44-1.38,1.49a2.44,2.44,0,0,0-1.62.68,1.76,1.76,0,0,1-2,.36,24.92,24.92,0,0,1-3.1-1.44c-.5-.42-.93-.91-1.41-1.35-1.23-1.36-1.23-1.36-2.11.25a10.94,10.94,0,0,0-.69,1.42,2.14,2.14,0,0,1-1.72,1.51c-1.11.21-1.42,1.12-1.11,2.78,0,.39.48.75.07,1.17-.85.21-1.12-.33-1.17-1-.16-2.28-.08-4.48,2-6.08a26.4,26.4,0,0,0,2.26-2.23c.58-.57,1.16-.74,1.82-.16a2,2,0,0,1,.41.45c.92,1.3,1.77,1.39,3,.33a.67.67,0,0,0,.06-1.06,3,3,0,0,1-.7-1.54c-.11-.68,0-1.26.7-1.49s1.13.28,1.48.81a.27.27,0,0,0,0,.11c.29.38-.11,1.32.69,1.2s.69-1,.77-1.64A6.6,6.6,0,0,1,47.68,27.56Z"/><path class="cls-13" d="M111.09,16.44c1.45-1.66.83-2.23-.5-3.93A8.79,8.79,0,0,1,109,5.17c.62-3.5,4.83-5.4,8-3.78a5.6,5.6,0,0,1,3.2,3.84,5,5,0,0,1,0,2.4v0c-.59,2.53-.71,2.59-3.12,1.38-.66-.33-1.28-.73-2-1s-.91-.21-.69.55a6.09,6.09,0,0,1,0,2.91,4.23,4.23,0,0,0,.06,1.94c.12.45,0,1.08.71,1.13a1.44,1.44,0,0,0,1.43-.78,12.1,12.1,0,0,1,1.22-2c.69-.87,1.06-.85,1.8,0l.25.27a.7.7,0,0,1,.09.67c-.53.37-1.19-.7-1.69.19a2.61,2.61,0,0,0,0,2.31,1.8,1.8,0,0,1,.12.47,2.19,2.19,0,0,1,0,.36,6.15,6.15,0,0,1-1.4,2.58,5.63,5.63,0,0,1-5.19-.17C111.4,17.88,111.64,17,111.09,16.44Z"/><path class="cls-14" d="M122.92,59.27c-.7-.27-.79-1-1-1.53a2.06,2.06,0,0,0-2-1.44c-2.26-.06-4.52.26-6.78-.18a6.74,6.74,0,0,0-1.91.21A4.25,4.25,0,0,1,107,54.62a1.69,1.69,0,0,0,.49-1.41c0-1.62,0-3.23,0-4.85,0-.39-.11-.81.21-1.15a5.82,5.82,0,0,1,.6,2.84c.06.69,0,1.39,0,2.08.07,1.67.65,2.22,2.34,2a42.21,42.21,0,0,1,5.51-.13c1.24.37,2.5,0,3.75.08a7.28,7.28,0,0,1,2.58.57c.7.46,1.19,1.13,1.84,1.63.4.32.64.25.74-.29.86-4.37,1.76-8.74,1.45-13.24a16,16,0,0,0-1-3.53,7.93,7.93,0,0,1-.4-1.28,1.73,1.73,0,0,1,.63-1.63,2,2,0,0,0,1.38-2,9.41,9.41,0,0,0,.63-4.07c-.1-2.73.22-5.47-.33-8.18,0-1.32-.67-2.44-1-3.65a1.86,1.86,0,0,1,1.66,1.7,27.28,27.28,0,0,1,.58,5.34c-.07,2.37.16,4.77-.12,7.11-.2,1.62-.28,3.55-2.25,4.41-.57.25-.44.85-.23,1.3,1.49,3.31,1.54,6.8,1.22,10.32-.25,2.75-1.45,5.35-1.38,8.17,0,1.57.19,1.76,1.77,1.75s3-.74,4.57-.78a.53.53,0,0,0,.52-.45c.05-.69.58-1.15.81-1.75.12-.78.58-1.44.72-2.2h0a11.85,11.85,0,0,0,.95-2.3c.06-.25.18-.58.58-.37a1.19,1.19,0,0,1,0,1.17c-.74,1.72-1.3,3.5-2.1,5.19a2.93,2.93,0,0,1-2.25,1.63,64.66,64.66,0,0,1-7.45.88A1.13,1.13,0,0,1,122.92,59.27Z"/><path class="cls-15" d="M83.57,36.12h-.2a2.39,2.39,0,0,0-1.22-1.46c-1.63-1-2.15-2.65-2.74-4.27a2.25,2.25,0,0,0-.57-1.05A2.83,2.83,0,0,1,78,26.57c.65.18.82.85,1.27,1.25a2.17,2.17,0,0,0,3.17.08c1.26-1,1.26-1,2.48-.14a2,2,0,0,0,3.35-1.1,10.94,10.94,0,0,0-.1-5.42,2.25,2.25,0,0,0-1.91-1.73,1.36,1.36,0,0,1-.94-.45.26.26,0,0,1,0-.32c2.54-.37,4.27,1.77,3.85,4.87-.13.94-.15,1.86-.19,2.8a2.23,2.23,0,0,1-.87,1.91c-1,.74-1,2.16-.94,3,.08,1.64-1,2.21-1.81,3.06C84.79,35,83.83,35.18,83.57,36.12Z"/><path class="cls-16" d="M116.28,54.3c-2,.17-4,0-6,.23-1.81.21-2.31-.39-2.38-2.2s-.17-3.41-.26-5.12c0-.32,0-.64,0-1a17.6,17.6,0,0,0,.1-2.41,49.87,49.87,0,0,0,.61-7c0-.85-.44-1.16-1.18-1.25-.41-.33-1.23-.12-1.29-.94a3.54,3.54,0,0,1,3,0,2.92,2.92,0,0,1,1.41,2.29,4.83,4.83,0,0,1-.1,2.07c-.48,2-1,3.91.3,5.8a1,1,0,0,1-.4,1.47,1.79,1.79,0,0,0-.88,2.09c.09.85.19,1.7.32,2.55a1.32,1.32,0,0,0,1.59,1.3,9.16,9.16,0,0,1,4.61,1.05C116.19,53.43,116.92,53.57,116.28,54.3Z"/><path class="cls-17" d="M65.6,105a3.75,3.75,0,0,1-2.32.5c-1.83-.07-3.66,0-5.48-.22a1.59,1.59,0,0,1-1.38-.86,21.84,21.84,0,0,1-2.37-6.86c-.15-1.29-.85-2.47-.71-3.82,0-.36-.06-.74.23-1a.28.28,0,0,1,.37,0c.38,1.36.35,2.79.68,4.17.29,1.18.52,2.37.89,3.53.11.31.2.62.32.93.32.88.94,1.61,1.24,2.51.21.62.78.77,1.39.78,1.87,0,3.73,0,5.6,0a2.22,2.22,0,0,0,1.51-.69.75.75,0,0,1,.38-.1,25.35,25.35,0,0,0,5.08-.09c-.1-.6-.63-.57-1-.66-1-.22-2-.69-3-.84A1.38,1.38,0,0,1,65.83,101c-.08-2.7,0-5.4,0-8.1a3,3,0,0,1,.08-.85,14.74,14.74,0,0,0,.23-2.81c0-.13,0-.26.08-.39a11.14,11.14,0,0,0,.1-2.58,5.25,5.25,0,0,1,.11-1,45.82,45.82,0,0,0,0-7.77l-.23-.32a1.23,1.23,0,0,0-.31-.24,51.33,51.33,0,0,0-5.26-.08c-3.27,0-6.54-.14-9.8,0-2.69.14-5.38.24-8.07.22A2.58,2.58,0,0,1,40.46,73a1.93,1.93,0,0,1,1.77-.86,18.31,18.31,0,0,1-2,0,4.41,4.41,0,0,1-3.19-.89.39.39,0,0,1,.06-.39c1-.18,1.93.63,3,.48a2.68,2.68,0,0,0,1.89-.2,2.82,2.82,0,0,1,1.92,0,.91.91,0,0,1,.71,1c-.07.53-.48.71-1,.76a7.31,7.31,0,0,0-1.81.1c-.76,0-1.19.25-.87,1.11.22.62-.65,1.47.39,1.92a4.3,4.3,0,0,0,1.34.07H65.52a2.39,2.39,0,0,1,1.32.13l.26.27a28.14,28.14,0,0,1,.14,4.4C67.36,86,66.9,91,66.52,96a38.47,38.47,0,0,1-.12,4c-.28,1,.4,1.24,1.13,1.45.42.11.85.2,1.28.3a8.15,8.15,0,0,1,2.5.68c.41.5,1.42.75,1.08,1.57s-1.25.62-2,.63c-1.22,0-2.45,0-3.67,0A1.57,1.57,0,0,0,65.6,105Z"/><path class="cls-18" d="M85.34,18.74a.48.48,0,0,0-.06.18c-.36.44-.88.33-1.35.35a10.73,10.73,0,0,0-2.19.17c-2.57.62-3.23,1.46-3.22,4.07.14-.7-.12-1.66.86-2,.45-.16,1.06-.37,1.26.42-.35.37-1,.35-1.13,1-.3,1.41,0,1.8,1.44,1.85.17,0,.36,0,.49,0,1.62.92,3.21.24,4.82,0,.46-.08.93-.14,1.06-.67a2,2,0,0,0-.38-1.73c-.37-.46-.88-.36-1.35-.14a12.11,12.11,0,0,1-2,.83,2.35,2.35,0,0,1-2.92-1.14s.06-.08.08-.08A7.54,7.54,0,0,0,85.92,21c1-.49,1.72.18,2.25,1.59.12-.49-.24-1,.17-1.49.47.16.42.56.42.92,0,1.38,0,2.77,0,4.15s-1,1.91-2,2.44-1.54-.2-2.16-.7-.92-1-1.5-.22c-1.68,2.21-4,1.22-5.11-1.13,0-1.06-.09-2.11-.23-3.17-.42-3.33,1.26-4,4-4.64A16.09,16.09,0,0,1,85.34,18.74Z"/><path class="cls-19" d="M14.51,64.72A58.13,58.13,0,0,1,14,75.35a4.56,4.56,0,0,1-2.43,3.21c-1.29.71-3.09-.67-3.17-2.4-.23-4.52-.81-9-.52-13.56.14-2.33-.52-4.64,0-7a7.78,7.78,0,0,1,3-4.49c1-.76,2.91.76,3.13,2.2a44,44,0,0,1,.52,5C14.58,60.46,14.51,62.59,14.51,64.72Z"/><path class="cls-20" d="M59.52,53.6c-.51-.9-1.05-1.78-1.52-2.7-.35-.69-1-.43-1.47-.53a6.45,6.45,0,0,0,2.57-3.29c.1-.26.2-.57.57-.55s.48.25.57.55c.26.86.75.9,1.49.51a2.29,2.29,0,0,1,2.86.48c.42.64,0,2.41-.77,3A16.06,16.06,0,0,1,59.52,53.6Z"/><path class="cls-21" d="M38.12,115c-.47.78-1.12.57-1.7.24-.8-.47-1.56-1.11-1.34-2.13a1.26,1.26,0,0,0-.83-1.64c-2.44-1.1-4.9-2.17-7.32-3.31a2.22,2.22,0,0,0-2.66.2c-1.76,1.36-3.67,2.53-5.5,3.81-.82.57-1.35,1.2-.74,2.35a2,2,0,0,1-1.36,2.6,2,2,0,0,1-2.6-1.38,1.86,1.86,0,0,1,.61-2.26c1-.67,1-2.15,2.17-2.64a15.87,15.87,0,0,0,2.79-1.95c.19-.13.5-.21.32-.53s-.41-.22-.66-.15a19.57,19.57,0,0,1-3.72.64c-.93.11-.86.74-.8,1.36A1.73,1.73,0,0,1,13.65,112a1.65,1.65,0,0,1-1.7-.4c-1-.74-.75-2,.6-3.18a.71.71,0,0,1,.24.52c0,.46-.31.84-.3,1.3a.72.72,0,0,0,.61.8c.39.06.59-.22.73-.53a2,2,0,0,0,.11-.48c.29-1.73.29-1.72,2-2,1.37-.26,2.76-.41,4.14-.58.54-.06,1.23-.19,1.47.53s-.32,1-.75,1.28a16,16,0,0,1-1.65,1.07,10.05,10.05,0,0,0-4,4.07,1.37,1.37,0,0,0,.08,1.8,1.19,1.19,0,0,0,1.49.08,1.17,1.17,0,0,0,.45-1.61,2.09,2.09,0,0,1,.84-2.75c2-1.58,4.14-2.94,6.12-4.52a2.26,2.26,0,0,1,2.44-.23c2.75,1.16,5.42,2.5,8.16,3.68A1.83,1.83,0,0,1,36,112.72a2,2,0,0,0,.67,1.76C37.05,114.89,37.73,114.59,38.12,115Z"/><path class="cls-22" d="M52.88,52.15l-.25.47c-1.47,1.82-3.94,1.92-5.24.15a25.07,25.07,0,0,1-2.56-4.17c-1.36-2.73-3.59-4.72-5.81-6.71-1.71-2.07-1.85-2.06-3.13.35a20.59,20.59,0,0,1-1.7,2.81.8.8,0,0,0,0,.82C36,49.46,37.3,53.29,38.77,57c.43,1.1,1,1.81,2.2,1.89a1.22,1.22,0,0,1,1.15.57.36.36,0,0,1-.11.35c-2.14.39-3.22-.17-4-2.09-1.57-3.73-3.07-7.48-4.6-11.23a3.08,3.08,0,0,1-.23-1.44,25.78,25.78,0,0,1,3.48-5.93,1.83,1.83,0,0,1,1.11,0,23.15,23.15,0,0,1,3.19,3c.53.5,1,.89,1.56.08a.8.8,0,0,1,1.27-.14,20.45,20.45,0,0,1,1.06,3.85c.36,2.69,2,4.82,3.7,6.86a1.44,1.44,0,0,0,1.82.19A15.65,15.65,0,0,1,52.88,52.15Z"/><path class="cls-23" d="M119.71,11.82c-.72-.65-1.26-.56-1.7.34a10.53,10.53,0,0,0-.92,1.57c-.29,1.13-1.22,1.06-2,1.25-.4.1-.62-.26-.67-.58a7.48,7.48,0,0,1-.23-3.13A3.59,3.59,0,0,0,114,8.42a.59.59,0,0,1,0-.78.7.7,0,0,1,.9-.15c1,.56,2.06,1.09,3.11,1.6,1.29.62,1.37.65,1.83-.68.08-.26.08-.58.36-.75C120.48,9.1,119.72,10.41,119.71,11.82Z"/><path class="cls-24" d="M19.69,106.23c1.07-.35,2.26-.56,2.38-2,2.21-1.37,1.12-3.46,1.13-5.3,0-2.21,0-4.41-.05-6.62a.86.86,0,0,1,.52-.9c.84-.25.65-.88.71-1.47.13-1.16-.1-1.91-1.53-1.67a.94.94,0,0,1-1.13-1c0-1-.61-1.19-1.45-1.18-2.29,0-4.58,0-6.87,0-.75,0-1.46,0-1.53-1-.11-1.45.44-2.17,1.55-2.22.77,0,1.79.37,2.24-.19s-.46-1.35-.59-2.06a16.37,16.37,0,0,1,.17-7.4c.2-.7.35-1.42.53-2.13a.23.23,0,0,1,.34.07,1.31,1.31,0,0,1,.08,1c-.63,2.44-1.19,4.88-.65,7.43A6.29,6.29,0,0,0,16.59,82a1.3,1.3,0,0,1,.14.39c.07.91-.47,1.24-1.26,1.32-.49,0-1,0-1.48,0s-1.07.08-1.1.72.57.7,1.06.73c.94.06,1.89,0,2.83,0,1.31,0,2.62,0,3.93,0,1,0,1.78.29,2,1.4a.86.86,0,0,0,.68.78c.72.11,1.45.26,1.64,1.06a3.5,3.5,0,0,1-.2,3,3.8,3.8,0,0,0-.63,2.42c0,2.75,0,5.49,0,8.24a2.19,2.19,0,0,1-1,2.21.78.78,0,0,0-.43.57c-.2,1.55-1.32,1.8-2.59,1.87a1.12,1.12,0,0,1-.4-.14A.25.25,0,0,1,19.69,106.23Z"/><path class="cls-25" d="M107.18,35.41c1-.57,1.4.17,1.44.93a9.11,9.11,0,0,1-.18,3.75c-.46,1.2,0,2.51-.5,3.69a.7.7,0,0,1-.06-.76c0-1.92.38-3.82.34-5.75,0-.81-.19-1.17-1.1-1.16-2,0-3.19-1.07-3.12-3.13.13-3.87.7-7.72,1.11-11.57a4.07,4.07,0,0,1,2.52-3.23A28.58,28.58,0,0,1,110.28,17c1-.48,1.52-.07,1.32,1.08-.15.92-.11,1.85-.18,2.78,0,.62-.15,1.26-1,1.12-.45-.47-.29-1.07-.36-1.63-.14-1.11-.63-1.41-1.68-1a3.46,3.46,0,0,0-2.5,3.25c-.14,2.32-.25,4.65-.38,7-.25.62-.67,1.23-.11,1.9a2.43,2.43,0,0,1,0,1.68,1.85,1.85,0,0,0,.18,1.42C105.6,35.79,106.65,35.11,107.18,35.41Z"/><path class="cls-26" d="M47.68,27.56c-1.07.86-2.13,1.71-3.19,2.58a2.69,2.69,0,0,0-1,2.26,6.54,6.54,0,0,1-.27,1.8.9.9,0,0,1-1,.72c-.52-.06-.63-.44-.64-.89a1.48,1.48,0,0,0-.12-.71c-.29-.42-.58-1-1.24-.75s-.53.67-.44,1.21a2.13,2.13,0,0,0,.66,1.39c.33.29.56.68.3,1.08a4.09,4.09,0,0,1-2.38,1.32c-.63.2-1-.54-1.31-1.07-.12-.21-.27-.4-.4-.6a10.59,10.59,0,0,1-.95-2,1.49,1.49,0,0,0-.84-1.25c-.39-.17-.7-.46-.48-1a1.81,1.81,0,0,1,2.29,1.57,19,19,0,0,0,.95,2.65c.24.71.7.78,1.35.48s.92-.65.46-1.31a2.9,2.9,0,0,1-.38-1.89,1.39,1.39,0,0,1,1-1.41,1.57,1.57,0,0,1,1.65.53,10.9,10.9,0,0,1,.75,1.23,3,3,0,0,0,.3-1.33,4.43,4.43,0,0,1,2.58-3.74c.5-.28,1.22-.46,1.21-1.08s-.74-.7-1.19-.91a8,8,0,0,0-6.54-.28,3.74,3.74,0,0,0-1.31.88c-1.23,1.23-1.31,1.23-2.76.22-.61-.42-1-1-1.68-1.42a6.09,6.09,0,0,0-5.62-.51c-.59.23-1.18.6-1.86.27a1.88,1.88,0,0,0-2.22-.15,3.88,3.88,0,0,1-.46.22.61.61,0,0,1-.49-.07.29.29,0,0,1-.08-.19c0-.08,0-.11,0-.11.86-.88,1.94-.78,3-.69,1.13.39,2.09-.36,3.14-.52a6.34,6.34,0,0,1,3.43.21,7,7,0,0,1,3.32,2.34c.58.67.91.81,1.47,0a3.9,3.9,0,0,1,1.93-1.4,10.12,10.12,0,0,1,7.2.49,6.68,6.68,0,0,0,1.23.52c.58.17.92.51.62,1.17Z"/><path class="cls-27" d="M135.72,50.66c-.78.75-.6,2-1.48,2.7A66.89,66.89,0,0,1,136.71,47a6.37,6.37,0,0,1,3.41-3.69,2.17,2.17,0,0,1,1,1.29c.45,1.55.68,1.65,2.94,1.67-.39.9-1.29.64-1.91.68-2,.12-2.25.28-2.21,2.59,0,1.18,0,2.35,0,3.5.36.19.51-.06.68-.21a35.87,35.87,0,0,0,3-3.37c.8-.91.67-2.16,1.15-3.19.88-1,1.08-2.42,1.73-3.59.28-.5.43-1.06,1-1.32.66.26.79,1.28,1.69,1.22a4.69,4.69,0,0,1,1.74,1c.22.24.78.3.42.83-.42.13-.71-.12-1-.36-1.46-1.24-3.09-.7-4.06,1a4.46,4.46,0,0,0-.62,1.85,7.61,7.61,0,0,1-2.23,4.52,28.83,28.83,0,0,1-2.81,3c-.36.33-.73.72-1.28.49a1.2,1.2,0,0,1-.75-1.17c0-2.15.22-4.29.34-6.44a1.85,1.85,0,0,1,1-1.43,1,1,0,0,0,.22-1.23c-.18-.48-.51-.19-.78,0a6.68,6.68,0,0,0-1.57,1.86c-.52,1.1-.87,2.27-1.4,3.37C136.29,50.15,136.27,50.66,135.72,50.66Z"/><path class="cls-28" d="M151.41,44.31l-.48-.78a3.93,3.93,0,0,1,1.95,2,5,5,0,0,0,3.3,2.77,13.46,13.46,0,0,1,5.36,3.71,3.49,3.49,0,0,1,1,2.06,44,44,0,0,1,.19,8c-.22,3.15,0,6.34-.82,9.46-.32,1.18-.37,2.48-.61,3.71-.3,1.47-1,2.3-2.37,2.05s-1.48.38-1.75,1.24a2,2,0,0,1-.27.4c0-1.91.07-2,1.95-2.21a2,2,0,0,0,1.76-1.59,52.21,52.21,0,0,0,.93-6.33,2.74,2.74,0,0,1,.26-1.17c.32-.89-.09-1.84.24-2.72a.89.89,0,0,0,0-.23c.17-1.71-.06-3.41,0-5.11s-.31-3.17-.32-4.76a3.63,3.63,0,0,0-1.22-2.73,12.4,12.4,0,0,0-4.27-2.81c-1.72-.58-3.28-1.28-3.85-3.21C152,45.49,151.27,45.12,151.41,44.31Z"/><path class="cls-29" d="M110.4,21.89c.59,0,.72-.42.73-.93a7.45,7.45,0,0,1,.35-3.25.44.44,0,0,0-.21-.62.94.94,0,0,0-.93.07,11.53,11.53,0,0,1-2.71,1c1-1,2.32-1.13,3.46-1.74,1.21.28.61,1.3.81,2a14.56,14.56,0,0,1,0,2.8c0,.71.3,1,1,1.06,2.42.17,2.52.12,3.36-2.16a4.72,4.72,0,0,1,.69-1.69l1.2-2.38c.57.8,0,1.62,0,2.43a20,20,0,0,1-.9,2c-.29.69-.52,1.29.63,1.19a.93.93,0,0,1,.57.22,1.76,1.76,0,0,1,.76,1.47,47.53,47.53,0,0,0,.69,6.08c.09,1-.07,1.82-1.24,2-.8,0-1.59-.15-2.4-.17-1.2,0-1.44-.33-1.56-1.64a.82.82,0,0,1,.65-.73.46.46,0,0,1,.27.24c.18.37.13.95.73,1s1.49.3,2.14,0c.47-.21-.09-.59-.21-.88-.17-1,0-2.12-.64-3a1.29,1.29,0,0,1-.25-.68c.17-1.66-.79-2.19-2.24-2.26-1.66-.24-3.34,0-5-.14-.36-.08-.73-.19-.67-.65A.75.75,0,0,1,110.4,21.89Z"/><path class="cls-30" d="M111.37,110.34l2.15.25a.27.27,0,0,1,.32,0c-.1.94-.73.78-1.35.65-1.12-.24-1.12-.24-2.1.49.09.34.37.3.59.26.91-.14,1.77-.22,1.85,1.07a.46.46,0,0,0,.2.3c.76.59,3.65.16,4.26-.62a8.79,8.79,0,0,0,1.75-2.9c.35-1.17,1.15-1.36,2.26-.71.39.23.48.06.65-.2a3.27,3.27,0,0,0,.25-2.46,14.76,14.76,0,0,0-5,5.43,2.2,2.2,0,0,1-2.07,1.47c-.61,0-1.19-.18-1.26-.9s.18-1.12.93-1.15a.19.19,0,0,1,.07.2c0,.07,0,.11-.06.11-.13.31-.52.68,0,.91a1,1,0,0,0,1.28-.41c.63-.94,1.23-1.89,1.84-2.84,1-1.61,2.71-2.55,4-3.88.44-.44.76,0,1,.47a5.07,5.07,0,0,1,0,2.76,11.74,11.74,0,0,0-1.49,4.61c0,.38-.09.82-.57.8s-.47-.56-.43-.94a13.35,13.35,0,0,1,.26-2.67c.1-.34.1-.81-.36-.92a.63.63,0,0,0-.72.67c.17,1.72-1.46,2.32-2.11,3.52a1.43,1.43,0,0,1-1.38.65c-1.1,0-2.2-.1-3.3-.17-.32,0-.78-.08-.83-.41-.2-1.18-1.06-1-1.87-1a.92.92,0,0,1-1-.63c-.15-.48.18-.77.55-1C110.28,110.88,110.82,110.62,111.37,110.34Z"/><path class="cls-31" d="M118.26,21.89c-1.84.12-1.85.12-1.14-1.61a4.27,4.27,0,0,1,.87-1.57c1.59.16,2.4-1.11,3.48-1.89a1.6,1.6,0,0,1,1.38.36,23,23,0,0,1,3.51,1.27,4.13,4.13,0,0,1,1.23,3.43c.09.49.44,1.15-.27,1.32s-1.06-.41-1.24-1.07a3.71,3.71,0,0,0-4.79-2.78,2.66,2.66,0,0,0-1.72,1.78C119.33,21.71,119.1,22.34,118.26,21.89Z"/><path class="cls-32" d="M57.27,109.67c.8.32,1.53.88,2.47.69a23.2,23.2,0,0,1,2.51,1.47c.4.37.79.82.54,1.39s-.77.33-1.2.37a13.82,13.82,0,0,1-4.48-.56,1.73,1.73,0,0,1-1.52-1.8,1.31,1.31,0,0,0-.38-1.12c-.42-.38-.8-1-1.44-.66s-.37,1-.32,1.52.68,1.6-.27,1.75-.85-.9-.82-1.59a3.42,3.42,0,0,0-.52-1.74,9.4,9.4,0,0,1-1.2-3.55c0-.62-.69-.84-1.22-1.08a32.7,32.7,0,0,1-4.44-2c-.09-.53-1-.47-.86-1.06a8.19,8.19,0,0,1,.74-2.17c.22-.41.39.22.64.26,1,.44,2.13.16,3,1l1.19.06c.24.3.61.15.9.25.49.17.78.43.35,1-1.68-.88-3.58-.66-5.34-1.14-.27-.07-.46.12-.51.4a.77.77,0,0,0,.53.86c1.27.66,2.54,1.29,3.86,1.84a3.16,3.16,0,0,1,1.84,1.67,7.53,7.53,0,0,0,.68,2.58c.37.56.65,1,1.42.56a1.09,1.09,0,0,1,1,0,3.42,3.42,0,0,1,1.91,1.93,1.75,1.75,0,0,0,1.93,1.83c1.15,0,2.23.72,3.42.36-.06-.87-1-.88-1.38-1.38a2,2,0,0,0-1.43-.57,1.78,1.78,0,0,1-1.62-.91A.5.5,0,0,1,57.27,109.67Z"/><path class="cls-33" d="M43.76,42.07a1.13,1.13,0,0,0-1.31.61c-.29.57-.69.72-1.22.16-1.1-1.18-2.24-2.33-3.36-3.49.12-.9.58-.48,1-.25l3.25,1.39.11,0c1.31.7,1.65-1,2.61-1.06s2,.05,1.93-1.45a2.07,2.07,0,0,1,.69-1.4c0,.2,0,.4-.05.61-.06,1.6-.32,2.93-2.45,3C44.34,40.24,44,41.36,43.76,42.07Z"/><path class="cls-34" d="M148,105c-.26-.58-.43-1.19-1.09-1.52a1.09,1.09,0,0,1-.46-1.06c.05-3.22.06-6.45.08-9.68,0-.45.09-1-.36-1.23-1.38-.74-.78-2-.82-3.06,0-.66.59-.68,1.1-.65.79,0,1.33-.1,1.36-1.09,0-.81.54-1.17,1.41-1.15,2.37,0,4.74,0,7.12,0,.83,0,1.51-.15,1.5-1.15s-.29-1.73-1.4-1.8c-.53,0-1-.06-1-.74l.5-.47c0,.5.09.83.67,1a2.08,2.08,0,0,1,1.74,2.45c-.25,1-1,1.26-2.46,1.12-1.23-.12-2.48,0-3.72,0-.87,0-1.78.12-2.67.09s-1.22.14-1.33,1a1.26,1.26,0,0,1-1.49,1.25c-.46,0-1,0-1,.59s-.4,1.43.27,1.8a1.88,1.88,0,0,1,.91,1.95v9.31c0,.63,0,1.16.78,1.44S147.93,104.39,148,105Z"/><path class="cls-35" d="M38.12,115c-.56-.09-1.2.27-1.69-.25a6.85,6.85,0,0,0,2.21-1.18c.33-.34.75-.19,1.1.09a3.64,3.64,0,0,0,1.18.84,18.75,18.75,0,0,0,2.72,1.11A4.31,4.31,0,0,0,41.88,113a2.88,2.88,0,0,1-1.54-2.61,12.74,12.74,0,0,0-.94-4.49,1.42,1.42,0,0,1,0-.71.58.58,0,0,1,.22-.27,8.06,8.06,0,0,1,1.38,3.8c0,1.94.52,3.39,2.25,4.33.4.7.78,1.41,1.21,2.09.21.33.39.64.17,1a.92.92,0,0,1-1.21.29,12.09,12.09,0,0,1-3.15-1.52A1.39,1.39,0,0,0,38.12,115Z"/><path class="cls-36" d="M117,93.89c-.3.44-.32.9.16,1.17a1.33,1.33,0,0,1,.78,1.81c-.37.84-1.2.47-1.87.49-.53-.54-1.2-.28-1.82-.3-.46,0-.94.24-1.38-.13.31-.47.87-.33,1.29-.53a4.26,4.26,0,0,1,1.07-.09,3.2,3.2,0,0,1,1.28.37.55.55,0,0,0,.67-.16.35.35,0,0,0,0-.54c-1.24-.82-.89-2-.69-3.1a1,1,0,0,0,0-.57c-.4.67-.41,1.42-.73,2-.64,1.14-1.79.76-2.76.93a.82.82,0,0,1-.38-.09.47.47,0,0,1,0-.55l.3-.29c1.87.18,2.38-1,2.72-2.53a13.71,13.71,0,0,1,.5-1.88c.18-.48.49-.91,1.07-.79s.64.58.67,1a6.48,6.48,0,0,1,0,1.46A7.34,7.34,0,0,1,117,93.89Z"/><path class="cls-37" d="M25.59,36.91l-.45-.32a.87.87,0,0,0-.05-.22c-.17-.41-.83-.63-.48-1.25a.76.76,0,0,1,.56.16c.29.18.47.7.9.44a1.11,1.11,0,0,0,.38-1.1c0-.65-.21-1.29-.19-1.94a1.79,1.79,0,0,1,1.09-1.76,1.52,1.52,0,0,1,2,.4c.48.6.86.41,1.3,0a10.78,10.78,0,0,1,1.6-1.5c.87-.56,1.48-.34,1.81.63-1.62.21-2.4,1.61-3.52,2.53-.8.49-1.3,0-1.76-.56-.26-.32-.53-.67-1-.41a.92.92,0,0,0-.46,1.24,3.55,3.55,0,0,1-.21,3.17C26.73,37,26.28,37.31,25.59,36.91Z"/><path class="cls-38" d="M98.09,50.9h-.24c-.6-.21-.65-.76-.81-1.26-.65-2.06-.91-4.23-1.72-6.24-.28-1.14-.55-2.29-.8-3.44a6.48,6.48,0,0,0-1.39-2.69.47.47,0,0,1,0-.35,1.45,1.45,0,0,1,1.38,1.19A96.27,96.27,0,0,1,98.09,50.9Z"/><path class="cls-3" d="M66.4,100.06c-.21-4.41.36-8.8.58-13.19.1-2,.13-4,.19-6,.06-.09.13-.1.19,0a121.12,121.12,0,0,1-.71,15.47C66.52,97.58,66.91,98.85,66.4,100.06Z"/><path class="cls-39" d="M24.62,35.16c-.12.51.54.72.47,1.21a12.66,12.66,0,0,1-2.66-4.69c-.15-.39-.17-.76-.6-1-2.08-1.06-1.57-4,.51-5.36l.06.25c-.06.89-.83,1.44-1,2.3A1.74,1.74,0,0,0,22,30a3,3,0,0,1,1.31,2,12.82,12.82,0,0,0,1.35,2.88A.45.45,0,0,1,24.62,35.16Z"/><path class="cls-12" d="M47.7,27.52a1,1,0,0,0-.67-1,11.38,11.38,0,0,0-8.14-1.16,1,1,0,0,1-.24,0c1.57-1,3.29-.38,4.94-.42,1.39,0,2.44,1,3.73,1.28A.75.75,0,0,1,47.7,27.52Z"/><path class="cls-23" d="M122.85,17.18c-.49,0-.94-.35-1.45-.17-1.1-.11-.91-1.1-1.22-1.75-.11-.81-.57-1.59-.23-2.44v-.73a4.12,4.12,0,0,1,1,2.67c0,1,.21,1.71,1.32,1.9A.71.71,0,0,1,122.85,17.18Z"/><path class="cls-24" d="M12.57,108.94c0-.18,0-.36,0-.54.3-.37.17-1,.73-1.22.65-.54,1.48-.39,2.21-.47,1.39-.15,2.76-.64,4.18-.27l0,0a.26.26,0,0,1-.09.34,26.11,26.11,0,0,1-3.92.67,2.82,2.82,0,0,0-2.58,1.25A.53.53,0,0,1,12.57,108.94Z"/><path class="cls-40" d="M87.56,35.68c-.11-.76.31-1,1-1a24.35,24.35,0,0,0,2.95,1.75.64.64,0,0,1-.44.27,1.92,1.92,0,0,1-2-.67C88.62,35.38,88.11,35.53,87.56,35.68Z"/><path class="cls-39" d="M31.93,24.35a8.06,8.06,0,0,0-5.19.46,1.32,1.32,0,0,1-1.38-.15c1.74,0,3.33-1.05,5.13-.79C31,23.94,31.55,23.86,31.93,24.35Z"/><path class="cls-21" d="M19.67,106.44a44.19,44.19,0,0,0-6.39.74c.5-.83,1.42-.55,2.09-.64a17.87,17.87,0,0,1,4.32-.31A1.49,1.49,0,0,1,19.67,106.44Z"/><path class="cls-41" d="M15.94,72l.08-.92c.2-1,.82-1.92,1-3a.39.39,0,0,0,0-.21.42.42,0,0,1,.22,0,1.73,1.73,0,0,1,.08,1.88c-.41.74-.29,1.72-1,2.3A.29.29,0,0,1,15.94,72Z"/><path class="cls-42" d="M112.6,95.14a.89.89,0,0,1,.23,0,3,3,0,0,0,1.25,1.5c-.35.33-.84.06-1.21.3a.8.8,0,0,1-.15,0A1.09,1.09,0,0,1,112.6,95.14Z"/><path class="cls-43" d="M67.36,80.87h-.19c0-1.45,0-2.91-.07-4.37.6,1.27.09,2.62.28,3.92Z"/><path class="cls-4" d="M17,68.11c.16,1.14-.57,2-1,3h-.25Z"/><path class="cls-3" d="M71.31,102.49a6.22,6.22,0,0,1-2.5-.68C69.71,101.78,70.66,101.58,71.31,102.49Z"/><path class="cls-44" d="M90.94,36.43l.55,0,1.65.54a1.62,1.62,0,0,1,0,.22c-.72.54-1.34.14-2-.22A.52.52,0,0,1,90.94,36.43Z"/><path class="cls-2" d="M107.88,43l.06.76c-.15.81.14,1.67-.22,2.46A8.33,8.33,0,0,1,107.88,43Z"/><path class="cls-45" d="M112.6,95.14a1.5,1.5,0,0,0,.12,1.83c-.72-.43-.8-.89-.39-2.32h.22C112.56,94.82,112.58,95,112.6,95.14Z"/><path class="cls-28" d="M149.19,42.55c-1,.18-1.28-.61-1.69-1.22v-.26C148.19,41.41,148.45,42.25,149.19,42.55Z"/><path class="cls-27" d="M134.23,53.37a4.33,4.33,0,0,1-.72,2.2A3.63,3.63,0,0,1,134.23,53.37Z"/><path class="cls-23" d="M120.22,7.63c0-.8,0-1.6,0-2.4A2.67,2.67,0,0,1,120.22,7.63Z"/><path class="cls-46" d="M70.82,58c1.24,1.63,1.44,1.57,3.55.89a15,15,0,0,1,3.75-.37c2.48-.13,5,.17,7.46-.24a3.38,3.38,0,0,1,1.93.18c2.64,1.16,5.55,1.53,8.18,2.72.33.15.77.16.87.58s-.34.59-.63.79c-.76.51-.84,1.09-.54,2s1,1.64.53,2.63a.39.39,0,0,0,.08.34c1.18,1.34.13,1.25-.81,1.32-3.86.28-7.73.47-11.6.48-.82,0-1.61.2-2.42.27a7.12,7.12,0,0,1-5.51-2.18A2.52,2.52,0,0,0,75,66.9c-2.13-.77-2.41-2.6-2.61-4.48,0-.5-.28-.79-.78-.67a1.17,1.17,0,0,1-1,0c-.82-.51-.8-1.17-.35-1.91.55-.36.63.55,1.17.39.2-.44-.2-.69-.41-1S70.41,58.47,70.82,58Z"/><path class="cls-40" d="M97.62,53.65c-.14,1.49-1.25,2.35-2.24,3.22a13.44,13.44,0,0,0-1.63,1.47,2.71,2.71,0,0,1-3.43.69,13.69,13.69,0,0,0-6.63-1.09c-3,.26-6,.22-9,.32a3.44,3.44,0,0,0-1.64.38c-.79.46-1.42.17-1.58-.65a3.91,3.91,0,0,0-1.8-2.75,1.11,1.11,0,0,1-.56-1.14A.32.32,0,0,1,69.4,54c.44.22.68.65,1.08.9s.54-.15.54-.54a14.38,14.38,0,0,0-.38-3.16,11.66,11.66,0,0,1,.42-6.72c.54-1.64,1.2-2.14,2.82-2,2.27.23,4.53-.07,6.8,0,.54,0,1,.15,1.58.18.85,0,1.6,0,1.55-1.15a.62.62,0,0,1,.29-.51c.27.47.48,1.08,1.19.49.21,1.18.79,1.3,1.93,1,1.54-.37,3.17,0,4.75-.22a4.86,4.86,0,0,1,2,.34c.61,1.12.29,1.79-.9,1.72a20.61,20.61,0,0,1-3.42-.22c-1.89-.4-3.72.32-5.59.32a13.81,13.81,0,0,1-3.27-.21c-1.15-.29-2.35.11-3.54.08s-2.53,0-3.79-.09c-.29,0-.62-.05-.73.28s.14.55.38.7A30,30,0,0,0,76,47.05a7.32,7.32,0,0,1,1.29.71c1.89,1.54,4.15,1.78,6.46,1.82s2.61.36,2.62,2.53a2.35,2.35,0,0,0,1.46,2.43A27.64,27.64,0,0,1,91.62,57c1.44,1,1.4,1,2.7-.2A12.92,12.92,0,0,0,96.9,54a.75.75,0,0,1,.57-.4Z"/><path class="cls-44" d="M94.65,56.81A15,15,0,0,1,93.57,58a.92.92,0,0,1-1.4,0,19.45,19.45,0,0,0-5-3.38A1.91,1.91,0,0,1,86,52.72C86,49.92,86,50,83.19,49.89a9.77,9.77,0,0,1-5.74-1.62c-1.44-1.08-3.18-1.79-4.71-2.8-.38-.25-.84-.51-.61-1s.68-.57,1.3-.5a24.84,24.84,0,0,0,6.33-.08,1.82,1.82,0,0,1,1.3.15,2.4,2.4,0,0,0,1.67.26c1.46-.22,2.94-.27,4.4-.41a35.64,35.64,0,0,1,5.74.21c1.15.09,1.29,0,1-1.25.6-.16,1,.62,1.59.38a7.74,7.74,0,0,1,.89,2.59,31.3,31.3,0,0,0,1.46,5.13c-.1.92.26,1.87-.23,2.75l0-.09c-.6-.9-.31-2-.61-3a42.62,42.62,0,0,1-1.48-5.69c-.19,1.84.07,3.78-.76,5.73-.69,1.63-.12,3.54-.14,5.33C94.6,56.25,94.76,56.53,94.65,56.81Z"/><path class="cls-47" d="M100.8,63.92l.47,0a11.21,11.21,0,0,0,3.27.09c1.39-.1,2.71.51,4.11.19a4.27,4.27,0,0,0,1.86-.82,2.42,2.42,0,0,1,3.52-.1,1,1,0,0,0,1.52,0c1.39-.94,2.39-.93,3.54.34a28.77,28.77,0,0,0,3.27,3.07c.34.4.85.76.6,1.37s-.94.52-1.5.52H99.64c-1.75,0-2.12-.5-1.53-2.17.17-.48.18-1,.3-1.43C98.75,63.68,99.49,63.36,100.8,63.92Z"/><path class="cls-48" d="M155.6,69.09v.48c-.28.12-.48,0-.69-.17-1-.64-2.13-.19-3.11-.07-2.84.34-5.7.19-8.54.53-1,.11-1.74.65-2.7.84-.09.5.59.75.37,1.23a.29.29,0,0,1-.33.13,1.45,1.45,0,0,1-.18-.16c-.33-.49-1.23-.65-1.09-1.32s.94-.44,1.47-.55.82-.59.75-1.19a1.57,1.57,0,0,1-.16-.56c.05-.45.41-.78.74-.6,1.22.66,2.15-.6,3.28-.4.31.06.59-.24.82-.48a23.22,23.22,0,0,0,4.2-6,1.56,1.56,0,0,0,.24-.82c-.16-1.74,1-3,1.65-4.41.19-.43.44-1,1.05-.84s.57.73.58,1.21c0,1.68,0,3.36,0,5a2.74,2.74,0,0,0,.22,1.44C154.75,64.61,154.89,66.91,155.6,69.09Z"/><path class="cls-49" d="M139.87,72a.72.72,0,0,1-.65.25c-9.61.44-19.22.21-28.83.23-3.26,0-6.54-.36-9.79-.18-7.53.41-15,.12-22.57.18-8.43.08-16.87,0-25.31,0a38.08,38.08,0,0,0-4.27-.26s0-.11,0-.12a6.18,6.18,0,0,0,2.12-1.42,4.44,4.44,0,0,0,1.81.21h18c1.55,0,1.56,0,1.88-1.6a1,1,0,0,1,.29-.52,3.94,3.94,0,0,1,.41,2.33c-.16.72.07.91.8.93,2.23.07,4.44-.31,6.69-.12a47.78,47.78,0,0,0,6.43-.19c2-.11,4.08.36,6.1.21,6.62-.46,13.24-.14,19.85-.17,3.08,0,6.16.33,9.24.18,3.51-.17,7-.24,10.54-.19,1.66,0,3.33.23,5,.24C138.35,72.06,139.11,71.21,139.87,72Z"/><path class="cls-50" d="M73.27,37.12a10.14,10.14,0,0,1,2.93-1c.64-.55,1.59-.14,2.21-.73h0c1.14-.79,1-.75,1.54.57s.64,3,1.2,4.42c.27.71.54.88,1.18.62.06.83.91,1.14,1.2,1.82a7.6,7.6,0,0,1-2.28-.1,15.1,15.1,0,0,0-3.74,0c-2,.22-4-.29-5.94.22-.63.16-.78-.36-.63-.85.23-.74.29-1.52.57-2.24h0C72,38.86,72.17,37.69,73.27,37.12Z"/><path class="cls-51" d="M122,66.63c-1.46-.65-2.27-2-3.37-3.06a2,2,0,0,0-2.82-.13c-1.1.57-1.55.32-2.19-1.23a5.68,5.68,0,0,1,4.17-3.32c.55-.15.69.26,1,.54A4.42,4.42,0,0,0,121.2,61c.84-.26,1,.48,1.29,1,.41.73-.3,1.07-.8,1.56,1.54.13,3.09-.63,4.43.44.09.08.18.19.28.21a2.54,2.54,0,0,1,2.4,2.64.87.87,0,0,1-.48.91,2.19,2.19,0,0,1-2.09-.08A3.1,3.1,0,0,0,123.6,67c.06.4.4.72.3,1.15C122.91,68.07,122.73,67,122,66.63Z"/><path class="cls-52" d="M45,48.42A51.89,51.89,0,0,0,48,53a1.77,1.77,0,0,0,2.33.62l2.34-1A12.36,12.36,0,0,0,56.11,51a.82.82,0,0,1,1.34.23c.32.47.64.94.93,1.43.92,1.54.9,1.57-.61,2.69-.23.17-.47.33-.69.52-.61.67-1.2,1.18-1.89,0a1.18,1.18,0,0,0-1.32-.46,10.69,10.69,0,0,1-2.83.23,7.56,7.56,0,0,1-4.64-1.5,1.15,1.15,0,0,1-.36-.33,16.77,16.77,0,0,0-3-3.82c-.68-1.47-.54-1.92.84-2.87C44.55,47.32,44.6,48,45,48.42Z"/><path class="cls-53" d="M101.05,63.65l-.28.05a3.72,3.72,0,0,1-1.93,0c-.55,0-1-.13-1-.8a1.24,1.24,0,0,1,.64-1.34c.38-.19,1-.15,1-.7s-.61-.55-1-.63a.8.8,0,0,1-.68-.76.89.89,0,0,1,.62-1,7,7,0,0,1,2.7-.73,9,9,0,0,0,2.2,0c2-.48,3.34.68,4.8,1.62.47.3.26.61-.12.84a3.23,3.23,0,0,1-2,.52c-.45,0-1,0-1.12.5s.42.59.8.76a12,12,0,0,1,1.27.69,1.84,1.84,0,0,1-2.08,0c-1.54-.71-3.19-.54-4.79-.78a1.63,1.63,0,0,0-.84.15c-.3.14-.64.3-.57.69s.42.31.7.38C99.94,63.22,100.69,62.83,101.05,63.65Z"/><path class="cls-54" d="M70.32,59.75a2.17,2.17,0,0,0,.24,2c-1.09-.07-1.75.92-2.8,1.09-2.09.34-3.59-.73-3.58-2.8a5.55,5.55,0,0,0-.41-2.37c-.38-.88,0-1.3.95-1.09a11.06,11.06,0,0,0,4.44-.16,1.14,1.14,0,0,1,1.39.66c-.64.38-1.36-.09-2,.21-.31.15-.81.13-.8.59s.46.41.76.51a3.07,3.07,0,0,1,1.7.85A.49.49,0,0,1,70.32,59.75Z"/><path class="cls-55" d="M42.06,59.75v-.21c1.06-.76,2.18-.21,3.16,0,2.13.53,4.38.45,6.46,1.23a2.44,2.44,0,0,0,1.67-.21,4.59,4.59,0,0,1,3.73.66,1.14,1.14,0,0,1,.72,1.17c.65.53,1.27,1,.77,2-.13.26.17.41.44.44,0,.12,0,.29-.11.32-1.35.27-2.68.83-4.06.2-.25-.52.08-.64.49-.71s.75.16,1.12-.41a6.73,6.73,0,0,0-3.23.09c-1.58.47-3.37.31-4.7,1.54a.5.5,0,0,1-.58,0c0-1.06.83-1.43,1.57-1.82a4.22,4.22,0,0,0,1.62-1.46.59.59,0,0,0-.28-1,6.49,6.49,0,0,0-2.36-.61c-1.89-.09-3.68-.76-5.56-.91A1.15,1.15,0,0,1,42.06,59.75Z"/><path class="cls-56" d="M72.53,68.84c0,2.73.32,2.46-2.52,2.46H51.87a2.44,2.44,0,0,1-1.7-.49c-1-.13-1.76-.58-1.85-1.71a1.55,1.55,0,0,1,1-.9.45.45,0,0,1,.49.24,2.25,2.25,0,0,0,2.54,2.16,23,23,0,0,1,5.37.06,31.23,31.23,0,0,0,3.17-.21c3.3.09,6.6.11,9.91,0,1,0,1.26-.29,1-1.27-.22-.74-.47-1.47-.64-2.23a1.24,1.24,0,0,0-1.27-1.11c-.65,0-1.35,0-1.52.88a1,1,0,0,1-.8.84,43.45,43.45,0,0,1-5.44.78.87.87,0,0,1-.57-.19.32.32,0,0,1-.09-.34,5.61,5.61,0,0,1,3.12-.81,4.28,4.28,0,0,0,1.6-.23c-1-.33-2,.21-2.85-.46-.4-.83,0-1.15.77-1.19,2-.1,4.07-.15,6.11-.15.84,0,1.2.58,1.62,1.12C72,67,72.29,67.94,72.53,68.84Z"/><path class="cls-57" d="M57.8,62.43A4,4,0,0,0,53.06,61a3,3,0,0,1-1.91,0c-2.75-.71-5.57-1-8.36-1.5a3,3,0,0,0-.73,0c-.14-.07-.29-.21-.43-.2-2.21.11-2.9-1.36-3.54-3.12-1.17-3.2-2.51-6.34-3.79-9.51-.26-.62-1-1.15-.35-1.94,1.76,2.67,2.67,5.72,3.89,8.63a41.48,41.48,0,0,0,1.55,4,1.52,1.52,0,0,0,1.4,1c1.42.16,2.81.56,4.25.61a17.38,17.38,0,0,0,3.87.63,7.8,7.8,0,0,1,2.13.51,2.16,2.16,0,0,0,1.79.06c1.62-.94,3.1-.22,4.36.57a4.69,4.69,0,0,0,3.5.93,8.88,8.88,0,0,1,1.33.12c.7,0,1.07-.31,1.07-1,0-.33,0-.66,0-1-.08-2.06-.23-2.22-2.25-2.23-1,0-1.94-.27-2.93-.24-.51,0-1.13.1-1.43-.46s.37-.91.58-1.36c.23-.11.42-.31.71-.25-.15.4-.7.68-.42,1.19s.74.24,1.13.25c1.27,0,2.54.05,3.8,0a1,1,0,0,1,1.21.9c.39,1.41,0,2.86.38,4.26.13.55-.36.79-.87.76C61.26,62.63,59.53,62.53,57.8,62.43Z"/><path class="cls-58" d="M126.12,63.92a9.28,9.28,0,0,0-4,0c-.39.09-1,.19-1.1-.42s.41-.48.76-.57c.66-.17.76-.58.33-1.06-.28-.32-.42-.82-1-.87-.57-.91-.44-1.23.58-1.44.38-.08.82.09,1.14-.26a70.48,70.48,0,0,0,8.93-1c.93-.19,1.13-1,1.63-1.5a.68.68,0,0,1,.21.56,1.4,1.4,0,0,1-.1.39,2.15,2.15,0,0,1-1.75,1.16c-2.68.56-5.41.86-8.12,1.18-1.47.18-1.4.19-.83,1.5A2.23,2.23,0,0,0,125,62.94c1.58.27,3.19-.1,4.75.35.37.34.14.72.06,1.08a2.5,2.5,0,0,0,2.08,3.57c2.69.2,5.36-.14,8-.2.64,0,1.34-.09,1.73.63,0,.16,0,.32,0,.47-1-.9-2.23-.58-3.26-.35-2.57.58-5.11-.11-7.65.09a1.07,1.07,0,0,1-1.11-.8,11.14,11.14,0,0,1-.9-2.78c-.08-1-.46-1.18-1.29-1.1A9.9,9.9,0,0,1,126.12,63.92Z"/><path class="cls-59" d="M98.84,63.69h1.93a.83.83,0,0,1,0,.22C99,64,99,64,98.56,65.8c-.59,2.56-.59,2.56,2,2.56q10.25,0,20.5,0c.58,0,1.38.32,1.69-.33s-.67-.83-.8-1.38c.91.15,1.19,1.12,2,1.48a1.36,1.36,0,0,1-1.42.74H99.29c-1.58,0-2-.59-1.5-2.09C98.14,65.73,97.94,64.52,98.84,63.69Z"/><path class="cls-60" d="M90.94,36.43l.25.23c0,.81-.7.77-1.14,1s-1,.49-.78,1.26c.15.48-.17.91-.62.8-1-.25-.6.38-.61.77a1.91,1.91,0,0,1-2.61,1.93,3,3,0,0,1,.1-1.12c-.09-1.08.74-1.84,1-2.81a24.58,24.58,0,0,1,1-2.82c.45-.68.89-1.12,1.49-.12A1.84,1.84,0,0,0,90.94,36.43Z"/><path class="cls-44" d="M71.52,39.83a6.29,6.29,0,0,1-.4,2.14c-.1.44-.11.87.56.74a30.1,30.1,0,0,1,5.85-.14c1.56,0,3.13-.46,4.69.18a1.19,1.19,0,0,0,1.37-.21,2.16,2.16,0,0,1,.15-1.67.22.22,0,0,1,.33,0,.78.78,0,0,1,0,.22c-.06,2.05-.34,2.17-2.4,2A16.92,16.92,0,0,0,76.93,43a6.25,6.25,0,0,1-2.62-.08c-.83-.2-1.52.19-2.28.21a.47.47,0,0,0-.44.51c.08.75-.5,1.3-.57,2-.16,1.75-.7,3.47-.15,5.28a20.45,20.45,0,0,1,.57,3.84c.07.69-.54.84-1.36.38.68-1,.14-2.07.1-3.09S70,50.2,70,49.3c0-.37.14-.89-.56-.8l-.14-.09q.93-4,1.87-8A2.51,2.51,0,0,1,71.52,39.83Z"/><path class="cls-61" d="M101.05,63.65c-.65-.38-1.35-.14-2-.2-.44,0-.83-.11-.9-.62a1,1,0,0,1,.55-1,1.81,1.81,0,0,1,.92-.31c1.63.2,3.33,0,4.89.62a5.73,5.73,0,0,0,2.46.55c.62.21,1.81.05,1.75.66s-1.17.33-1.8.34C105,63.73,103,63.67,101.05,63.65Z"/><path class="cls-49" d="M71.79,66.14c-1.63-1.72-3.72-.83-5.62-.9-.64,0-1.35.16-2,.15s-.93.32-.7,1a.72.72,0,0,1-.9.06,5.92,5.92,0,0,0-3.07-.08,2.25,2.25,0,0,1-.72.23.84.84,0,0,1-.53-.15c-.09-.09-.16-.27-.23-.27-2.3-.14-4.7-.91-6.67,1.1-.45.47-.81,1.17-1.65,1.09h-.49c-.13-.55.28-.81.61-1.09a9.14,9.14,0,0,0,1.19-1c1-1.28,2.4-1.32,3.85-1.07,1.43.58,2.79-.06,4.18-.24,3.66,0,7.32,0,11,0C70.92,64.9,71.57,65.17,71.79,66.14Z"/><path class="cls-59" d="M113.57,62.21c.33.11.44.43.62.69.38.57.86.91,1.57.54-.56.9-1.19.76-1.9.16a2,2,0,0,0-3,0,4.45,4.45,0,0,1-3.58.82,51,51,0,0,0-5.24-.21,1,1,0,0,1-.79-.23,31.23,31.23,0,0,1,6,.22,7.85,7.85,0,0,0,1.93-.24c.29,0,.59-.1.63-.45s-.3-.43-.52-.6-.8-.06-.72-.5.64-.44,1-.4A23.3,23.3,0,0,0,113.57,62.21Z"/><path class="cls-62" d="M70.32,59.75c-.49-1-1.53-.92-2.37-1.24-.33-.12-.78-.18-.77-.63s.36-.69.77-.81a3.7,3.7,0,0,1,2.6,0,1.77,1.77,0,0,1,.27,1c-.11.56.26.89.6,1.25s.81.87.21,1.32-.83-.14-1.07-.58A1.45,1.45,0,0,0,70.32,59.75Z"/><path class="cls-63" d="M83.86,40.82c-.07.58.11,1.19-.27,1.72-1.25.2-1.61-.32-1.22-1.48a.36.36,0,0,1,0-.5c.14-.92.75-1.77.33-2.8a.68.68,0,0,1,.64-.86c.57-.07.54.35.58.71C83.71,38.68,84.14,39.75,83.86,40.82Z"/><path class="cls-7" d="M140.6,72.06l.25,0,.16.17a9.23,9.23,0,0,1,0,4,1.13,1.13,0,0,1-.53.46,4.79,4.79,0,0,1-1.46.12H124.1a2.39,2.39,0,0,1-1.65-.29c.07-.79.68-.39,1-.39,5.19,0,10.38,0,15.57,0,.43,0,.9.15,1.3-.15.42-1.11,0-2.29.28-3.41Z"/><path class="cls-64" d="M140.21,68.63c.45,0,.81.06.86.53a.52.52,0,0,1-.6.61c-.85-.17-1.72.79-2.54,0-.18-.19-.51-.35-.37-.69s.41-.2.65-.21A6.3,6.3,0,0,0,140.21,68.63Z"/><path class="cls-44" d="M82.33,40.56c0,.17,0,.34,0,.5-.62.48-1.05.71-1.3-.4-.42-1.89-1-3.73-1.54-5.6-.46-.15-.68.46-1.11.34a6.31,6.31,0,0,1,.65-.72c.49-.41.73-.3.89.36.42,1.77.93,3.53,1.37,5.31C81.53,41.18,81.9,40.94,82.33,40.56Z"/><path class="cls-44" d="M85.53,41.31l0,1.23c.36.25.68,0,1-.07a12.37,12.37,0,0,1,5-.17.59.59,0,0,1,.39.27c-.59.43-1.26.15-1.89.22-1.28.13-2.59-.24-3.86.37-.74.35-1.06-.25-.9-1.62Z"/><path class="cls-44" d="M69.32,54.1h-.24a11.66,11.66,0,0,1,.21-5.69l.09.07a1,1,0,0,1,.28.77c0,1.33,0,2.65,0,4A1,1,0,0,1,69.32,54.1Z"/><path class="cls-40" d="M83.86,40.82c.1-1.07-.63-2.14,0-3.21a10,10,0,0,1,.19,3.22Z"/><path class="cls-44" d="M73.27,37.12c-.87.72-1,1.88-1.74,2.7C71.75,38.69,72,37.56,73.27,37.12Z"/><path class="cls-44" d="M78.41,35.4c-.52.9-1.52.33-2.21.73C76.77,35.39,77.68,35.67,78.41,35.4Z"/><path class="cls-65" d="M78.66,92.91a5.56,5.56,0,0,1-3.68,1,3.22,3.22,0,0,1-2.15-1,1.3,1.3,0,0,1-.06-1.95c.33-.41.69-.81,1-1.2s.51-.52.38-.85c-.78-2,0-4-.18-6-.16-1.71-.16-3.43-.27-5.14-.07-1.07.38-1.45,1.43-1.45a34.52,34.52,0,0,0,4.77,0c.93-.13,1.32.4,1.16,1.24a52.17,52.17,0,0,0-.48,9.67c0,.38,0,.79-.36,1-.91.44-.88,1.2-.74,2a2.94,2.94,0,0,1-.87,2.77Z"/><path class="cls-45" d="M117.53,91.7c0-.53,0-1.06,0-1.59,0-.33,0-.7-.43-.77a.68.68,0,0,0-.75.65,16.92,16.92,0,0,1-.74,2.68c-.71,2.11-.67,2.12-2.75,1.69a2.49,2.49,0,0,0,.47-1.74,16.32,16.32,0,0,1,0-4.47,19.15,19.15,0,0,0-1.13-7.75,10.62,10.62,0,0,1-.46-3.12c0-1,.92-.94,1.62-1.06a1.8,1.8,0,0,0,1.31,0c1.6-.28,2.11.25,2,1.92-.08,2.25-.39,4.48-.33,6.74a4.38,4.38,0,0,0,1.35,3.41A2.34,2.34,0,0,1,117.53,91.7Z"/><path class="cls-66" d="M117.53,91.7c.55-1.37,1-2.67-.62-3.72a2.41,2.41,0,0,1-.86-2,65.58,65.58,0,0,1,.32-8.17c.06-1-.37-1.6-1.4-1.47-.56.08-1.12.28-1.63-.15,1.68-.57,3.4-.28,5.1-.18a6.72,6.72,0,0,1,2.78,1.16c-.25.66-1,1.3,0,2a1.38,1.38,0,0,1-.53,2c-.91.62-.47,1.82-.64,2.75-.49,2.58-.68,5.22-1.35,7.78A7.37,7.37,0,0,1,118,94c-.18.28-.1.82-.6.75s-.4-.54-.44-.9A3.82,3.82,0,0,1,117.53,91.7Z"/><path class="cls-43" d="M48.44,69.09c.16,1,1.11,1.2,1.73,1.73.58,1,.23,1.34-.84,1.23a.84.84,0,0,0-.88.23c-1.45.12-2.94-.29-4.34.66-.52.36-1.5.06-2.27,0,.43-.34.93-.16,1.4-.18s1.17-.15,1.15-.79-.66-.63-1.2-.72c-1-.16-2.06.56-3.09,0A2.88,2.88,0,0,0,42.87,69c0-.28-.21-.59-.32-.88.61-.43,1.05.22,1.59.24a3.31,3.31,0,0,0,1.68.07A3.18,3.18,0,0,1,48.44,69.09Z"/><path class="cls-43" d="M66.84,76.23H42.77c-.47,0-1,.18-1.41-.2L66.2,76C66.45,76,66.7,76,66.84,76.23Z"/><path class="cls-2" d="M140.33,75.94c-.33.46-.82.25-1.24.25-5.13,0-10.27,0-15.4,0-.43,0-.91-.16-1.28.22a.27.27,0,0,1-.26.27l-.73.46a1.68,1.68,0,0,1,1.86-1.22C129,76,134.65,76,140.33,75.94Z"/><path class="cls-67" d="M17,69.8a2.81,2.81,0,0,0,.28-1.93A14.94,14.94,0,0,0,18,62.81c0-2.37.13-4.74.2-7.11,0-.31-.09-.75.34-.82s.59.33.72.69c1.27,3.5,3.21,6.7,4.57,10.16a3.76,3.76,0,0,0,2.95,2.14,22.23,22.23,0,0,1,3.69.83c2.17.94,4.49,1.33,6.68,2.16,0,.07,0,.15,0,.22-.81.55-1.56.11-2.32-.14a3.81,3.81,0,0,0-2.3-.42,10.61,10.61,0,0,1,4,1.38,2,2,0,0,1-2,.95c-3.23,0-6.46,0-9.68,0a5,5,0,0,1-2.1-.64,3.15,3.15,0,0,0-4.59,3.2,2.75,2.75,0,0,1,0,1.21c-.26.36-.59.66-.84,1-.14.21-.33.38-.61.23a.48.48,0,0,1-.27-.62c.89-1.82-.15-3.9.82-5.72C17.53,71,17.19,70.36,17,69.8Z"/><path class="cls-68" d="M25.59,36.91A2.24,2.24,0,0,0,27.23,34a8.53,8.53,0,0,1-.35-1.16,1.22,1.22,0,0,1,.89-1.31c.53-.23.94.09,1.2.56.35.63.73,1.12,1.51.58a.5.5,0,0,1,.15.49c-1,1.06-1.66.86-2.65-.8-.47.36-.3.79-.15,1.19a2.62,2.62,0,0,1-.17,2.57,1,1,0,0,0,0,1.26c.14.2.29.4.45.59,1.52,1.77,2.1,1.79,3.67.07a12.76,12.76,0,0,0,1.44-1.5c.81-.94,2-1.57,2.66-2.62.32.63.82,1.18.73,2-.4-.2-.73-.7-1.25-.11A47,47,0,0,0,31.47,40a10.89,10.89,0,0,0-.37,4.69c.2.33.53.34.86.34.82.12.76.78.86,1.35-.25.35-.41.75-.64,1.11-.5-.46-.93-.82-1.65-.22a2.17,2.17,0,0,1-2,.09,5.48,5.48,0,0,1-4.06-3.78,1.64,1.64,0,0,1,.11-1.29c.48-1.06.88-2.16,1.34-3.22A1.67,1.67,0,0,0,25.59,36.91Z"/><path class="cls-69" d="M44,68.62c-.58.13-.88-.61-1.47-.47a.83.83,0,0,0-.22-.08,63.09,63.09,0,0,0-7.26-3.64c-.56-.26-1-.62-1.57-.92-.71-1.26-.25-2.34,1-2.48A3.49,3.49,0,0,1,36,62.32a4.32,4.32,0,0,0,4,2c1.49-.13,3,0,4.52,0,.68,0,1.33.12,1.45,1-.05.57-.15,1.13-.16,1.7a1.5,1.5,0,0,1-1.19,1.62A.62.62,0,0,1,44,68.62Z"/><path class="cls-70" d="M33.69,63.45c2.6,1.26,5.21,2.51,7.81,3.8.34.17.74.36.83.82a16.09,16.09,0,0,1-3.3-1.5c-2.65-1.22-5.25-2.55-7.89-3.77a3,3,0,0,1-1.88-2.51,37.73,37.73,0,0,0-1.79-7.68c-.25-.7-.68-1.83,0-2.24s1.1.76,1.58,1.28c.81.86,1.53,1.8,2.3,2.7.24.28.51.59.94.4s.36-.58.38-1c.11-2.14-.54-4.21-.53-6.34,0-.41-.27-1,.5-1a1.23,1.23,0,0,1,.54.52,1.1,1.1,0,0,1,0,1.26c-.54.37-.32.88-.21,1.34a20.51,20.51,0,0,1,.25,4.76c0,.75-.26,1.29-1.13,1.27a2,2,0,0,1-1.42-.85C30,53.88,29.2,53,28.22,52a8.77,8.77,0,0,0,.55,2.21A33.82,33.82,0,0,1,30,60a2.49,2.49,0,0,0,1.6,2.13A8.34,8.34,0,0,1,33.69,63.45Z"/><path class="cls-71" d="M113.86,110.64l-.34,0c.83-.6.83-1.75,1.62-2.39.34-.29.66-.73,1.14-.44s.11.78,0,1.1a8.87,8.87,0,0,1-1.46,2.77c0-.12,0-.23,0-.34-.3-.61.3-1,.33-1.58C114.67,110,114.55,110.72,113.86,110.64Z"/><path class="cls-72" d="M42,86.78a4.17,4.17,0,0,1-1,1.65,1.24,1.24,0,0,0-.17,1.39A2.94,2.94,0,0,1,41,91.75c-.63,1.76-.41,3.55-.43,5.34a3.6,3.6,0,0,1-.51,2c-.1,1.28-.51,1.74-1.8,2s-2.32.27-3.47.42a5.06,5.06,0,0,0-3.37,1.63.37.37,0,0,1-.31-.2c.05-1.31.48-1.9,1.66-2.2,1.4-.36,2.85-.3,4.26-.54a3.21,3.21,0,0,0,2.83-3.71,38.22,38.22,0,0,1,.22-5.13,6,6,0,0,0,0-1.47,2.21,2.21,0,0,1,.52-2.05c.43-.51.84-1.11.27-1.74-.29-.32-.85-.24-1.24-.49-.58-.36-.66.26-.93.49a2.26,2.26,0,0,1-2.08.47,20.68,20.68,0,0,0-5.5.1,1,1,0,0,0-1,.8,1.72,1.72,0,0,1-2,1.31c-.94-.13-1.14.37-1.09,1.15a1.28,1.28,0,0,0,.14.71c1.59,2.12,1.06,4.56,1,6.89a40.58,40.58,0,0,1,0,4.41c-.16,1.29,1.1,1.92,1.64,2.9.19.36.57,0,.86-.16.64,0,1,.42.85,1s-.72.48-1.2.45a2.05,2.05,0,0,1-1.94-1.51l-.31-.28a2.43,2.43,0,0,1-1.19-2.5c0-2.78,0-5.55,0-8.33a3,3,0,0,0-.56-2,3.7,3.7,0,0,1-.29-3.07c.09-.54.59-.73,1.11-.8a3.93,3.93,0,0,0,1.56-.21,2.43,2.43,0,0,0,.24-.32,2.18,2.18,0,0,0,.19-.83,1.1,1.1,0,0,1,1.39-1c2,.32,4.06-.33,6.08.1.8.17,1.33-.18,1.35-1.11,0-.54.09-1.1.77-1.22a1.21,1.21,0,0,1,1.35.82,1.49,1.49,0,0,0,1,.82C42.38,85.4,42.49,85.67,42,86.78Z"/><path class="cls-73" d="M42,86.78c0-.77.13-1.57-1-1.7.18-.83.8-.3,1.22-.39,1.39-.37,2.24-1.55,3.39-2.3a37.64,37.64,0,0,0,3.48-2.45c1.18-1,2-.65,2.29.84.13.64.45.77,1,.78a2.4,2.4,0,0,0,1.25-.45,2.87,2.87,0,0,1,1.41-.3c1.15,0,1.64.55,1.47,1.7a11.56,11.56,0,0,1-.43,2.26c0,.13-.07.26-.11.38-.33,1.32-.71,2.63-1.11,3.93a7,7,0,0,1-.58,3,1.11,1.11,0,0,1-.51.58h-.26c0-.31,0-.63,0-.94-.39-1.25.22-2.38.5-3.53.4-1.62.72-3.26,1.13-4.87.1-.4.33-1-.2-1.21s-.88.18-1.14.62c-.11.21-.23.45-.54.4s-.73,0-1.09,0c-.88-.06-1.38-.43-1.38-1.44,0-1.71-.1-1.73-1.62-.8-.48.29-1,.47-1.32,1-1.79,1.23-3.93,2.08-4.69,4.43C43.06,86.85,42.65,87.17,42,86.78Z"/><path class="cls-74" d="M48.48,100.75c-.61-.32-1.29-.1-1.9-.3-.4-.13-.92-.12-1.08-.65a8,8,0,0,1,.58-3.58c.12-.34.25-.72.69-.79a.65.65,0,0,1,.71.38,23.92,23.92,0,0,0,2.34,3.55c.67,1,.45,1.29-.66,1.21A.71.71,0,0,0,48.48,100.75Z"/><path class="cls-35" d="M34.67,101.27a7.92,7.92,0,0,1,2.86-.39,2.6,2.6,0,0,0,2.55-1.81c.38.06.87.22.6.64-.56.89-.24,2-.8,2.87a3.72,3.72,0,0,0-.25,2.36l-.07,0a.39.39,0,0,1-.45-.31c-.15-.86-.72-1.13-1.5-1.14,0-.53.18-1.15-.76-1a.94.94,0,0,1-1-.32c.35-.77,1.12-.42,1.68-.62s1,0,1.67-.21a4.11,4.11,0,0,0-1.62.09C36.61,101.57,35.6,101.89,34.67,101.27Z"/><path class="cls-75" d="M140.57,76.47l.29-.3a14.58,14.58,0,0,0,0-4.12l0,0c-.55-1-.35-1.27.6-1.94a5.44,5.44,0,0,1,3-.67c2.36-.13,4.71-.13,7.06-.47.92-.13,1.91-.06,2.86-.22.51-.09.65.22.71.62a1.58,1.58,0,0,1,.06,1.42,12.35,12.35,0,0,1-2.8,5.79,7.09,7.09,0,0,1-1.47,1.09c-2.09,1.26-4.48,1.74-6.7,2.64a1.28,1.28,0,0,1-.6.13c-1.54-.24-2.92.54-4.4.68a4.26,4.26,0,0,1-1.33.08,10.4,10.4,0,0,0-4.62.19c-1,.22-2.39.27-3.2,1.29-.45,1-1,1.2-2,.52-2-1.38-4-2.66-6-4-1.06-.72-.69-1.41.11-2,.37-.58.95-.52,1.53-.52h15.54A2.59,2.59,0,0,0,140.57,76.47Z"/><path class="cls-76" d="M144.8,90.72c0,.12,0,.32.08.34,1.48.59,1.14,1.85,1.14,3,0,2.78,0,5.57,0,8.35,0,.77.09,1.39,1,1.62a.68.68,0,0,1,.53.73c0,1.09.76,1.33,1.64,1.43,2.11.25,4.21.53,6.31.76a1.67,1.67,0,0,1,1.35.93,11.93,11.93,0,0,0,.88,1.6,1,1,0,0,1-.16,1.34.85.85,0,0,1-1.12.19c-.39-.26-.79-.56-.73-1.17.13-1.55-.07-1.73-1.67-1.93s-3-.44-4.47-.65c-.4-.06-.89-.2-1.12.23s.25.71.57.92c1.27.87,2.57,1.71,3.84,2.59a3.55,3.55,0,0,1,1.26,1.48,3.67,3.67,0,0,0,1,1.39c.83.68.54,1.36,0,2a1.33,1.33,0,0,1-2,.35c-.66-.45-1.2-1-.69-1.94a1.68,1.68,0,0,0-.54-2.37L145.15,107a1.52,1.52,0,0,0-1.63,0c-2.78,1.24-5.54,2.52-8.33,3.76a1.56,1.56,0,0,0-1,1.75c0,.47.18,1-.2,1.42s-.77,1-1.52.82a1.73,1.73,0,0,1-1.37-1.42,1.65,1.65,0,0,1,.71-1.71c1.36-.94,2.56-2.15,4.27-2.53.39-.09.94-.31.79-.91s-.69-.49-1.13-.46c-1.26.07-2.53.13-3.78.27s-2,1.22-1.49,2.12c.43.75.16,1.13-.37,1.54a.91.91,0,0,1-1.24.06,1.54,1.54,0,0,1-.29-1.79c1-2.43,2.72-3.63,5.41-3.21,1.72-.18,3.42-.47,5.14-.62.94-.09,2-.07,2.16-1.46,0-.44.57-.4.8-.67a13.93,13.93,0,0,0,.5-4.85,47.54,47.54,0,0,1,0-7.16l.23-.25a.89.89,0,0,0,.8-.2,12.45,12.45,0,0,0,.17-3.94c-.47-.5-1.08-.25-1.63-.25-.8,0-1.13-.35-1-1.13,0-.26.3-.61.4-.52,1,.83,2-.65,3,.08.33.24.85.1,1.3-.06,1.22-.44,1.4-.3,1.43,1v.61h0a1.55,1.55,0,0,1-.95.11c-1.24,0-1.62.3-1.62,1.53A3.66,3.66,0,0,0,144.8,90.72Z"/><path class="cls-77" d="M155.6,69.09c-1.3-1.61-1-3.65-1.45-5.49a4,4,0,0,0-.27-1.16,32.12,32.12,0,0,1-.1-4.6c0-2.73-.43-5.43-.28-8.16a3.33,3.33,0,0,0-.6-1.7c-.34-.69-1-1.36-.48-2.25.77,2.16,2.73,2.66,4.55,3.54s3.95,2,4.81,4.26c.48,1.25.26,2.58.38,3.86.19,2.23.06,4.49,0,6.73a1.8,1.8,0,0,1-.2.56c-.47-1.81.05-3.75-.68-5.54-.69,1.57-.57,3.23-.71,4.85,0,.35.09.74-.16,1a1.21,1.21,0,0,0-.11,1.55c.29.58.25,1.09-.64.89-.32-.06-.71-.22-.82.22a.86.86,0,0,0,.49,1c1,.27,1,1,.87,1.73-.28,1.27-.14,2.78-1.59,3.5-.72.35-1.79-.78-1.8-2A5.41,5.41,0,0,0,155.6,69.09Z"/><path class="cls-78" d="M130.06,82.64c.06-.19.09-.51.2-.54.87-.22,1.68-1,2.33-1.06a15.38,15.38,0,0,1,4.84-.26,3.15,3.15,0,0,0,1.92-.1c.92-.41,2.11.09,2.89-.84,1.68,1,2.87-.86,4.46-.73,1,.09,1.83-.84,2.78-1.18,3.44-1.22,4.62-4.1,5.39-7.29.1-.43.17-.87.25-1.31l.48.24h0a24.84,24.84,0,0,0,1,4c.44,2-.29,3.88-.25,5.81-.11.27-.21.54-.31.8a2.81,2.81,0,0,1-2.89,2c-7.22,0-14.45,0-21.68,0A2.3,2.3,0,0,0,130.06,82.64Z"/><path class="cls-48" d="M140.57,76.47c-.3.43-.75.24-1.13.24q-7.83,0-15.66,0a3.13,3.13,0,0,0-1.6.42l0-.41.26-.27Z"/><path class="cls-48" d="M156.38,79.38a19.56,19.56,0,0,1,.16-3.14A7.89,7.89,0,0,0,156,72a5.27,5.27,0,0,1-.39-2.37A13.94,13.94,0,0,1,156.38,79.38Z"/><path class="cls-77" d="M162,64.91c-.12.9.23,1.85-.24,2.72C161.87,66.73,161.47,65.78,162,64.91Z"/><path class="cls-79" d="M53.34,83.14c.36-.61.38-1.54,1.46-1.49.71,0,1.08.19.88,1-.63,2.66-1.23,5.33-1.84,8-.08.35-.17.71-.25,1.07-.21.09-.23.28-.25.47-.74.22-.82-.27-.84-.79a39.06,39.06,0,0,0-1.12-6.18c-.12-.64-.55-1.34.24-1.87C52.18,83.2,52.87,84.06,53.34,83.14Z"/><path class="cls-80" d="M51.1,105.72c-.9-1.66-2.81-1.69-4.18-2.59a10.69,10.69,0,0,0-1.54-.7,1.13,1.13,0,0,1-.57-1.63c.3-.79.77-.2,1.2-.13,1.32.21,2.64.42,4,.59.51.06.88.19.94.75-.27.34-.66.24-1,.27s-.81,0-.85.45.41.53.72.68c.75.35,1.66.44,2.06,1.32C51.41,104.92,51.45,105.47,51.1,105.72Z"/><path class="cls-6" d="M51.62,83.36c-.71,1.34.28,2.53.4,3.79a40.3,40.3,0,0,1,.6,4.09c0,.51.14.89.72,1-.6.33-.89.23-.94-.44A52.73,52.73,0,0,0,51,84.39C50.84,83.84,50.94,83.41,51.62,83.36Z"/><path class="cls-81" d="M51.1,105.72c.18-.38-.35-1.29.74-1a8.41,8.41,0,0,0,1.54,1.5c.3.3.9.4.67,1-1.09.18-1.33-1.09-2.19-1.31-.26,1.62.32,2.4,1.81,2.46a.94.94,0,0,1,.67.24.27.27,0,0,1,0,.31,2,2,0,0,1-.49,0c-.55-.14-.8.94-1.35.42a4.46,4.46,0,0,1-1.28-2.43A8,8,0,0,1,51.1,105.72Z"/><path class="cls-80" d="M54.09,107.19l-.71-1c1.2.45,1.81,1.59,2.73,2.35.41.34.78.73,1.16,1.09v.22a.59.59,0,0,1-.49.18A6.16,6.16,0,0,1,54.09,107.19Z"/><path class="cls-82" d="M142.93,38.22a11.19,11.19,0,0,0-1.24-6.16c-.38-.72-.66-1.09-1.44-.42s-1.33.26-1.86-.26-.78-.8-1.51-.27-1.4-.12-1.43-1a6.13,6.13,0,0,1,3.84-5.5,7.65,7.65,0,0,1,10.26,4.75c.94,2.54,1.39,5.11-.26,7.5a14,14,0,0,1-5.49,4.58c-.7.34-1-.07-1-.74S142.89,39,142.93,38.22Z"/><path class="cls-83" d="M144.76,46.24c.4,2.35-1.2,3.76-2.49,5.3-.58.69-1.25,1.29-1.88,1.92-.19.2-.39.47-.72.24a.56.56,0,0,1-.21-.65,28.87,28.87,0,0,0,.17-4.74c.05-1.07.39-1.66,1.61-1.61a6.9,6.9,0,0,0,2.83-.46Z"/><path class="cls-84" d="M89.41,93.68a2.89,2.89,0,0,1-2.07-.61,3,3,0,0,1-1-3.86c.17-.36.41-.53.76-.24a2.57,2.57,0,0,0,2.9.17c.35-.15.8-.3.89.21.12.67.69,1,1,1.51s.85,1.11.41,1.79a1.83,1.83,0,0,1-1.92,1A9.31,9.31,0,0,0,89.41,93.68Z"/><path class="cls-85" d="M134.84,108.24s.2.05.27.16,0,.4-.19.5a20.42,20.42,0,0,0-3,2.07c-.76.57-.65-.51-.9-.86a.83.83,0,0,1,.54-1.4C132.59,108.47,133.65,108.4,134.84,108.24Z"/><path class="cls-7" d="M142.07,103.94c-.26.4-.71.6-.77,1.19-.06.75-.81,1-1.38,1-2,.08-3.94.65-5.95.57a27.27,27.27,0,0,1,4.49-.72c1.14-.2,2.54.12,2.78-1.64C141.29,104,141.75,104,142.07,103.94Z"/><path class="cls-7" d="M142.57,91.93v7.16c-.46-1.7-.13-3.44-.19-5.16C142.36,93.27,142.14,92.56,142.57,91.93Z"/><path class="cls-7" d="M144.8,90.72a3.79,3.79,0,0,1-.15-2.61c.12-.7.7-1,1.38-.93.41,0,.81.07,1.22.1a.73.73,0,0,1-.08.09c-.67.44-1.8-.33-2.21.82A10.7,10.7,0,0,0,144.8,90.72Z"/><path class="cls-33" d="M36.64,39.35c-1,1.93-2.35,3.64-3.21,5.64-.14.28-.33.47-.68.38A6.16,6.16,0,0,1,31.5,44a3.08,3.08,0,0,1,.12-2.25c.29-.53.59-1,1.28-1s1.06-.33,1.35-1c.45-1.05,1.07-2,1.57-3.05.38-.76.67-.51,1,0s.52.72.78,1.08C38.14,39,38.13,39.05,36.64,39.35Z"/><path class="cls-4" d="M31.5,44a4,4,0,0,1,1.21,1.23c.44.53.73,1.08.24,1.74l-.27-.52C32.42,46,32.47,45.36,32,45,31.85,44.65,31.44,44.45,31.5,44Z"/><path class="cls-86" d="M36.64,39.35c.69-.25,1.4-.49,1-1.48a3.74,3.74,0,0,1,1.24,1.23c-.35,0-.79-.34-1,.25Z"/><path class="cls-87" d="M119.77,6a11.77,11.77,0,0,1,0,1.23c-.17,1.53-.64,1.78-2,1.12a52.26,52.26,0,0,1-6-3c-1-.65-1.47.12-1.85.92-.13.26-.06.78-.52.68s-.31-.56-.25-.85a6,6,0,0,1,3.22-4.37,4.82,4.82,0,0,1,5.2.53C119,3.21,120,4.46,119.77,6Z"/><path class="cls-88" d="M117,18.45c.09,1.36-.77,2.46-1,3.72-.07.31-.36.42-.67.43a5.93,5.93,0,0,1-.73,0c-.95-.1-2.44.48-2.75-.25a5.4,5.4,0,0,1,.08-3.91c.11-.05.28-.17.33-.14C113.8,19.51,115.42,18.65,117,18.45Z"/><path class="cls-89" d="M120,12.82a11.83,11.83,0,0,1,.5,2.42,1.18,1.18,0,0,0,0,.59,1.18,1.18,0,0,1-1.07,1.36c-.79.11-.86-.53-1-1.08a1.42,1.42,0,0,0-.11-.35,2.8,2.8,0,0,1-.55-2.08,2,2,0,0,1,.93-1.51C119.31,11.78,119.5,12.63,120,12.82Z"/><path class="cls-90" d="M118.28,15.76l.23.28c.26.34.14,1.07.89.91a1.08,1.08,0,0,0,.83-1.17,1.76,1.76,0,0,1,.22-.54c.23.64.28,1.37,1,1.77-.92,1-1.61,2.46-3.41,1.7a21.54,21.54,0,0,1,.23-2.65Z"/><path class="cls-91" d="M118.26,21.89a.84.84,0,0,0,1-.67,3.51,3.51,0,0,1,5.93-1.28c.65.64,1.37,1.14,1.21,2.22a.77.77,0,0,0,.86.84c.62-.1.24-.74.35-1.12a6.93,6.93,0,0,1,.47,2.58c0,1.91,0,3.82,0,5.73a9,9,0,0,1-.79,4.5c-.68.4-1.74.5-1.4,1.73a1.53,1.53,0,0,0-.54,1.47,5.37,5.37,0,0,0,0,3.56c1.57,4.1.63,8.14-.19,12.18-.29,1.45-1.18,1.79-2.69,1.22a11.48,11.48,0,0,0-5-.3,3.21,3.21,0,0,1-1.18-.25c.28-.53-.09-.59-.47-.73-1.66-.63-3.28-1.3-5.15-1-1,.17-1.26-.78-1.41-1.54-.18-1-.25-2-.34-3s-.13-1.72,1.07-2a.63.63,0,0,0,.35-1.07c-1.56-1.94-1-4.05-.37-6.07.48-1.6-.23-2.82-1-4-.26-.4-1.26,0-1.93-.2a3.66,3.66,0,0,0-1.1,0,.33.33,0,0,1-.48,0c-.45-.38-.81-.75-.42-1.42a3.41,3.41,0,0,0,.14-1.77,1.74,1.74,0,0,1,0-1.71,59,59,0,0,1,.5-8.51c.16-1.16,2.81-2.87,3.87-2.46a1.27,1.27,0,0,1,.81,1.25c0,.62,0,1.23,0,1.84-.79.66-.79.66-.26,1a4.63,4.63,0,0,0-.45,2.54c-.09,1.79-.14,3.59-.35,5.37a2.27,2.27,0,0,0,0,1c.17.62.29,1.25.41,1.89s.4,1,1.1.72a2.31,2.31,0,0,0,1.06-1.58,2.38,2.38,0,0,1,3.65-1.53,3,3,0,0,0,3.15-.05,1.09,1.09,0,0,0,1-1.39,37.09,37.09,0,0,1-.75-6.73C119,22.57,118.42,22.35,118.26,21.89Z"/><path class="cls-92" d="M122.44,54.85c2,0,2-.06,2.53-2.06.49-1.82.51-3.69.86-5.52.39-2.09-.35-4.12-1-6.08-.33-1,.31-2-.11-3-.13-.31.37-.3.64-.31a12.62,12.62,0,0,0,.83,2.4c1.16,3.42.76,6.81.15,10.23-.36,2-.71,3.92-.93,5.89-.11,1-.41.86-1,.41A9.43,9.43,0,0,1,122.44,54.85Z"/><path class="cls-93" d="M133.49,57.29c0-.17,0-.33,0-.5.67-2.07,1.79-4,2.24-6.13.64-1.49,1.28-3,1.93-4.46a1.23,1.23,0,0,1,.1,1.48c-1.2,2.84-2,5.83-3.34,8.63C134.22,56.73,134.12,57.28,133.49,57.29Z"/><path class="cls-94" d="M125.9,36.42c-.32-.27-.62-.58-.36-1a1.6,1.6,0,0,1,1.76-.72A1.42,1.42,0,0,1,125.9,36.42Z"/><path class="cls-95" d="M88.34,21.11a7.9,7.9,0,0,1,.1,2.82c-.57-.49-.43-1-.56-1.37-.48-1.39-1.26-1.82-2.49-1a4.69,4.69,0,0,1-4.72.4l-.06,0c-1.31-.46-1.58-.3-1.7,1,0,.4,0,.81,0,1.21a.32.32,0,0,1-.3.33c-.2,0-.26-.15-.33-.3A3.69,3.69,0,0,1,80,19.68c1.7-.84,3.5-.71,5.28-.76l1.73.51A1.71,1.71,0,0,1,88.34,21.11Z"/><path class="cls-96" d="M105.47,34.67H106c.31.42,1.06.09,1.23.73a1.71,1.71,0,0,1-1.28.23C105.34,35.53,105,35.27,105.47,34.67Z"/><path class="cls-97" d="M55.81,85.06c.14-.75.25-1.51.4-2.26.3-1.46,0-1.78-1.42-1.65a8,8,0,0,0-1.18.25,3.68,3.68,0,0,1-1.68.24c-.39,0-.7-.2-.63-.56.32-1.55-1-1.94-1.82-2.74-.17-.18-.44-.24-.59-.43-.4-.49-.57-.93.29-1.13a5.28,5.28,0,0,1,1.2-.2H65.79a.85.85,0,0,1,.58.13,1.7,1.7,0,0,1,0,.22c-.47.47-1.07.33-1.63.34-1.66,0-3.32,0-5,.13a36,36,0,0,0,3.6-.07c2.05.07,2.24.32,2.36,2.37.2,3.34-.94,6.35-2.15,9.35-.55,1.36-.65,2.85-1.3,4.2-.36.74.06,1.61.17,2.41a4.58,4.58,0,0,1-3.62,5.4,1.24,1.24,0,0,1-1.55-.62,26.85,26.85,0,0,1-2.48-5.84,2.51,2.51,0,0,1,0-1.46c.87-2.84.91-5.87,2-8.67a3.17,3.17,0,0,0,.12-1.13C56.41,83.87,56.84,84.94,55.81,85.06Z"/><path class="cls-98" d="M55.81,85.06c.69-.51.4-1.37.71-2,.11-.24,0-.65.43-.61s.32.4.31.68a27.63,27.63,0,0,1-1.13,5.16,6.31,6.31,0,0,0-.36,2.25,3.14,3.14,0,0,1-.42,2,2.47,2.47,0,0,0-.15,2.25c.7,1.63,1.06,3.39,2,4.9.83,1.28,1.83,1.34,3.1.46,2.31-1.61,2-3.77,1.55-6-.07-.32-.22-.6,0-.94C63.1,90.73,63.41,88,64.6,85.5c1-2.13.82-4.54.8-6.87,0-.71-.48-.93-1.05-.92a13.49,13.49,0,0,0-3.53.15,3.69,3.69,0,0,1-1.1.06c-.4,0-.81-.24-.81-.62,0-.58.56-.33.86-.33,2.21,0,4.42,0,6.64,0l.2,0a21.09,21.09,0,0,1,.12,4.35,20.58,20.58,0,0,1-.09,4c0,.32,0,.64,0,1-.32.88.09,1.82-.24,2.7h0c-.33,1,.08,2-.23,2.94l0,.74a79.59,79.59,0,0,0,0,8.6,1.44,1.44,0,0,0,1.3.75c1.18,0,2.16.82,3.36.89a1,1,0,0,1,1,1,32.3,32.3,0,0,1-5.9.08l-.06,0h-.06c-.65.72-1.23.54-2,.08a9,9,0,0,0-5.63-1.57,2.1,2.1,0,0,1-2.56-1.25c-.26-.2-.21-.49-.22-.76-.55-1.79-.77-3.65-1.24-5.47a6.19,6.19,0,0,1,0-2.9c.13-1.07.67-2.07.53-3.19a11.39,11.39,0,0,0,1.19-3.94Z"/><path class="cls-67" d="M66.37,76.72H51.3a5,5,0,0,0-1.1,0c-.49.11-1.23,0-1.38.51-.2.68.71.33.91.66.58,1,2,1.36,1.69,2.88-.1.45.13.76.72.64a8,8,0,0,1,1.47,0c-1.32,1-2.25.65-2.44-.89-.13-1-.74-1.09-1.38-.65-2.09,1.46-4.14,3-6.18,4.52-.42.32-.72.8-1.35.68-.45-.34-.86-.76-1.32-1.08-.88-.61-1.77-1.21-2.93-.63a2.77,2.77,0,0,1-1.22.12c-6,0-12,0-18,0-1.08,0-2-.19-2.28-1.37h0a.38.38,0,0,1-.07-.48c.49-.2.73.21,1.05.42a1.14,1.14,0,0,0,1.79-.49,2.05,2.05,0,0,1,1.62-1.73c.34-.07.31-.44.45-.67a3.48,3.48,0,0,1,1.18-.87c1.18-.65,1.78-.46,2.26.83a1.55,1.55,0,0,0,1.64,1.18,13.87,13.87,0,0,1,3.28.37,9,9,0,0,0,3.54-.09c2.07-.42,4.14,0,6.21.11.6,0,1,.58,1.37,1,.73.71,1.7.84,2.27.09a3.83,3.83,0,0,1,3.31-1.51.46.46,0,0,0,.4-.28c-.25-.58-.81-.42-1.26-.48-1.81-.27-3.68-.19-5.34-1.23-.75-.47-1.18-.91-.89-1.87a2.72,2.72,0,0,0-.52-2.32,2.27,2.27,0,0,1-.58-1.32c.15-.48.53-.48.86-.34.64.27.86-.06,1-.58l2.94,0c.25,0,.56,0,.57.34s-.3.34-.55.36h-.12c-2.43.28-2.71.66-2.36,3.15.1.67.46,1.06,1.13,1,2.61-.09,5.23.19,7.84-.16a26.1,26.1,0,0,1,3.43,0q6.07,0,12.14,0C65.53,76.48,66,76.29,66.37,76.72Z"/><path class="cls-99" d="M55.53,101.32c.72,1.11,1.82,1,2.92.92a9,9,0,0,1,5.35,1.56c.69.39,1.2.74,1.93.26A1.62,1.62,0,0,1,64,105l-5.75,0c-.55,0-1.11,0-1.38-.58C56.42,103.38,56,102.34,55.53,101.32Z"/><path class="cls-100" d="M40.08,71.83c.18.32.39.64.05,1s-.66.17-1-.08a1.15,1.15,0,0,0-.8-.2c-.92.46-1.4-.26-2-.72a2.91,2.91,0,0,1-1.65-.35,1.91,1.91,0,0,0-1.85-.26.55.55,0,0,1-.81-.29,1.22,1.22,0,0,1,0-.82c.19-.43.53-.12.83-.08,1.45.2,2.69,1.23,4.22,1.07A6.33,6.33,0,0,0,40.08,71.83Z"/><path class="cls-99" d="M54.1,92.19c-.23,2.4.6,4.64,1,6.94a4.63,4.63,0,0,1,.17,1.43,21.91,21.91,0,0,1-1.48-7.88Z"/><path class="cls-67" d="M66.09,101.28c-.43-.62-.23-1.3-.22-2,0-1.82,0-3.65,0-5.47,0-.39-.11-.82.21-1.16Z"/><path class="cls-67" d="M66.64,85.32l0-8.35a.53.53,0,0,1,.26.51c0,2.47,0,4.94-.05,7.41C66.82,85,66.7,85.17,66.64,85.32Z"/><path class="cls-99" d="M65.85,104l5.9-.08A16.25,16.25,0,0,1,65.85,104Z"/><path class="cls-67" d="M66.15,91.94c0-1-.22-2,.23-2.94A7.88,7.88,0,0,1,66.15,91.94Z"/><path class="cls-67" d="M66.38,89c.09-.9-.2-1.83.24-2.7C66.56,87.19,66.85,88.12,66.38,89Z"/><path class="cls-101" d="M80.67,21.92a2.54,2.54,0,0,0,2.83.85,5.26,5.26,0,0,0,1.68-.7c.68-.43,1.4-.77,2-.11a2.67,2.67,0,0,1,.48,2.53.8.8,0,0,1-.86.57,4.78,4.78,0,0,0-2.81.68.86.86,0,0,1-.94,0c-1-.81-2.07-.66-3.16-.62-.71,0-1-.18-.74-.92a2,2,0,0,0,0-.85c-.14-1.12.33-1.61,1.45-1.46Z"/><path class="cls-102" d="M86.33,27.54c-.59,0-1.12-.14-1.19-.77s.5-.7,1-.7,1.13,0,1.11.76C87.25,27.42,86.83,27.56,86.33,27.54Z"/><path class="cls-103" d="M80.87,26.34c.53,0,1.09.11,1.13.67s-.59.52-1,.55-1.12,0-1.14-.62S80.39,26.31,80.87,26.34Z"/><path class="cls-95" d="M88.49,25.81c0,.55-.13,1.06-.55,1.06-.58,0-.56-.73-.7-1.11s.35-.66.79-.65S88.45,25.59,88.49,25.81Z"/><path class="cls-104" d="M79,27a.64.64,0,0,1-.58-.71c0-.37.23-.49.56-.48s.61,0,.61.4A.88.88,0,0,1,79,27Z"/><path class="cls-105" d="M14,64.53a106.86,106.86,0,0,1-.48,10.69c-.08,1.18-1.82,2.93-3,2.88a1.5,1.5,0,0,1-1.46-1.53c-.2-2.27-.3-4.55-.51-6.83-.36-4.08-.16-8.17-.28-12.25A6.86,6.86,0,0,1,10,52.64c.58-.7,1.23-1.32,2.18-1a2.23,2.23,0,0,1,1.36,2A99.58,99.58,0,0,1,14,64.53Z"/><path class="cls-76" d="M37.65,103.51c1.73-.92,1.38.86,1.91,1.48,0,.23,0,.46,0,.68-.8.06-.55-.88-1.08-1.11-.64.56,0,1.81-1.12,2.13a1,1,0,0,1-.25-.4c-.08-.24-.07-.62-.48-.53a.51.51,0,0,0-.36.66c.08.4.39.31.67.25a.51.51,0,0,1,.45,0,.85.85,0,0,1,.12.69c-.06.63.21.89.85.84s1.08,0,1.08.77c-.31.44-.83.09-1.2.34a1.79,1.79,0,0,1-.45.19,1,1,0,0,1-.92-.49c-.22-.27-.44-.51-.79-.17l-.33.34c-.34.65.21.58.52.6a1.11,1.11,0,0,1,1.18,1,.69.69,0,0,0,.14.34c.34.39.59,1.16,1.06,1.07s.29-.89.37-1.38-.27-1.33.49-1.75c.62.59.39,1.36.4,2.06,0,1.1-.06,2.19.81,3.07a.49.49,0,0,1,.07.56c-.18-.07-.43-.09-.54-.22-.72-.89-1.4-1.26-2.24-.09-.38.54-1.05.26-1.6.29a2.1,2.1,0,0,1-.75-2.07c.18-.82-.25-1.28-1-1.6-2.76-1.23-5.49-2.51-8.25-3.73a2.07,2.07,0,0,0-2.35.39c-2,1.59-4,3-6.09,4.52a1.4,1.4,0,0,0-.55,2.08,1.49,1.49,0,0,1-.47,2.15,1.56,1.56,0,0,1-2-.06,1.69,1.69,0,0,1-.14-2.25,11.46,11.46,0,0,1,4.62-4.51,10.91,10.91,0,0,0,1.52-1c.24-.17.47-.39.38-.71s-.44-.35-.71-.31c-1.94.25-3.88.5-5.81.81-.62.1-.62.7-.56,1.19.08.8,0,1.49-.85,1.83-.48.2-.77-.15-1.05-.45-.61-.67-.25-1.28.15-1.88a.86.86,0,0,0,.06-.23c.67-1.66,2.07-1.75,3.59-1.84a31.71,31.71,0,0,1,3.51-.42c.5-.23,1-.08,1.56-.23.79-.22,1.37-.52,1.29-1.47a.72.72,0,0,1,.54-.84c.87-.23.94-.87.94-1.62,0-3.1,0-6.21,0-9.31a1.7,1.7,0,0,1,.55-1.53c.51-.42.64-3.08.27-3.62s-.84-.43-1.33-.42c-.65,0-1.05-.24-.93-.94s0-1.52,1-1.34a25.74,25.74,0,0,0,4.39,0c1.5,0,1.5,0,1.47,1.47a1.24,1.24,0,0,1-.11.71h0a3.15,3.15,0,0,1-1.79.23c-.89,0-1.39.33-1.3,1.31s-.33,2.22.8,3c.36.26.18.77.18,1.17,0,3,0,6,0,9,0,1,.18,1.79,1.34,1.94h.2c.41,1.66.42,1.59,2.32,1.86,1.71.24,3.16.12,4.38-1.34A2.63,2.63,0,0,1,37.65,103.51Z"/><path class="cls-86" d="M33,47l-.24-1.74.72-.26a4.11,4.11,0,0,0,.44,1.87c.82,1.93,1.52,3.92,2.35,5.85s1.75,4,2.44,6.08c.14.42.54.49.89.56.83.16,1.67.27,2.51.4A68,68,0,0,1,51,61.37c1.08.33,1,.75.38,1.54a4.27,4.27,0,0,1-1.94,1.57A3.2,3.2,0,0,0,48,65.9a1.16,1.16,0,0,1-.21.56c-.29.39-.57.88-1.15.74s-.67-.74-.67-1.28c0-1.57-.08-1.6-1.64-1.66-2.11-.08-4.23.25-6.32-.23-1.61-.59-2.32-2.11-3.38-3.27a1.3,1.3,0,0,1-.1-1.19,2,2,0,0,1,.17-.46,5.17,5.17,0,0,0,.3-4.89c-.38-.89-.6-1.86-1-2.77-.24-1.1-.94-2.07-.84-3.25A1.71,1.71,0,0,0,33,47Z"/><path class="cls-106" d="M37.6,53.37a36.24,36.24,0,0,1-2.13-5.11A23.75,23.75,0,0,0,34.27,46,2.41,2.41,0,0,1,34,44.77c.89-1.41,1.85-2.79,2.64-4.27.47-.89.86-.84,1.41-.18.38.46,1,.76,1.15,1.38,1.45,1.6,3,3.15,4.45,4.74.19.21.58.36.39.78-.81.75-1.55,1.51-.71,2.69-.49.16-.76-.21-1-.49a18.84,18.84,0,0,0-3-1.9,2.33,2.33,0,0,0-1-.34C37,47,36.41,47.73,37,48.87c.75,1.49,1.35,3,2.1,4.54A2,2,0,0,1,39.42,55c-.48.28-.65-.14-.85-.41A7.34,7.34,0,0,0,37.6,53.37Z"/><path class="cls-107" d="M44,47.22l-4.12-4.43a2.16,2.16,0,0,1-.72-1.09c2.22,2,4.58,3.9,5.87,6.72C44.46,48.21,44.38,47.58,44,47.22Z"/><path class="cls-41" d="M29.28,87.53c0-.33,0-.65,0-1,0-.65,0-.84-.92-.88-1.57-.09-3.13.67-4.71,0-.81-.37-.72.51-.89.94s0,.84.59,1,1.68-.37,1.68.66c0,1.26.68,2.71-.5,3.79a1.56,1.56,0,0,0-.41,1.34c0,3.14,0,6.29,0,9.43,0,.72-.12,1.31-.92,1.52a.73.73,0,0,0-.55.58c-.5,1.75-.64,1.85-2.49,1.85h-.49l0-.21c.71,0,1.86,0,2-.37.43-1.43,2.19-2,2.18-3.66V96.66c0-1.14,0-2.29,0-3.44a2.46,2.46,0,0,1,.61-1.77c.79-.93.47-2.1.24-3.15-.12-.54-.76-.54-1.27-.51-.71,0-1.07-.26-1-1,0-1-.58-1.23-1.44-1.22-2.33,0-4.66,0-7,0-.77,0-1.58,0-1.57-1.06s.69-1.28,1.6-1.2c.45,0,.9,0,1.35,0,.93.09,1.28-.33,1.18-1.22a2.56,2.56,0,0,0,2.51,1c6,0,12,0,18.06,0,.68,0,1.38-.25,2.06-.21a3.39,3.39,0,0,1,3.13,2.16c-.4,0-.8-.53-1.2,0a1,1,0,0,1-1.24-1c-.06-.57-.39-.76-.91-.72s-.59.49-.54.89c.17,1.25-.37,1.78-1.58,1.54-2.1-.43-4.21.3-6.31-.15-.59-.13-.92.13-1,.77C29.48,86.77,29.66,87.21,29.28,87.53Z"/><path class="cls-41" d="M16.45,81.64l.05.47c-1.28-1-1.32-2.46-1.44-3.86A15.19,15.19,0,0,1,15.94,72l.09.07a.93.93,0,0,1,.22.92A14.62,14.62,0,0,0,16.45,81.64Z"/><path class="cls-96" d="M105.2,29.77c0,.57,0,1.14,0,1.71C104.36,30.91,104.57,30.34,105.2,29.77Z"/><path class="cls-108" d="M24.62,35.16a.35.35,0,0,1-.05-.2A15.75,15.75,0,0,1,23,31.17a1.6,1.6,0,0,0-.67-.84,2.56,2.56,0,0,1-.18-4.13,4.37,4.37,0,0,0,.69-.67l.28-.22a3.87,3.87,0,0,1,2.45,0c.33.36.67.14,1,0a6.74,6.74,0,0,1,8.36,1.74,2.43,2.43,0,0,0,1.22,1,2.29,2.29,0,0,1,1.46,2.09c.17,1.42-.76,2.12-2.11,1.72-.36-.11-.64-.35-1-.45a1.27,1.27,0,0,1-.54-.93c-.34-1.13-1-.9-1.67-.36a20.83,20.83,0,0,0-1.83,1.81c-.45.49-.8.51-1.11-.1a1.26,1.26,0,0,0-1.7-.75,1.57,1.57,0,0,0-1.11,1.69c0,.89.56,1.74.15,2.65-.16.36-.12.87-.65.94s-.57-.35-.79-.64A5.59,5.59,0,0,0,24.62,35.16Z"/><path class="cls-109" d="M34.47,31.23a.93.93,0,0,1,.24.05c.77.38,1.59,1.07,2.33.07a2.27,2.27,0,0,0-.78-3c-.53-.35-1.24-.48-1.34-1.28.91.92,1.5.8,2.41-.24,1.4-1.61,3.47-1.56,5.46-1.43a13.65,13.65,0,0,1,4.12,1.44c.45.17.35.51.09.78a4.79,4.79,0,0,1-1.44,1.11A3.87,3.87,0,0,0,43,32.29a10.05,10.05,0,0,1-.21,1.2c-.06.31,0,.77-.42.8s-.29-.47-.36-.74a2.56,2.56,0,0,0-.66-1.15A1.2,1.2,0,0,0,40,32a1.1,1.1,0,0,0-.72,1.17c0,.49-.16,1.07.19,1.43,1.18,1.22.52,1.69-.68,2.24-.8.37-1.24.15-1.41-.51-.27-1.11-1-2-1.07-3.24s-1.1-1.17-1.91-1.41A.33.33,0,0,1,34.47,31.23Z"/><path class="cls-12" d="M34.47,31.23l0,.49c0,.32.11.64.42.65,1.07.06,1.08.79,1.06,1.56,0,.94-.71,1.25-1.3,1.7-.41.31-.78.68-1.17,1-.36-.39-.16-.84-.14-1.27.06-1.13-.18-1.38-1.32-1.57-.53-.09-1.25.21-1.49-.61,0-.17,0-.35,0-.52.5-.54,1-1,1.49-1.62a1.51,1.51,0,0,1,2-.57A.8.8,0,0,1,34.47,31.23Z"/><path class="cls-109" d="M22.83,25.53c-.5.85-1.35,1.5-1.41,2.61-.05.77-.05,1.46.75,1.89a2.09,2.09,0,0,1,1,1.42c.36,1.2.91,2.34,1.37,3.51a7.08,7.08,0,0,1-1.66-3.34,2.08,2.08,0,0,0-.67-1.12c-1.62-1.4-1.71-2.83-.26-4.45l.42-.45Z"/><path class="cls-109" d="M25.56,25.35l-2.45,0C23.93,25.06,24.75,24.48,25.56,25.35Z"/><path class="cls-110" d="M152.42,45.73a3,3,0,0,0,.74,2,3.17,3.17,0,0,1,.73,2.48q0,6.12,0,12.24c-.4-.36-.23-.84-.23-1.27,0-1.84,0-3.67,0-5.51,0-.27.09-.62-.26-.74s-.48.21-.61.45c-.55,1-1,2-1.64,3-.38.61.17,1.15-.09,1.77A23.85,23.85,0,0,1,148.27,65c-.49.65-1.05,1.24-1.59,1.85s-1,1.2-1.94.8a.73.73,0,0,0-.79.23c-.49.61-.95.76-1.59.11-.28-.28-.7-.12-.76.4a10.09,10.09,0,0,0-4.2-.14,19.14,19.14,0,0,1-5.9-.13,1.75,1.75,0,0,1-.1-.82,4,4,0,0,0-.9-2.91,5.69,5.69,0,0,1,3.58-.82,6.56,6.56,0,0,0,4.65-1.28,1.8,1.8,0,0,0,1.76-1.34,15.27,15.27,0,0,1,1.15-1.88c.48-.82.35-1-.56-1-.7,0-.64-.31-.47-.76a1.06,1.06,0,0,1,.49-.53c1.46-.77,1.91-2.31,2.74-3.55.58-.84-.22-1.43-.56-2.09a7.7,7.7,0,0,0,2.14-4.53,3.87,3.87,0,0,1,1.14-2.51c1.41-1.43,2.6-1.51,4.14-.22a7.15,7.15,0,0,0,.71.45Z"/><path class="cls-93" d="M143.28,51.12c1.13.59,1.42,1.42.75,2.37-.91,1.31-1.38,3-3.05,3.7a.55.55,0,0,0-.26.63c.49.23,1-.9,1.44,0,.35.65-.06,1.17-.39,1.67a11.19,11.19,0,0,0-1.41,2.41c-.3.82-.74,1-1.41.35-.53-.23-.57-.77-.74-1.21-.46-1.16-.52-1.17-1.44-.28a10.79,10.79,0,0,0-1,1.21,3.05,3.05,0,0,1-2.63,1.34,5.35,5.35,0,0,0-1.81.28c-.5.15-1,.33-1.51-.1a48.16,48.16,0,0,1-5.75-.23c-.62-.1-1.1-.15-1.17-.92a1.83,1.83,0,0,0-.64-1.16c-.84-.75-.43-1.1.42-1.23a30.45,30.45,0,0,1,4.35-.56c1.78,0,3.43-.75,5.18-.82.7,0,.92-.6,1.29-1a.47.47,0,0,0,.67-.32c.7-1.87,1.69-3.62,2.44-5.47a4.86,4.86,0,0,1,.7-1.13,4.56,4.56,0,0,0,1.32-3.19,1.88,1.88,0,0,1,.75-1.61c.64-.55.57-1-.25-1.29.4-.39,1-1.05,1.36-.36a1.4,1.4,0,0,1-.38,2,1.54,1.54,0,0,0-.88,1.48c-.12,1.92-.2,3.84-.3,5.76,0,.51,0,1,.53,1.26s.81-.29,1.1-.59C141.46,53.11,142.36,52.11,143.28,51.12Z"/><path class="cls-111" d="M139.1,44.49c.39.11,1-.5,1.09,0a1.25,1.25,0,0,1-.52,1.49,1.39,1.39,0,0,0-.77,1.64c.25,1.28-.58,2.2-1.21,3a26,26,0,0,0-2.19,4.22,12.91,12.91,0,0,0-1.17,2.8c-.13.52-.67.58-.86-.14a.5.5,0,0,1,0-.21,13.25,13.25,0,0,0,1.68-3.62c.83-2,1.44-4.14,2.34-6.15a3,3,0,0,0,.14-1.32C138.11,45.61,138.34,44.82,139.1,44.49Z"/><path class="cls-112" d="M115.49,23c2-.2,2.27,1.13,2.29,2.66,0,.14.15.27.23.4a1,1,0,0,1-.33,1.38A9.72,9.72,0,0,1,115.54,29a.77.77,0,0,0-.49.52,2,2,0,0,1-3.51.21c0-.68,1.28-.32,1-1.1a3.06,3.06,0,0,0-1.89-1.83c-.24.65.29.92.48,1.31s.76.86,0,1.23a2.55,2.55,0,0,1-1.58-2.87,6.08,6.08,0,0,0,0-1.95c-.18-1,.29-1.27,1.08-1.39A38,38,0,0,1,115.49,23Z"/><path class="cls-25" d="M115.49,23c-1.54.22-3.1-.06-4.64.23-.75.14-1.37.28-1.11,1.3a2.71,2.71,0,0,1-.07,1.09,3.39,3.39,0,0,0,1.7,3.63.41.41,0,0,1,.23.25c.94,1.05,2.08,1.05,3.45,0-.1,1.13.39,1.63,1.55,1.49a4.66,4.66,0,0,1,2.12.24,2.24,2.24,0,0,1-3.07.47c-1.54-1-2.88-.5-3.42,1.21-.23.71-.34,1.56-1.29,1.75-.79-1,0-2.09,0-3.13,0-.27.19-.53.21-.82a.9.9,0,0,0-.53-1c-.57-.21-.45.41-.64.66-.37.48-.39,1.15-.86,1.58a22.76,22.76,0,0,1,.17-4.88,6.33,6.33,0,0,0,0-2.29,1.42,1.42,0,0,1,.8-1.88A35.41,35.41,0,0,1,115.49,23Z"/><path class="cls-113" d="M118.49,29.23c.59.1.87.44.69,1s-.64.43-1.11.34a5,5,0,0,0-1.44-.07c-.94.09-1.26-.32-1.06-1.2.48-.87,1-1.4,1.9-.4C117.73,29.21,118.18,29,118.49,29.23Z"/><path class="cls-114" d="M118.49,29.23c-.59.19-1,.49-1.56-.38s-.87.35-1.36.47l0-.33a3.63,3.63,0,0,1,1.4-1.29c.58-.37,1.16-.78,1.07-1.62A3.74,3.74,0,0,1,118.49,29.23Z"/><path class="cls-115" d="M113.86,110.64c.75-.29.75-1.34,1.61-1.61.25.94-.59,1.49-.7,2.26-.43.45-1.24,1-.46,1.55a1.51,1.51,0,0,0,2.19-.35,20.56,20.56,0,0,0,1.55-2.48c.9-1.74,2.64-2.63,4-4,.54-.54.63.12.67.51a4.41,4.41,0,0,1-1.11,3.5c-.52-.32-.4-1.44-1.36-1.1a2,2,0,0,0-1.17,1.73,4.28,4.28,0,0,1-4.1,3.21c-.57,0-1.14,0-1.71-.09s-1-.23-.8-.92-.18-.77-.72-.7c0,0-.08,0-.12,0-.59,0-1.21.31-1.76-.12a.31.31,0,0,1,.06-.52c.7-.38,1.32-1.06,2.22-.79C112.74,111,113.33,111.38,113.86,110.64Z"/><path class="cls-116" d="M60.46,111.38c.68.44,1.62.62,1.7,1.67-.89.42-1.73-.06-2.58-.16-.59-.07-1.19-.21-1.78-.32-1.41-.26-1.52-.39-1.63-1.88-.06-.4,0-.68.52-.68C57.79,110.91,59.31,110.63,60.46,111.38Z"/><path class="cls-81" d="M56.3,110.64c0,1.17.45,1.72,1.71,1.8s2.73.63,4.15.61c-.46.57-1.06.25-1.58.2-.89-.09-1.76-.33-2.64-.46-1.56-.23-1.79-.46-1.94-2.11l.07-.13A.18.18,0,0,1,56.3,110.64Z"/><path class="cls-81" d="M60.46,111.38c-1.21-.43-2.66-.15-3.64-1.25-.1,0-.13-.1-.1-.16s.05-.08.08-.08h.47a2.32,2.32,0,0,0,1.82.76A1.22,1.22,0,0,1,60.46,111.38Z"/><path class="cls-81" d="M56,110.68A4,4,0,0,0,54.3,109a1,1,0,0,0,.08-.11c1.13-.1,1.77.53,1.74,1.72Z"/><path class="cls-117" d="M39.34,109.15a.64.64,0,0,0-.69-.68c-1.63,0-1.67-.11-1.28-1.78h0c.61-.64.45-1.51.7-2.25.07-.22,0-.54.32-.57s.37.24.51.44c.29.42.18,1,.68,1.36a10.49,10.49,0,0,1,1,4.46,2.59,2.59,0,0,0,1.53,2.68c1.11.5,1.25,1.75,1.91,2.59.12.15.22.39,0,.54a.85.85,0,0,1-.82,0c-.81-.36-1.61-.75-2.41-1.13a3.68,3.68,0,0,1-1.22-3.39,3.1,3.1,0,0,0-.24-2.25Z"/><path class="cls-118" d="M114.08,96.64c-1.24.18-1.34-.58-1.25-1.5.35-.46.83-.21,1.24-.18a1.36,1.36,0,0,0,1.48-.79c.17-.22.28-.56.62-.49s.24.39.22.61a1.49,1.49,0,0,0,.71,1.56.52.52,0,0,1,.15.84.56.56,0,0,1-.85.13c-.34-.26-.67-.47-1.11-.22Z"/><path class="cls-42" d="M115.29,96.6c.43-.37.82-.22,1.21.07a.39.39,0,0,0,.62-.13A.36.36,0,0,0,117,96c-.77-.34-.72-1-.71-1.66,0-1-.45-.21-.71-.19a7.55,7.55,0,0,1,.72-2.18c.1-.18.18-.42.41-.37s.26.35.21.6c-.08.44-.09.9-.21,1.32-.25.89-.31,1.67.69,2.18a.58.58,0,0,1,.2.93.86.86,0,0,1-1,.41A3.16,3.16,0,0,0,115.29,96.6Z"/><path class="cls-119" d="M91.94,42.57c-2,0-3.91-.25-5.85.2a.5.5,0,0,1-.53-.23c1.85-.31,2.3-.92,2-2.8,0-.25-.08-.51.15-.66s.41.11.55.29a.43.43,0,0,0,.64.1.38.38,0,0,0,0-.63c-.62-.72,0-.89.46-1.2s1.37-.32,1.76-1a3.24,3.24,0,0,0,2,.48,3.11,3.11,0,0,1,1.39,1.93,25.27,25.27,0,0,1,1,4.11c-.15.34-.27.74-.75.32-.27-.24-.56-.47-.84-.7A6.9,6.9,0,0,1,91.94,42.57Z"/><path class="cls-120" d="M16.45,81.64a7.82,7.82,0,0,1-1.07-5.36c.19-1.41.43-2.81.65-4.22.61-.63.6-1.51.92-2.26a.89.89,0,0,1,.73,1.2c-.94,1.79-.31,3.74-.69,5.57-.08.39-.75.67-.22,1.22.54-.2.32-1.29,1.19-1.09.49.33.7.89,1.07,1.31A.93.93,0,0,1,19,79.49a7,7,0,0,1,2.45-.09c.25.48.2.73-.43.77s-1.34.26-1.28,1.12-.68,1-1.21,1.29-.9,0-1.28-.36S16.71,81.83,16.45,81.64Z"/><path class="cls-119" d="M94.65,56.81c-.16-.28-.48-.58-.45-.84.3-2.24-.67-4.61.73-6.77.65-1-.11-2.22.19-3.33a2.23,2.23,0,0,1,.55-1.36c.59,3.14,2.09,5.9,1.92,9.05A14.23,14.23,0,0,1,94.65,56.81Z"/><path class="cls-121" d="M69.32,54.1a50.16,50.16,0,0,1,.06-5.62c.27-.19.26-.82.75-.61s.18.58.18.89a27.07,27.07,0,0,0,.47,5.16c.09.56.06,1.09-.7,1.15C69.83,54.74,69.58,54.42,69.32,54.1Z"/><path class="cls-107" d="M39.35,55.08a42.73,42.73,0,0,0-2.23-5.21c-.35-.85-1.26-1.68-.39-2.65.55-.61,2.28-.44,3.18.21a19.51,19.51,0,0,1,3.37,2.48C45,51,45.42,53.19,47.06,54.24c1.15.75,2.44,1.53,4,.92,0,0,.1,0,.11,0,1.05,1,2.07-.18,3.11,0,.38,0,.87.12,1,.39.57,1.31,1.17.66,1.81.11-.65,1.48-.65,1.52,1,1.47,1,0,1.92.28,2.89.27,1.63,1.51,1.54,2.72-.25,3.71A1.57,1.57,0,0,1,59.14,61a36.71,36.71,0,0,0-5.69-2,1.26,1.26,0,0,0-1,.13,3.23,3.23,0,0,1-2.24.32A1.06,1.06,0,0,0,49,60a10.79,10.79,0,0,1-4-.73c-.35-.83-1.18-.81-1.86-.94a4.69,4.69,0,0,1-3.62-2.57C39.39,55.54,39.22,55.34,39.35,55.08Z"/><path class="cls-122" d="M37.88,63.69c2.18.5,4.4.16,6.6.24,1.59,0,1.72.14,1.74,1.78,0,.16,0,.32,0,.49,0,.33,0,.69.4.81s.46-.24.64-.45.47-.44.7-.66c.08,0,.19,0,.24-.05,2.3-1.95,5.23-1.59,7.91-2.12a.7.7,0,0,1,.83.71c0,.44-.42.65-.87.71s-.83-.51-1.24,0a2.1,2.1,0,0,1-.7.19c-2.45-.29-3.45,1.77-5,3a1.56,1.56,0,0,1-.74.74c-1.42-.61-3,0-4.42-.47l.46-.06a1.35,1.35,0,0,0,1.27-1.7,5.94,5.94,0,0,1,.11-1.57c-.08-.84-.7-.87-1.34-.87-1.83,0-3.67,0-5.5,0C38.51,64.41,37.91,64.49,37.88,63.69Z"/><path class="cls-123" d="M49.67,68.35s.09,0,.11-.06c2-2.87,4.92-2.84,7.93-2.65.51,0,1,0,.53.73-.06.39-.7.58-.43,1s.8.47,1.3.46c.79,0,1.61-.3,2.36.22,2,.06,3.92-.61,5.91-.74.36,0,.75-.21.67-.57-.42-1.83,1.17-1.06,1.8-1.27s1.44.44,1.57,1.2a29.16,29.16,0,0,0,.79,2.81c.27,1-.17,1.36-1.17,1.34-1.78-.05-3.56,0-5.34,0-1.17,0-2.35-.11-3.52-.07-2.88.1-5.77,0-8.65,0-1.19,0-2.27.25-3.34-.58C49.42,69.68,49.12,69.19,49.67,68.35Z"/><path class="cls-124" d="M62.68,66.17c.2.26.49.22.76.2.9,0,1.8,0,2.7,0,.31,0,.77-.06.79.35s-.46.42-.76.46a41.51,41.51,0,0,0-4.7.66,17.68,17.68,0,0,1-2.91.14.8.8,0,0,1-.88-.54c-.16-.48.11-.76.53-.94,1.07,1.15,2.35.8,3.83.49-1.18-.7-2.28.07-3.27-.32a.19.19,0,0,1,0-.3l.47-.27A9.36,9.36,0,0,1,62.68,66.17Z"/><path class="cls-55" d="M58.53,66.65c-.43,0-.74.2-.69.65s.42.57.81.57h2.82v.23c-.84.07-1.68,0-2.53.13a1.31,1.31,0,0,1-1.57-.81c-.19-.62.31-.92.87-1l.55,0a.78.78,0,0,0,0,.22A.14.14,0,0,1,58.53,66.65Z"/><path class="cls-125" d="M49,60c-.41-.73-.05-1,.63-1a8.71,8.71,0,0,0,3.25-.39c1-.38,2.26.33,3.32.82A3.26,3.26,0,0,0,58,60a1.12,1.12,0,0,1,1,.37c.93,1.26,1.71.41,2.39-.21s1-1.37,0-2a.83.83,0,0,1-.4-.82c2.3,0,2.05-.44,2.43,2.21a.56.56,0,0,1,0,.13c.07,2.71.07,2.71-2.63,2.39a4.47,4.47,0,0,0-1.08.12,2.7,2.7,0,0,1-2-.57c-1.38-1-2.8-2.14-4.72-1a2.15,2.15,0,0,1-1.91-.05A7.3,7.3,0,0,0,49,60Z"/><path class="cls-126" d="M39.35,55.08a.37.37,0,0,1,0,.11c1,2,2.78,2.74,4.84,3.1.46.08,1.33,0,.74,1-1.66.24-3.2-.56-4.83-.57a1,1,0,0,1-.85-.65c-.53-1.57-1.51-3-1.7-4.68C38.73,53.39,38.56,54.72,39.35,55.08Z"/><path class="cls-127" d="M129.79,63.44c1.42,0,2.76-.62,4.21-.59.71,0,1.14-.72,1.6-1.23s1-1.17,1.54-1.74.85-.36,1.08.24.49,1.38.73,2.08a1,1,0,0,1-.93,1c-1.54.26-3,.84-4.64.6a4.62,4.62,0,0,0-2.83.61.71.71,0,0,1-1,0A1.7,1.7,0,0,1,129.79,63.44Z"/><path class="cls-128" d="M129.55,64.42l1,0c1.12.47,1.53,2,.95,3.65-.79.08-1.62,0-1.74-.92S128.49,65.41,129.55,64.42Z"/><path class="cls-2" d="M62.68,66.17l-3.42,0A4.75,4.75,0,0,1,62.68,66.17Z"/><path class="cls-48" d="M140.87,72.05a7.05,7.05,0,0,1,0,4.12C140.87,74.79,140.87,73.42,140.87,72.05Z"/><path class="cls-129" d="M75.61,93.4a11.27,11.27,0,0,1-1.31,0,1.38,1.38,0,0,1-1-2.33c.87-1,1.4-2.3,2.58-3.07.45-.3.84-.46,1.32-.1a1.25,1.25,0,0,0,.51.31c.6.06,1.5-.26,1.42.76-.11,1.2.67,2.56-.78,3.58A3.43,3.43,0,0,1,75.61,93.4Z"/><path class="cls-130" d="M21.41,79.4c-.8.58-1.89-.11-2.67.62-.13.11-.31,0-.39-.2a.27.27,0,0,1,.14-.4c1.13-.48.6-1,.05-1.53A2,2,0,0,1,18,76.7,4,4,0,0,1,19,72.34c1.32-1.28,1.72-1.51,3.28-.66a8.67,8.67,0,0,0,4.49.86c2.49,0,5,0,7.48,0a3,3,0,0,0,2.13-.73c.77,0,1.19.84,2,.72.15,1.12,1.37,1.75,1.35,3,0,.24.17.55.07.7-.85,1.28.18,1.52,1,2,1.55.95,3.32.64,5,1,.27,0,.58,0,.85,0a.88.88,0,0,1,.8.8c0,.55-.42.63-.86.64s-.74,0-1.1,0a1.9,1.9,0,0,0-1.7.95,1.89,1.89,0,0,1-3.31.16,1.93,1.93,0,0,0-1.63-.88,22.64,22.64,0,0,1-4.27-.21c-.89-.19-1.69.45-2.61.49-2.1.11-4.09-.75-6.19-.57-.56,0-1-.32-1.17-1-.41-1.66-.7-1.74-2.14-.82Z"/><path class="cls-131" d="M28.15,70.3c-1.83-.09-3.92-.68-6.09-.83a32.21,32.21,0,0,0-3.54-.12c-.95,0-1.14-.37-1-1.16s.52-1.27,1.33-1a21.39,21.39,0,0,0,5.83,1.11c1.56.08,2.94.89,4.49.77.39,0,1-.1,1,.44s-.49.77-1,.77Z"/><path class="cls-39" d="M30.5,33.2c.32.38.75.23,1.14.25,2,0,2.37.58,1.92,2.48-.05.24-.07.48-.11.72a14.41,14.41,0,0,1-2.93,3c-.34.32-.71.13-1-.08a8,8,0,0,1-2.22-2.22,1,1,0,0,1,0-1.35,1.9,1.9,0,0,0,.23-2.26,1.93,1.93,0,0,1-.24-1.17c.08-.39.29-.72.69-.75s.44.37.52.69C28.81,33.58,29.5,33.81,30.5,33.2Z"/><path class="cls-132" d="M33.69,63.45c-1-.45-1.94-.85-2.86-1.36a2.05,2.05,0,0,1-1.08-1.69,33.42,33.42,0,0,0-1.84-7.83c-.12-.35-.28-.82,0-1s.63.24.85.49c.79.89,1.54,1.8,2.29,2.71a1.34,1.34,0,0,0,.89.6c.76.35,1.14.18,1.11-.73,0-1.17,0-2.34,0-3.51,0-.26-.12-.65.28-.69s.46.28.56.55a5.76,5.76,0,0,0,.37.89,13.71,13.71,0,0,0,.86,2.77,4.58,4.58,0,0,1-.4,4.37c-.43.75-.14,1.49-.3,2.22A1.5,1.5,0,0,0,33.69,63.45Z"/><path class="cls-133" d="M34.46,61.21a2.12,2.12,0,0,1,0-2A5.32,5.32,0,0,0,34.71,54a4.46,4.46,0,0,1-.53-2.11.4.4,0,0,1,0-.54,20.65,20.65,0,0,1,1.65,4.94c.27,1-.49,1.93-.89,2.84a1.61,1.61,0,0,0,.29,2.09c.87.83,1.38,2,2.63,2.46.26.57.78.5,1.27.5,1.84,0,3.68,0,5.52,0,.83,0,1.35.28,1.29,1.21-.08.11-.16.12-.24,0-.08-.73-.59-.77-1.16-.77a42.54,42.54,0,0,0-4.52.05c-2,.22-3.23-.77-4.32-2.16A7.45,7.45,0,0,0,34.46,61.21Z"/><path class="cls-70" d="M45.72,65.4H46c0,.56,0,1.13,0,1.7,0,1.07-.37,1.62-1.51,1.46a1.8,1.8,0,0,0,1-2A1.51,1.51,0,0,1,45.72,65.4Z"/><path class="cls-134" d="M34.2,51.36c0,.18,0,.36,0,.54-.36-.37-.3-1-1-1.43,0,1.53,0,2.92,0,4.31,0,1-.39,1.31-1.23.56.72.07,1-.21,1-1a20.26,20.26,0,0,0-.45-5.44c-.1-.35-.26-.82.19-1.09.05,0,.29.23.44.36A18.55,18.55,0,0,1,34.2,51.36Z"/><path class="cls-1" d="M30.72,104.73c.08.53-.13.77-.68.74s-.75-.21-.75-.64c0-.59-.34-.82-.75-1.13-.81-.62-.64-1.55-.62-2.45,0-2.76.1-5.52,0-8.29a2.71,2.71,0,0,0-.82-1.84c-.67-.68-.38-1.64-.23-2.45.09-.49.62-.39,1-.32,1.4.24,1.72,0,2-1.38.11-.51.28-.7.79-.69,2.07,0,4.13-.48,6.22,0,.81.17,1.77.13,1.9-1.14.06-.7.41-.49.66-.1a1.07,1.07,0,0,0,.88.56c.4,0,1-.24,1.11.43s.27,1.28-.31,1.73c-.87.68-.71,1.48-.74,2.47a29.56,29.56,0,0,1-.28,4.5,2,2,0,0,0-.09,1c.57,1.48-.1,2.66-.77,3.88a1.38,1.38,0,0,1-1.12.8,41,41,0,0,1-4.12.49c-1.45,0-2.68.46-2.9,2.17A18,18,0,0,0,30.72,104.73Z"/><path class="cls-135" d="M34.67,101.27a13.1,13.1,0,0,0,4.09-.32c.33-.09.63-.22.89.08a.39.39,0,0,1,0,.55.84.84,0,0,1-.95.36,4.86,4.86,0,0,0-2.79.33,1.45,1.45,0,0,1-1,.39c-.94.16-1.73.4-1.71,1.62a1,1,0,0,1-1,.94,1.29,1.29,0,0,1-1.3-.76c-.37-.67.19-1,.59-1.44C32,101.41,33.36,101.4,34.67,101.27Z"/><path class="cls-136" d="M31.52,103a5.38,5.38,0,0,0-.44.86.82.82,0,0,0,.7,1.08c.49.12,1,.09,1.15-.56s-.18-1.32.49-1.67a5.87,5.87,0,0,1,2.49-.46c.37,0,.74,0,1.1,0s.93-.22,1.16.13c.33.5-.46.67-.52,1.1A14.49,14.49,0,0,0,34.51,106a1.83,1.83,0,0,1-1.87.57,20,20,0,0,0-2-.35c-1.8-.23-1.8-.23-1.89-2,.43.61.32,1.73,1.59,1.53.34,0,.84.42,1.07-.07s-.27-.76-.66-1c-.52-.77,0-1.25.48-1.74Z"/><path class="cls-41" d="M28.52,104.24c-1.3.12-1.46-.74-1.46-1.72v-9a2.38,2.38,0,0,0-.63-1.7c-.81-1-.46-2.37-.24-3.51.17-.9,1.23-.72,2-.73.37,0,.74,0,1.1,0-.36.68-1,.48-1.53.44-1.15-.1-1.53.38-1.45,1.5.06.89-.08,1.78.79,2.42.4.29.24.84.24,1.28q0,4.41,0,8.82C27.33,103,27.46,103.84,28.52,104.24Z"/><path class="cls-97" d="M55.82,85.06c-.07,1.41-.12,2.83-1.19,3.94C55,87.69,55.42,86.37,55.82,85.06Z"/><path class="cls-137" d="M56.12,110.57a2,2,0,0,0-1.74-1.72c-.23-.06-.46-.15-.69-.19-.48-.09-1,.59-1.44-.08a4.06,4.06,0,0,1-.85-2.87c.12-.72.45-.36.74-.12.64.54,1,1.36,2,1.6a31.39,31.39,0,0,0,2.71,2.7,1.94,1.94,0,0,0,0,.24.48.48,0,0,0-.52.51A.67.67,0,0,1,56.12,110.57Z"/><path class="cls-138" d="M109.12,32c-.14-1,.83-1.72.89-2.73,0-.32.48-.2.7,0,.6.57,1.1,1.05.67,2.09a6.58,6.58,0,0,0-.44,3.34c-1,.66-1.3-.09-1.51-.81A16.73,16.73,0,0,1,109.12,32Z"/><path class="cls-35" d="M38.11,109.13c.41-.48.82-.15,1.23,0v0c0,.94,0,1.88,0,2.82a.87.87,0,0,1-.51.9c-.4.14-.55-.26-.7-.53-.36-.61-1.07-1-1.07-1.86,0-.55-.65-.3-1-.34s-.71.06-.83-.35a.66.66,0,0,1,.46-.88c.2.14.28.47.61.45.1-.39-.24-.49-.36-.71.26-.63.61-.51,1-.1s.38.83.94.81c.24.48-.28.94,0,1.42.14.26.29.54.62.51s.3-.34.35-.58A1.69,1.69,0,0,0,38.11,109.13Z"/><path class="cls-139" d="M38.11,109.13a1.67,1.67,0,0,1,.83,2.36.53.53,0,0,1-.65.18,1.29,1.29,0,0,1-.87-.94c-.13-.55.25-.91.43-1.35Z"/><path class="cls-140" d="M37.37,106.69c-.44.17-.87.88-1.36.26a1.08,1.08,0,0,1,.25-1.44.7.7,0,0,1,.78-.24c.67.31.19,1,.34,1.42Z"/><path class="cls-141" d="M35.93,108.67c.47,0,.92,0,.92.64,0,.37-.28.56-.63.57-.72,0-.52-.54-.54-.95Z"/><path class="cls-142" d="M111.6,29.52l-.23-.25a2.22,2.22,0,0,0-.84-1.44c-.38-.38-.61-.92-.26-1.3s.88.06,1.25.34a6.28,6.28,0,0,1,.86.85c.37.39.82.8.62,1.37S112.1,29.45,111.6,29.52Z"/><path class="cls-143" d="M58.53,66.65a.78.78,0,0,1,.22,0,10.63,10.63,0,0,1,3-.21c.32,0,.73.09.78.46s-.39.41-.69.51a9,9,0,0,1-2.92.23C58.11,67.62,58.25,67.16,58.53,66.65Z"/><path class="cls-144" d="M135.5,63.42c-.16-.06-.36-.08-.43-.19s-.06-.38.08-.55c.61-.7,1.21-1.41,1.83-2.11.37-.42.68-.36.9.16a9.07,9.07,0,0,1,.48,1.11c.13.4.13.9-.38,1A8,8,0,0,0,135.5,63.42Z"/><path class="cls-145" d="M33.19,105a1.17,1.17,0,0,1,.05-.11c.43-.52-.15-1.43.6-1.76a6,6,0,0,1,2.77-.36c.23,0,.54-.08.63.22s-.25.46-.48.59a5.24,5.24,0,0,0-2.58,2.13C33.2,106,33.08,105.91,33.19,105Z"/><path class="cls-72" d="M33.19,105c-.06.78.44.78,1,.71-.09.13-.16.31-.29.37-.44.19-1,.35-1.3-.09S32.84,105.23,33.19,105Z"/></g></g></g></svg>