<svg xmlns="http://www.w3.org/2000/svg" viewBox="0 0 61.35 61.32"><defs><style>.cls-1{fill:#015882;}.cls-2{fill:#1d5975;}.cls-3{fill:#2b586d;}.cls-4{fill:#245a74;}.cls-5{fill:#f0f1f0;}.cls-6{fill:#155879;}.cls-7{fill:#205873;}.cls-8{fill:#165977;}.cls-9{fill:#215a76;}.cls-10{fill:#285a73;}.cls-11{fill:#255973;}</style></defs><g id="Layer_2" data-name="Layer 2"><g id="Layer_1-2" data-name="Layer 1"><path class="cls-1" d="M29,61.23a18.42,18.42,0,0,1-3.47-.37c-.13-.13-.32,0-.46-.09a22.66,22.66,0,0,1-3.72-.9,28.48,28.48,0,0,1-8.34-4.12,30.5,30.5,0,0,1-12-17,28.51,28.51,0,0,1-1-5.8c0-.08,0-.16,0-.23a16,16,0,0,1,0-1.83c0-.79,0-1.58,0-2.37a23.14,23.14,0,0,1,.65-4.69,30.69,30.69,0,0,1,58-5.52,30.69,30.69,0,0,1,.82,22.5A30.73,30.73,0,0,1,37,60.66a22.94,22.94,0,0,1-4.67.57Q30.66,61.31,29,61.23Z"/><path class="cls-2" d="M.1,28.57v4.2A14.62,14.62,0,0,1,0,30.21,7,7,0,0,1,.1,28.57Z"/><path class="cls-3" d="M29,61.23h3.24A14.62,14.62,0,0,1,29,61.23Z"/><path class="cls-4" d="M25.11,60.77c.15,0,.33-.09.46.09A.81.81,0,0,1,25.11,60.77Z"/><path class="cls-5" d="M33.72,24l.08.08c.09.76,0,1.53,0,2.29,0,.11-.1.29.13.32a8.5,8.5,0,0,1,2.16-2.11,8.88,8.88,0,0,1,2.06-.88c.11-.11.27,0,.39-.08a10.74,10.74,0,0,1,3.62.11c3.16.74,4.92,2.85,5.71,5.89.13.5.21,1,.31,1.53.13.28,0,.58.08.86,0,4.28,0,8.56,0,12.85,0,.16.07.34-.09.46s-.16,0-.25,0H41.51c-.09,0-.18,0-.25,0a1.2,1.2,0,0,1,0-.5V34a1,1,0,0,0,0-.45c-.13-.3,0-.62-.08-.93a3.52,3.52,0,0,0-2.23-3.27,3.75,3.75,0,0,0-4.15,1.2,3.3,3.3,0,0,0-.85,1.85,1,1,0,0,0,0,.41V44.84a.65.65,0,0,1-.05.41l-.08.07c-.07.08-.17,0-.25,0H27c-.08,0-.18,0-.25,0s-.08-.26-.08-.39c.05-6.69.08-13.38,0-20.06a2,2,0,0,1,0-.87A.4.4,0,0,1,27,24h6.46A.39.39,0,0,1,33.72,24Z"/><path class="cls-5" d="M15.78,45.32c-.13-.11-.09-.26-.09-.39V24.39c0-.13,0-.28.08-.39a.51.51,0,0,1,.3,0h6.37c.1,0,.21,0,.3,0a1.35,1.35,0,0,1,.05.53V44.84a.8.8,0,0,1-.07.48c-.07.08-.16,0-.25,0H16C15.94,45.37,15.85,45.4,15.78,45.32Z"/><path class="cls-5" d="M23.2,18.23a3.6,3.6,0,0,1-3,2.8,4.33,4.33,0,0,1-3.63-.77,3.71,3.71,0,0,1-.13-5.51A4.55,4.55,0,0,1,22,14.68,3.46,3.46,0,0,1,23.21,17c0,.17.05.33.07.5S23.32,18,23.2,18.23Z"/><path class="cls-2" d="M33.79,45.25q0-6.26,0-12.49a.64.64,0,0,1,.07-.41q0,6.32,0,12.62C33.88,45.07,33.91,45.18,33.79,45.25Z"/><path class="cls-6" d="M41.1,32.57a2.43,2.43,0,0,1,.08.93c0,3.42,0,6.85,0,10.27a9.52,9.52,0,0,1-.07,1.41Z"/><path class="cls-7" d="M22.74,24h-7a.2.2,0,0,1,.2-.08h6.66l.11,0S22.74,24,22.74,24Z"/><path class="cls-7" d="M33.72,24h-7c0-.17.16-.07.23-.07H33.4C33.51,23.92,33.63,23.88,33.72,24Z"/><path class="cls-8" d="M15.78,45.32h6.94c.06.15-.07.09-.11.09H16C15.92,45.41,15.82,45.43,15.78,45.32Z"/><path class="cls-8" d="M26.76,45.32h7c-.06.12-.17.09-.27.09H26.92l-.18,0v0Z"/><path class="cls-8" d="M41.26,45.32h7c0,.18-.11.09-.16.09H41.56C41.46,45.41,41.33,45.46,41.26,45.32Z"/><path class="cls-9" d="M34,26.69c0,.08-.06.14-.17.22V24.08c.12.09.07.23.08.35V26.3C33.88,26.44,33.83,26.59,34,26.69Z"/><path class="cls-4" d="M48.3,32a2.76,2.76,0,0,1-.08-.86C48.4,31.42,48.27,31.72,48.3,32Z"/><path class="cls-10" d="M23.2,18.23a2.29,2.29,0,0,1,.08-.69C23.25,17.77,23.37,18,23.2,18.23Z"/><path class="cls-11" d="M38.58,23.62a.6.6,0,0,1-.39.08C38.29,23.54,38.45,23.64,38.58,23.62Z"/></g></g></svg>