<svg xmlns="http://www.w3.org/2000/svg" viewBox="0 0 154.52 256.38"><defs><style>.cls-1{opacity:0.75;}.cls-2{fill:#5c4d48;}.cls-3{fill:#debda6;}.cls-4{fill:#4f5157;}.cls-5{fill:#44484c;}.cls-6{fill:#153149;}.cls-7{fill:#6e7073;}.cls-8{fill:#dfbea9;}.cls-9{fill:#d8c0ad;}.cls-10{fill:#d8c6b7;}.cls-11{fill:#e8d3bd;}.cls-12{fill:#7d878e;}.cls-13{fill:#5f5f70;}.cls-14{fill:#748794;}.cls-15{fill:#e3e5e6;}.cls-16{fill:#e7e3e0;}.cls-17{fill:#726b64;}.cls-18{fill:#cfd4d6;}.cls-19{fill:#b5c1c8;}.cls-20{fill:#79645a;}.cls-21{fill:#7d8e9a;}.cls-22{fill:#254154;}.cls-23{fill:#1c2427;}.cls-24{fill:#242d31;}.cls-25{fill:#2e393d;}.cls-26{fill:#131314;}.cls-27{fill:#2c3337;}.cls-28{fill:#393a3c;}.cls-29{fill:#0f2c40;}.cls-30{fill:#142530;}.cls-31{fill:#563129;}.cls-32{fill:#3d2526;}.cls-33{fill:#252425;}.cls-34{fill:#174160;}.cls-35{fill:#2d292b;}.cls-36{fill:#928a89;}.cls-37{fill:#4a4b58;}.cls-38{fill:#dfbba3;}.cls-39{fill:#1a3d5a;}.cls-40{fill:#1d2f42;}.cls-41{fill:#1a2d42;}.cls-42{fill:#213a4b;}.cls-43{fill:#171719;}.cls-44{fill:#2d2527;}.cls-45{fill:#d7c1b5;}.cls-46{fill:#f6f5f5;}.cls-47{fill:#6e7276;}.cls-48{fill:#3a4449;}.cls-49{fill:#5a1f12;}.cls-50{fill:#682713;}.cls-51{fill:#7b554f;}.cls-52{fill:#143050;}.cls-53{fill:#e0bdab;}.cls-54{fill:#cfc6c0;}.cls-55{fill:#152f50;}.cls-56{fill:#b78266;}</style></defs><g id="Layer_2" data-name="Layer 2"><g id="Layer_1-2" data-name="Layer 1"><g id="faAx3R" class="cls-1"><path class="cls-2" d="M116.84,13.74c-2.6-2.81-2.47-2.68,1.24-4.37a32.56,32.56,0,0,1,6.85-2.64c4.86-1,9.51-.73,13.71,2.23a11.19,11.19,0,0,1,4.82,10.79,63.1,63.1,0,0,1-2.66,11.64,1.07,1.07,0,0,0-.15.22c-2.33,5.91-1.42,4.91-7.33,2.89-2.16-.74-2.5-2.3-1.14-4.2.73-1,1.52-2,1.48-3.32,0-1.18-.06-2.48-1.58-2.64-1.27-.13-1.87.83-2.18,1.94a15.14,15.14,0,0,1-.45,2.08,2.35,2.35,0,0,1-2.39,1.75c-1.3-.12-1.71-1.13-1.82-2.27a47.69,47.69,0,0,0-.56-5.54c-.66-2.91-2.62-4.51-4.88-6C118.7,15.59,117.43,15.06,116.84,13.74Z"/><path class="cls-3" d="M116.84,13.74c1.29.75,2.57,1.52,3.87,2.25,3.39,1.9,4.78,5,5.12,8.66,0,.62,0,1.25.08,1.86.15,1.12-.57,2.85,1.23,3S129,28,129,26.7a3.34,3.34,0,0,1,1.57-2.9,2.32,2.32,0,0,1,3.83,1.8c.12,1.87.07,3.71-1.62,5.07-.91.73-1.46,1.92-.19,2.64a28.91,28.91,0,0,0,5.3,2.17c.64.21,1.09-.47,1.29-1.1a8.51,8.51,0,0,1,1.65-3,14.75,14.75,0,0,1-3.24,7.35,40.28,40.28,0,0,1-10,5.22,2.06,2.06,0,0,1-2.23-.31c-1.27-1.89-2.68-3.24-5.33-2.84-1.41.22-2.3-1.11-2.68-2.5-.49-1.78-1-3.55-1.45-5.35A2.4,2.4,0,0,0,114.71,31a1.31,1.31,0,0,1-.53-2c2.23-3.22,1.16-7.07,2.08-10.54A33.44,33.44,0,0,0,116.84,13.74Z"/><path class="cls-4" d="M13.74,52.12a26.8,26.8,0,0,1,4.13-7.87c2.19-3.2,3.27-7,5.41-10.15a4.1,4.1,0,0,1,3.26,1.37,136.77,136.77,0,0,1,13.25,15.1,17.82,17.82,0,0,1,2.83,5.3C47,65,50.07,74.58,49.79,84.81c-.12,4.63,2,7.33,5.42,9.72A128.18,128.18,0,0,1,69.5,105.9a8.43,8.43,0,0,1,.94,1.26,2.92,2.92,0,0,1-.32,3c-1.15,1.46-2.05,3.11-3.06,4.67-1.13,1.75-2.55,2.69-4.68,2-3-2.21-6.6-3.37-9.87-5.1-1.41-.74-2.33,0-2.29,1.73.11,4.17.1,8.35.19,12.53,0,1,.12,1.9-.73,2.69s-.72,1.5.57,1.8c2.08.47,2.21,2.05,2,3.74-.41,2.72-1,5.4-1.31,8.15-1,9.08,1.68,17.76,2.79,26.61.56,4.48,1.3,8.94,2.09,13.39.69,3.86-.77,7.38-1.68,10.94-2,7.88-3.46,15.84-4.78,23.85-1.42,8.63-1.51,17.31-1.72,26a2.41,2.41,0,0,0,1.78,2.59,50.42,50.42,0,0,0,10.42,3c1.48.24,3,.5,3,2.32,0,1.66-1.48,2-2.85,2.21a44.74,44.74,0,0,1-16.3-1,.56.56,0,0,1,.22-.78c2.27-.86,4.45.27,6.68.29a22.34,22.34,0,0,0,7.65.12,3.57,3.57,0,0,0,2.23-1.15A53.25,53.25,0,0,1,53.5,249c-1.84-.62-3.6-1.41-5.44-2a3.2,3.2,0,0,1-2.27-2.36,5,5,0,0,1,.07-2.15c.54-3.47.19-6.95.21-10.43-.49-3.58.35-7.06.82-10.57.47-1.84.42-3.77,1-5.59.43-7.75,2.36-15.21,4.39-22.64.68-2.49,1.06-5,1.78-7.52.56-2-.51-3.83-.72-5.75a120.43,120.43,0,0,0-2.09-13.11c-.34-1.52,0-3-.09-4.52s-.66-2.77-1.06-4.15c-.73-2-.56-4.1-.68-6.17-1-3.06-.43-6.23-.64-9.35.35-3.68-1.05-7.12-1.51-10.69-.13-1-.71-2-.15-2.84,2.47-3.68.82-7.79,1.33-11.67.25-1.91-.06-3.88,0-5.83,1.29-2.29,2.41-2.69,5-1.35s5.31,2.47,7.87,3.89c1.62.91,2.84.75,3.74-1a14.71,14.71,0,0,1,1.32-2c2.6-3.51,2.64-3.56-.55-6.37-4.27-3.76-8.91-7-13.48-10.39a9,9,0,0,1-4.2-8.09c-.12-9.32-1.44-18.54-5.77-27a5.74,5.74,0,0,1-.35-1,47.15,47.15,0,0,0-8-11.08c-2.53-2.66-4.67-5.68-7.29-8.3-2.82-2.81-2.72-2.91-4.56.72-2.53,3.92-4.8,8-7,12.1-.33.61-.27,1.7-1.48,1.44A.93.93,0,0,1,13.74,52.12Z"/><path class="cls-5" d="M141.87,187c2.75,14.76,5.26,29.56,7.21,44.44.53,4.05,1.29,8.07,1.66,12.13.3,3.22-.56,6.45-.27,9.72.08,1-.74,1.57-1.77,1.64a9.63,9.63,0,0,1-1.86,0c-6.29-.78-12.54.48-18.81.3-3.58-.1-7.09.05-10.74-.88s-7.58,0-11.39.11c-1.4,0-3.43,1-3.78-1.11s1.77-2.85,3.36-3.48c3.28-1.29,6.62-2.47,10-3.52,1.75-.54,2.31-1.46,1.8-3.14-.64-3.1,0-6.2.12-9.28a379.82,379.82,0,0,0-1.1-43.6c-.22-2.7.93-5.51-.67-8.09.11-.74.64-.65,1.15-.58,1.45.82,1.17,2.3,1.35,3.6.67,13.2,1.07,26.41,1.3,39.63a120.36,120.36,0,0,1-.39,13.56,12.64,12.64,0,0,0,.76,6.74c0,1.37-1.12,1.66-2.12,2-3.4,1.3-6.88,2.38-10.33,3.56a5.79,5.79,0,0,0-3,1.68,12.28,12.28,0,0,0,5,.08,24.86,24.86,0,0,1,9.26,0c.86.21,1.33.08,1.55-.85a3,3,0,0,1,2.52-2.11c3.35-.1,6.38-1.6,9.63-2.16,4.51,0,9,.26,13.52-.14,2.87-.26,3.36-.92,3.12-3.7-.37-4.16-1.2-8.25-1.71-12.39q-2.12-13.65-4.18-27.32c-.78-5.09-1.83-10.1-2.84-15.14a6,6,0,0,1-.06-2.12c.14-.59.37-1.11,1-1.26C142.35,185.61,142.28,186.26,141.87,187Z"/><path class="cls-6" d="M153.05,131.65l-.78.14c-1.53,1.54-1.76,3.58-2.12,5.56-.11.56.24,1.33-.74,1.42-.39.1-.58-1.33-.94-.28-.44,1.28-1.23,2.37-1.69,3.61a2.36,2.36,0,0,1-2.61,1.81,3.07,3.07,0,0,1-2.69-2.27,2.71,2.71,0,0,1-.2-1c.21-2.22-.82-2.65-2.69-1.89-.46-2.8-2.2-4.29-4.86-5a4.17,4.17,0,0,1-2-1.57c-.87-1-2.16-1.94-1-3.38s2.53-.94,3.87-.26a11.59,11.59,0,0,0,1.64.85c2.81.94,4.32.24,5.36-2.49a6.22,6.22,0,0,0,.42-1.26c.49-2.84.51-5.7,3.69-7.45,1.44-.8.88-3.29,1.43-5a34.63,34.63,0,0,0,.77-3.91,61.45,61.45,0,0,0,.78-6.33,3.86,3.86,0,0,1,.28-1.57c.28-.65.59-1.39,1.43-1.38,1.08,0,1.24,1,1.25,1.73,0,2.93.26,5.83.59,8.75.72,6.24.79,12.55,2.09,18.73C154.85,130.56,154.36,131.32,153.05,131.65Z"/><path class="cls-7" d="M13.74,52.12l0,1.13c-.24,3-2.3,5.45-2.58,8.46a20.88,20.88,0,0,1-.73,2.79c-.53,5.11,0,10.22-.26,15.32a33,33,0,0,0-.13,19.05,43.32,43.32,0,0,1-.07,22c-.82,1.52-2.23,1.88-3.8,2-1.22.06-2.49.32-2.68,1.69-.68,4.69-2.16,9.33-.91,14.14.47,3.75-.15,7.43-.7,11.12-.52,3.47-.16,3.91,3.12,4.94s6.7.89,9.8,2.35c1.53.09,3,.22,4,1.66a5.24,5.24,0,0,1,.55,1.26c2.06,8.37,2.78,16.94,3.6,25.48.24,2.43-.65,4.73-1.26,7-1.43,5.4-2.81,10.81-4.09,16.24a10.59,10.59,0,0,1-1.46,4,.68.68,0,0,1-.83.16c1.16-5.06,1.89-10.27,3.59-15.13,2.85-8.15,2.88-16.27,1.27-24.56-.67-3.47-.72-7-1.51-10.49-.52-2.3-1.25-3.72-3.94-4.1-4-.56-8-1.65-11.95-2.54C1,155.63-.12,154.67,0,152.54a66.79,66.79,0,0,1,.82-9.27c.39-1.93.71-3.83-.24-5.73-.76-1.54-.18-3.15.11-4.71a46.45,46.45,0,0,0,.94-7.89c0-3,1-4.07,4-4,2.76.07,3.55-1,3.47-3.62-.16-5,.92-10,0-15.12-.52-2.87-1.23-5.71-1.93-8.49-1-4-.15-7.72.55-11.47a34.64,34.64,0,0,0,.8-7.1c-.08-5.67-.08-11.36,2-16.76C11.4,56.22,12.09,53.91,13.74,52.12Z"/><path class="cls-8" d="M62.38,116.85a3.59,3.59,0,0,0,3.9-2.14c1.25-2.59,3.93-4.4,4.16-7.55a3.21,3.21,0,0,1,1,2.11,2.8,2.8,0,0,0,2,.56c2.27.13,3.94.79,3.82,3.6-.07,1.63,1.43,2.37,2.56,3.15,2.7,1.85,3,4.38,2.3,7.26-.39,1.61-1.41,2.29-2.95,1.57a8.31,8.31,0,0,0-3.84-.7c-1.75,0-3.11-.95-4.44-2-2-1.62-3-4.1-5.33-5.33C64.49,117.13,63.31,117.82,62.38,116.85Z"/><path class="cls-9" d="M99.15,111.52c-1.84,1-4-.09-5.84,1-2.54,3-6.22,3.28-9.69,4a2.53,2.53,0,0,1-1.29-.27c-1.72-.65-3.27-1.7-3.63-3.52-.41-2,1.77-2.07,2.85-3a7.5,7.5,0,0,1,.84-1c3.2-2.62,3.21-2.62.09-5,2.69.2,5-2.12,7.78-1.06,1.49.56,1.73-.79,2.4-1.49,1.17,1.31,1.21,3.08,1.81,4.61C95.43,108.33,96.51,110.52,99.15,111.52Z"/><path class="cls-10" d="M47.36,3.65a1.74,1.74,0,0,1,2.2,1c2.11,4.78,5.25,9.29,2.79,15a5.06,5.06,0,0,0,.57,4.83c1,1.42,1.06,2.84-.75,4A8.56,8.56,0,0,0,49,33.63c-.68,2.41-1.87,3.6-4.67,2.68-3.51-1.15-4,1.87-5,4.09a1.68,1.68,0,0,1-2.41.09c-2.89-2.37-6.36-3.89-9.2-6.31A4,4,0,0,1,26,31.89c.3-1.3,1.42-2.35,1.16-3.82A1.13,1.13,0,0,1,28,28c1,.53,2.06,1.15,2.24,2.43.44,3.05,2.83,4.36,5.11,5.69a3,3,0,0,0,4.26-.76c.73-.9,1.74-1.89,2.88-1.66,2.52.5,3.32-1.29,4.62-2.74,3.79-4.24,3-9.28,2.75-14.25A2,2,0,0,0,49,15.16c-1.54-1-2.05-2.58-2.69-4.11-2.19-3-2.17-3.6.75-5.39C48.13,5,47.09,4.28,47.36,3.65Z"/><path class="cls-11" d="M81.55,109.81a2.56,2.56,0,0,0-.11.24c-.51,1.17-3.16,1.16-2.07,3s3,3.35,5.47,2.81c3-.65,6-1.39,8.47-3.39-.76,3-3.6,2.9-5.69,3.63-3.76,1.33-3.93,1.22-3.91,5.05,0,2-.26,4.18-2.19,5a7.32,7.32,0,0,1-7.31-.45,34,34,0,0,1-8.67-8.44c.45-.57,1-1.79,1.53-.24,1,2.78,3.47,4.13,5.3,6.1a3.21,3.21,0,0,0,3.18.92,3.76,3.76,0,0,1,3.67.68c1.38,1,2,.32,2.35-1.16.69-3.09-.08-5.4-2.95-7.1-1.31-.78-2.8-1.72-2.06-4,.51-1.56-1.23-1.88-2.41-2.11-1-.19-2.19.19-2.71-1.13a10.82,10.82,0,0,1,5.19.78C78.34,110.87,79.91,109.87,81.55,109.81Z"/><path class="cls-12" d="M120,145.58c-.93-2.7-.4-5.51-.58-8.27-.06-.93.27-1.91-.32-2.79-.14-1,0-2.07-1.22-2.67s-1-1.92-1-3.06c0-7.18,0-14.35,0-21.52,0-2.36-.79-2.73-2.92-1.82-4.91,2.09-9.87,4-14.8,6.07a3.36,3.36,0,0,1-4-2.33c-1-2.6-2.72-5-2.54-7.94,1.81-2.43,4.51-3.65,7.09-5,3.36-1.71,6.51-3.87,10.11-5.1a.75.75,0,0,1,.66.78c-.92,1.3-2.61,1.35-3.74,2.33-2.62,1.46-5.4,2.62-7.93,4.26-5.2,2.91-5.2,2.91-2.64,8.34,1.59,3.37,1.65,3.49,5.18,2.08,4.19-1.67,8.44-3.21,12.5-5.22,3.23-.64,4-.05,4.14,3.21a10.8,10.8,0,0,0,.36,2.89,8.28,8.28,0,0,1,0,3.29,64,64,0,0,0-.09,13c-.22,2.17-.1,4.18,1.75,5.8.84.73.63,2,.67,3,.11,2.39-.25,4.79.28,7.16a6.7,6.7,0,0,1,.19,1.78C121,144.68,121.11,145.57,120,145.58Z"/><path class="cls-13" d="M15.37,212.86h.47c.79.74.53,1.65.31,2.48-2,7.7-3.3,15.57-5.56,23.21-.84,2.39.14,5-1,7.36-1,2.08-1.69,4.18-.36,6.38,2.61.82,5.24.39,7.86.21a8.69,8.69,0,0,1,2.1-.12A29.15,29.15,0,0,1,22,253.44c1.72.66,3.54.14,5.29.47a7.45,7.45,0,0,1,.82.17c1.92.48,3.89,0,5.81.33.79.12,1.56.35,2.36.4,1.24.08,2,0,1.66-1.72-.53-2.48.48-3.31,2.89-2.57a5.5,5.5,0,0,1,2.85,1.31,2.47,2.47,0,0,1,0,.47c-.71,0-1.42,0-2.13-.1-1.25-.15-1.57.29-1.24,1.52.64,2.31-.7,2.84-2.62,2.61-6.39-.77-12.85-.44-19.21-2.19-2.65-.74-5.9,0-8.9-.21-1.88-.15-2.62-1.16-2.44-2.74a123.26,123.26,0,0,1,2.43-14.27Z"/><path class="cls-14" d="M110.35,91.67l-.49-.48a7.64,7.64,0,0,1,2.14-1.5c4.37-1.18,5.14-4.15,5-8.27-.27-7.24,1.81-14.09,4.58-20.73,1.61-4.55,5.07-7.82,8-11.46a11.61,11.61,0,0,1,2.84-2.84,8.23,8.23,0,0,0,3.21-3.6c.76-1.14,1.4-2.43,3.07-2.42a2.54,2.54,0,0,1,2.88,2c.81,2.35,2.92,4.13,3.48,6.68a1.51,1.51,0,0,1-1.43-.27,23,23,0,0,1-3.23-5c-.24-1.77-.94-2-2.15-.65a10.74,10.74,0,0,0-1.11,1.39,4.66,4.66,0,0,1-.43.59c-1.14,1.23-2.37,2.39-3.53,3.6-.25.27-.51.53-.76.79a50.13,50.13,0,0,0-10.83,15.33c-.61,1.64-.93,3.37-1.62,5-.79,4-1.69,7.91-1.38,12a6.94,6.94,0,0,1-.19,1.28c-.62,2.1,0,4.67-2.22,6.18C114.25,90.14,112.9,92.34,110.35,91.67Z"/><path class="cls-15" d="M132.75,46.75l-2.7,2.7c-2.35,1.92-2.37,1.93-3.55-.81a21,21,0,0,1-1.19-2.37c0-.87,0-1.75,0-2.62,3-.25,5.61-1.77,8.2-3.17,1.3-.71,2.49-1.63,4-1.74-.06.83.7,1.11,1.11,1.63L136,43.1C135.1,44.48,133.75,45.46,132.75,46.75Z"/><path class="cls-16" d="M26,31.89c3.2,3.35,7.68,4.94,11.05,8.07.66.61,1.48.45,2.27.44a6.93,6.93,0,0,0,.55,3.78c-2.83,2.06-3.33,2.13-5.54-.29-3.25-3.56-6.86-6.77-10-10.46Z"/><path class="cls-17" d="M47.36,3.65c.57.6,1.81.73,1.58,1.87s-1.39.7-2.19.85c-1.91.35-1.9,1.9,0,4.19.64,2.93-.7,5.26-4.06,7a.9.9,0,0,1-.43-.64,3.07,3.07,0,0,1,1-2.37C45.2,12.8,45,10.84,44,8.74c-.57-1.15-1.13-2.39.16-3.37,1.63-1.24.72-1.74-.5-2.33C37.88.22,28.05,1,26.05,10.39c-.18.86-.44,1.72-.65,2.58a21.08,21.08,0,0,0,0,6.91c.21,2.31,1.25,4.37,2,6.52a1.31,1.31,0,0,1-.26,1.16C22.83,22,23.05,15.8,24.67,9.46,27.39-1.18,40.35-2.44,47.36,3.65Z"/><path class="cls-18" d="M24.39,33.43c2.93,2.84,5.91,5.63,8.76,8.55,1.91,2,3.63,4.15,6.76,2.2.5,4,2.66,7.59,2.71,11.69C38,48.51,32.19,42.1,26.1,35.94a6,6,0,0,0-2.82-1.84Z"/><path class="cls-19" d="M125.31,46.27a2.08,2.08,0,0,1,1.74,2c.33,2.4,1.46,2.17,3,1.16-2.91,3.69-5.94,7.28-8.48,11.24C121.81,55.62,123.52,50.94,125.31,46.27Z"/><path class="cls-20" d="M42.57,16.86l.09.72c1.21,2.73-.16,5-1.6,7-1,1.44-2.84.78-3.27-1.11-.31-1.36-.39-2.78-.83-4.11-1.67-1.54-1.85-1.48-3.08.85a40.42,40.42,0,0,1-.83,4.9,4.13,4.13,0,0,1-5.36,3.1,1.19,1.19,0,0,0-.49-.17,2.22,2.22,0,0,1-.06-.51l0-1c2.72-.14,3.81-1.81,4.05-4.3A11.77,11.77,0,0,1,32,18.65c.66-1.54,1.58-2.87,3.47-2.75s3.11,1.45,3.84,3.18c.3.71-.08,1.6.58,2.22C41.44,20.18,40.2,17.44,42.57,16.86Z"/><path class="cls-21" d="M148.26,54.33a20.13,20.13,0,0,1,2.24,8.45l-.26.21c-1.23-.43-.83-1.88-1.62-2.58a6.3,6.3,0,0,1-1-4A2.72,2.72,0,0,1,148.26,54.33Z"/><path class="cls-22" d="M148.26,54.33c0,.71,0,1.41.05,2.12-.26.09-.62.11-.71-.13-1-2.66-3.49-4.64-3.61-7.73l1,.42Z"/><path class="cls-23" d="M10,238.44q2.82-12,5.62-24c.11-.5.14-1,.21-1.55,1.88-7.4,3.51-14.88,5.75-22.17,1.18-3.86.55-7.55.19-11.25a163.37,163.37,0,0,0-3-19.52,151.44,151.44,0,0,0-3.41-19.17c-.6-2.73-1.26-5.49-1.89-8.24-.74-3.26.39-4.41,3.57-3.68a6.76,6.76,0,0,0,2.89.23c8-1.57,16.07-.67,24.11-.16,2.28.15,3.52,1.47,3.7,4.72.16,3,1.27,5.83,1.74,8.77.14,3.38-.42,6.8.61,10.13-1.55.16-1.63-1-1.8-2-.22-1.4.07-2.84-.44-4.25a10.79,10.79,0,0,0-.23,4.41c1.12,6.61,0,13.09-.87,19.59-.22,1.71-.53,3.34,1.18,4.56a1.56,1.56,0,0,1,.24,2.38c-2.07,2.55-1.85,5.65-2.22,8.61a9.8,9.8,0,0,1-.55,2.86c-2.46,5.44-3.09,11.45-5.37,17a9.56,9.56,0,0,0-.49,3.41,10.33,10.33,0,0,1-1.34,5.37c-3.07,4.62-3.46,10-4.41,15.21-.6,3.32-1.86,6.42-2.57,9.68-.67.73-1,.29-1.34-.36s.12-1.76-.62-2.75c-1.34,2.26-1.26,4.72-1.73,7a29.46,29.46,0,0,0-.57,3.36c-.08.51-.2,1.17.44,1.34s.89-.42,1.13-.89c.6-1.18.45-2.59,1.17-3.73a1.62,1.62,0,0,1,1-.78,1.29,1.29,0,0,1,.71.19c.37,2.79-1,5.27-1.47,7.91-.17,1-1.22,1.17-2.19.8a9.05,9.05,0,0,1-3.28-1.65c-2.14-2.2-5.29-1.48-7.65-2.94-.9-.56-1.09.61-1.66.91C10.88,245.86,9.34,243.11,10,238.44Z"/><path class="cls-24" d="M49.53,142.38c-1.93-3-2-6.51-2.59-9.87-.38-2.33-1.58-2.83-3.8-3-5.67-.46-11.33-.39-17-.47a16.66,16.66,0,0,0-5.5.69,4.46,4.46,0,0,1-3.83-.2c-.81-.45-1.68-.76-2.48-.07s-.37,1.56-.26,2.45a56.14,56.14,0,0,0,2.59,10.89c1.23,3.62.31,7.47,2.14,10.92,1,1.89.48,4.13,0,6.21-.07-.33-.15-.66-.22-1-1.53-1.77-1.9-4-2.19-6.19-.91-6.9-3.14-13.44-5-20.08a5.81,5.81,0,0,0-1.16-2.07c-2.84-3.45-3-5.76-.78-9.56,1.38-8.27,1.66-16.4-.79-24.65a25.24,25.24,0,0,1,.83-16.43c.64-3.68.1-7.39.29-11.08.09-1.66-.25-3.35.22-5,.75-3.71,1.53-7.42,3.78-10.6a88.67,88.67,0,0,1,8-13.88c.95-.26,1.24.4,1.37,1.09a4.88,4.88,0,0,0,.8,2.16,8.11,8.11,0,0,1,.73,2.81,2.61,2.61,0,0,1-2.05,3.44,6.09,6.09,0,0,0-4.51,5.34c-.35,2-1.67,3.71-2.69,5.46a3.83,3.83,0,0,0-.43,4c1.09,2.25-.36,4.67.37,7.08,2,6.63,3.84,13.29,7.94,19.06,1.78,2.52,3.07,5.36,4.85,7.91a22,22,0,0,0,3.22,3.45c3.06,2.85,7,3.69,10.66,5.22,2.68,1.11,5.38,2.31,6.93,5,.64,5-.42,10.14.35,15.18,0,.17.08.42,0,.51-3.45,3.89-.3,7.7.11,11.55C49.56,139.89,49.5,141.14,49.53,142.38Z"/><path class="cls-25" d="M23.38,42.57c-.66-.34-1.17-.75-.8-1.6s-.13-1.26-.79-1.6c.11-.24.22-.48.32-.72.48-1.09.42-2.68,1.92-2.9s1.66,1.34,2.44,2.1A165.94,165.94,0,0,1,38.53,51.62a33.67,33.67,0,0,1,4,6.42c-1.92.11-2.83-1.63-4.31-2.35-.55-.27-1.1-.79-1.71-.5s-.35,1.11-.29,1.69a199.22,199.22,0,0,0,3.43,22C40.2,81.25,42,83,43.32,85c2.59,3.89,5.11,7.94,9.49,10.24,1.28.67,1.82,2.16,2.92,3.08.85.69.15,1.44-.14,2.43a3.6,3.6,0,0,1,5.06.73c1,1,2.34,1.61,3.4,2.56,1.87,1.66,1.91,2.93.16,4.68l-1.71,1.69c-2,2-3,1.84-4.27-.83A39.33,39.33,0,0,0,56.56,106c-.37,1.19.31,1.8.74,2.49s.8,1.29.15,1.93a1.78,1.78,0,0,1-2,.2,6.82,6.82,0,0,1-1.74-1.22,2.32,2.32,0,0,0-2.44-.69c-2.18,1-4,0-5.78-1a84.48,84.48,0,0,0-9.34-3.85,15.62,15.62,0,0,1-7.7-6.62A24,24,0,0,1,27.11,95c-2.81-5.78-7-10.86-8.55-17.3-.66-2.75-2.57-5-3.31-7.83A5.33,5.33,0,0,1,15,66.74a3.68,3.68,0,0,0-.5-3.76,2.14,2.14,0,0,1,.34-2.91c1.63-1.84,2.22-4.19,3.36-6.24,1.44-2.6,3-5.53,7-5.06,1.41.17,3,0,3.71-1.62a1,1,0,0,0-1.06-.51c-2.43.41-3.82-.4-3.71-3.07C24.17,43.07,23.76,42.81,23.38,42.57Z"/><path class="cls-26" d="M15.37,247.54c.17-.66-.86-1.39,0-1.93s1.37.15,1.94.51c1.17.75,2.18,1.9,3.73.59.46-.39,1,.19,1.33.59,1.41,1.7,3.52,2.24,5.33,3.3,1.4.83,2,.48,2.1-1,.1-2.43,1.17-4.61,1.61-6.94a2.78,2.78,0,0,1-.57-3.05c1.6-7.18,3.24-14.35,4.76-21.56a8.66,8.66,0,0,1,1.5-3.06,5.53,5.53,0,0,0,1.32-3.13c-.14-5.24,2.85-9.77,3.3-14.91a16.82,16.82,0,0,1,2-5.72c1.74-3.45,1.7-7.19,2.06-10.86a5,5,0,0,1,1.51-3c.54-.6,1.59-1.82.45-2.13-3.08-.83-2-3.07-1.74-4.7.78-5.25,1.61-10.5,1.38-15.82-.13-2.82-.65-5.63-.48-8.47.05-.85-.17-2.06,1.08-2.05s1,1.23,1,2.08c0,1.34,0,2.67,0,4,0,.94.11,1.79,1.15,2.16-.41,2,.39,3.89.49,5.85.53,1.38-.1,3.07,1.12,4.28-.46,3.57,1,6.89,1.32,10.35.37,3.94,1.82,7.81,1.66,11.66s-1.43,7.91-2.65,11.73c-1.71,5.35-2,11-3.56,16.34a9.53,9.53,0,0,0,0,2.82c-1.39,1.77-.52,4-1.11,5.88a46.86,46.86,0,0,1-1,8.09,2.94,2.94,0,0,0,.43,2c-.53,3.1-.11,6.23-.24,9.35-.05,1.34-1.53,2.58-.27,4,.8,2,2.94,1.76,4.46,2.38,2.47,1,4.94,2.26,7.69,2.4,1.23.07,2.91-.11,2.93,1.41,0,1.3-1.6,1.34-2.78,1.33a30.41,30.41,0,0,1-8,0l-7-.55a7.5,7.5,0,0,1-3.3-.86,1.68,1.68,0,0,0-2,.15c-.66.63-.2,1.53.11,1.93,1.91,2.45.41,2.56-1.57,2.46a5.23,5.23,0,0,1-2.83-.51c-2.1-.72-4.32.17-6.42-.51h0c-1.92-.76-4,.15-5.9-.5a3.83,3.83,0,0,1-2.1-1.1C17.75,251.48,15.92,250,15.37,247.54Z"/><path class="cls-27" d="M23.38,42.57c.09,0,.23,0,.25,0,1,2.38,2.13,4.54,5.39,3.24.23-.09.84.34,1,.68a1.33,1.33,0,0,1-.55,1.63,6,6,0,0,1-3.93,1.36,7.88,7.88,0,0,0-7.07,4.81c-.88,2.17-1.21,4.64-3.43,6.09a1.59,1.59,0,0,0-.55,1.41c1.81,4.47.69,9.75,4,13.83,1.46,1.78,1.4,4.3,2.23,6.44,1.47,3.83,4.25,6.81,5.74,10.64,1.65,4.26,4.67,8.42,8.78,10.1,4.48,1.84,9,3.64,13.39,5.71,2.93-1.45,5.27-.47,7.38,1.7a.88.88,0,0,0,1.2-.25c.28-.44-.09-.83-.41-1.14-.89-.89-1.88-1.75-1.18-3.21.22-.47.41-1,1.06-1s.81.58.82,1.13c0,1.69,1.2,2.93,1.68,4.45.41,1.32,1.2,1.76,2.25.39a18.6,18.6,0,0,1,1.82-2c2.3-2.19,2.24-2.84-.49-4.72a7.51,7.51,0,0,1-1.07-.78c-2-2-4.15-3.37-7-1.41-.12.09-.45-.14-.68-.22-.14-1.29,1.22-1.44,1.7-2.44-5.26-4.68-10.39-9.38-14.33-15.54-3.33-5.21-3-10.91-4.62-16.31-1.13-3.88-.34-8.09-1.6-12-.35-1.08.3-1.29,1.39-1,2.44.63,4,2.62,6,3.86C45.84,64.3,47.26,71.1,48.22,78a37.19,37.19,0,0,1,.4,10.44c-.28,2,1.05,3.53,2.65,4.61,6.07,4.11,11.72,8.77,17.44,13.34.91.72,1.16,1.33.37,2.42-1.45,2-3.17,3.8-4.26,6.08-.57,1.18-1.83,1.06-2.82.56-2.85-1.41-5.6-3-8.47-4.36-1.48-.7-3.22-2.12-4.55.34A33.44,33.44,0,0,0,36,105c-2.84-.75-5-2.92-6.82-4.85a24.67,24.67,0,0,1-5-7.62c-.8-2-2.41-3.7-3.47-5.63A54.38,54.38,0,0,1,14.46,69c-.35-2.32.15-4.73-.57-7.16-.48-1.64,1.39-2.95,2.13-4.44a14.68,14.68,0,0,0,1.83-4.91c.22-2.07,1.82-3.09,3.29-3.85C24.61,46.86,24.78,46.76,23.38,42.57Z"/><path class="cls-28" d="M46.3,241.66c.31-3.37-.59-6.82.53-10.15-.27,3.74.57,7.54-.47,11.25A.76.76,0,0,1,46.3,241.66Z"/><path class="cls-28" d="M50.59,252.38h8A14.52,14.52,0,0,1,50.59,252.38Z"/><path class="cls-23" d="M47.42,221.42c.24-2-1.06-4.26,1.11-5.88Z"/><path class="cls-23" d="M51.75,162.64c-2.24-.94-1-2.8-1.12-4.28A11.13,11.13,0,0,1,51.75,162.64Z"/><path class="cls-23" d="M46.3,241.66l.06,1.1c0,.7,0,1.41,0,2.11C44.81,243.81,44.84,242.74,46.3,241.66Z"/><path class="cls-29" d="M147.76,231a87.18,87.18,0,0,1,2.09,14.56c.08,1.2-.51,2.43-1.62,2.37-2.46-.12-4.79,1-7.34.35-2.79-.66-5.75.75-8.61-.2-.05-1.5,1.58-1.39,2.35-2.21a11,11,0,0,0-2.49-.44c-2.61-.58-3.84-1.74-3.75-4.37.22-6.27-1-12.39-1.71-18.56-.3-2.48-1.39-4.73-1.71-7.24q-1.17-9.23-3.11-18.34a10.07,10.07,0,0,0-1-2.47c-2.32-4.52,0-8.42,5.15-8.48,4.32,0,8.53.17,12.1,3.13a6.69,6.69,0,0,1,2.72,4.41,41.9,41.9,0,0,1,.7,7.42,13.63,13.63,0,0,0,1.06,6.52A3.09,3.09,0,0,1,143,209c-.54,4.23,1.19,8,2.28,11.93.74,2.64,1.54,5.27,1.19,8.1C146.37,229.77,146.08,231.16,147.76,231Z"/><path class="cls-30" d="M147.76,231c-.16.63.37,1.64-.54,1.84s-1-.81-1.18-1.45a4.23,4.23,0,0,1-.39-1.79c.73-4.1-.93-7.71-2.05-11.48-.83-2.82-1-5.88-1.49-8.68-.81-4.18-1.12-8.35-1.55-12.54-.06-.61-.24-1.21-.27-1.82a8.6,8.6,0,0,0-6.45-7.75,36.06,36.06,0,0,0-9.78-.59c-2.38.12-4.51,4.32-3.06,6.4,1.28,1.86,1.47,3.87,2,5.9,1.51,5.91,1.55,12.08,3,17.92,1.3,5.16,1.87,10.38,2.78,15.57.47,2.66.18,5.31.25,8,.09,3.26.92,4.2,4.24,4.4.44,0,.89,0,1.33,0,.77,0,1.92-.25,2,.72s-1.16.83-1.82,1.16c-.86.42-1.92.44-2.56,1.3-3.16.9-6.2,2.34-9.61,2.14,0-1.67,1.75-1.43,2.57-2.23s1.06-1.46-.3-1.81c-1.81-.47-3.62-1.2-5.5-.23-1.71-2.29-1.28-4.79-1.19-7.48.33-11,.51-21.95-.25-32.93-.46-6.81-.39-13.66-.55-20.48.08-1.32.53-2.11,2.1-2,5.74.33,11.47.85,17.17,1.62,1.55.2,3.23.35,4.08,2.05.48,2.76.83,5.55,1.47,8.28,1.85,7.88,2.63,15.94,3.78,23.93C146.62,222.92,148,226.84,147.76,231Z"/><path class="cls-31" d="M120,145.58c.55-.4.35-1.05.54-1.58,2.09,1.33,3.62,3.55,6.4,3.76s5.43.84,8.19.53a3.77,3.77,0,0,1,2.08.15,1.43,1.43,0,0,1,.5.59c.3.66-.14,1.68.92,2a.48.48,0,0,0,.59-.38c.19-1.22-1.17-1.1-1.61-1.79,1.61-3,3.18-3.35,5-.85a4.22,4.22,0,0,0,4,1.92c0,2,1.38,2.55,3,2.61,2.54.1,3.56,1.29,3.49,3.86-.13,4.86-.16,9.65-1.41,14.46-.78,3-.23,6.35-.22,9.55,0,1.57-.31,2.83-2.13,3.12a15.92,15.92,0,0,1-1.06-2.92c.84-5.06.85-10.25,2.26-15.24a12.48,12.48,0,0,0,.16-3.71,16.87,16.87,0,0,0-.11-2.66c-.43-2.3-1.51-4.06-4.07-4.21-4.52-.26-8.92-1.35-13.46-1.53-5.4-.21-10.67-1.68-16.07-2.1-2.5-.26-5.54-1.63-7.29.67-2.15,2.86-3.87,6.42-2.66,10.19,1.09,3.4.82,6.86,1.09,10.28.16,1.93.45,3.86.63,5.78.23,2.42,2.47,1.72,4,2s3.6-.77,4,1.84l-1,0c-2.29-.2-4.58-.41-6.88-.6a2.33,2.33,0,0,1-2.36-2.63,35.59,35.59,0,0,1,0-5.06c.7-5.21-1.86-10.08-1.45-15.26a50.45,50.45,0,0,0,0-6.39c-.12-2.43,1.1-3.6,3.33-4a12.11,12.11,0,0,1,5,.18C116.24,148.82,118.64,148.46,120,145.58Z"/><path class="cls-32" d="M116.8,181.91c-1-1.85-2.82-.81-4.26-1.12.34-2.27,2.12-1.76,3.51-1.66,2.91.22,5.8.68,8.71.89,7.59.56,15.18.95,22.79,1a2.75,2.75,0,0,1,1.28.31c1.12.48,1.06,1.25.52,2.14a3.81,3.81,0,0,1-3.94.75c-1.62-.55-3.17-.42-4.1,1.36l-.51,1.09c-3.35-1.94-7.18-1.51-10.79-2.08s-7.18-.53-10.74-1c-1.4-.19-1.26.92-1.82,1.43C117.33,184,117.47,182.86,116.8,181.91Z"/><path class="cls-33" d="M119.44,245.93c.73-.43,1-1.94,2-1.46,1.77.87,3.9.57,5.48,1.83.62.5-.05.89-.3,1.32-.89,1.52-2.87,1.34-3.93,2.58-1,.6-2.5.78-1.74,2.64.31.76-.39,1.25-1.09.94-4.68-2.13-9.46-.08-14.17-.38-.87-.06-2.14,1.09-2.49-.36-.27-1.12,1-1.83,1.95-2.2,2.24-.84,4.53-1.52,6.8-2.3C114.44,247.69,116.94,246.81,119.44,245.93Z"/><path class="cls-34" d="M148.29,109.82c.13,2.69-1.18,5.15-1.29,7.8,0,.41-.29,1-.6,1.15-3.77,1.29-3.09,4.83-3.92,7.6-.15.5-.35,1-.55,1.49-1.17,2.77-3.89,3.6-6.53,2-.37-.23-.76-.45-1.12-.7-1.13-.8-2.39-1.16-3.29.06s.71,1.69,1.24,2.47c-1.79.47-3.62.72-5.45,1a1.84,1.84,0,0,1,.45-1.93,5.17,5.17,0,0,0,1.44-3.91,8.38,8.38,0,0,1,1.05-5.1c.82-1.28.19-2.07-1.31-1.89a5.09,5.09,0,0,1-4-.89c-.92-.74-1.77-1.58-1.48-2.91a3.26,3.26,0,0,1,2.38-2.31,13.71,13.71,0,0,1,5.56-.27c1.9.13,3.27-.6,3.28-2.59,0-5.67,2-11,2.54-16.59a9.66,9.66,0,0,0-1.17-6.14,49.45,49.45,0,0,1-5.56-14.66,24.93,24.93,0,0,1,2.15-17.09,10.9,10.9,0,0,1,1.66-2.81c1.07-.5,2.36-.57,1.13-2.48-1.37-2.12-.07-3.86,3.11-4.82,1.26.06,1.78.77,1.78,2-.74,2.59.87,4.33,2.49,5.74A15.58,15.58,0,0,1,147,63.29c.73,4,1.82,7.93,2,12,0,7.73.12,15.45.06,23.17A81.5,81.5,0,0,1,148.29,109.82Z"/><path class="cls-35" d="M146.61,149.89c-2,2.33-3.71-.07-4.1-1-1.29-3.13-2.66-2-4.3-.59-.2.16-.39.34-.58.51h0a35.56,35.56,0,0,1-12-.67,6.93,6.93,0,0,1-5-4.15c0-.52,0-1.05,0-1.58-.5-2.72-.13-5.46-.22-8.19,0-1.19.66-1.71,1.77-1.92,4.4-.86,4.4-.88,4,4.09a31.53,31.53,0,0,0,.37,6,2.52,2.52,0,0,0,2.64,2.38c2,.06,4.06,0,6.09,0,1.84,0,2.64-1.07,2.77-2.85.09-1.16-.39-2.52,1-3.34,1-.25.43-2.23,1.8-1.78,1.16.38,1.21,1.6,1.19,2.72a6.71,6.71,0,0,0,.23,2.1,2.4,2.4,0,0,0,2.43,1.73c1.12,0,1.22-.88,1.68-1.66,1-1.76,1.42-3.81,2.41-5.72,1.06.94.56,1.87.68,2.69a10.57,10.57,0,0,0-1.37,6.21C148.19,146.67,146.41,148.05,146.61,149.89Z"/><path class="cls-22" d="M148.29,109.82V74.6c1.3.08,1.1,1.19,1.28,2a47.73,47.73,0,0,1,.73,7.84,10.59,10.59,0,0,0,.42-4.06,60.46,60.46,0,0,0-1.7-16.3c-.33-1.25-.74-2.6.31-3.77.91.7.29,1.91.91,2.71,2.67,10.18,2,20.51,1.4,30.86-.52,8.33.59,16.62,1.19,24.92.26,3.61.83,7.19,1.26,10.79-1.73-3.78-1.83-7.89-2-11.9-.24-5.73-1.69-11.32-1.49-17.14C148.56,103.36,149.73,106.91,148.29,109.82Z"/><path class="cls-36" d="M138.9,138.64c-.11,1.31-.26,2.63-.31,4a2.72,2.72,0,0,1-3,3c-2.3,0-4.61.06-6.91,0a2.81,2.81,0,0,1-3-2.73,58.78,58.78,0,0,1-.37-6.35c.29-1.33.41-2.74,1.66-3.63,1.38-2,3.31-1.56,5.22-1.16.59,1.26,1.82,1.48,3,1.86C137.65,134.34,139.33,135.74,138.9,138.64Z"/><path class="cls-13" d="M14.9,157.8c-3.69-1.52-7.71-1.53-11.5-2.62C1.7,154.69.79,153.9,1,152c.39-4.47,1.45-8.89,1.12-13.42,3.85-.48,7.3.87,10.74,2.35a3.39,3.39,0,0,1,2.26,3c.25,3.1,1.19,6.06,1.7,9.11C17.13,155.21,16.71,156.69,14.9,157.8Z"/><path class="cls-37" d="M14.9,157.8c3.39-4.78-.36-9.42-.32-14.14a2.21,2.21,0,0,0-1.87-2c-3.08-.6-5.7-3.28-9.22-2-.71.26-.93-.68-1.42-1a6.6,6.6,0,0,1-.64-4.78A79.14,79.14,0,0,0,2.55,125c.22-2.17,1.32-3.18,3.5-2.9A3.94,3.94,0,0,0,9.45,121c-.32,1.81-.6,3.63-.95,5.44-.25,1.29.64,1.93,1.37,2.69a9.88,9.88,0,0,1,2.45,3.9c2.84,8.46,4.23,17.24,6.28,25.87A5,5,0,0,0,14.9,157.8Z"/><path class="cls-25" d="M10,63.85c0,4.62,0,9.24,0,13.86,0,.77.23,1.62-.53,2.22,0-4.59,0-9.19.08-13.79A3.35,3.35,0,0,1,10,63.85Z"/><path class="cls-38" d="M37.26,18.78c1.09,1.24.83,2.79,1,4.24.08.83.26,1.66,1.23,1.81s1.41-.63,1.7-1.38a16.32,16.32,0,0,0,1.51-5.87c1.45-2.3,4.62-3.58,4.12-7,.68,1.76,1.25,3.55,3.18,4.5.77.38.61,1.39.65,2.19.15,2.64-.41,5.32.46,7.93a1.61,1.61,0,0,1-.55,1.69c-1.88,1.79-2.69,4.29-4.11,6.39-.76,1.11-1.53,1.56-2.57,1.2-1.67-.58-2.71.19-3.72,1.26-1.85,1.92-3.89,2.34-5.88.7s-4.93-2.65-4.61-6.16c.1-1-1.61-1-1.94-2,3.54-.49,4.19-1.22,5-4.57.32-1.34-.12-2.83.81-4a9.31,9.31,0,0,1,.15,6.84c0,.08,0,0,.21-.16a5.48,5.48,0,0,0,2.82-6.12A1.47,1.47,0,0,1,37.26,18.78Z"/><path class="cls-39" d="M117.79,109.94a4.39,4.39,0,0,1-.3-2.32c0-3.83-.26-4-3.89-3.21-.15-1.29-1-1.24-1.94-1a14.83,14.83,0,0,0-5.89,2.29,22.13,22.13,0,0,1-2,1.32c-2.46,1.54-4.24,1.54-5.78,0-1.36-1.35-1.48-4.22-.23-6.2.53-.85,1.63-1.52.76-2.76l8.06-4.28a13.71,13.71,0,0,0,7-2.13c.92-.54,1.8-1.16,3-.75A15,15,0,0,1,118,99.34a11.84,11.84,0,0,0,.55,5.49C118.55,106.58,119.14,108.4,117.79,109.94Z"/><path class="cls-40" d="M116.27,91.14c-2.26.38-3.72,2.43-6,2.8-1.28.2-2.46.86-3.64-.18l3.76-2.09c2-.42,3.41-2,5.28-2.71a3.13,3.13,0,0,0,2-3.59,4.19,4.19,0,0,1,.19-2.32l.06-1c.09-4.33,1-8.57,1.56-12.85l1.64-4.76a13.56,13.56,0,0,1,4.29-4.89c.69-.46,1.38-1.26,2.27-.27-1.58,3.56-1.52,7.83-4.73,10.67a2.26,2.26,0,0,0-.47,2.47c1.34,5.37-.2,10.36-2.09,15.27A5.25,5.25,0,0,1,116.27,91.14Z"/><path class="cls-41" d="M117.79,109.94l.1-5.44c1.77-.94,2.16.35,2.47,1.59a87,87,0,0,1,1.89,11.37c.35,2.88-.8,5.35-1.47,8,0,3.63,1.15,4.63,4.75,3.93a2.27,2.27,0,0,1,1.52,0c.6.48.93,1,.44,1.77l-.48,1.67c-.56,1.21-1.11,2.42-1.66,3.63,0-.09,0-.19,0-.26-.66-1.38,1.49-2.8.35-3.68-.51-.39-2.25.85-3.78.43-1.23-.35-1.36,1-1.37,2,0,2.48,0,4.95,0,7.43-.8-2.68-.25-5.44-.45-8.15-.07-.87.18-2-.79-2.37-2.84-1.22-1.92-3.36-1.46-5.41a94.42,94.42,0,0,1,0-13.56Z"/><path class="cls-42" d="M98.53,98c.57.12,1.33-.14,1.57.65s-.28,1.14-.83,1.47c-2.08,1.26-1.89,3.31-1.59,5.2.33,2.06,3.17,2.94,5.11,1.51a21.9,21.9,0,0,1,9.45-4.37c.71-.12,1.47-.34,2,.34s-.46,1-.59,1.57c-4.66,2.69-9.83,4.19-14.75,6.26-1.12.48-1.79-.29-2.24-1.28a43.18,43.18,0,0,0-2.45-5.24c-1.35-2.16-.45-3.49,1.29-4.61A32.47,32.47,0,0,1,98.53,98Z"/><path class="cls-39" d="M117.79,112.93q0,6.78,0,13.56A62.1,62.1,0,0,1,117.79,112.93Z"/><path class="cls-43" d="M8.45,252.86c-.9-2.39-1-4.72.55-6.9.69-1.36,1.6-1.52,2.76-.55,1.91,1.61,3.33,3.68,5.07,5.46,1,1,.39,2.18-1,2.2C13.37,253.12,10.89,253.46,8.45,252.86Z"/><path class="cls-28" d="M8.45,252.86h6.36c.71,0,1.52.06,1.86-.7s-.52-1.1-1-1.58c-1.48-1.51-2.95-3-4.28-4.65-.92-1.14-1.61-.64-2.4,0,1.09-2.41-.12-5.12,1-7.52-.92,4.63,2.62,6.63,5.36,9.1,1.42,1.78,2.85,3.56,4.27,5.35a41.26,41.26,0,0,1-9,.45C9.92,253.29,9.08,253.56,8.45,252.86Z"/><path class="cls-28" d="M27.64,254.49c2.14.19,4.35-.56,6.42.51C31.92,254.86,29.72,255.46,27.64,254.49Z"/><path class="cls-28" d="M21.74,254c2,.19,4-.61,5.9.5C25.67,254.36,23.64,255,21.74,254Z"/><path class="cls-6" d="M149.33,60.28c0,4.25,1.71,8.22,1.92,12.49.2,3.89.16,7.77.15,11.64,0,.88-.31,2.24-1.51,2.1-1-.11-.51-1.34-.52-2.06,0-3.32.1-6.66-1.08-9.85-1.17-5.54-1.51-11.24-3.75-16.57-1-2.5-3.52-3.58-4.84-5.84-.83-1.44-1.2-2.37-.49-3.76.45-.8.77-1.76,0-2.4s-1.1.48-1.64.8c-3.25,1.78-3.4,2.38-1.13,5.1.76.91.41,1.48-.51,1.74a9,9,0,0,1-2.09.11c-1-1.49-2.5-2.78-1.64-4.88l.49-.51a9.18,9.18,0,0,0,3.78-3.73h0c.52-.59,1-1.21,1.58-1.75,1.8-1.74,2-1.7,2.74.71l3.18,5,4.32,7.86A5.35,5.35,0,0,0,149.33,60.28Z"/><path class="cls-22" d="M132.23,48.9c-.18,1.87,2,3,1.64,4.88l-1.07,2.66c-1.68,1.09-3.26,2.37-5.33,2.67-2.66,1.15-4.51,3.27-6.4,5.34A46.43,46.43,0,0,1,132.23,48.9Z"/><path class="cls-22" d="M119.43,69.21c.06,4.35-1.1,8.56-1.56,12.85C117.47,77.67,118.5,73.44,119.43,69.21Z"/><path class="cls-22" d="M140.81,43.63c-.66-1.12-1.31-2.07-2.53-.45a9.33,9.33,0,0,1-1.79,1.49A3.6,3.6,0,0,1,138,42.55c.59-.56,1-1.71,2.08-1.27S140.82,42.76,140.81,43.63Z"/><path class="cls-22" d="M136.5,44.66c-.55,2-1.48,3.54-3.78,3.73A18.56,18.56,0,0,1,136.5,44.66Z"/><path class="cls-22" d="M117.81,83.05a33.3,33.3,0,0,1,0,4.12A2,2,0,0,1,115.63,89C118,87.58,117.18,85.05,117.81,83.05Z"/><path class="cls-19" d="M132.75,46.75c.57-1.67,1.93-2.64,3.25-3.65C135.48,44.82,134.14,45.81,132.75,46.75Z"/><path class="cls-44" d="M42.57,16.86c-1.31,1-.69,2.69-1.41,3.89-.48.79-.48,1.92-1.58,2.31-1-.72-.59-1.78-.65-2.7a3.83,3.83,0,0,0-3.32-3.86c-2-.35-2.73,1.33-3.17,2.89s-.64,3.29-1,4.91c-.61,2.44-1.7,3-4.29,2.24a14.58,14.58,0,0,1-2.28-6.47,43.76,43.76,0,0,1,0-7.33c.87-3.82,1.69-7.63,5.35-10C34.32.16,41.86.36,45.64,3.28c.9.69,1.59,1.35-.18,1.92-1.57.51-2,1.47-.92,3C47.11,11.78,44.41,14.24,42.57,16.86Z"/><path class="cls-20" d="M24.86,12.74l0,7.33A14.45,14.45,0,0,1,24.86,12.74Z"/><path class="cls-45" d="M37.26,18.78a26,26,0,0,0,0,2.93c.22,1.94.36,3.73-2.26,4.13-1.35.21-.8,2.62-3,2.44,2.29-2.73,1.29-5.76,1.46-8.65C34.8,17,35.46,16.87,37.26,18.78Z"/><path class="cls-46" d="M30.77,242.68c-1,1.41-.92,3.18-1.5,4.73-.39,1-1,2-2.32,1.57s-1.31-1.59-.64-2.59-.25-2.32.72-3.23c.65-.56.2-1.33.39-2,.24-.82.36-1.82,1.45-2s1.5.71,1.88,1.53C31.05,241.39,31.4,242,30.77,242.68Z"/><path class="cls-47" d="M30.77,242.68a6.92,6.92,0,0,0-.09-1c-.24-.92-.43-2-1.58-2.11-1.4-.08-1.11,1.27-1.39,2.09-.18.54.1,1.27-.68,1.53a32.38,32.38,0,0,1,1.14-6.77c.17-.79.3-1.74,1.42-1.42a1.45,1.45,0,0,1,1,1.9c-.23.94-.53,1.9.21,2.77l.57,3.05Z"/><path class="cls-48" d="M33.36,110.89a16.15,16.15,0,0,0,4.29-.37c1.43-.47,2.58.33,3.47,1.4a1.7,1.7,0,0,1,0,2.2c-.76,1.07-1.75,1.9-3.13,1.54a27.94,27.94,0,0,0-7.63-.47c-1.54,0-2.48-.73-2.51-2.11a2,2,0,0,1,2.39-2.2C31.24,110.93,32.22,110.89,33.36,110.89Z"/><path class="cls-23" d="M34.83,238.69A2.13,2.13,0,0,1,36,240.56c0,.44-.4.54-.74.48a1.33,1.33,0,0,1-1.13-1.51C34.09,239.07,34.21,238.68,34.83,238.69Z"/><path class="cls-49" d="M148.83,181.35c-2.85,1.1-5.84.64-8.7.39-2-.17-4-.38-6.08-.38a133.19,133.19,0,0,1-18-1.51c-1.24-.17-2.72-.63-3.56.94-1.28.22-2.43-.41-3.65-.6a1.33,1.33,0,0,1-1.13-1.56c.19-2.8-.65-5.59-.44-8.33.3-4-1.47-7.77-1.22-11.75a14.06,14.06,0,0,1,3-7.41c1.81-2.42,5-1.15,7.65-.73-.13,2.07-.91,2.68-3.2,2.5-2.87-.23-3.42.23-3.53,3.1-.06,1.78,0,3.56,0,5.33a2.65,2.65,0,0,0,2.56,2.84c2,.3,4,.71,6-.11,2.26-.91,3.1-.5,4.13,1.72a9.22,9.22,0,0,1,.43,1.25c.39,1.27-.45,3.11,1.42,3.68a14.66,14.66,0,0,0,6.59.11c1.1-.18,1.12-1.47,1.38-2.39.84-2.94,1.55-3.25,4.35-2.19a50.21,50.21,0,0,0,7.06,2.41c2.73.6,3.83-.19,4.74-2.85.54-1.59.77-3.47,2.72-4.2q-1.22,8.82-2.41,17.65C149,180,148.91,180.65,148.83,181.35Z"/><path class="cls-50" d="M151.48,161.61c-.79,1.82-2,3.39-2.27,5.53s-2.44,2.69-4.38,2.42a27.87,27.87,0,0,1-8.51-2.87c-2-1-2.79-.41-2.91,1.3-.23,3.07-1.65,4.24-4.65,3.78a23.81,23.81,0,0,0-2.93,0c-2.07-.08-3.43-.87-3.17-3.25a4.63,4.63,0,0,0-.77-3c-.71-1.09-1.21-1.86-2.83-.82-2.72,1.75-5.7.36-8.51-.18-.87-.16-1.2-1.47-1.21-2.49,0-2.31-.1-4.63,0-6.94.13-2.72,1.35-3.57,4-2.84,1.75.47,2.93.08,3.42-1.77,4.28.59,8.56,1,12.83,1.73s8.93.82,13.4,1.38c1.74.21,3.52.38,5.23.73,2.58.53,2.7,3,3.21,5A10,10,0,0,1,151.48,161.61Z"/><path class="cls-51" d="M137.63,148.82a7.36,7.36,0,0,1,1.57.1,1.56,1.56,0,0,1-.78,3,1.38,1.38,0,0,1-1.31-1.65,5.8,5.8,0,0,1,.52-1.46Z"/><path class="cls-52" d="M127.47,59.11a10.48,10.48,0,0,1,5.33-2.67,24.83,24.83,0,0,0-2,17.57c1.28,4.9,2.67,9.91,5.62,14.22,2.17,3.16,1,6.6.49,9.8-.68,4.43-2,8.73-2,13.3,0,2.23-1.53,3.36-3.75,3a20.6,20.6,0,0,0-4.5-.16c-1.56.09-3.07.63-3.32,2.44-.17,1.23,2.47,3,4,2.79.7-.09,1.37-.4,2.06-.43,1.37-.05,2.39,1.12,1.65,2-2.22,2.55-1.27,5.64-1.92,8.43a2.54,2.54,0,0,1-1.63,1.85c-.19-.53-.37-1.07-.56-1.6-.75-1.43.15-3.14-.85-4.59-.7-1-1.17-1.44-2.22-.41s-2.09,2.32-3.86,1.27c-.06-1.94,1.68-3.54,1.49-5.29-.45-4,.56-8.16-1.72-11.85a2.52,2.52,0,0,1-.08-2c.32-1.42-.27-2.21-1.8-2.15a5.4,5.4,0,0,1-.7-4.49c.72-3-.41-5.93-.92-8.87,5.65-4.91,6.62-11.34,5.45-18.19-.36-2.09-.26-3.35,1.61-4.31a2.28,2.28,0,0,0,1.29-1.91C124.64,63.82,126.37,61.59,127.47,59.11Z"/><path class="cls-22" d="M137.6,46.83c0-.89,0-1.78,1.15-2a1.1,1.1,0,0,1,1.28.65,2.45,2.45,0,0,1-.82,3C139.33,47.25,138.78,46.72,137.6,46.83Z"/><path class="cls-6" d="M151,94c-.45.72.83,2.57-.79,2.54-1.3,0-.65-1.88-.8-2.93a6.14,6.14,0,0,1,0-1.05c0-.71,0-1.65.85-1.68,1.06,0,.64,1,.72,1.62A11.86,11.86,0,0,1,151,94Z"/><path class="cls-53" d="M137.53,140.27c.16,4.25.16,4.25-4.09,4.19a28.16,28.16,0,0,0-3.44,0c-2.49.28-3.49-.73-3.06-3.19a21.39,21.39,0,0,1,1.88-3.45c2.24-2.74,5.49-2.55,7.39.48C136.62,139,136.77,139.85,137.53,140.27Z"/><path class="cls-54" d="M137.53,140.27c-.9.52-1.39.46-1.58-.76a3.55,3.55,0,0,0-3.27-3c-1.77-.3-2.73.81-3.64,2.12-.64.93-1,2.09-2.1,2.66-.26-2.42-1-4.83.41-7.19,1.09-1.87,2.36-2.53,4.29-1.21a15.65,15.65,0,0,0,2.25,1.36C137.84,136.09,137.84,136.07,137.53,140.27Z"/><path class="cls-55" d="M120,125.84a4.12,4.12,0,0,0,3.73-2.12c.86-1.42,1.62-1.38,2.48.09,1.08,1.84,1.65,3.69.72,5.76-1.24,0-2.11,1.28-3.45.92C121.08,129.85,119.6,128.55,120,125.84Z"/><path class="cls-56" d="M127.43,163.26h2.38a2.21,2.21,0,0,1,2.47,2.45c0,1.14,0,2.29-.09,3.44a1.62,1.62,0,0,1-.3,1c-2.08,2.09-4.5.22-6.76.46-1.21.13-1.9-1.1-1.83-2.44,0-.27,0-.53,0-.8C123.18,163.12,123.18,163.12,127.43,163.26Z"/></g></g></g></svg>