<svg xmlns="http://www.w3.org/2000/svg" viewBox="0 0 16.86 16.86"><defs><style>.cls-1{fill:none;stroke:#231f20;stroke-miterlimit:10;stroke-width:0.5px;fill-rule:evenodd;opacity:0.5;}</style></defs><g id="Layer_2" data-name="Layer 2"><g id="Layer_1-2" data-name="Layer 1"><path class="cls-1" d="M8.43,16.61a8.18,8.18,0,1,1,8.18-8.18A8.19,8.19,0,0,1,8.43,16.61ZM9.34,2.14V4.8a.91.91,0,0,1-1.82,0V2.14A6.36,6.36,0,0,0,2.14,7.52H4.8a.91.91,0,0,1,0,1.82H2.14a6.36,6.36,0,0,0,5.38,5.38V12.07a.91.91,0,0,1,1.82,0v2.65a6.36,6.36,0,0,0,5.38-5.38H12.07a.91.91,0,0,1,0-1.82h2.65A6.36,6.36,0,0,0,9.34,2.14Z"/></g></g></svg>