<svg xmlns="http://www.w3.org/2000/svg" viewBox="0 0 158.85 159.93"><defs><style>.cls-1{fill:#fff;}.cls-2{fill:#f0f0f2;}.cls-3{fill:#d5dfe6;}.cls-4{fill:#4e5456;}.cls-5{fill:#666d71;}.cls-6{fill:#f3f4f4;}.cls-7{fill:#526579;}.cls-8{fill:#5c6366;}.cls-9{fill:#eeeff1;}.cls-10{fill:#e9e9ec;}.cls-11{fill:#54524e;}.cls-12{fill:#d0d3d9;}.cls-13{fill:#d6d6d7;}.cls-14{fill:#edeeef;}.cls-15{fill:#f0e8dd;}.cls-16{fill:#4f5557;}.cls-17{fill:#434a4b;}.cls-18{fill:#a4b8ac;}.cls-19{fill:#aebdd9;}.cls-20{fill:#bcd5c1;}.cls-21{fill:#b7d1bf;}.cls-22{fill:#d0b7c5;}.cls-23{fill:#19181a;}.cls-24{fill:#e7e8ea;}.cls-25{fill:#aeb4ba;}.cls-26{fill:#784845;}.cls-27{fill:#d2dde0;}.cls-28{fill:#d6d9dd;}.cls-29{fill:#d1a480;}.cls-30{fill:#ccd0d5;}.cls-31{fill:#7391a4;}.cls-32{fill:#ccced2;}.cls-33{fill:#d0d4d9;}.cls-34{fill:#e7e8eb;}.cls-35{fill:#cbcfd3;}.cls-36{fill:#d1d3d8;}.cls-37{fill:#d1cbce;}.cls-38{fill:#b8c5d4;}.cls-39{fill:#c9d5de;}.cls-40{fill:#a5b8cb;}.cls-41{fill:#a4b7ca;}.cls-42{fill:#fefefe;}.cls-43{fill:#697074;}.cls-44{fill:#504f4a;}.cls-45{fill:#797f84;}.cls-46{fill:#535b5d;}.cls-47{fill:#ecedee;}.cls-48{fill:#adb2b8;}.cls-49{fill:#d5d8dd;}.cls-50{fill:#151518;}.cls-51{fill:#c6cad0;}.cls-52{fill:#8cb6bc;}.cls-53{fill:#a2c9cf;}.cls-54{fill:#b2d8dd;}.cls-55{fill:#585f61;}.cls-56{fill:#546167;}.cls-57{fill:#626a6d;}</style></defs><g id="Layer_2" data-name="Layer 2"><g id="Layer_1-2" data-name="Layer 1"><g id="ls27id"><path class="cls-1" d="M70.36,0q43.89,0,87.79,0c.57,0,.7.13.7.71q0,79.25,0,158.51c0,.58-.13.71-.7.71q-79.07,0-158.14,0Q0,80.31,0,.71C0,.13.13,0,.71,0q33.75,0,67.5,0c0,.48-.38.51-.7.52-4.11.1-8.09,1.15-12.15,1.62a44.94,44.94,0,0,1-6.35.4,3.54,3.54,0,0,0-1.51.22A2,2,0,0,0,46,4.93a21.6,21.6,0,0,1-.16,2.9,1.14,1.14,0,0,1-.32.84,3.72,3.72,0,0,1-1.72.15c-1.13,0-1.31.19-1.35,1.33a3.57,3.57,0,0,0,0,.46,14,14,0,0,0,.1,2.59,1,1,0,0,0,.81.91,10.53,10.53,0,0,0,5,.17c.35-.18.28-.52.26-.81-.06-1,.22-1.91.18-2.87a.68.68,0,0,1,.16-.49,2.41,2.41,0,0,1,1.28-.47c3.45-.18,6.89-.24,10.34-.08,2.55.12,5.1.3,7.65.43A2.72,2.72,0,0,0,70.86,7.9a7.83,7.83,0,0,0,0-3.57,9.27,9.27,0,0,1-.16-1.67C70.58,1.77,70.51.89,70.36,0Z"/><path class="cls-2" d="M70.36,0a1.58,1.58,0,0,1,.43,1c-.05,1.76.49,3.46.49,5.22a5.79,5.79,0,0,1-.62,2.85,4,4,0,0,1-2.42,1.22A14.06,14.06,0,0,0,65.66,10c-1.39-.11-2.79-.17-4.19-.23-2.11-.08-4.23-.07-6.34-.13-1.63,0-3.25.22-4.88.16-.45,0-.77.44-1.23.32-.31-.55-.43-1.32-1.28-1.27-.38,0-.75,0-1.13,0a1.2,1.2,0,0,1-1.13-.26,10.57,10.57,0,0,0,.29-3.71,2.45,2.45,0,0,1,2.52-2.57c2.2,0,4.37-.18,6.55-.34a27.73,27.73,0,0,0,2.86-.41c2.44-.45,4.9-.8,7.36-1.14A22.16,22.16,0,0,1,67.5.32c.28,0,.57,0,.71-.31Z"/><path class="cls-3" d="M107.27,6.47a75.45,75.45,0,0,1,10.94-.28c5,.22,9.92.08,14.88.09,1.5,0,3-.11,4.51-.12,1.72,0,3.42.26,5.13.15,1.91-.11,3.82-.33,5.72-.26s3.54.33,5.33.27c1,0,1.92-.23,2.9-.18.44,0,.85.15,1.28.19s.42.38.41.69-.24.36-.53.33A.93.93,0,0,0,157,8.57a11.4,11.4,0,0,1,.26,3.58q0,9.87,0,19.74c0,1-.16,2-.07,3,.06.66-.35,1.44-.2,2.16a15.46,15.46,0,0,1,.13,2.14c.07,1-.23,2-.16,3,.08,1.2,0,2.39.13,3.6a19.18,19.18,0,0,1-.1,3.12c-.05,1.56.26,3.12.11,4.67-.14,1.32.09,2.64,0,4,0,.64.26.95.79,1s.63.21.59.59a.6.6,0,0,1-.74.51c-1.49-.36-3,0-4.42.05-5.76.16-11.51.22-17.26.09-2.75-.06-5.51-.18-8.26-.2s-5.52.07-8.27.09c-4.5,0-9,0-13.48,0-.32,0-.64,0-.69-.43s.08-.68.41-.73c.74-.13.66-.66.66-1.17,0-5.91,0-11.82,0-17.74,0-2.06.09-4.12,0-6.18-.07-1.6.23-3.2.13-4.8-.1-1.44,0-2.88-.11-4.33-.15-2,.26-4.08.1-6.12-.2-2.78-.1-5.55-.14-8.33a2.47,2.47,0,0,1,.26-1.25c.31-.58.06-1.08-.56-1s-.73-.27-.73-.65.45-.37.77-.38Z"/><path class="cls-4" d="M84.16,95a1.38,1.38,0,0,0-.72.15c-.17.19-.31.35-.63.3-3.55-.49-7.12-.15-10.67-.22A1.06,1.06,0,0,0,71,95.9c0,.17-.14.36-.37.3s-.21-.32-.17-.51c.11-.47.06-.82-.54-.83q-16.54,0-33.09,0c-2.38,0-4.76.11-7.13.06-.52,0-.91.3-1.4.34-.7,0-1.38-.08-2.07-.08-.47,0-.87.07-1,.63-.05.23-.18.46-.47.42s-.21-.32-.2-.54c0-.73-.07-.84-.83-.83-.54,0-1.07-.05-1.61-.1s-.82-.14-.59-.77-.1-1-.14-1.58a22.84,22.84,0,0,1,.09-3.51l0-.39c.08-.53.43-.71.92-.73h1.22q53,0,105.93,0,9.28,0,18.57-.11a4.29,4.29,0,0,1,1.07.05c.35.08.57.25.37.65a1.63,1.63,0,0,0-.36,1.63,5.88,5.88,0,0,1,.13,2.21,3.3,3.3,0,0,0,.22,2c.14.26-.1.35-.25.47a5.08,5.08,0,0,1-1.29.11c-.68,0-.89.37-.91,1a3.27,3.27,0,0,1-.18,1.42A1.11,1.11,0,0,1,146.5,96c.06-.68-.27-.86-.86-.83-.44,0-.87,0-1.31,0a1.61,1.61,0,0,1-1.24-.24c-.26-.2-.59-.11-.89-.11H97.08c-.15,0-.36-.06-.45,0-.52.48-1.13.22-1.7.29-1.59.19-3.16-.13-4.74,0a8.13,8.13,0,0,0-2,.19,2.93,2.93,0,0,1-1.14-.06c-.72-.07-1.43-.36-2.15.12C84.56,95.65,84.5,95,84.16,95Z"/><path class="cls-2" d="M88.64,50.09c.1,0,.21.12.28.1a9.67,9.67,0,0,1,4.84.06,3.81,3.81,0,0,1,1.66,1.28,26.55,26.55,0,0,1,2.63,4.79c.84,1.65,1.55,3.35,2.28,5,.57,1.34,1.43,2.57,1.56,4.1a6,6,0,0,1-.51,2.42c-.25.79-.41,1.6-.67,2.39-.6,1.83-1,3.72-1.53,5.57a5.49,5.49,0,0,0-.08,1.76,1.85,1.85,0,0,1-.7,1.82.5.5,0,0,0-.23.46,2.15,2.15,0,0,1-1.63.1c-.46-.06-.93-.17-1.26.3a1.21,1.21,0,0,1-.16.16c-.61.21-.63-.19-.6-.61,0-.6-.22-.8-.79-.58a4.65,4.65,0,0,0-.91.54,2,2,0,0,1-1.51.35c-.21,0-.43,0-.51-.25s.2-.32.28-.49c.41-.46.4-1.08.64-1.61.31-.72.2-1.55.56-2.27a29.57,29.57,0,0,1-1.38,3.83c-.2.47-.44.77-1,.47a2.06,2.06,0,0,0-1,0,36,36,0,0,1-3.87-.53c-2.24-.38-4.49-.66-6.75-.86a3.7,3.7,0,0,1-1-.19c-.52-.19-.76,0-.86.54-.21,1-.47,2-.72,3-.2.76-.35,1.61-1.18,2-.25-.19-.14-.42,0-.62a27.65,27.65,0,0,0,1.35-4.55,3.1,3.1,0,0,1,.23-.73c.21-.42.44-.75.08-1.31s.06-1.07.32-1.59a9.75,9.75,0,0,0,1.2-3.83A5.69,5.69,0,0,1,78,69.78a2.81,2.81,0,0,0,0-2,23.26,23.26,0,0,0-1-2.94,2.12,2.12,0,0,1-.12-1.43c.09-.87,0-.9-.77-.74a5,5,0,0,1-.44-1.51c-.39-1.19-1-2.28-1.43-3.45a4.79,4.79,0,0,1,.06-3.15,11.65,11.65,0,0,1,.54-1.26c.35-.74.92-.82,1.53-.27a19.93,19.93,0,0,0,1.77,1.79,2.75,2.75,0,0,0,1.38.59c.14,0,.34.12.29.28-.22.77.34.93.85,1.13l.19.1a5.52,5.52,0,0,0,1.45.54c.39.26.32.67.32,1a62,62,0,0,1-.81,11.38,1.64,1.64,0,0,0,.76,1.89,3.84,3.84,0,0,1,.87.74c.34.39.57.3.82-.1a9.24,9.24,0,0,1,1.3-1.62,1.22,1.22,0,0,0,.35-1.39c-1.07-2.66-1.11-5.57-2.09-8.25A15.32,15.32,0,0,1,83.22,58a1.51,1.51,0,0,1,.6-1.41,12.7,12.7,0,0,0,2.72-3.47,3.3,3.3,0,0,1,.47-.7,4.61,4.61,0,0,0,.33-2.95.59.59,0,0,0-.06-.14c-.08-.24-.27-.54,0-.69s.44.17.54.39A5.54,5.54,0,0,0,88.64,50.09Z"/><path class="cls-5" d="M107.83,85.72c.39-.75,1.12-.74,1.8-.71,2,.08,4,.21,6,.32.54,0,1.07,0,1.61,0,.32,0,.46-.12.39-.47-.59-3.11-.34-6.27-.58-9.4-.15-2-.1-4.09-.36-6.12-.08-.63.29-1,1-1,2.22-.06,4.44-.12,6.67-.16,4.65-.08,9.3-.23,13.93-.64a1.72,1.72,0,0,1,1.3.33,6.93,6.93,0,0,1,.24,1.86c.18,3.78.44,7.55.35,11.33,0,1.1-.09,2.2-.21,3.29a8.9,8.9,0,0,0,.21,1.73c.05.65-.21.88-.79.94-.36,0-.71.11-1.07.12-5.21.06-10.43.33-15.65.12-3.22-.12-6.44,0-9.66-.13-1.38,0-2.76-.15-4.14-.15C107.81,87,107.68,86.84,107.83,85.72Z"/><path class="cls-6" d="M74.83,31.19a1.24,1.24,0,0,0-1.54.39c-.38.43-1,.21-1.49.37a2.2,2.2,0,0,1-.68,0c.12-.5.57-.45.91-.53,1.06-.27,1.3-.55,1.33-1.64a7.84,7.84,0,0,0-.28-2.72c-.15-.45-.35-.7-.84-.72-1.51,0-3,.19-4.5.21a.81.81,0,0,0-.84.9,26.82,26.82,0,0,0,.33,3.8c0,.35.29.45.59.47.51,0,1,0,1.53,0,.3,0,.62,0,.86.22a4.88,4.88,0,0,1-2.66.46c-.52,0-.73-.18-.73-.71,0-1,0-1-1-.64a3.65,3.65,0,0,1-1.72.23c-1.31-.22-2.65,0-4-.25-.48-.1-.77-.17-.46-.7.18-.29,0-.54,0-.81-.17-5-.15-10-.14-15,0-.48.17-.94.17-1.44s.73-.65,1.37-.55a28.54,28.54,0,0,0,5.31,0,13.64,13.64,0,0,1,2.12,0,9.07,9.07,0,0,0,2.6,0,21.57,21.57,0,0,1,3.41,0c1.3,0,2.6-.11,3.9-.1,1.49,0,3,.06,4.47.16.5,0,.92.52,1.5.49.17,0,.16.21.17.36a19.5,19.5,0,0,0,.42,4.11c0,.05,0,.13,0,.14-.72.6,0,1.36-.22,2-.18.42.12.83.18,1.24.12.83-.31,1.66,0,2.48a.76.76,0,0,1-.1.59,4.37,4.37,0,0,0-.35,1.86c0,1.24-.43,2.44-.34,3.7a.94.94,0,0,1-.68.86c-.42.17-.51-.18-.7-.41s-.46,0-.53.17A4.06,4.06,0,0,0,82,31.59,1.39,1.39,0,0,1,80.84,33a5.92,5.92,0,0,1-3.31-.09c-.48-.18-1,.14-1.48-.21a1.88,1.88,0,0,1,1.55-.16,18.83,18.83,0,0,0,2.6.08.79.79,0,0,0,.88-.76c.17-1,.16-2.09.23-3.13,0-.79-.26-1.14-1.07-1.24a25.5,25.5,0,0,0-4.37-.05c-.45,0-.66.35-.66.79,0,.75-.19,1.47-.18,2.22A.84.84,0,0,1,74.83,31.19Z"/><path class="cls-7" d="M84.16,95a.44.44,0,0,1,.45.22c.06.08.2.21.23.13.35-1,1.1-.3,1.6-.31.84,0,1.66.08,2.52,0a17.5,17.5,0,0,1,4.74.08,1.24,1.24,0,0,0,.68-.08c.21-.08.49-.22.66-.15,1.16.49,2.28-.37,3.43-.06,0,0,.07.07,0,.1s0,.06,0,.06l-1.68,0c-.35,0-.49.15-.5.51-.13,2.78-.26,5.57-.41,8.35q-.51,9.49-1.43,19c-.4,4.17-.69,8.36-1,12.54a7.56,7.56,0,0,1-.78,3.16c-.25.44,0,1-.44,1.42-.29-.39-.05-.8,0-1.18a1.36,1.36,0,0,0-1.19-1.7,2.21,2.21,0,0,0-2.16.68c-.17.18-.31.49-.67.32a3,3,0,0,0,.49-1.72,112,112,0,0,0,0-14.19c-.27-4.31-.8-8.59-1.48-12.86S85.67,101,84.76,96.89A3.75,3.75,0,0,0,84.16,95Z"/><path class="cls-7" d="M70.06,94.79c1.15,0,.24.92.63,1.38.17-1.33,1.12-1.23,2-1.23,2.42,0,4.84,0,7.26,0,.6,0,1.21.27,1.85-.08a1.69,1.69,0,0,1,1.05.32c.32.27.39-.12.57-.07-1.13,2.15-2.45,4.19-3.7,6.26a95.77,95.77,0,0,0-4.94,9,3.18,3.18,0,0,0-.09,2.29c.88,3.45,2.45,6.65,3.51,10s2.59,6.67,4,10c.21.5.44.73,1,.69.77-.06.88.13.77.91-.16,1.19-.32,2.38-.44,3.57-.07.71-.3,1.15-1.12,1.26a59.58,59.58,0,0,1-8.85.63,1.43,1.43,0,0,1-1.38-1,1.25,1.25,0,0,1,.49-1.48c.17.19,0,.38,0,.58-.19,1,.19,1.47,1.18,1.51a25.62,25.62,0,0,0,4.2-.16c1.32-.17,2.65-.19,4-.44.66-.12,1-.39,1.08-1.06.11-1,.21-2,.38-3,.14-.75,0-.92-.79-.95a10.72,10.72,0,0,0-4,.89c-.36.13-.62.3-.16.73s.27.79-.24,1a1.73,1.73,0,0,1-1,.09,5.53,5.53,0,0,0-4.27.71.32.32,0,0,1-.36,0A2.41,2.41,0,0,1,74.58,136a10,10,0,0,1,2.67,0,4.28,4.28,0,0,0,.62,0c.19,0,.45,0,.48-.27s-.18-.27-.35-.34c-.75-.36-.76-.37-.11-.86.3-.22.26-.42.1-.71-3.56-6.36-6.4-13.07-9.65-19.59a8.24,8.24,0,0,1-.59-5.59c.62-3,1.13-6,1.72-9,.26-1.3.58-2.59.88-3.88.08-.34.16-.66-.29-.79-.06,0-.07-.08,0-.11S70,94.79,70.06,94.79Z"/><path class="cls-8" d="M70.06,94.79V95c-.92,0-1.84,0-2.76,0H35.66c-2,0-4,0-6,0-.55,0-.68.14-.65.7.48,9.29.2,18.57-.08,27.86-.1,3.43-.14,6.86-.23,10.29-.1,4-.17,7.93,0,11.89a4,4,0,0,1,0,.69c-.17,1-.34,1.2-1.38,1.26-.69,0-1.39,0-2.08,0s-.83-.25-.86-.87c-.18-4.53-.11-9.06,0-13.59.22-9.93.29-19.86.15-29.79,0-2.64-.16-5.27-.06-7.91,0-.45-.15-.59-.56-.6-.57,0-1.13,0-1.69-.07s-.93-.21-.76-.92a5,5,0,0,0-.18-1.67,9.79,9.79,0,0,1,.22-3.41c0,1,.07,2.1,0,3.15-.05.74.34,1.44.09,2.2-.09.28.21.36.45.37a13.51,13.51,0,0,0,1.9.15c.66-.08.89.24.8.86,0,.16-.27.43.09.48s.23-.24.21-.41c-.07-.7.33-.76.9-.79.81,0,1.6.18,2.42.11a10.65,10.65,0,0,1,1.39-.26Q49.91,94.8,70.06,94.79Z"/><path class="cls-9" d="M29.81,22.65c0,1.46,0,2.92,0,4.37a3.78,3.78,0,0,0,.06.76c.26,1.23-.16,1.77-1.42,1.88a52.39,52.39,0,0,1-6.39.13,49.67,49.67,0,0,1-7.78-.87c-1.72-.32-1.52-.61-1.64-1.93a51,51,0,0,1-.17-7.42,3.9,3.9,0,0,1,1.09-2.9,1.54,1.54,0,0,1,1-.38c3.06-.19,6.13-.06,9.19-.18C25.35,16,26.91,16,28.46,16c.53,0,.75.14,1,.68A5.46,5.46,0,0,1,29.81,19Z"/><path class="cls-8" d="M98.47,95v-.16c14.67,0,29.35,0,44,0,1.25,0,2.51.06,3.76.11.45,0,.68.16.52.67a1.73,1.73,0,0,0,.26,1.5,12.28,12.28,0,0,1,0-1.51c.08-.61.35-1.06,1.1-1,.4,0,.81,0,1.22,0a2.93,2.93,0,0,1-1.34.24c-.49,0-.65.25-.69.71a103.37,103.37,0,0,0-.27,12.81c.19,4.42.63,8.84.41,13.27-.14,2.89-.45,5.76-.6,8.65a150.12,150.12,0,0,0-.34,17.1c0,.56-.09.83-.67.83-.1,0-.19.08-.29.09-2.22.24-2.51,0-2.57-1.94-.19-5.28.13-10.55.15-15.82,0-10.44,0-20.88,0-31.33,0-1.12,0-2.25,0-3.37,0-.71-.17-.92-.9-.92-8.49,0-17,0-25.49,0H99.31C99,95,98.75,95,98.47,95Z"/><path class="cls-10" d="M79.58,55.62a2.88,2.88,0,0,1-2.34-1.25c-.4-.42-.81-.84-1.19-1.27a.56.56,0,0,0-1,.12,6,6,0,0,0-.81,4.07A5.55,5.55,0,0,0,75,59.11c.56.76.51,1.7,1,2.45.18.27.06.74.08,1.12a2.48,2.48,0,0,1,.16,1.79C76,66.4,76,68.36,75.6,70.26c-.3,1.5-.55,3-.93,4.5-.22.87-.39,1.75-.55,2.63a3.46,3.46,0,0,0,0,1.66,1.44,1.44,0,0,1-.7,1.79,2.33,2.33,0,0,0-1.17,2A5.51,5.51,0,0,1,72.07,84a1.82,1.82,0,0,0,0,1.06.75.75,0,0,0,1.25.39c.16-.12.3-.29.53-.16a2.16,2.16,0,0,0,1.2.2c6.7,0,13.4,0,20.1,0a7.86,7.86,0,0,0,1.93-.38c0,.58,0,1,.76.52.54-.31,1.6.26,1.85.86-.09.43-.45.39-.73.36-1.81-.15-3.61,0-5.42,0-3.12,0-6.25-.09-9.36,0-5.83.24-11.66.06-17.49.11-2.25,0-4.5,0-6.75,0a14,14,0,0,1-2.14-.22c-.17,0-.35-.09-.35-.33.48-.81,1.28-.61,2-.61h6.6c.58,0,.92-.17.93-.82,0-.39,1.15-1.09,1.84-1.18,1-.12,1-.12,1.07-1.2a4.55,4.55,0,0,1,0-.53c.3-1.44.28-1.49-1.2-1.79a.73.73,0,0,1-.68-.77,5,5,0,0,1,.29-1.87c.06-.18.11-.38.3-.4.85-.11.85-.8.93-1.38.38-2.69.34-5.43.68-8.12a79.71,79.71,0,0,0,.25-8.17,12.59,12.59,0,0,1,1.67-6.33,4.7,4.7,0,0,1,2.18-1.85c.29-.13.5-.39.78-.53.27.06.34.29.44.49a11.85,11.85,0,0,0,3,3.48C78.91,55.18,79.47,55.08,79.58,55.62Z"/><path class="cls-11" d="M74,50.54a2.57,2.57,0,0,1-2.7-1,1.11,1.11,0,0,1,0-1.35c.14-.19.36-.33.46,0s.29.56.65.35a.72.72,0,0,0,.37-1c-.12-.26-.24-.52-.37-.76a7,7,0,0,1,.42-7.94c.93-1.36,1.86-2.75,3.53-3.39,1.21-.45,2.52-.48,3.72-.89a4,4,0,0,1,4.41,1.27,6.94,6.94,0,0,0,2.24,1.44,1.59,1.59,0,0,1,1,.81,22.08,22.08,0,0,1,1.83,6.31,8.19,8.19,0,0,1-.8,4.54,1.11,1.11,0,0,0-.17.66c-.2.45-.44.17-.53,0-.3-.62-.78-1.12-1.1-1.74a2.1,2.1,0,0,1-.06-1.7c.11-.29.26-.56.35-.86a.57.57,0,0,0-.13-.63.45.45,0,0,0-.58,0c-.57.4-1,.18-1.35-.31a13.51,13.51,0,0,0-1.46-1.47c-.11-.1-.24-.23-.4-.17s-.12.26-.1.4A3.94,3.94,0,0,1,79,47.52c-.51,0-1,0-1.53,0-.66,0-1.09.16-1.21.85a1.42,1.42,0,0,1-.07.22A2.38,2.38,0,0,1,74,50.54Z"/><path class="cls-12" d="M57.46,86.49a6.42,6.42,0,0,0,2.08.29c7.67,0,15.33.11,23,0,3.93-.07,7.85,0,11.77-.16a16.06,16.06,0,0,0,3.25-.09,1.94,1.94,0,0,1,1,.07,1.31,1.31,0,0,0,1.17-.09c2.34-.06,4.67.05,7,0,.67,0,1-.06,1.12-.72,0,1.1,0,1.08,1.12,1.1,7.49.13,15,.33,22.48.24,2.71,0,5.42,0,8.13-.22.4,0,.67-.11.57-.57-.56-2.64.1-5.29,0-7.93-.13-3.48-.31-7-.52-10.42a3.13,3.13,0,0,1,.33,1.74c.29,4.34.43,8.68.32,13a12.61,12.61,0,0,0,0,3.19c.11.49.22.64.7.63,2,0,4,0,6,0,1.22,0,2.43,0,3.65,0a1,1,0,0,1,.87.37c.16.2.32.4.18.69s-.36.32-.63.33c-.5,0-1.08-.19-1.37.45,0-.38-.18-.46-.52-.46q-8.72.06-17.43.09l-17.28,0L48.27,88Q35.4,88,22.54,88a1,1,0,0,0-1,.51c0-.62-.46-.44-.81-.51s-1,.36-1.34-.32c-.25-.5-.18-.83.36-.88a4.59,4.59,0,0,1,2-.06c.5.18,1-.12,1.51-.12,2.5,0,5,0,7.51,0,1.12,0,2.23-.18,3.36-.17.46,0,1,.46,1.37,0s-.13-.87,0-1.33a5.84,5.84,0,0,0,0-.84c.29.07.3.32.34.55s0,.45.07.68c.17,1.19.17,1.19,1.38,1.19s2.56,0,3.84,0c.6,0,.91-.18.9-.82a11.77,11.77,0,0,1,.15-1.3c0-.24,0-.52.34-.61a5.67,5.67,0,0,1-.08,2c-.1.35,0,.53.42.53.61,0,1.22,0,1.84,0s.67-.23.55-.68a4.47,4.47,0,0,1-.08-1.67c.54.27.36.81.41,1.23.09.66.34,1,1,.9s1.49,0,2.23,0c.55,0,.86-.18.94-.75.05-.28,0-.64.42-.75a2.77,2.77,0,0,1,0,.91c-.3.79.12.83.73.82C53.11,86.48,55.29,86.49,57.46,86.49Z"/><path class="cls-13" d="M42.11,20.44c0,2.83,0,4.93-.15,7-.05.56-.29.72-.78.65a58.14,58.14,0,0,0-7.69-.45c-.76,0-1.08-.31-1.06-1.07a33.67,33.67,0,0,0,.31-4c-.33-3.5-.05-7-.21-10.53,0-.44.19-.62.63-.66a42.59,42.59,0,0,1,5.05-.14c.87,0,1.73-.13,2.59-.16.68,0,1,.26,1,1C41.91,15.12,42.23,18.14,42.11,20.44Z"/><path class="cls-14" d="M44.23,31.36c.28.18.14.46.18.7s0,.47.3.43A.38.38,0,0,0,45,32a8.93,8.93,0,0,1-.14-2.36,27.47,27.47,0,0,1-.08-3.85,23.23,23.23,0,0,0-.05-2.5c0-.74.3-.92,1-.8a27.32,27.32,0,0,0,9.11.12c1.15-.21,1.78.25,1.66,1.42a101.73,101.73,0,0,0-.28,10.33c0,1,.2,2,.16,3.05,0,.48-.18.66-.68.7-2.18.17-4.35.41-6.52.59a11.59,11.59,0,0,1-3.7-.49c-.43-.1-.49-.55-.48-.94a29.68,29.68,0,0,0-.14-3.13c0-.52-.23-.56-.62-.34A2.91,2.91,0,0,1,44.23,31.36Z"/><path class="cls-13" d="M55.33,49c-.25,1.42-.06,3.11-.3,4.78a.72.72,0,0,1-.69.7,25.26,25.26,0,0,1-5.7.22,15.86,15.86,0,0,0-2.07,0c-.92,0-1.09-.18-1.08-1.07a83.89,83.89,0,0,0-.6-9.37,12.61,12.61,0,0,1,0-2.38A1.12,1.12,0,0,1,46,40.73c2.76,0,5.52-.11,8.28.14.4,0,.47.29.57.6a14.05,14.05,0,0,1,.26,3C55.2,45.92,55.29,47.35,55.33,49Z"/><path class="cls-7" d="M97.09,85.11c-.21.65-.77.56-1.27.56l-7.57,0-13.86.05c-.33,0-.71.06-.62-.49a2.28,2.28,0,0,1,.76-1.51,8.42,8.42,0,0,0,1.37-3.59l.54-2.07c.06-.25.17-.5.45-.31a5,5,0,0,0,2.52.5c2.93.26,5.8.84,8.71,1.23.27,0,.55,0,.83.07,1.24.18,1.29.32.53,1.4a2,2,0,0,0-.62,1.51c.08.54.34.94.9,1a9.57,9.57,0,0,0,3.2-.16,1.42,1.42,0,0,0,1.12-1.13,3.41,3.41,0,0,1,1-1.84h0c.18-.28.36-.58.75-.54a19.84,19.84,0,0,0,2,.17c.26,0,.36.23.36.49A3.16,3.16,0,0,1,98,82Z"/><path class="cls-15" d="M74,50.54A3,3,0,0,0,76.18,48c.1-.58.41-.73,1-.71a8.79,8.79,0,0,0,3.78-.3A3.74,3.74,0,0,0,83,43c-.05-.24-.23-.52,0-.7s.55.09.73.26a20.59,20.59,0,0,1,1.65,1.72c.29.35.5.54.91.16a.65.65,0,0,1,.9-.09.64.64,0,0,1,.21.89c-1.06,1.55-.25,2.8.56,4.07.14.22.24.49.57.26l0,.51c-.8-.13-.81-1-1.37-1.43.69.88.27,1.84.29,2.76,0,.41,0,.87-.47,1.11-.23-.34.14-.67,0-1.11l-1.58,1.9a12.21,12.21,0,0,1-1.35,1.34,1.58,1.58,0,0,1-1.91.47.6.6,0,0,0-.81.24,1.26,1.26,0,0,1-1.31.8c0,.41.55.42.5.81-1-.13-1.3-.51-1.08-1.36A10,10,0,0,1,75.12,51a.27.27,0,0,1-.08-.27.93.93,0,0,1,.2-.4c-.19.22-.41.11-.58.21Z"/><path class="cls-16" d="M50.22,84.77c-.25.5,0,1.24-.47,1.55s-1.18.11-1.79.14-1.22,0-1.83.05-.69-.1-.71-.62a14.81,14.81,0,0,0-.23-1.74c-.13-2.06-.25-4.12-.4-6.18,0-.48-.06-.86.62-.83.41,0,.36-.33.33-.61-.07-.92-.14-1.83-.2-2.75,0-.37,0-.71.54-.49.12,1,.18,2,.23,3,0,.53.12.85.76.64a4,4,0,0,1,1.3,0,.65.65,0,0,0,.75-.66c.13-1,.23-2.08.37-3.11,0-.34,0-.93.47-.9s.28.64.35,1c0,.08,0,.14-.08.2-.09,1.07-.17,2.14-.26,3.2,0,.51,0,.86.67.82s.69.27.59.83C50.87,80.44,50.55,82.6,50.22,84.77Z"/><path class="cls-17" d="M42.54,84c-.1.81-.22,1.61-.28,2.43,0,.39-.15.54-.55.53l-5.37,0c-.4,0-.51-.2-.54-.56-.07-.69-.19-1.36-.28-2-.11-.91-.22-1.82-.34-2.73a15.05,15.05,0,0,1-.22-1.5c-.06-.47.15-.76.62-.76,1.69,0,3.36-.58,5.07-.11a5.35,5.35,0,0,0,1.44,0c.48,0,.72.14.7.66,0,1.24-.13,2.48-.22,3.72Z"/><path class="cls-18" d="M42.57,83.57A26.87,26.87,0,0,1,42.7,80c0-.5-.14-.67-.64-.67-2.11,0-4.23,0-6.34.06-.55,0-.73.26-.65.77a3.63,3.63,0,0,1,.11,1.43c-.12-.08-.12-.21-.14-.33-.42-1.93-.3-2.11,1.63-2.1.57,0,.79-.07.72-.77a52.6,52.6,0,0,1-.53-6A2.37,2.37,0,0,1,38,70.2a1.44,1.44,0,0,1,2.13.43,5.62,5.62,0,0,1,.77,2.51c0,.17,0,.39.17.48s.31-.13.43-.24c.78-.67,1.41-.76,2-.25a1.57,1.57,0,0,1,.05,2.08,10.58,10.58,0,0,1-2.18,2.25c-.12.09-.23.2-.35.3-.34.31-.76.68-.56,1.15s.69.19,1.06.19c1.46,0,1.46,0,1.44,1.46A12.71,12.71,0,0,1,42.57,83.57Z"/><path class="cls-19" d="M44.23,31.36l0,2.45a1.12,1.12,0,0,1-1,1.32,19.45,19.45,0,0,1-5,.38c-.18,0-.43,0-.49-.14-.48-1.43-1.55-.67-2.41-.68-.25,0-.51,0-.76,0a.33.33,0,0,1-.33-.36c0-.19.16-.23.33-.24a13.93,13.93,0,0,1,2.23-.1c.55.06.61-.12.64-.55,0-.69-.14-1.36-.16-2.05,0-1.31.23-1.68,1.55-1.71a39.54,39.54,0,0,1,4.49-.06c.55.05.64.42.71.84S44,31.1,44.23,31.36Z"/><path class="cls-20" d="M70.21,32H67.68c-.36,0-.68,0-.7-.5,0-1.32-.34-2.63-.31-3.95,0-.88.23-1.18,1.1-1.23,1.57-.09,3.15-.11,4.73-.16.32,0,.57.08.66.4a8,8,0,0,1,.32,4.11,1.15,1.15,0,0,1-1.06.93,2.63,2.63,0,0,0-1.3.39Z"/><path class="cls-21" d="M74.83,31.19c-.09-1.07.18-2.13.14-3.2a.67.67,0,0,1,.63-.74,24.83,24.83,0,0,1,4.8.07c1,.18,1.32.61,1.14,1.75-.15,1-.07,2-.23,3-.11.67-.39.83-1,.87-1.44.08-2.85-.2-4.27-.17a1,1,0,0,1-1.07-1C75,31.51,75,31.32,74.83,31.19Z"/><path class="cls-22" d="M48.54,14.6a14.58,14.58,0,0,1-4.75-.16c-1.44-.25-1.32-.47-1.51-1.84a14.52,14.52,0,0,1,0-2,9.51,9.51,0,0,0,.19-1.19.74.74,0,0,1,.85-.66c1.5,0,3,.09,4.49,0a1,1,0,0,1,1.11,1A22.46,22.46,0,0,1,48.54,14.6Z"/><path class="cls-23" d="M88.15,138.07c.58-.19.71-.87,1.35-1.09a2.41,2.41,0,0,1,2.84.77c.38.54-.1,1.07-.06,1.61,0,.19-.17.37-.1.59a8.43,8.43,0,0,1-1.84,3.12,3,3,0,0,1-2.24.8,12.53,12.53,0,0,1-2.66-.29c-.59-.11-.77-.43-.42-1A9.56,9.56,0,0,1,86.33,141a6.8,6.8,0,0,0,.75-1.09C87.44,139.3,87.79,138.68,88.15,138.07Z"/><path class="cls-24" d="M60.27,38.87a.42.42,0,0,1-.49-.52c0-.38.08-1.1.31-1.06.56.1,1.26-.29,1.67.34.2.3.28.29.46,0a2.19,2.19,0,0,1,2.51-.38.58.58,0,0,1,.21.47c-.09.55-.66.9-.58,1.51,0,0-.17.09-.26.11s-.34,0-.37,0a1.75,1.75,0,0,1-1.72.81.16.16,0,0,0-.13.23.2.2,0,0,0,.24.12c.35-.06.71-.11,1.05-.19a2.41,2.41,0,0,1,1.43.09c.35.12.46.3.17.6a.72.72,0,0,0-.24.62.77.77,0,0,1-.68.93l-.07,0c-.65,1.29-2.05.44-3,1a.47.47,0,0,1-.72-.32c-.06-.32,0-.57.45-.51a.22.22,0,0,0,.26-.28c0-.22-.05-.5-.37-.48a.56.56,0,0,1-.65-.66c.12-.69-.09-1.57.87-1.9.22-.07.19-.28.17-.45C60.77,38.64,60.54,38.83,60.27,38.87Z"/><path class="cls-25" d="M50.23,73.43c-.22-.34.33-1-.3-1.05-.34,0-.2.68-.25,1.06-.15,1.08-.24,2.17-.34,3.26,0,.29-.14.4-.42.41l-2.22,0c-.38,0-.41-.29-.44-.59a27.62,27.62,0,0,1-.18-3.28,9.88,9.88,0,0,1,.32,2.43,6.85,6.85,0,0,1,.05.91c0,.13.08.26.23.25s.17-.16.17-.28c0-1,0-1.94,0-2.9a25.35,25.35,0,0,0-.07-3.26c0-.19,0-.48.28-.42.5.1.95-.17,1.44-.12s.84-.14.77.57c0,.32.26,0,.4,0s.16.71.46.54,0-.3-.21-.38a1.32,1.32,0,0,1-.25-.16c.13-.38.42-.32.69-.24s.45.31.35.53C50.29,71.65,50.59,72.6,50.23,73.43Z"/><path class="cls-26" d="M30,42.43l-.17-.21a.93.93,0,0,1,.36-1c.51-.48,1-1,1.5-1.45a1.88,1.88,0,0,1,.25-.24,9.49,9.49,0,0,0,1.11-.9c.27-.25.57-.46.94-.17.9.74.63,1.69.47,2.61A3.23,3.23,0,0,1,30,42.43Z"/><path class="cls-27" d="M32,39.63l-.19.17c-.57.3-1.09-.06-1.63-.13-1.24-.16-1.24-.19-1.59,1a.36.36,0,0,1-.14.18c-.3-.17-.52-.47-.92-.49-.23,0-.31-.24-.28-.47a.3.3,0,0,1,.4-.25c.59.16.88-.48,1.39-.51.16,0,.19-.17.15-.3s-.14-.39-.39-.42-.65,0-.56-.32.44-.13.7-.08a1.14,1.14,0,0,0,1.36-.94c0-.18,0-.38.23-.44s.31.11.41.27.38.36.63.14,1.08.07,1.07-.73c0-.1.2-.18.32-.07s.59.2.51.5c-.18.65.32,1,.51,1.51-.27.17-.41,0-.56-.2a2,2,0,0,0-.28-.36A1.2,1.2,0,0,0,32,37.4c-.41.16-.22.61-.29,1S32.17,39.14,32,39.63Z"/><path class="cls-28" d="M37.21,48.5c.89,0,1.7,0,2.51,0a.68.68,0,0,1,.62.15.2.2,0,0,1,0,.28.64.64,0,0,1-.62.15,16.36,16.36,0,0,0-3.05,0c-.18,0-.37.11-.46-.1s.1-.35.3-.42.33-.08.26-.29-.3-.19-.47-.14-.41.2-.63.24a.45.45,0,0,1-.56-.4c0-.25.2-.31.42-.33a15,15,0,0,1,1.64,0,21.5,21.5,0,0,0,3-.31c.15,0,.29-.09.44-.1a.32.32,0,0,1,.36.23c0,.22-.19.16-.31.23a8.71,8.71,0,0,1-2.72.45A.75.75,0,0,0,37.21,48.5Z"/><path class="cls-29" d="M28.42,40.86c0-1.63,0-1.64,1.64-1.38.58.09,1.14.21,1.72.32-.53.53-1.05,1.07-1.59,1.59-.25.23-.47.45-.4.83-.18-.3-.29-.6-.76-.64C28.72,41.56,28.63,41.11,28.42,40.86Z"/><path class="cls-30" d="M35.76,45.17c-.48,0-1,.13-1.4-.23a.41.41,0,0,0-.36,0c-.88.53-1.89.31-2.83.53a2.13,2.13,0,0,1-1.12,0c-.17-.05-.51.09-.46-.22s.18-.56.55-.53a18.65,18.65,0,0,0,3.73-.29,1,1,0,0,1,.6,0c.8.47,1.61,0,2.41,0,.25,0,.53-.3.7.06s-.26.29-.43.42A2,2,0,0,1,35.76,45.17Z"/><path class="cls-31" d="M32,39.63a2.64,2.64,0,0,1-.46-1.83c0-.54.21-.82.8-.65s1.11.21,1.27.89c0,.15.21.2.37.22v.15c-.52-.12-.76.3-1.08.56S32.27,39.41,32,39.63Z"/><path class="cls-32" d="M30.62,35.24c-.19,0-.37,0-.28-.31s0-.79.31-1.09.48-1.21.94-.09c.12.3.56.3.88.36s.45.06.67.12.41,0,.43.21-.24.33-.42.37C32.33,35,31.51,35.09,30.62,35.24Z"/><path class="cls-33" d="M32,46a26.08,26.08,0,0,0,4.14-.25c.24,0,.49-.09.55.21s-.23.28-.41.37c-.61.27-1.23-.06-1.87.07s-1.55.62-2.35.08c-.17-.11-.38.09-.56.19s-.37.16-.48,0,.09-.3.2-.43A.84.84,0,0,1,32,46Z"/><path class="cls-34" d="M48.54,14.6c.34-1.43,0-2.9.3-4.34C49,9.44,48.53,9,47.68,8.93c-1.48,0-3,0-4.45,0a.62.62,0,0,0-.7.53c-.11.39,0,.82-.27,1.17,0-.2,0-.41,0-.61.06-1.2.26-1.39,1.46-1.39h1.76a9.16,9.16,0,0,0,2.22,0c.78-.07,1.24.45,1.32,1.5-.06,1.23-.11,2.47-.16,3.71A.83.83,0,0,1,48.54,14.6Z"/><path class="cls-35" d="M37.32,36.76a5.34,5.34,0,0,0,1.85-.25,2.26,2.26,0,0,1,1.21-.06.31.31,0,0,1,.31.36.25.25,0,0,1-.34.21c-.56-.26-1,.07-1.52.18-.78.18-1.61-.14-2.37.28a.37.37,0,0,1-.53-.16c-.09-.27.23-.27.36-.4C36.59,36.64,37,36.74,37.32,36.76Z"/><path class="cls-36" d="M37.91,39.59a4.89,4.89,0,0,0-1.33-.11c-.19,0-.39,0-.39-.27s.22-.2.36-.18c1.25.13,2.43-.42,3.68-.39.19,0,.38,0,.42.18s-.13.32-.32.35Z"/><path class="cls-36" d="M37.83,38.58c-.44-.26-.7.09-1,.13s-.61.06-.67-.31.27-.49.56-.44c1,.21,2.06-.24,3.1-.16.2,0,.47,0,.5.23s-.21.36-.42.37A8,8,0,0,0,37.83,38.58Z"/><path class="cls-37" d="M30,42.43a13.22,13.22,0,0,0,1.8.24A3.38,3.38,0,0,0,34.42,41c-.16,1-1.07,1.32-1.76,1.84,0,.35.77,0,.55.43s-.67.35-1,.32-.26-.43-.14-.71C31.28,42.83,30.52,43.05,30,42.43Z"/><path class="cls-15" d="M98,82c0-.2.08-.4.11-.6.17-1.14.05-1.28-1.08-1.35a2.54,2.54,0,0,1-.67-.11,1.06,1.06,0,0,0-1.28.39c.12-.81.76-.69,1.25-.6a10.13,10.13,0,0,0,1.82.13A2.29,2.29,0,0,1,98,82Z"/><path class="cls-2" d="M74.66,50.55c.14-.18.4-.27.53-.17s-.11.41-.07.63c-.22.22-.42.46-.76.46C74.45,51.16,75.13,51.05,74.66,50.55Z"/><path class="cls-7" d="M87.08,139.92a1.53,1.53,0,0,1-.75,1.09A2.36,2.36,0,0,1,87.08,139.92Z"/><path class="cls-34" d="M52.48,5.15a1.65,1.65,0,0,0,1,.13.65.65,0,0,1,.66.31.2.2,0,0,1,0,.27.56.56,0,0,1-.64.07.92.92,0,0,0-1.09.27,1.64,1.64,0,0,0,1.11,0,.28.28,0,0,1,.4.23c0,.25-.13.29-.33.31L51.33,7c.25.32.59.17.8.32s.42.18.34.44A.38.38,0,0,1,52,8c-.83-.34-1.65.24-2.48,0a1,1,0,0,0-.72.19c-.36.2-.53,0-.62-.3s.1-.48.4-.51h.61c.13,0,.32-.06.25-.2-.52-.92.3-.63.66-.75,0,0,.06-.08.11-.16-.51-.3-1,.13-1.46,0-.28,0-.77.2-.74-.36s.41-.37.75-.36a7.82,7.82,0,0,0,1.45-.06c.4,0,.85-.07.7-.71a.41.41,0,0,1,.48-.47c.88.18,1.74-.27,2.62,0,.18.05.46,0,.45.26s-.23.34-.44.35H52.49Z"/><path class="cls-34" d="M59.59,6c.34,0,.7,0,1,0,.19,0,.45.07.44.33s-.24.22-.41.26a8.39,8.39,0,0,1-2.06.16c-.18,0-.48-.08-.47.22s.27.18.46.14a.65.65,0,0,1,.3,0c.24.06.6.09.59.38s-.34.24-.55.22c-1.06-.11-2,.4-3.09.39a.86.86,0,0,1-.64-.27.23.23,0,0,1,0-.39c.18-.17.32-.4.64-.23s.6.07.47-.38.09-.45.38-.5S57,6.22,57,6s-.24-.17-.38-.14-.5.12-.74.18a1.78,1.78,0,0,1-.45.08C55.1,6.1,54.86,5,55,4.46c.13-.37.38-.43.72-.24a.77.77,0,0,0,.87-.06.54.54,0,0,1,.76,0c.07.07.15.21.12.25a.76.76,0,0,1-.72.35,2.41,2.41,0,0,0-.89.15c-.13,0-.25.1-.23.26a.24.24,0,0,0,.35.19c.82-.33,1.7,0,2.56-.31a6.18,6.18,0,0,1,2.26.06c.16,0,.42.08.37.29a.39.39,0,0,1-.49.26A1,1,0,0,0,59.59,6Z"/><path class="cls-34" d="M63.91,7.62c-.07-.34.14-.59.36-.85a1.4,1.4,0,0,0,.25-1.69c-.15-.26-.31-.59-.71-.29-.17.13-.4.23-.48-.07s-.06-.65.3-.67a3.52,3.52,0,0,0,1.68-.42c.2-.12.33,0,.46.17a.45.45,0,0,1,0,.63,1.63,1.63,0,0,0-.31,1.22c0,.16,0,.34.18.39s.22-.14.32-.26.16-.63.48-.42,0,.56-.16.73c-.42.35-.34.7-.08,1.07A.88.88,0,0,1,66,8.34a1.28,1.28,0,0,1-1.48.26A.89.89,0,0,1,63.91,7.62Z"/><path class="cls-34" d="M60.33,4.61a6.19,6.19,0,0,0-1.66.15c-.24.06-.58.09-.67-.22s.27-.39.5-.43a7.32,7.32,0,0,1,3.09.08.33.33,0,0,1,.21.19c0,.15-.12.22-.24.22C61.15,4.62,60.74,4.61,60.33,4.61Z"/><path class="cls-34" d="M48.44,5.28c-.31,0-.43-.2-.58-.39a.32.32,0,0,1,0-.42c.2-.22.41-.12.63,0a1.47,1.47,0,0,0,1.09,0c.22-.06.52,0,.56.25s-.23.37-.47.35A8.93,8.93,0,0,0,48.44,5.28Z"/><path class="cls-38" d="M154.54,32.73c-.07.64,0,1.13.79,1.34s.72.89.73,1.46c0,3.55.11,7.11,0,10.66s-.08,7.24-.12,10.86c0,1,0,1-1,1-1.51.08-3-.22-4.51-.15s-3.27,0-4.89,0c-2.72.09-5.45,0-8.17.09-.57,0-.71-.4-.64-.9a72.39,72.39,0,0,0,.4-10.62c0-.51.1-1,.12-1.52,0-.83-.24-1.16-1-1.32s-.94-.34-.92-1.18c0-1.27,0-2.55,0-3.83a1.48,1.48,0,0,1,.08-.75V35.82c0-.4.13-.6.56-.64a32.16,32.16,0,0,1,4.39-.3c.45,0,.81-.09.88-.61,1.54.44,3.08.06,4.62,0,2.23-.06,4.47-.29,6.71-.39.56,0,1.18.07,1.6-.47C154.23,33.19,154.11,32.79,154.54,32.73Z"/><path class="cls-38" d="M118.59,58.07H112.3c-1.23,0-1.23,0-1.23-1.27V53.05c0-.56-.08-1.12.46-1.54.2-.16.28-.5,0-.62-.52-.19-.41-.59-.41-1q0-6.41,0-12.82c0-1.1-.22-2.18-.15-3.29,0-.91.33-1.24,1.26-1.24,2.22,0,4.44,0,6.66.14.63.05.68.41.69.87,0,1.79-.24,3.56-.16,5.35,0,.85,0,1.69,0,2.54a1.69,1.69,0,0,1-.6,1.42c-2.43,2.2-4.34,4.87-6.67,7.16-.14.14-.37.32-.2.51s.35-.07.48-.19c1.39-1.29,2.5-2.82,3.79-4.2.84-.89,1.67-1.8,2.5-2.69.1-.11.2-.27.38-.19s.16.25.16.4c-.06,1.23-.06,2.45-.19,3.67a2.11,2.11,0,0,1-.81,1.17c-1.52,1.48-2.86,3.12-4.25,4.72-.37.43-.92.72-1.22,1.35a1,1,0,0,0,.93-.45c1.68-2,3.36-3.9,5.25-5.71.23.27.09.59.13.87a7.65,7.65,0,0,0,.08,2.94c.2.73-.31,1.13-.68,1.71.62,0,.76.26.74.78,0,.82-.11,1.64-.09,2.46A.84.84,0,0,1,118.59,58.07Z"/><path class="cls-39" d="M118.59,58.07a1.38,1.38,0,0,0,.32-1,18.07,18.07,0,0,1,.11-2.85c-.06,0-.1-.08-.14-.08-.23,0-.44.42-.66.12s0-.56.27-.77a1.29,1.29,0,0,0,.46-1.24,7,7,0,0,1,.1-2.94c0,.76,0,1.51,0,2.27a.46.46,0,0,0,.54.49,47.51,47.51,0,0,0,5.2-.12,5.08,5.08,0,0,1,1.82.06c1.07.23,1.5-.23,1.28-1.29a3.08,3.08,0,0,1-.09-.67c0-1.71-.14-3.41-.25-5.11-.09-1.36.16-1.54,1.53-1.49,1.73.07,3.47,0,5.21,0,.83,0,.84-.71.87-1.27,0-1.18,0-2.35,0-3.53,0-.24-.09-.52.15-.72,0,1.56,0,3.12,0,4.68,0,.56.22.84.81.86,1,0,1.44.46,1.33,1.49-.29,2.63,0,5.25-.15,7.88-.07,1.41-.25,2.82-.41,4.23-.06.44,0,.8.42,1a52.49,52.49,0,0,0-6.87-.14c-2.32,0-4.63.18-6.94.26C121.88,58.24,120.24,58,118.59,58.07Z"/><path class="cls-40" d="M154.38,33.5c-.2.81-.95.53-1.4.57-2,.19-3.95.19-5.91.37-1.45.13-2.89,0-4.33.26-.54.09-1.19.22-1.57-.43,0-3.1,0-6.19,0-9.29,0-.95.09-1.08,1-1,1.31.14,2.6.39,3.91.6a8.84,8.84,0,0,0,2.12.07c.73,0,1.45,0,2.18.08h.31c.39.22.84-.16,1.24.1a.89.89,0,0,1,.28.6,6.4,6.4,0,0,0,.33,2.22.66.66,0,0,1-.14.65,1.61,1.61,0,0,0-.32,1.06c0,.44-.17.81-.75.66-.25-.3.08-.88-.49-1a4.1,4.1,0,0,0-1.81.16.24.24,0,0,0-.18.29c0,.15.13.21.26.25a4,4,0,0,0,.91.05,1.34,1.34,0,0,1,.81.17c.07.31-.17.33-.36.33a9.66,9.66,0,0,1-1.21,0c-1-.13-1.25,0-1.71,1,.26-.4.35-1,1-1,.78,0,1.6-.28,2.34.22-.06.46-.43.34-.7.38s-.67,0-1,0-.34.13-.34.35.15.26.31.27a9.44,9.44,0,0,0,1.6.17c.25,0,.54,0,.66-.28s-.12-.47-.28-.66a.64.64,0,0,1-.13-.19c0-.44.31-.31.54-.28a.62.62,0,0,1,.56.54,6.81,6.81,0,0,1,.07,2.25c-.09.49,0,.59.49.53S153.8,33.54,154.38,33.5Z"/><path class="cls-41" d="M154.38,33.5c-.67.57-1.52.19-2.27.42-.23.07-.33-.22-.24-.5s.4-.77,0-1.24c-.16-.19.2-.61.11-1-.14-.68-.44-.73-1-.56a.09.09,0,0,1-.15,0,4.9,4.9,0,0,0-2-.13c-.44,0-.94.15-.88.81a.31.31,0,0,1-.35.39c-.17,0-.39.07-.49-.12s.14-.33.29-.44.12-.05.12-.09c.25-1.27,1.19-.85,2-.8a2.73,2.73,0,0,0,1.38-.23.31.31,0,0,1,.46,0c.68,0,.69-.44.58-.88s0-.59.26-.77a.52.52,0,0,0,.2-.73c-.63-.84-.07-1.84-.43-2.69.82-.19,1.67,0,2.49-.21.37-.1.34.24.36.5.06.92-.22,1.81-.17,2.73a10.36,10.36,0,0,1-.06,2.36v2.45C154.28,33,154.42,33.24,154.38,33.5Z"/><path class="cls-38" d="M154.54,30.28a35.55,35.55,0,0,1,.14-4.73c.08-.57,0-.91-.78-.71a8.13,8.13,0,0,1-2,.06c-.4-.07-.85.15-1.22-.16a3.86,3.86,0,0,1,1.88,0,2,2,0,0,0,.91,0c1.68-.34,1.42-.08,1.32,1.24s-.1,2.59-.12,3.89A.53.53,0,0,1,154.54,30.28Z"/><path class="cls-38" d="M150.39,24.74c-.92,0-1.84,0-2.75,0-.52,0-1.06.17-1.55-.14A25.77,25.77,0,0,1,150.39,24.74Z"/><path class="cls-42" d="M74.53,83.76a7.13,7.13,0,0,1-.76,1.51c-.06,0-.18.06-.19.11-.11.67-.48.67-1,.45a1.37,1.37,0,0,1-.78-1.6,7.8,7.8,0,0,0,.32-1.64,2.37,2.37,0,0,1,1.42-2.06A1,1,0,0,0,74,79.21a2.64,2.64,0,0,1-.09-1.91c.38-2,.76-4,1.22-6a26.93,26.93,0,0,0,.61-4.64,30,30,0,0,0,.31-4c.22-.15.3-.61.71-.38s.4.54.32.93a4.18,4.18,0,0,0,.29,2.06c.37,1.49,1.39,2.91.83,4.62-.43,1.29-.42,2.7-.94,4a10.78,10.78,0,0,1-.46,1.05c-.32.6-1,1.23-.08,1.91a.27.27,0,0,1,0,.41,3.55,3.55,0,0,0-.8,2A33.18,33.18,0,0,1,74.53,83.76Z"/><path class="cls-43" d="M84.05,56.54a1.62,1.62,0,0,0-.59,1.74,27.59,27.59,0,0,0,1,4.49,15.38,15.38,0,0,1,.73,3.44,12,12,0,0,0,.92,3.15,1.23,1.23,0,0,1-.34,1.56A6.46,6.46,0,0,0,84.16,73c-.17.35-.37.39-.63.08a8.83,8.83,0,0,0-1.72-1.51,1,1,0,0,1-.36-1.16,60.84,60.84,0,0,0,.86-12c0-.26.14-.58-.18-.77s-.74,0-.88-.43a.38.38,0,0,1,.33-.15,2.58,2.58,0,0,0,2.19-.51C83.84,56.41,84,56.48,84.05,56.54Z"/><path class="cls-15" d="M95.1,80.35a10.14,10.14,0,0,0-1,2.38c-.08.42-.43.61-.82.73a9.72,9.72,0,0,1-3.56.27,1,1,0,0,1-1-.71,1.64,1.64,0,0,1,.14-1.6c.27-.34.51-.69.78-1,.4-.5.28-.71-.35-.7a1.24,1.24,0,0,1-.35-.1c.42,0,.83-.11,1.26.15s.32-.37.57-.47a.59.59,0,0,1,.45.26c0,.23-.37.13-.3.35s.27,0,.38.07c.86.24,1.45-.3,2-.73a1.23,1.23,0,0,1,1.21-.15c.36.11.44.26.23.6S94.4,80.4,95.1,80.35Z"/><path class="cls-44" d="M84.05,56.54H84a4.24,4.24,0,0,1-2.72.62c-.26.16-.41-.06-.58-.17h0l-.1-.1c-.28-.24-.88-.3-.8-.71s.64-.13,1-.2a.48.48,0,0,0,.43-.36A.93.93,0,0,1,82.64,55a.71.71,0,0,0,1-.13,18.54,18.54,0,0,0,3.16-3.4c.13-.19.23-.58.5-.45s.12.49,0,.75-.15.48-.22.72a18,18,0,0,1-2.48,3.52C84.43,56.22,84.23,56.38,84.05,56.54Z"/><path class="cls-45" d="M91.23,79.53a.36.36,0,0,1-.45-.26c.18-.92.74-1.7.91-2.63a4.14,4.14,0,0,0,.19-1,.41.41,0,0,1,.35-.44.35.35,0,0,1,.38.18.42.42,0,0,1,0,.5c-.61.83-.53,1.89-.9,2.8A5.72,5.72,0,0,0,91.23,79.53Z"/><path class="cls-1" d="M95.78,62.75c1,.62,1,1.62,1.14,2.52,0,.21,0,.52-.3.53s-.25-.27-.29-.46C96.15,64.5,96,63.67,95.78,62.75Z"/><path class="cls-15" d="M80.67,57l.58.17c.22.29.7,0,.88.41C81.6,57.48,81,57.55,80.67,57Z"/><path class="cls-46" d="M139.57,85.33a1,1,0,0,1,.31,1.15c-.15.33-.55.15-.84.16-7.14.31-14.27.18-21.41.11-2.94,0-5.88-.07-8.81-.11-.39,0-.83.07-.81-.52a.79.79,0,0,1,.81-.85,20,20,0,0,1,2.68,0,52.34,52.34,0,0,0,5.73.28c.39,0,.75,0,1,.41a.78.78,0,0,0,.75.3c5.51-.34,11-.28,16.53-.22,1.14,0,2.27.06,3.41,0C139.46,86.07,139.43,85.67,139.57,85.33Z"/><path class="cls-47" d="M127.65,75.28c.44-1,.67-1.1,1.36-.15a15.17,15.17,0,0,1,1.27,2.59c.05.09,0,0,0,.07.49.9.39,1.09-.64,1.09s-1.76.21-2.65.17-1-.2-.6-1l.58-1.4A8,8,0,0,0,127.65,75.28Z"/><path class="cls-48" d="M126.42,78c-.22.87-.18.93.69.91s1.52-.1,2.28-.13c1.18,0,1.19,0,.89-1.09a.81.81,0,0,1,.39.91c-.13.37-.53.33-.85.35l-3,.13c-.28,0-.58,0-.71-.29A.61.61,0,0,1,126.42,78Z"/><path class="cls-48" d="M127.65,75.28a2,2,0,0,1-.65,1.35A4.12,4.12,0,0,1,127.65,75.28Z"/><path class="cls-49" d="M70.79,15.46a9.19,9.19,0,0,0-2.33.35,1.79,1.79,0,0,1-.83,0c-.24,0-.56-.1-.58-.41s.31-.26.5-.35c.47-.21.91-.55,1.33.07.07.1.18,0,.28,0a3.66,3.66,0,0,1,2.7-.11c.59.16,1.15-.09,1.72,0,.14,0,.29,0,.39.1s.11.35,0,.42c-.35.17-.82.55-1.07.35-.59-.48-1.32,0-1.86-.44C71,15.4,70.86,15.45,70.79,15.46Z"/><path class="cls-50" d="M72.66,137.17a5.17,5.17,0,0,1,4.39-1c.18,0,.35.08.53.09.39,0,.88,0,1-.41s-.35-.59-.72-.7a1.21,1.21,0,0,1-.23-.18c1.34-1.07,3-1.19,4.51-1.54a6.42,6.42,0,0,1,1.28.08c.31,0,.38.22.34.47-.19,1.44-.39,2.88-.58,4.32,0,.31-.23.41-.52.45a48.42,48.42,0,0,1-9.16.68,1.22,1.22,0,0,1-1-1.79c.06-.16.25-.27.19-.48Z"/><path class="cls-51" d="M17,18.72a.76.76,0,0,0-.67,0c-.24.12-.51.41-.72.12-.09-.13.13-.5.25-.74s.31-.39.6-.12.69.53,1.07,0c.13-.19.39-.11.51.11s0,.36-.25.42S17.33,18.77,17,18.72Z"/><path class="cls-52" d="M54.21,33.71c0,.72,0,1.44,0,2.15s-.27,1-1,.89a8.81,8.81,0,0,0-1.13.11c-.5,0-.81-.19-.78-.71.07-1.56-.17-3.11-.17-4.67,0-.56.2-.81.77-.75h.53c1.77,0,1.79,0,1.78,1.83v1.15Z"/><path class="cls-53" d="M50.71,34.61c0,.59,0,1.18,0,1.76s-.16.66-.62.66-.85-.05-.91-.58c-.12-1.13-.25-2.27-.3-3.4-.05-.89.74-.66,1.22-.76s.61.29.6.72,0,1.07,0,1.6Z"/><path class="cls-54" d="M47.34,35.54c0-.38,0-.77,0-1.15a.42.42,0,0,1,.44-.43.4.4,0,0,1,.48.36,4.84,4.84,0,0,1,0,2.42c0,.21-.12.41-.37.41a.49.49,0,0,1-.52-.46,8.83,8.83,0,0,1,0-1.15Z"/><path class="cls-55" d="M39.66,84.65a14.12,14.12,0,0,1-3-.3c-.33-.06-.53-.18-.5-.54s.28-.39.56-.39a27,27,0,0,0,4.49-.3c.3,0,.6,0,.6.41s.24.83-.36,1A8.61,8.61,0,0,1,39.66,84.65Z"/><path class="cls-56" d="M49.63,70.52c.25,0,.52-.13.73.06a.53.53,0,0,1-.33.86.38.38,0,0,1-.39-.39c0-.17,0-.35,0-.53Z"/><path class="cls-3" d="M129.91,48.81c-.37-.18-.84-.35-.68-.9s.69-.6,1.19-.59h1.82c.17,0,.42.06.4-.21a.3.3,0,0,0-.42-.23c-.74.26-1.45-.14-2.19,0-.39.06-.76-.08-.8-.51s.34-.61.65-.65a23.12,23.12,0,0,0,3.1-.33c.34-.09.84.71.61,1.05-.58.86-.17,1.76-.23,2.63-.08,1.25,0,1.22-1.27,1.21-.5,0-1,.17-1.51.14s-1,0-1.26-.52S129.75,49.23,129.91,48.81Z"/><path class="cls-38" d="M144.66,32h-.08c-.63,0-1.49.13-1.47-.74s.94-.47,1.45-.61a2,2,0,0,1,1.2.05c.27.1.67.09.6.54s-.23.74-.71.75-.66,0-1,0Z"/><path class="cls-38" d="M150.85,30.58H151c.42.18.83.43.72.94s-.6.47-1,.44c-.61,0-1.21-.11-1.81-.15-.38,0-.35-.3-.35-.56s.18-.48.52-.52C149.66,30.67,150.28,30.9,150.85,30.58Z"/><path class="cls-38" d="M150.12,25.36h1.14a.46.46,0,0,1,.51.52c0,.34-.14.55-.49.55-.81,0-1.62,0-2.43,0a.55.55,0,0,1-.58-.5c0-.32.25-.45.49-.49.44-.07.9-.07,1.36-.1Z"/><path class="cls-38" d="M150.06,32.43c.42,0,.75,0,1.08,0s.58.17.57.49a.56.56,0,0,1-.52.57,11.33,11.33,0,0,1-2.47,0,.49.49,0,0,1-.44-.45c-.07-.29.13-.39.37-.49A3.91,3.91,0,0,1,150.06,32.43Z"/><path class="cls-38" d="M144.7,32.43h1.1a.49.49,0,0,1,.49.56c0,.29-.2.6-.49.6-.8,0-1.59-.05-2.39-.11a.53.53,0,0,1-.51-.48c-.05-.34.25-.37.48-.47A4.14,4.14,0,0,1,144.7,32.43Z"/><path class="cls-38" d="M150.17,28.11a2.85,2.85,0,0,1-1,0c-.27,0-.54-.05-.54-.38a.52.52,0,0,1,.48-.52,10.17,10.17,0,0,1,2.34-.17.65.65,0,0,1,.65.77c0,.43-.38.5-.74.38A6.26,6.26,0,0,0,150.17,28.11Z"/><path class="cls-38" d="M151.31,30h-2.15c-.35,0-.6-.1-.61-.51s.17-.55.55-.57.91-.14,1.36-.14C151.47,28.74,151.63,29,151.31,30Z"/><path class="cls-57" d="M127.05,77.74l.89-1.72c.17-.16.15-.51.49-.5s.19.26.29.38,0,.25.14.32c.27.43.36.94.63,1.37h0c.19.34.06.57-.3.58a16.9,16.9,0,0,1-1.74.09C127.15,78.25,126.9,78.13,127.05,77.74Z"/><path class="cls-48" d="M127.05,77.74c0,.24.13.44.43.42l1.74-.11c.31,0,.24-.27.27-.46.35.46.17.71-.34.74a14.76,14.76,0,0,1-1.76,0C127,78.33,126.7,78.21,127.05,77.74Z"/><path class="cls-48" d="M129.49,77.59a2.92,2.92,0,0,1-.63-1.37A2.35,2.35,0,0,1,129.49,77.59Z"/><path class="cls-48" d="M128.72,75.9c-.35-.58-.54-.06-.78.12,0-.32.11-.66.46-.68S128.74,75.64,128.72,75.9Z"/></g></g></g></svg>