<svg xmlns="http://www.w3.org/2000/svg" viewBox="0 0 18 17.25"><defs><style>.cls-1{fill:#010101;opacity:0.3;}</style></defs><g id="Layer_2" data-name="Layer 2"><g id="Layer_1-2" data-name="Layer 1"><path class="cls-1" d="M17.62,7.5H12V6.75h4.12a.38.38,0,0,0,.38-.37v-6A.38.38,0,0,0,16.12,0h-9a.38.38,0,0,0-.37.38v6a.38.38,0,0,0,.37.37h4.13V7.5H.38a.38.38,0,1,0,0,.75H.75v8.63a.38.38,0,0,0,.75,0V10.5h.75v6.38a.38.38,0,0,0,.37.37H6.38a.38.38,0,0,0,.37-.37V10.5H16.5v6.38a.38.38,0,0,0,.75,0V8.25h.37a.38.38,0,1,0,0-.75ZM7.5.75h8.25V6H7.5ZM3,12.75H6v1.5H3ZM6,12H3V10.5H6ZM3,16.5V15H6v1.5ZM16.5,9.75H1.5V8.25h15Z"/></g></g></svg>