<svg xmlns="http://www.w3.org/2000/svg" viewBox="0 0 47.45 47.45"><defs><style>.cls-1{fill:#d1d3d4;}.cls-2{fill:none;stroke:#d1d3d4;stroke-miterlimit:10;stroke-width:2px;}</style></defs><g id="Layer_2" data-name="Layer 2"><g id="Layer_1-2" data-name="Layer 1"><path class="cls-1" d="M12,30.07a.56.56,0,0,1-.39-.17.53.53,0,0,1,0-.75l8.85-8.42a.53.53,0,0,1,.75,0l5.36,5.57L36,17.24a.53.53,0,0,1,.75,0,.53.53,0,0,1,0,.75l-9.8,9.45a.52.52,0,0,1-.37.14.53.53,0,0,1-.38-.16l-5.36-5.57-8.47,8.06A.51.51,0,0,1,12,30.07Z"/><path class="cls-1" d="M36.33,24.92a.53.53,0,0,1-.53-.53V18.15H29.57a.53.53,0,1,1,0-1.06h6.76a.53.53,0,0,1,.53.53v6.77A.53.53,0,0,1,36.33,24.92Z"/><circle class="cls-2" cx="23.72" cy="23.72" r="22.72"/></g></g></svg>