<svg xmlns="http://www.w3.org/2000/svg" viewBox="0 0 47.45 47.45"><defs><style>.cls-1,.cls-4{fill:none;}.cls-2{fill:#d1d3d4;}.cls-3{fill:#a7aaac;}.cls-4{stroke:#d1d3d4;stroke-miterlimit:10;stroke-width:2px;}</style></defs><g id="Layer_2" data-name="Layer 2"><g id="Layer_1-2" data-name="Layer 1"><path class="cls-1" d="M36.63,23.86C34,27.28,29,29.42,23.75,29.42s-10.27-2.14-12.92-5.56m25.8,0C34,20.35,29,18.25,23.71,18.25s-10.23,2.1-12.92,5.57"/><path class="cls-2" d="M37,23.66a.42.42,0,0,1,0,.43,14.33,14.33,0,0,1-5.6,4.2,19.81,19.81,0,0,1-15.22,0,14.4,14.4,0,0,1-5.6-4.2s0,0,0-.08a.35.35,0,0,1,0-.43,13.67,13.67,0,0,1,5.6-4.2,19.71,19.71,0,0,1,15.18,0,14,14,0,0,1,5.64,4.2S36.94,23.62,37,23.66ZM31,27.59a13.69,13.69,0,0,0,5.13-3.73A13.37,13.37,0,0,0,31,20.08a18.81,18.81,0,0,0-7.32-1.44,18.61,18.61,0,0,0-7.28,1.44,13.4,13.4,0,0,0-5.13,3.74,13.77,13.77,0,0,0,5.13,3.77A18.49,18.49,0,0,0,23.75,29,18.43,18.43,0,0,0,31,27.59Z"/><circle class="cls-3" cx="23.71" cy="23.82" r="3.97"/><circle class="cls-4" cx="23.72" cy="23.72" r="22.72"/></g></g></svg>