<svg xmlns="http://www.w3.org/2000/svg" viewBox="0 0 47.45 47.45"><defs><style>.cls-1{fill:none;stroke:#d1d3d4;stroke-miterlimit:10;stroke-width:2px;}.cls-2{fill:#d1d3d4;}</style></defs><g id="Layer_2" data-name="Layer 2"><g id="Layer_1-2" data-name="Layer 1"><circle class="cls-1" cx="23.72" cy="23.72" r="22.72"/><path class="cls-2" d="M25.46,9.81a11.74,11.74,0,0,0-3.24,5.12A10.4,10.4,0,0,0,22.4,19a4.91,4.91,0,0,1-2-3.85.32.32,0,0,0-.5-.2,15.25,15.25,0,0,0-5.2,11.15c0,4.51,2.52,7.39,6.28,9.45.22.12.52-.17.42-.4a3.51,3.51,0,0,1-.4-1.54,5.41,5.41,0,0,1,2.7-4.56,5.39,5.39,0,0,1,2.7,4.56A3.69,3.69,0,0,1,26,35.18c-.11.23.19.52.41.4,3.77-2.06,6.28-4.93,6.28-9.45,0-3.9-1.9-6.44-3.68-8.73s-3.44-4.3-3.22-7.27a.32.32,0,0,0-.35-.32Zm-.25,1.08c.09,2.78,1.72,4.8,3.35,6.88,1.78,2.28,3.55,4.66,3.55,8.36,0,4-2,6.48-5.23,8.42a3.28,3.28,0,0,0,.13-.91,5.92,5.92,0,0,0-3.17-5.2.3.3,0,0,0-.26,0,5.92,5.92,0,0,0-3.17,5.2,3.78,3.78,0,0,0,.13.92c-3.19-1.94-5.23-4.46-5.23-8.43a14.7,14.7,0,0,1,4.61-10.32A5.7,5.7,0,0,0,22.65,20a.31.31,0,0,0,.45-.32,11.13,11.13,0,0,1-.3-4.59A9,9,0,0,1,25.21,10.89Z"/></g></g></svg>