<svg xmlns="http://www.w3.org/2000/svg" viewBox="0 0 24.6 18.3"><defs><style>.cls-1{fill:#010101;opacity:0.2;}</style></defs><g id="Layer_2" data-name="Layer 2"><g id="Layer_1-2" data-name="Layer 1"><path class="cls-1" d="M4.8,7.5h15a.29.29,0,0,0,.3-.3V.3a.29.29,0,0,0-.3-.3H4.8a.29.29,0,0,0-.3.3V7.2A.29.29,0,0,0,4.8,7.5ZM5.1.6H19.5V6.9H5.1ZM16.8,3h-.14l-1-1.6a.31.31,0,0,0-.41-.11l-.07.06-2.79,3a.85.85,0,0,0-.66-.09L10.87,3a.86.86,0,0,0,.23-.59.9.9,0,0,0-1.8,0,.91.91,0,0,0,.14.49L8.16,4.8H6.9a.3.3,0,0,0,0,.6H8.32a.3.3,0,0,0,.25-.13l1.35-2a.87.87,0,0,0,.28,0h.15l.93,1.28a.85.85,0,0,0-.18.53.9.9,0,0,0,1.8,0,.84.84,0,0,0-.07-.35l2.56-2.7.74,1.24a.9.9,0,0,0,.08,1.27A.9.9,0,0,0,17.4,3.23.9.9,0,0,0,16.8,3Zm-6.6-.9a.3.3,0,1,1-.3.3A.29.29,0,0,1,10.2,2.1ZM12,5.4a.3.3,0,1,1,.3-.3A.29.29,0,0,1,12,5.4Zm4.8-1.2a.3.3,0,1,1,.3-.3A.29.29,0,0,1,16.8,4.2Zm-5.4,7.2H7.5a.29.29,0,0,0-.3.3v6a.29.29,0,0,0,.3.3h3.9a.29.29,0,0,0,.3-.3v-6A.29.29,0,0,0,11.4,11.4ZM7.8,13.5h3.3v.9H7.8ZM11.1,12v.9H7.8V12ZM7.8,17.4V15h3.3v2.4Zm16.76-6.74a.29.29,0,0,0-.26-.16,2.74,2.74,0,0,0-1,.18c.58-2.63-.19-3.89-.23-3.94a.29.29,0,0,0-.38-.11c-.94.47-1.23,2.18-1.32,3.27a1.72,1.72,0,0,0-1.6-.6.32.32,0,0,0-.25.35l0,.08s.15.31.34.77H17.7V9a.9.9,0,0,0-.9-.9H14.4a.9.9,0,0,0-.9.9v1.5H5.4V9a.9.9,0,0,0-.9-.9H2.1a.9.9,0,0,0-.9.9v1.5H.3a.3.3,0,1,0,0,.6h.9v1.5H.3a.29.29,0,0,0-.3.3v1.2a.29.29,0,0,0,.3.3H3v2.16l-1.55.31a.3.3,0,0,0,.06.59h.06L3,17.17V18a.3.3,0,0,0,.6,0v-.83L5,17.45a.29.29,0,0,0,.35-.23.3.3,0,0,0-.23-.35L3.6,16.56V14.4H6.3a.29.29,0,0,0,.3-.3V12.9a.29.29,0,0,0-.3-.3H5.4V11.1h8.1v1.5h-.9a.29.29,0,0,0-.3.3v1.2a.29.29,0,0,0,.3.3h2.7v2.16l-1.55.31a.3.3,0,0,0,.06.59h.06l1.43-.28V18a.3.3,0,1,0,.6,0v-.83l1.43.28a.3.3,0,1,0,.12-.58h0l-1.55-.31V14.4h2.7a.29.29,0,0,0,.3-.3V12.9a.29.29,0,0,0-.3-.3h-.9V11.1h2.39a9.68,9.68,0,0,1,.6,2.7.31.31,0,0,0-.29.31h0l.3,3.6A.3.3,0,0,0,21,18h2.4a.3.3,0,0,0,.3-.28l.3-3.6a.3.3,0,0,0-.27-.32h-.31A7.84,7.84,0,0,1,24.55,11,.29.29,0,0,0,24.56,10.66ZM.6,13.2h.6v.6H.6Zm1.2-.3V9a.29.29,0,0,1,.3-.3H4.5a.29.29,0,0,1,.3.3v4.8h-3Zm4.2.3v.6H5.4v-.6Zm6.9,0h.6v.6h-.6Zm1.2-.3V9a.29.29,0,0,1,.3-.3h2.4a.29.29,0,0,1,.3.3v4.8h-3Zm4.2.3v.6h-.6v-.6Zm4.38-5.83a6.34,6.34,0,0,1-.15,3.83l-.06.07a1.87,1.87,0,0,0-.2.29,6.2,6.2,0,0,0-.35-.84A6.34,6.34,0,0,1,22.68,7.37Zm-1.34,3.55h0a5.9,5.9,0,0,1,.56,1.59v0a4.92,4.92,0,0,0-.05,1.27h-.57a11.91,11.91,0,0,0-1-3.89A1.82,1.82,0,0,1,21.34,10.92Zm1.78,6.48H21.28l-.25-3h2.34Zm-.3-3.6h-.36a3.12,3.12,0,0,1,.47-2.15,1.46,1.46,0,0,1,.81-.49,7.49,7.49,0,0,0-.92,2.64Z"/></g></g></svg>