<svg xmlns="http://www.w3.org/2000/svg" viewBox="0 0 160.59 203.96"><defs><style>.cls-1{fill:#fff;}.cls-2{fill:#76777b;}.cls-3{fill:#545559;}.cls-4{fill:#f9dbb1;}.cls-5{fill:#262422;}.cls-6{fill:#f0efee;}.cls-7{fill:#343433;}.cls-8{fill:#f0f0f0;}.cls-9{fill:#c89a5a;}.cls-10{fill:#f7f7f7;}.cls-11{fill:#c8c7c8;}.cls-12{fill:#f2f2f2;}.cls-13{fill:#4b4445;}.cls-14{fill:#e4bb7f;}.cls-15{fill:#eec994;}.cls-16{fill:#c79c61;}.cls-17{fill:#c73a2d;}.cls-18{fill:#f2d8af;}.cls-19{fill:#efd19e;}.cls-20{fill:#bb9154;}.cls-21{fill:#c3995d;}.cls-22{fill:#eac593;}.cls-23{fill:#bd9156;}.cls-24{fill:#e9c38b;}.cls-25{fill:#b8955e;}.cls-26{fill:#eac68e;}.cls-27{fill:#e5e5e5;}.cls-28{fill:#3d4049;}.cls-29{fill:#bf9458;}.cls-30{fill:#828487;}.cls-31{fill:#bb985f;}.cls-32{fill:#dcdcdc;}.cls-33{fill:#eaca98;}.cls-34{fill:#dbdad9;}.cls-35{fill:#57565a;}.cls-36{fill:#ebce9d;}.cls-37{fill:#ddd6d5;}.cls-38{fill:#eecd9e;}.cls-39{fill:#f3d5aa;}.cls-40{fill:#f0f0ef;}.cls-41{fill:#8e8e92;}.cls-42{fill:#bf9c69;}.cls-43{fill:#c5965c;}.cls-44{fill:#e2cba3;}.cls-45{fill:#c95b51;}.cls-46{fill:#d0c9c4;}.cls-47{fill:#d26357;}.cls-48{fill:#ebc48c;}.cls-49{fill:#c1473e;}.cls-50{fill:#bd3e31;}.cls-51{fill:#5d5b5b;}.cls-52{fill:#e5e9e3;}.cls-53{fill:#ead8c5;}.cls-54{fill:#d9cbac;}.cls-55{fill:#b5a07b;}.cls-56{fill:#c5d2db;}.cls-57{fill:#bfcbd2;}.cls-58{fill:#b7cbcf;}.cls-59{fill:#ca3b49;}.cls-60{fill:#fafafa;}.cls-61{fill:#6d6d71;}.cls-62{fill:#f5d19e;}.cls-63{fill:#f8f7f8;}.cls-64{fill:#323132;}.cls-65{fill:#e1e1e0;}.cls-66{fill:#f5f4f5;}.cls-67{fill:#f8f4f5;}.cls-68{fill:#f4f3f4;}.cls-69{fill:#86878b;}.cls-70{fill:#3c3a34;}.cls-71{fill:#e9cea7;}.cls-72{fill:#e1e1e2;}.cls-73{fill:#938a8c;}.cls-74{fill:#58595a;}.cls-75{fill:#79777c;}.cls-76{fill:#80786b;}.cls-77{fill:#5d5237;}.cls-78{fill:#807568;}.cls-79{fill:#d6d6d9;}.cls-80{fill:#747099;}.cls-81{fill:#575051;}.cls-82{fill:#b25f54;}.cls-83{fill:#505846;}.cls-84{fill:#fefefe;}.cls-85{fill:#383838;}.cls-86{fill:#f6d6a9;}.cls-87{fill:#f1efee;}.cls-88{fill:#565557;}.cls-89{fill:#4f4d4e;}.cls-90{fill:#d5d2d1;}.cls-91{fill:#f7d7a8;}.cls-92{fill:#90847b;}.cls-93{fill:#e7dbcf;}.cls-94{fill:#3f352a;}.cls-95{fill:#e0bb3e;}.cls-96{fill:#e1b764;}.cls-97{fill:#5a5856;}.cls-98{fill:#766e6e;}.cls-99{fill:#d8d5d5;}.cls-100{fill:#f8f8f7;}.cls-101{fill:#a5a19a;}.cls-102{fill:#887965;}.cls-103{fill:#887e67;}.cls-104{fill:#fdfdfb;}.cls-105{fill:#f4ddba;}.cls-106{fill:#e1c58f;}.cls-107{fill:#e3e2e2;}.cls-108{fill:#efefee;}.cls-109{fill:#ad9052;}.cls-110{fill:#e1e0de;}.cls-111{fill:#4a676a;}.cls-112{fill:#b0c8cf;}.cls-113{fill:#a0babf;}.cls-114{fill:#56696f;}.cls-115{fill:#4f6671;}.cls-116{fill:#566d76;}.cls-117{fill:#a5b9bf;}.cls-118{fill:#405c64;}.cls-119{fill:#a4bfc7;}.cls-120{fill:#566d77;}.cls-121{fill:#aec5cd;}.cls-122{fill:#40565d;}.cls-123{fill:#5d6d71;}.cls-124{fill:#f6d1a1;}.cls-125{fill:#f2ece9;}.cls-126{fill:#ad4837;}.cls-127{fill:#e6be84;}.cls-128{fill:#e5be83;}.cls-129{fill:#c9c9c8;}.cls-130{fill:#dad2bd;}.cls-131{fill:#d6d7d8;}.cls-132{fill:#e2d6c5;}.cls-133{fill:#c99a6b;}.cls-134{fill:#d76860;}.cls-135{fill:#d5c292;}.cls-136{fill:#c6372d;}.cls-137{fill:#eee;}.cls-138{fill:#e1dedf;}.cls-139{fill:#e1e1df;}.cls-140{fill:#3f656f;}.cls-141{fill:#4c6672;}.cls-142{fill:#df7c88;}.cls-143{fill:#dfd9d7;}.cls-144{fill:#ce8354;}.cls-145{fill:#dd825e;}.cls-146{fill:#3f3f41;}.cls-147{fill:#494a4e;}.cls-148{fill:#47484a;}.cls-149{fill:#555658;}.cls-150{fill:#dfaa75;}.cls-151{fill:#dfbd90;}.cls-152{fill:#493d39;}.cls-153{fill:#f3d9b5;}.cls-154{fill:#666668;}.cls-155{fill:#dfdee4;}.cls-156{fill:#eae9e9;}.cls-157{fill:#fbfbfa;}.cls-158{fill:#f5f5f6;}.cls-159{fill:#cfba9d;}.cls-160{fill:#ebeaea;}.cls-161{fill:#505051;}.cls-162{fill:#3d3f41;}.cls-163{fill:#dde1df;}.cls-164{fill:#d2727d;}.cls-165{fill:#e0e0e0;}.cls-166{fill:#f6bb28;}.cls-167{fill:#eae9e8;}.cls-168{fill:#f9f6f0;}.cls-169{fill:#c7ad92;}.cls-170{fill:#d2d2d1;}.cls-171{fill:#aa3b35;}.cls-172{fill:#f8f6f6;}.cls-173{fill:#ebebed;}.cls-174{fill:#5b4b3e;}.cls-175{fill:#dcd6ce;}.cls-176{fill:#423123;}.cls-177{fill:#d8bb96;}.cls-178{fill:#3f2e25;}.cls-179{fill:#e7d2b1;}.cls-180{fill:#726157;}.cls-181{fill:#796050;}.cls-182{fill:#e8dbc2;}.cls-183{fill:#f8f4ed;}.cls-184{fill:#414043;}.cls-185{fill:#343336;}.cls-186{fill:#343237;}.cls-187{fill:#676769;}.cls-188{fill:#3f3f46;}.cls-189{fill:#f4f2f2;}.cls-190{fill:#436169;}.cls-191{fill:#3f5c61;}.cls-192{fill:#e7e6e5;}.cls-193{fill:#eed4a9;}.cls-194{fill:#e7d1b3;}.cls-195{fill:#f4dfbe;}.cls-196{fill:#675857;}.cls-197{fill:#cacad1;}.cls-198{fill:#333235;}.cls-199{fill:#666667;}.cls-200{fill:#737374;}.cls-201{fill:#676667;}.cls-202{fill:#343435;}.cls-203{fill:#38373b;}.cls-204{fill:#3a3a39;}.cls-205{fill:#39393b;}.cls-206{fill:#383839;}.cls-207{fill:#373839;}.cls-208{fill:#7c7b7e;}.cls-209{fill:#353135;}.cls-210{fill:#363638;}.cls-211{fill:#393939;}.cls-212{fill:#363637;}.cls-213{fill:#313033;}.cls-214{fill:#36353a;}.cls-215{fill:#7a7979;}.cls-216{fill:#323233;}.cls-217{fill:#616063;}.cls-218{fill:#ded0bb;}.cls-219{fill:#e9d9c4;}.cls-220{fill:#3f413d;}.cls-221{fill:#353536;}.cls-222{fill:#3a3a3c;}.cls-223{fill:#333335;}.cls-224{fill:#38383a;}.cls-225{fill:#333;}.cls-226{fill:#343436;}.cls-227{fill:#7e7e7e;}.cls-228{fill:#333334;}.cls-229{fill:#313131;}.cls-230{fill:#303030;}.cls-231{fill:#333234;}.cls-232{fill:#323234;}.cls-233{fill:#777779;}.cls-234{fill:#3a3a3e;}.cls-235{fill:#323133;}.cls-236{fill:#2f2f31;}.cls-237{fill:#2d2d30;}.cls-238{fill:#2e2e30;}</style></defs><g id="Layer_2" data-name="Layer 2"><g id="Layer_1-2" data-name="Layer 1"><g id="_4GVXTt" data-name="4GVXTt"><path class="cls-1" d="M0,203.93Q0,102.68,0,1.43C0,.15.4,0,1.51,0Q80.31,0,159.1,0c1.18,0,1.48.25,1.48,1.46q-.06,100.49,0,201c0,1.39-.37,1.53-1.61,1.53Q79.51,203.92,0,203.93Z"/><path class="cls-2" d="M133.74,42.6,150,52a6.55,6.55,0,0,1,2.9,4.52c-2.64,0-4.55,1.74-6.73,2.85-1.67.84-3,2.38-5.12,2.29a.75.75,0,0,1-.32-.47,1.37,1.37,0,0,1,0-.57c.77-2.44.68-2.73-1.52-4-2.95-1.67-5.82-3.46-8.8-5.06-1.5-.8-1.62-.76-1.64.85,0,2.23,0,4.47,0,6.7a2.37,2.37,0,0,0,1.25,2.2c1.46.9,3,1.62,4.44,2.65a1.65,1.65,0,0,1,.35.48c.17,2.06-.63,3.15-2.55,3.5a5.69,5.69,0,0,1-1.89-.86c-1.16-.77-1.56-.42-1.55.89,0,4,0,8,0,12a10.83,10.83,0,0,1,0,1.71c-.42,2.86.31,5.13,3.14,6.38a3.32,3.32,0,0,1,1,1.41c.22,6.26.26,12.52,0,18.78-.91,1.38-1.59.4-2.32-.22a5.63,5.63,0,0,0-3.29-2.74,35.36,35.36,0,0,1-4.85-2.69,3.5,3.5,0,0,0-2.34-.61c-4.42-2-8.44-4.73-12.64-7.14-1-.59-2.27-.93-2.93-2.07-.94-1.33-2.42-1.91-3.75-2.69-.87-.5-1.85-.82-2.31-1.82a5.16,5.16,0,0,1,.32-2.58,3.63,3.63,0,0,0-.4-3.06c-.51-.89-1.48-1.17-2.27-1.69-.53-.34-1.21-.48-1.36-1.22.13-.57,0-.85-.6-.47-.53.11-1-.24-1.45-.3-3.58-2-7-4.27-10.64-6.06a78.7,78.7,0,0,1-9.19-5.55c-1.85-.94-1.34-2.9-1.77-4.4-.6-2.14-.61-4.42-1.16-6.6-.06-.25,0,.06,0-.19-.26-1.23.9-2.39-.36-3.84-.91-1-.71-3-1-4.61s-.25-3.19-.61-4.76S67.3,39.8,67,38.22c-.84-5-1.58-10.1-2.54-15.12-1-5.51-1.82-11.08-2.8-16.6-.13-.73-.67-1-1-1.58a.63.63,0,0,1,0-.61,1.57,1.57,0,0,0,1.38-.46c1.13-1.34,2.35-1.12,3.74-.32Q84.37,14.28,103,25a6.88,6.88,0,0,1,3.85,5.35,4,4,0,0,1,.36,2.42v58q0-28.74,0-57.48c0-.89-.12-1.82.77-2.43,1.62-1.57,3.19-1.5,5.12-.31,4.88,3,9.88,5.83,14.83,8.72.47.56.22,1.2.22,1.81a2.45,2.45,0,0,0,3.8,2.23C132.5,42.94,132.92,42.21,133.74,42.6Z"/><path class="cls-3" d="M141,61.48c2.94-1,5.33-2.94,8-4.36,1.24-.65,2.42-1.51,3.9-.65A10.57,10.57,0,0,1,154,61.65q0,38.58,0,77.16c0,4.1,0,8.19,0,12.29,0,3.35-.26,6.63-2.15,9.56a3.51,3.51,0,0,0-.29,1.09c-1.05.21-1.75-.43-2.49-1-1.11-1.11-3-.56-4-1.93-.17-.79-.82-.45-1.25-.46-1.83-.07-3.66.06-5.49-.12a1.22,1.22,0,0,1,.78.46c-1,1.3-2.53,1.37-4,1.39-.88-.36-.87-1-.47-1.71s.67-1.55-.17-2.23-2-1.35-1.79-2.76c.14-11.25,0-22.5.06-33.75,0-9.2.3-18.4.15-27.6-.07-4-.19-8.05-.15-12.07.17-3.61-.57-7.31.45-10.82C134.29,65.32,136.84,62.24,141,61.48Z"/><path class="cls-3" d="M60.69,4.31a1.84,1.84,0,0,0,0,.33,4.31,4.31,0,0,1,1,3c.08,17.39,0,34.77,0,52.16a5.05,5.05,0,0,1-.4,2.43c-.14.2-.3.46-.55.49a13.3,13.3,0,0,0-8.66,4.92c-.06.07-.23,0-.34-.09a2.33,2.33,0,0,1-.21-1.84,50.94,50.94,0,0,0,.17-7.81,2.68,2.68,0,0,0-1.94-2.75c-.82-.27-1.64-.63-1.81-1.53-.5-2.54-2.41-3.76-4.41-4.92-.55-.32-1.11-.61-1.63-1-.69-.75-2-.82-2.33-1.94.78-.5.39-1.28.39-1.92,0-8.42-.07-16.83-.06-25.25,0-3.81,1.29-6.86,4.92-8.8,3.81-2,7.41-4.45,11.16-6.61C58.09,2,59.25,2.35,60.69,4.31Z"/><path class="cls-4" d="M13.53,93.33c-.1-1.8,1.61-1.76,2.56-2.38,2.64-1.75,5.4-3.31,8.11-4.94,1.05-.38,2.05-.56,2.76.61a.67.67,0,0,1-.21.79c-2.5,1.41-3.05,2.46-2.51,4.76,3.08,4.46,10.85,4.27,13.4-.33a3.39,3.39,0,0,0-1.78-4A9.44,9.44,0,0,0,30,86.62c-.73.08-1.52.42-2.13-.34-.55-1.26-.1-2.52-.05-3.78.07-.17.16-.39.33-.44,4.15-1,7.21-4,10.79-6a4.82,4.82,0,0,1,.5-.27,1.68,1.68,0,0,1,1.42-.08,10.36,10.36,0,0,1,.39,3.59,3,3,0,0,0,2,3c2.82,1,5.12,2.87,7.68,4.3a5.08,5.08,0,0,0,2.53.78,1.32,1.32,0,0,1,.51.16c.38.43.86.77,1.24,1.18.82.9,1.33,1.93.42,3.06a1.27,1.27,0,0,0-.08,1.57c-1.11,1.79-2.91,2.72-4.63,3.76-.88.53-2.17.8-1.75,2.32.1.86.84,1.1,1.43,1.42,7.28,4,14.27,8.52,21.48,12.64.86.5,1.92.81,2.26,1.93-.63.91-1.33.46-2,.08-1.58-.91-3-2.18-5.09-1.71-.64.14-1-.55-1.13-1.12a2.82,2.82,0,0,0-2.16-2,7.89,7.89,0,0,1-3.41-2c-1.9-1.68-5-.56-6.47-3.4l-.42.79c1.4.93,2.34,2.39,3.9,3.15.5.23,1.24.43,1,1.17s-1,.62-1.65.53a4.4,4.4,0,0,1-.9-.32,12.59,12.59,0,0,0-4.78-1.21,5.9,5.9,0,0,1-2.81-1.11,2.45,2.45,0,0,0-2-.42C50,109,53.37,111.05,57,112.45c.65.25,1.44.6,1.08,1.49a1.16,1.16,0,0,1-1.8.46c-1.42-.88-2.88-.1-4.31-.25-2.77-.69-5-2.51-7.41-3.82-3.35-1.8-6.56-3.86-10-5.47-1.46-.11-2.3-1.26-3.33-2-2.76-2.08-6.24-3-8.82-5.27-2-1.74-4.93-1.69-6.51-4C15.29,92.69,14.31,93.56,13.53,93.33Z"/><path class="cls-5" d="M134.8,187a1,1,0,0,0-.31,1c.55,2.48-.9,3.51-2.84,4.58-5.46,3-10.78,6.25-16.18,9.35-.5.29-1,1-1.8.49-.83-1.5-.41-3.13-.44-4.7-.07-3.93-.46-7.9.78-11.75,1-1.59,2.8-2.21,4.33-3.07,3.78-2.13,7.54-4.32,11.31-6.47a11.44,11.44,0,0,0,1.49-.52c.59-.39,1.08-.93,1.68-1.31,2.1-1.19,2.38-1.09,3,1.14a8.88,8.88,0,0,0-.7,5.64A16.11,16.11,0,0,1,134.8,187Z"/><path class="cls-2" d="M109.12,134c-.34-1.45-.83-2.8-2.32-3.49,0-.66.6-.63,1-.74a5.76,5.76,0,0,0,4.15-2.35,14,14,0,0,1,3.51-2.22,4,4,0,0,0,3.57-1.93,55,55,0,0,1,6.8-4.16c1-.61,2.09-1.21,3.11-1.86s1.88-1.14,3-.39a5.47,5.47,0,0,1,.71,2.85,22.93,22.93,0,0,1,.21,4.38c0,7.7.06,15.4-.06,23.1-.82,1.88-1.86.31-2.81.18-.86-.69-.69-1.68-.75-2.6a15.63,15.63,0,0,0-.15-3.55,10.63,10.63,0,0,0-4.7-3.35c-2.2-.65-4.06-2.07-6-3.21a2.37,2.37,0,0,0-2.5-.3,2.27,2.27,0,0,1-2,0,1.93,1.93,0,0,0-2.28.33C110.37,135.87,109.6,135.43,109.12,134Z"/><path class="cls-6" d="M38.44,123.67a1.84,1.84,0,0,0,1.26-.31c2.16-1.68,4.22-1,6.29.24,3.94,2.39,7.9,4.73,11.86,7.08a3.91,3.91,0,0,0,2.14.71c.09.71-.41,1.05-.92,1.26-2.1.88-3.8,2.47-5.92,3.31-3.69,1.78-6.93,4.3-10.51,6.27a15.91,15.91,0,0,0-3.91,2.39c-.77.78-1.37.13-1.91-.47a67.86,67.86,0,0,1-2.33-8.4c.09-1.64-.93-2.15-2.32-2.4a9.12,9.12,0,0,1-5.32-3.16c1.42-.63,2.93-1,4.34-1.72a4,4,0,0,0,2.41-3.09,3.74,3.74,0,0,0,4.06-1.06A2.71,2.71,0,0,1,38.44,123.67Z"/><path class="cls-7" d="M114.48,185.9c-1.1,4-.74,8-.76,12.07,0,1.5,0,3,0,4.49-4.71-2.23-9-5.17-13.61-7.61-.11-.06-.19-.19-.31-.22-3.42-.95-3.49-3.49-3-6.3-.3-2.93,0-5.87-.14-8.81,0-1.21.54-1.09,1.29-.64,3.23,2,6.61,3.63,9.83,5.6,1.47.89,2.93,1.83,4.82.94A1.67,1.67,0,0,1,114.48,185.9Z"/><path class="cls-8" d="M97.22,156.8a7.07,7.07,0,0,0,.82-4.64,16.32,16.32,0,0,1,.11-4.72c.17-1-.45-1.76-.19-2.64,1.87-1.2,2.45-1,2.76.95.18,1.12,1.12,1.11,1.87,1.31,3.26.85,6.08,2.75,9.25,3.81.39,1.67-.44,3.26-.34,4.93s.34,1.84,1.78,1c1-.63,2-1.29,3.12-1.87.44-.23,1-.57,1.39-.08s-.13,1.08-.56,1.41a15.73,15.73,0,0,1-3.47,2.35c-1.84.75-2.15,2.11-2.26,3.78,0,.9.22,2-1.07,2.37-2.52-.51-4.38-2.32-6.62-3.38a11,11,0,0,1-2.06-1.15c-.15-.09-.29-.2-.43-.3-.8-.48-1.61-.94-2.39-1.44-.36-.24-.84-.49-.83-.94C98.12,156.79,97.89,156.58,97.22,156.8Z"/><path class="cls-9" d="M70.3,144.86c-.23.3-.41.75-.72.86C67,146.7,67,149,67.09,151.1c.25,7.93-.53,15.85-.14,23.78a1.6,1.6,0,0,1-.39,1.42c-.57,1.14-1.39,1.49-2.53.78a3.59,3.59,0,0,1-.42-2.22c.11-5.56-.06-11.12.25-16.69A86,86,0,0,0,63.69,144a41.61,41.61,0,0,1,0-6.51c0-.8.49-2.17-1.27-1.8-1.59.95-3,2.21-5,2.48-1.47-.16-2.89.43-4.37.31-.42,0-.86.15-1.24-.17a.91.91,0,0,1,.32-1c4-2.42,8.24-4.53,12.18-7.09.62-.4,1.3-.87,2.13-.46s.72,1.1.72,1.81c0,1.59,0,3.18,0,4.76a3.7,3.7,0,0,1,.54,2.65c0,1.62,0,3.23,0,4.84,0,.77.14,1.36,1.14,1,.39-.12.77-.36,1.22-.19A1.54,1.54,0,0,1,70.3,144.86Z"/><path class="cls-10" d="M111.79,151c-2.16-.58-4.46-.8-6.25-2.37-1-.9-2.36-.76-3.56-1.11-2-.59-2.24-.95-1.44-3L98,144.8c1-1.82,2.85-2.52,4.52-3.45.77-.44,1.65-.66,2.4-1.17l0,0c.3-.39.82-.47,1.17-.79l0,0a7.09,7.09,0,0,1,1.93-1.93,4,4,0,0,0,1.18-3.51c.75,1.15,1.53,1.3,2.37.09.14-.21.46-.52.55-.48,1.92.86,4-.49,5.8.32,3,1.37,5.67,3.36,8.88,4.34,1.1.34,1.49,1.9,2.71,2.35.4.85.15,1.71.15,2.93-1.24-1.34-2.19-.8-3.31-.2a30.59,30.59,0,0,0-10.07,8.07C115,152.9,114.16,152.75,111.79,151Z"/><path class="cls-11" d="M71.06,164c3.37-1.3,6.75-2.57,10.1-3.93a2.24,2.24,0,0,1,2.61.51c1.41,1.3,2.79,2.63,4.17,4,.55.54,1,1.17,2,1a10.28,10.28,0,0,1,.32,8.51l-2.61,0c-.67.4-1.23,0-1.77-.28-4.44-2.7-9-5.14-13.5-7.82C71.64,165.51,70.53,165.25,71.06,164Z"/><path class="cls-12" d="M77.59,180.13c1.39,0,2.54.77,3.78,1.2,1,.35,1,1,.36,1.76-3.23,3.49-6.48,7-9.68,10.49-.65.71-1.25.58-2,.36a56.53,56.53,0,0,1-8-3c-.69-.3-1.39-.55-2.09-.82C65.8,186.76,71.61,183.3,77.59,180.13Z"/><path class="cls-13" d="M114.48,185.9c-2.1-.22-4.21,1-6.32-.44-2.46-1.66-5.09-3.07-7.68-4.52a10.23,10.23,0,0,1-3.73-2.61v10c-.55-2.72,0-5.46-.2-8.19,0-.74.14-1.51-.58-2.11a1.64,1.64,0,0,1-.27-1.81c1.62-5.05.37-10.21.63-15.31.06-1-1.26-1.92-.4-3.11,1.45-.36,2.31.82,3.39,1.37a3.27,3.27,0,0,0,2.44.62h0a2.29,2.29,0,0,0,1.63,1.1c1.9,2.38,4.8,3.27,7.24,4.84a20.21,20.21,0,0,1,3.55,2.17.64.64,0,0,1-.21.5,6.4,6.4,0,0,1-6.18-.62c-3-1.88-6.2-3.28-9.13-5.23a1.54,1.54,0,0,0-1.38-.38c0,3.84,0,7.72,0,11.6a1.74,1.74,0,0,0,.84,1.62c5.15,2.92,10.09,6.24,15.47,8.77a2.36,2.36,0,0,0,1.64-.33c4.36-2.82,9.13-5,13.34-8,.67-.06,1,.36,1.26.9-4.32,3-9.06,5.19-13.52,7.92C115.71,185,115.16,185.57,114.48,185.9Z"/><path class="cls-14" d="M90.21,174a46.55,46.55,0,0,0-.32-8.51c.46-9-.73-17.91-.73-26.87,0-.78-.42-1.06-1-1.44-1.83-1.25-4-2-5.62-3.5-1.5-.66-2.49-2.17-4.19-2.5-.32-.06-.62-.29-.52-.67.23-.8.93-.72,1.56-.75a9.68,9.68,0,0,1,2.48.94c2.92,2.41,6.49,3.66,9.73,5.51.48.27,1.17.29,1.06,1.11a17,17,0,0,0-.27,3.63c0,12.47,0,24.94,0,37.42,0,2.29-.2,4.57-.17,6.86-1.36,1.18-1.46.09-1.49-.86-.07-2.73-.08-5.45-.1-8.18A3.23,3.23,0,0,0,90.21,174Z"/><path class="cls-15" d="M10.78,137.88c.25-2-.58-3.26-2.68-3.56A1.47,1.47,0,0,1,7,133.68a100,100,0,0,1-3.17-11.51c-.22-1-1-1.85-.46-2.92,1.65-.36,2.81.78,4.16,1.36,1.65.7,3.07,1.79,4.7,2.52.69.3,1.37.73,1.36,1.66-.27.34-.66.3-1,.36-.21,0-1.37-.9-.62.52.26.51-.32.88-1,.64s-1-.58-1.61-.84a32.57,32.57,0,0,0,7.09,3.31c.75.2,1.65.6,1.62,1.41s-1.16,1.22-1.84,1.69c-.49.35-.94-.11-1.15-.65s-.31-1.13-1.15-1.28c-.43.89-.64,1.66.45,2.34a3.27,3.27,0,0,1,1.09,1.76,2.64,2.64,0,0,0,1.64,1.74c.6.21,1.3.39,1.24,1.23s-.7.83-1.24,1a7.49,7.49,0,0,0-.86.41,1.77,1.77,0,0,1-1.58-.31,2.66,2.66,0,0,1-.4-.36c-.2-.23-.5-.39-.69-.61-1-1.2-1.75-1.13-2.17.48A.4.4,0,0,1,10.78,137.88Z"/><path class="cls-16" d="M92.22,185.23A4.59,4.59,0,0,1,91.8,183q0-22,0-44.06c0-.84,0-1.67.79-2.19.54-1.22,1.75-1.64,2.76-2.26,2.56-1.56,5.28-2.86,7.81-4.47a2.39,2.39,0,0,1,1.81-.45c.62.27,1.48.36,1.06,1.41-2,1.67-4.46,2.42-6.64,3.72a4.32,4.32,0,0,1-.69.32c-3.71,1.3-5,3.39-4.91,7.77.16,8.13-.17,16.32-.29,24.47-.08,5.43-1.22,10.8-.66,16.24A2,2,0,0,1,92.22,185.23Z"/><path class="cls-17" d="M151.75,174.44c.05,3.34-1,6.54-1.21,9.84-.15,1.08-.49,1.74-1.81,1.2s-2,1.09-3.21,1.21a11.14,11.14,0,0,1-3.16,1.67,2.24,2.24,0,0,1-1-.1c-1.15-.52-2-1.56-3.36-1.7a.67.67,0,0,1-.6-.65c0-.46.34-.66.72-.74.94-.19,1.9.05,2.68-.13-.06-2.74-.46-5.44,0-8.16a5.09,5.09,0,0,1,4.18-1.16c.92.19.94-.66,1.28-1.14.71-.71,1.3-.41,1.84.22.84,1.15,1.54,1.22,2.13-.22a1.49,1.49,0,0,1,1.09-1C152.06,173.48,151.91,174,151.75,174.44Z"/><path class="cls-18" d="M13.48,124.83c-1.34-1.83-3.64-2.14-5.37-3.36a35.52,35.52,0,0,0-4.65-2.35l-.24.06a7.1,7.1,0,0,0-1.07.62l-.24.08c-.8-1.63.48-2.36,1.49-2.94s1.48.38,1.94,1.19c.83,1.46,4.78,3,6.19,2.45.59.43.92,1.17,1.67,1.4s.59-1.08,1.34-1c.21,2.34,1.5,3.11,3.29,1.69,2.71-2.15,5.85-3.55,8.77-5.33,2.75-1.68,5.6-3.2,8.4-4.79a8.28,8.28,0,0,1,1-.52c1.29-.54,2.13-.36,2,1.29,0,.77,0,1.53-.07,2.3-.13,0-.29,0-.35-.06-1.14-1.83-1.11-1.79-3.11-.53-4.69,2.92-9.66,5.36-14.36,8.28-.62.39-1.7.58-1.67,1.38.05,1,1.25.85,1.95,1.2a13.45,13.45,0,0,0,4.3,2.79,4.42,4.42,0,0,1,2.13,1.53c2.16.85,3.72,2.9,6.4,2.85A2,2,0,0,1,35,135.58c-1.9-.55-2.72.13-2.62,2.15a3,3,0,0,1-.07,1.15c-.1.31-.25.6-.61.66s-.69-.25-.84-.62a5.28,5.28,0,0,1-.43-1.67,4.33,4.33,0,0,0-3.12-4.11,5.61,5.61,0,0,1-1.15-.68c-2.41-2.37-5.66-3.26-8.56-4.77A11.88,11.88,0,0,1,13.48,124.83Z"/><path class="cls-19" d="M13.1,122.52c-.7-.5-1.68-.78-1.57-1.94.3-6.23,1-12.44,1.28-18.68a47.52,47.52,0,0,1,.72-8.57c1.16-1,2.17-1.14,3.17.31a3.9,3.9,0,0,0,3.21,1.71c1.46.09,2.21,1.8,3.59,2.43.88.4,1.66,1.1,2.6,1.52a20,20,0,0,1,6.82,4.55c.48.52,1.3-.07,1.69.62a3.45,3.45,0,0,1-1.58.83c-3.89-2.29-7.89-4.4-11.63-7-.95-.65-2.21-1.66-3.67-.83-1.68-1.05-1.57-1-1.81,1-.88,7.6-1.37,15.23-2.32,22.81A1.86,1.86,0,0,1,13.1,122.52Z"/><path class="cls-20" d="M43.87,159.55A78.16,78.16,0,0,0,41,171.07c-1.54,7.57-3.37,15.08-5,22.63-.29,1.34-1.27,1.36-2.19,1.66-.82-2.11.29-4.08.51-6.1.11-1.12.48-2.22.64-3.35,1.55-7.54,3.16-15.07,4.61-22.63.44-2.25,1.11-4.43,1.47-6.7a2.48,2.48,0,0,1,1-2c1.9.27,2.29.79,2.32,2.94A3.61,3.61,0,0,1,43.87,159.55Z"/><path class="cls-21" d="M20.36,126c-1.21.68-1.95-.41-2.67-.92s.2-.9.61-1.14c3.38-2,6.77-4,10.2-6,2.38-1.33,4.77-2.64,7-4.14,1.84-1.2,2-1.1,2.19,1.1a2.67,2.67,0,0,0,.27.69c.24,2.68-.09,5.39.43,8l-.39.81-.83.47c-1.84,1.08-2.59.65-2.68-1.54,0-.89.31-1.75.29-2.63,0-.72.39-1.67-.37-2.1s-1.26.37-1.87.67c-3.65,2.23-7.4,4.27-11.15,6.35A1.86,1.86,0,0,1,20.36,126Z"/><path class="cls-22" d="M61.87,135.59a1.59,1.59,0,0,1,1.9-.91c.81.32.73,1.55.63,2.19-.55,3.52.12,7,.1,10.49,0,9.06-.2,18.11-.31,27.17,0,.83,0,1.66.06,2.49.1.25.57.39.24.77-1.1.15-1.36-.45-1.5-1.44a71.16,71.16,0,0,1-.36-9.68c0-4.08,0-8.15,0-12.22,0-1.42.81-2.84,0-4.26-.7-.73-.38-1.67-.5-2.54.12-.19-.37-.16-.12-.11a1.51,1.51,0,0,1-2.13,1.13A1.46,1.46,0,0,1,60.4,147c2-1.15,1.72-3,1.7-4.84C62,139.94,62.51,137.75,61.87,135.59Z"/><path class="cls-23" d="M14.57,137.56a.56.56,0,0,0,.13.28,1.43,1.43,0,0,1-.23,1.19c-.92,1.88-.28,3.88-.46,5.82a3,3,0,0,1-.56,2.17c-1.41,4.42-2,9-3.07,13.51-.77,3.2-1.47,6.42-2.2,9.63-.54.27,0,1.53-1,1.25C5.92,171.08,6.11,170,6,169a27.9,27.9,0,0,1,1.1-6.21c1.49-6.6,2.71-13.26,4-19.9.4-1.46.75-2.94,1-4.44C12.5,136.68,12.86,136.56,14.57,137.56Z"/><path class="cls-24" d="M79.54,130.19c-.45.11-1-.22-1.43.55,2,.22,3.17,1.67,4.46,2.94-1.78-.25-3-1.54-4.53-2.35-5.41-3-10.78-6-16.07-9.21-2.63-1.58-5.57-2.72-7.83-4.91a27.28,27.28,0,0,1-2.74-1.7c-.73-.59-1-1.25.24-1.61,2.08.36,3.68,1.67,5.4,2.72,1.29.45,2.15,1.65,3.5,2,2.53,1.32,5,2.77,7.45,4.2,3.45,2,7,3.91,10.29,6.15C78.77,129.26,79.55,129.34,79.54,130.19Z"/><path class="cls-25" d="M106,131c.06-.85-.9-.67-1.17-1.19-.15-.84.52-1.09,1-1.39,8.37-4.74,16.61-9.7,25-14.41a3.41,3.41,0,0,1,1.24-.48.68.68,0,0,1,.52.23,2.64,2.64,0,0,1,.15,1.73,2.11,2.11,0,0,1-1,1.38c-2-.13-3.31,1.42-4.89,2.26a48.25,48.25,0,0,0-7.48,4.51,20.22,20.22,0,0,1-3.81,2c-1.31.34-2.05,1.71-3.43,2-1.1,1.38-2.84,1.74-4.25,2.63l-1.14.32C106.71,130.92,106.43,131,106,131Z"/><path class="cls-26" d="M40,163.26a40.28,40.28,0,0,1-1.1,6.17q-1.61,8-3.22,16c0,.17-.19.32-.28.48-1-1.63-.67-3.56-.31-5.09.74-3.06,1.15-6.18,1.93-9.24A50.92,50.92,0,0,0,38.42,164c.81-2.42.6-3.05-1.11-3.38l-.22-.1a3.38,3.38,0,0,0-1.94-.89,1.33,1.33,0,0,1-.47-.21c-.84-.56-1-1.58-1.7-2.28l-9.22-5.3c.13-1.14,1-.87,1.69-.86,1.55.6,3.07,1.25,4.66,1.77,3.16,2,6.85,3.13,9.39,6.08C39.64,160.29,40.18,161.74,40,163.26Z"/><path class="cls-17" d="M141,177.05c-.2,2.29.86,4.62-.08,7.46,0-.12.36-.21.65-.14s.81.24.77.69-.56.42-.91.43a18.79,18.79,0,0,0-3.71.26c1.5.53,3,.95,3.7,2.47l-.26.13c-.57,0-1.17.19-1.71-.16l-.39-.07c-.6-.2-1.22-.33-1.83-.51-1.86-.56-2.36-1.18-2.14-3.13a52.14,52.14,0,0,0-.16-5.6,3.83,3.83,0,0,1,1-2.74c1.12-.42,2.29-.14,3.43-.29A1.75,1.75,0,0,1,141,177.05Z"/><path class="cls-27" d="M71.06,164c.12.29.15.72.37.84C76.81,167.91,82.2,171,87.6,174c-1.46,1.58-3.57,1.77-5.45,2.25-.58.15-1.57-1.09-2.29-1.78-3-2.93-6-6-9.23-8.67C69.81,165.15,69.56,164.28,71.06,164Z"/><path class="cls-28" d="M28.23,82.25c0,1.33-.07,2.67-.1,4a.74.74,0,0,0,.17.33,1.5,1.5,0,0,1,0,2.07.8.8,0,0,1-1,.28,1.44,1.44,0,0,1-.74-1.75l.3-.4c-.2-1,.31-2,.37-3,0-3.83.09-7.66.09-11.49q0-14.87,0-29.73c0-2.81.77-3.26,3.27-1.93,3.06,1.64,5.83,3.78,9,5.2a8.83,8.83,0,0,1,2.32,1.44c-.56.56-1.2.27-1.81.16a4.54,4.54,0,0,1-1-.26c-2.64-1.42-5.2-3-7.8-4.49-2.33-1.33-2.7-1.11-2.7,1.53q0,17.53,0,35.07A5.6,5.6,0,0,1,28.23,82.25Z"/><path class="cls-29" d="M13.1,122.52c.43-4.82.84-9.65,1.29-14.47.32-3.48.65-7,1-10.45.08-.67-.45-1.8.7-1.86,1-.06,1.54.75,1.62,1.77Q16.14,109.24,14.54,121C13.8,121.25,15.09,123.42,13.1,122.52Z"/><path class="cls-30" d="M108,30.8a8.76,8.76,0,0,0-.4,3q0,28.5,0,57a4.73,4.73,0,0,1-.22,2.31c-.85-.23-.53-.93-.53-1.39q0-30.7,0-61.41Z"/><path class="cls-31" d="M59.93,148.61c1-.05,1.56-1,2.7-1.27v2.85c-2.36-.22-4,1.43-5.82,2.41-4,2.12-7.88,4.47-11.82,6.7a3.66,3.66,0,0,1-1.12.24,19.12,19.12,0,0,1,0-2.27,2,2,0,0,0-1.89-2.49,3,3,0,0,1,.36-3.08c1,.3,1.33,1.48,2.42,1.57.65,1,.08,2.11.4,3.33,2.8-1.58,5.37-3.34,8.11-4.81a4.75,4.75,0,0,0,1.67-.75C56.55,150.19,57.86,148.6,59.93,148.61Z"/><path class="cls-32" d="M77.59,180.13c-.89,1.45-2.55,1.74-3.86,2.53-4,2.42-8.1,4.74-12.14,7.14a3.58,3.58,0,0,1-1.66.33L58,189.34c-.18-.57.24-.82.61-1,4.93-2.76,9.81-5.63,14.65-8.55a2.71,2.71,0,0,1,1.64-.39A6.61,6.61,0,0,1,77.59,180.13Z"/><path class="cls-15" d="M11.58,142.91c-.44,3.84-1.42,7.58-2.09,11.38C8.63,159.21,7.15,164,6.54,169c-.31.51-.13,1.08-.17,1.62s-.08.89-.73.7c-1.11-1.09-.26-2.32-.24-3.5.09-3.56,1.18-7,1.82-10.42,1.12-6.09,3.19-12,3.28-18.29a1.6,1.6,0,0,1,.23-.52A6.72,6.72,0,0,1,11.58,142.91Z"/><path class="cls-33" d="M51.87,114.08c-.92.27-1,.65-.13,1.12a4.73,4.73,0,0,1,2.4,2c-2.36-.15-3.89-2.12-6-2.75a93.83,93.83,0,0,1-8.17-4.64c-1.58-1.84-3.82-2.67-5.88-3.78a2.26,2.26,0,0,1-1-.74c.12-1,.94-.77,1.58-.83,5.08,2.21,9.69,5.29,14.51,8a8,8,0,0,0,2.76,1.24c.09.09.13.17.09.26S51.91,114.08,51.87,114.08Z"/><path class="cls-34" d="M59.94,186.65a62.75,62.75,0,0,1,6.9-7.84c2.23-2.28,4.37-.65,6.53.16-.18.86-.91,1.2-1.57,1.56-3.42,1.86-6.7,3.95-10.12,5.8C61.15,186.62,60.63,187.14,59.94,186.65Z"/><path class="cls-35" d="M39.94,109.82a24.56,24.56,0,0,1,8.17,4.64,20.38,20.38,0,0,0-3.5,1.89c-2.32,1.28-4.21.3-4.48-2.35C40,112.62,40,111.21,39.94,109.82Z"/><path class="cls-36" d="M38.42,164a44.43,44.43,0,0,1-1.49,9.44,41.93,41.93,0,0,0-1.54,12.51l-1.56,9.45c-1.45-.44-1.77-1.38-1.4-2.79,1.48-5.51,2.1-11.2,3.35-16.76C36.67,171.88,37.18,167.84,38.42,164Z"/><path class="cls-37" d="M145.25,186.3a2.54,2.54,0,0,0,1.61-.9,1.6,1.6,0,0,1,2.21-.4c1.17.85,1.14-.17,1.47-.72.43,1.66-.37,2.21-2.53,1.94,1.38.76,1.11,2.41,2.52,2.21.82-.12.05-1,.22-1.52a1.07,1.07,0,0,1,.85,1.7c-.44.73-.81,2.13-1.91,1.7-.7-.28-2.75.69-2.14-1.55a1.29,1.29,0,0,0-.48-.16c-.33,0-.68.15-.66.54a6.38,6.38,0,0,1,0,1.81c-.33-.6-.62-1.21-1-1.79-.46-.74-1.23-.53-1.92-.55l-2.29-.1a.19.19,0,0,1,.15-.27v0h1.14A3,3,0,0,0,145.25,186.3Z"/><path class="cls-38" d="M25.76,151.33c-.68.08-1.47-.27-2,.48-2.62-1.5-5.28-2.94-7.85-4.53a2.33,2.33,0,0,0-2.46-.26c0-.74,0-1.49,0-2.23a2.17,2.17,0,0,1,1.7-.46,32,32,0,0,1,7,3.89c.43.31.85.63,1.3.91a4.47,4.47,0,0,1,.41.32,3.35,3.35,0,0,0,1.41.79C25.78,150.43,26.16,150.72,25.76,151.33Z"/><path class="cls-39" d="M66.47,129.76c-3.45,1.52-6.47,3.8-9.81,5.52a24.29,24.29,0,0,1-4.39,2.26c-.28-.86.32-1.37.76-1.94l7-4.21c1.33-.61,2.66-1.2,4-1.83C64.86,129.13,65.72,128.63,66.47,129.76Z"/><path class="cls-40" d="M59.94,186.65c4.61-2.33,9-5,13.43-7.68.53.06,1.15-.18,1.55.4-4.85,2.84-9.71,5.66-14.52,8.56-.79.48-1.92.4-2.38,1.41-.23,0-.66-.13-.47-.35C58.29,188.15,58.8,187.07,59.94,186.65Z"/><path class="cls-41" d="M133.74,42.6a1.53,1.53,0,0,0-.93.58,2.78,2.78,0,0,1-3.79.58,2.68,2.68,0,0,1-1.23-3.61,3.56,3.56,0,0,0,.11-.94Z"/><path class="cls-42" d="M5.81,171.33c.75-.63,0-1.72.73-2.35,0,.25,0,.5,0,.75,0,.5-.07,1.08.48,1.32.85.38.54-.86,1.14-.89-.53,2.48-1.07,5-1.59,7.44-.25,1.18-1,1.42-2,1.05C3.68,176,4.82,173.67,5.81,171.33Z"/><path class="cls-43" d="M3.46,119.12Q5,125,6.64,130.9A6.56,6.56,0,0,1,7,133.68l-.43-.07c-1.45-1.19-1.45-3-1.9-4.58-.79-2.79-1.48-5.6-2.19-8.4-.12-.81-.08-1.51,1-1.51Z"/><path class="cls-44" d="M5.81,171.33c0,2.51-1.37,4.79-1.25,7.32-1.92-.08-1.75-1.48-1.38-2.58.9-2.72.84-5.69,2.22-8.27C5.52,169,5.15,170.21,5.81,171.33Z"/><path class="cls-45" d="M151.75,174.44c-.12-.22-.06-.78-.51-.47a2.76,2.76,0,0,0-.77,1.05c-1.06,2-1.08,2.06-2.6.1-.17-.75-1-1.34-.53-2.24a.84.84,0,0,1,.77-.28c.84.54,1.51.82,1.92-.53.34-1.11,1-2,2.41-1.19C152.43,172.11,152.61,173.38,151.75,174.44Z"/><path class="cls-46" d="M67.24,144.38c0-1.78,0-3.56,0-5.34.74-.35,1.41-1.07,2.31-.39a9.65,9.65,0,0,0,.79,5c.2.37.44.82,0,1.21l-.24,0C69.34,143.31,68.12,144.89,67.24,144.38Z"/><path class="cls-47" d="M148.26,172.83h-.79c-.8.09-1-.69-1.52-1a.57.57,0,0,1,0-.48c.41-.5,1.07-.47,1.58-.75a5.91,5.91,0,0,0,2.52-1.74c.28-.22.57-.41.83-.64,1.76-2.17,1.58-4-.49-5.72-.67-.56-1.77-.82-1.7-2a.7.7,0,0,1,.78.05l2.15,1.25c1.4,2.1,2.17,4.31,1.29,6.84-.27,0-.3.2-.42.35a6.87,6.87,0,0,1-.79.83,10.83,10.83,0,0,1-2.18,1.38A2,2,0,0,0,148.26,172.83Z"/><path class="cls-48" d="M11.58,142.91a12.64,12.64,0,0,1-.85-4.34c0-.23,0-.46,0-.69.38-.23.34-.62.43-1,.15-.61.3-1.34.95-1.52s.77.6,1.06,1,1.26.34,1.35,1.15c-1.32-.68-1.86-.43-1.91,1.2A10.23,10.23,0,0,1,11.58,142.91Z"/><path class="cls-49" d="M136,176.33c-1.36,2.57-.3,5.33-.61,8-.23,2,.7,3,2.67,3.24.33,0,.64.38,1,.57-1.54.11-2.84-.66-4.22-1.13-.09-3.13-.16-6.27-.27-9.4,0-.88,1.26-1.17.87-2.16a.69.69,0,0,1,.49,0A.58.58,0,0,1,136,176.33Z"/><path class="cls-18" d="M2.77,120.57c.87,3.35,1.76,6.7,2.58,10.07a12.41,12.41,0,0,0,1.2,3c-.85.07-1-.53-1.21-1.17-1.24-4.16-2.51-8.31-3.43-12.56l.07-.06C2.67,119.63,2.38,120.45,2.77,120.57Z"/><path class="cls-50" d="M148.26,172.83c-.54-.66-.81-1.21.28-1.7a33.41,33.41,0,0,0,3.11-1.8c.8-.15.73.47.83.93v.26a.49.49,0,0,1,0,.36c-2.52-.28-1.84,2.32-3,3.32C148.82,174,148.63,173.31,148.26,172.83Z"/><path class="cls-51" d="M101.76,159.79c-.55,1.07-1.13.77-2,.2-1.22-.83-2.58-1.47-3.88-2.19l1.29-1,.71-.26C98.51,158.45,100.67,158.49,101.76,159.79Z"/><path class="cls-52" d="M69.54,138.65c-.85-.33-1.42.93-2.31.39,0-.9,0-1.8,0-2.71A3.09,3.09,0,0,1,69.54,138.65Z"/><path class="cls-53" d="M27.2,83.75c-.09,1,.49,2.11-.37,3A3.27,3.27,0,0,0,24.2,86C25,85,26.7,85.17,27.2,83.75Z"/><path class="cls-54" d="M33,157.11c1.09.38,1.35,1.49,2,2.26a1,1,0,0,1-.78.84C33,159.49,33.29,158.18,33,157.11Z"/><path class="cls-26" d="M34.18,160.21l.78-.84,0,0c.71.42,1.5.67,2.21,1.07l.09.11C36.21,161,35.1,161.31,34.18,160.21Z"/><path class="cls-55" d="M64.49,177.79l-.24-.77a2.44,2.44,0,0,0,2.31-.72C66.67,177.9,65.71,178,64.49,177.79Z"/><path class="cls-56" d="M104.88,140.18a2.52,2.52,0,0,1-2.4,1.17A2.74,2.74,0,0,1,104.88,140.18Z"/><path class="cls-57" d="M107.94,137.5a5.18,5.18,0,0,1-1.93,1.93A2.27,2.27,0,0,1,107.94,137.5Z"/><path class="cls-50" d="M152.48,168.61c.12-.25.25-.18.39,0-.14.64.08,1.35-.39,1.93l-.08-.13A2.21,2.21,0,0,1,152.48,168.61Z"/><path class="cls-58" d="M106,139.41a1.2,1.2,0,0,1-1.17.79C104.89,139.4,105.43,139.36,106,139.41Z"/><path class="cls-59" d="M141.39,188.24a1.17,1.17,0,0,1-.15.27c-.59-.21-1.29.17-1.83-.32Z"/><path class="cls-60" d="M93.74,67.57C87,63.39,80,59.44,73,55.61a1.46,1.46,0,0,1-1.54-.84q0-12.08-.06-24.16c0-4.28,0-8.57,0-12.85,0-1.64.42-1.65,1.68-.91C79.69,20.74,86.33,24.56,93,28.39a9.72,9.72,0,0,0,1,.47c.85.28.67,1,.67,1.61q0,18,0,35.9C94.66,66.88,95.14,68,93.74,67.57Z"/><path class="cls-61" d="M60.72,62.66a4.27,4.27,0,0,0,.37-2.23q0-26.58,0-53.16a11.51,11.51,0,0,0-.38-2.63,2.22,2.22,0,0,1,1.57,2.28c.19,2.84.92,5.62,1.38,8.42,1.19,7.18,2.37,14.37,3.67,21.53,1,5.41,1.49,10.91,2.8,16.28.75.14.35-.69.74-.87.06.08.18.17.16.23-1.13,4.2.36,8.15,1.06,12.2a4.23,4.23,0,0,0,1.27,2.55c-1.27.17-2.29.6-2.36,2.13a.65.65,0,0,1-.63.61C67.43,67.2,64.46,64.42,60.72,62.66Z"/><path class="cls-62" d="M104.8,92.67c5,3.18,10.22,6.16,15.47,9,.66.09,1.28.22,1.37,1-.34,1.45-1.55,1-2.49,1.12-1.47.15-3.08-.38-4.3.94,0,0-.13.1-.15.09-1.65-.88-3.25-.39-4.86.14-.73-.41-1.33-1.36-2.33-.83s-.74,1.75-.84,2.72c-1.27,1.64-3.42,2-4.93,3.31-.38.33-.71-.32-.95-.68a4.73,4.73,0,0,0-3.37-3.47,2.26,2.26,0,0,1-1.26-.76c-.51-1.49.7-1.26,1.4-1.28a19.68,19.68,0,0,0,5.43-1.13c.4-.12,1-.08,1-.66s-.46-.77-.87-.91c-1.77-.6-3.19-1.9-4.93-2.53a2.5,2.5,0,0,1-1.93-2.88c.38-2.22.57-4.49,1.81-6.47a1.25,1.25,0,0,1,1.43,0C101.32,90.44,103.32,91.14,104.8,92.67Z"/><path class="cls-63" d="M111.05,38.78c3.61,2.06,7.2,4.14,10.82,6.16a2.22,2.22,0,0,1,1.37,2.23q-.1,8.92,0,17.85c0,1.34-.13,1.8-1.51,1-3.73-2.23-7.51-4.39-11.3-6.52a1.67,1.67,0,0,1-.94-1.68c0-5.51,0-11,0-16.51,0-.58-.09-1.2.73-1.33C110.55,39.61,110,38.63,111.05,38.78Z"/><path class="cls-64" d="M70.31,69.92a2.8,2.8,0,0,0,.39-.82c.3-2.31.53-2.48,2.67-1.84l8.88,5.31c.78.72,1,1.38-.22,1.86-2.18-.28-3.74-1.85-5.64-2.73a16.58,16.58,0,0,1-2.14-1.28c-1.07-.71-1.71-.57-2,.78C71,76.11,69.73,81,68.6,85.92a1.69,1.69,0,0,0,1,2.15c1.3.68,2.54,1.48,3.8,2.23,3.43,2,6.82,4,10.23,6a3.86,3.86,0,0,1,1.86,1.57c-.14,1.1.65,1.51,1.38,2.05s1.49,1.1-.12,1.44c-3.42-1.28-6.31-3.53-9.51-5.22A75,75,0,0,1,66.71,89.3a3.14,3.14,0,0,1-1-1.8c-.18-1.44.58-2.7.79-4.07.3-1,.42-2.1.71-3.12a13.87,13.87,0,0,0,.41-1.69c.24-.84.27-1.72.44-2.58.33-1.22.47-2.49.83-3.71C69.45,71.58,69.47,70.5,70.31,69.92Z"/><path class="cls-65" d="M116,68.35a4.36,4.36,0,0,1,2,1.15,1.07,1.07,0,0,1-.66.52c-.57.32.15.1.09.21a2,2,0,0,1,.32.11c4.55,2.33,5.56,4.5,4.47,9.42-.27,1.19-1,1.5-2,1-2.57-1.41-5.17-2.76-7.7-4.23a4.08,4.08,0,0,1-2-3.7c0-1.08-.06-2.17,0-3.25.13-2.16,1-2.66,3-1.7C114.33,68.22,115,69,116,68.35Z"/><path class="cls-66" d="M116,68.35c.08,1.38-.57,1.27-1.45.72-4-2.54-3.44-1.15-3.59,2s.77,5,3.87,6c1.82.6,3.38,1.94,5.07,2.93.43.25.88.66,1.4.46.71-.27.4-1,.44-1.51a16.41,16.41,0,0,1,0-1.72c.62-3.31-.93-5.24-3.91-6.34-.31-.11-.52-.51-.77-.78V70a1,1,0,0,1,.89-.51l.19,0c4,1.34,5.88,3.94,5,8.31a23.18,23.18,0,0,0,0,4.41c0,1-.24,1.13-1.1.62q-5.88-3.44-11.8-6.79a1.71,1.71,0,0,1-.83-1.77c0-2.75,0-5.5,0-8.25,0-1.39.49-1.35,1.45-.76C112.6,66.35,114.31,67.34,116,68.35Z"/><path class="cls-67" d="M131.75,88.41c-3.13-1.1-3.84-3.32-3.64-6.5.31-4.88.09-9.8.1-14.7,0-2,0-2,1.79-1l2.49,1.41a1.25,1.25,0,0,1,.74,1.58c-1,3.38-.33,6.84-.56,10.25-.14,1,.14,2.38-1.71,1.88-.51-.14-.6.33-.62.73-.08,1.19,0,2.32,1.17,3a2.7,2.7,0,0,1,1.35,2C132.82,87.79,133,88.68,131.75,88.41Z"/><path class="cls-68" d="M134.34,64.2c-1.78-1-3.54-2-5.35-3a1.46,1.46,0,0,1-.8-1.56c0-2.81,0-5.62,0-8.43,0-1.28.38-1.42,1.43-.8,3.46,2,6.95,4,10.42,6.07,2.17,1.26,2.34,2,1.07,4.25-.77.36-1.12-.06-1.16-.73-.09-1.68-1.46-2.11-2.58-2.79-.81-.49-1.21-.08-1.25.74a42.87,42.87,0,0,0,.06,4.39C136.24,63.58,136,64.62,134.34,64.2Z"/><path class="cls-69" d="M132.56,115.62c0-.63-.05-1.27-.08-1.9a5.53,5.53,0,0,1,0-5V89.12c.55-2.15-.48-4.27-.12-6.39.19-1.08-.49-2.42.85-3.2l.06,65.25c0,2.49,0,5,0,7.48,0,.61.17,1.3-.4,1.8-1.12.28-1.81-.06-1.91-1.28a2.22,2.22,0,0,0,1.39-2.45,24.47,24.47,0,0,1,.13-2.83c-.52-1.19,0-2.38,0-3.57q-.07-10.63,0-21.28c0-1.11-.39-2.13-.39-3.21.12-.2.48.27.44-.11A13.56,13.56,0,0,1,132.56,115.62Z"/><path class="cls-70" d="M98.32,89.48q-.79,3.22-1.57,6.45a23.82,23.82,0,0,1-1,6.1c-.41,1.24-.93,2.37-2.49,2.44-1.6-1-3.62-1.29-5.07-2.62.34-.9,1.25-1,1.94-1.45,2.63.58,2.6.57,3.3-2.06C94.33,94.89,95,91.39,96,88c.36-1,.81-2,1.22-3a9.77,9.77,0,0,0,.3-1.85c.16-.58.24-1.36,1.21-.86,1.09,1,.86,2.15.58,3.36-.22.93-.4,1.86-.6,2.79C98.94,88.87,98.67,89.19,98.32,89.48Z"/><path class="cls-71" d="M132.51,108.71l0,5-.35,0c-1.27-.41-2.53-.71-2.92,1.1-.28,1.25-1.54.71-2.28,1.25a7,7,0,0,1-4.77,1.59c-.52-1.69,1.06-2.08,1.89-2.83a18.24,18.24,0,0,1,3.66-2.08c.79-.37,1.41-1,2.17-1.45.35-.08.85.17,1-.28s-.25-.55-.51-.71a100.61,100.61,0,0,0-9-5c-1.52-.74-3.27-.17-5-.39.11.47.67.72.36,1.22a1.76,1.76,0,0,1-2.31-1.27,2.13,2.13,0,0,1,2.46-1.52c1.06.06,2.13,0,3.2,0,.58,0,1.17,0,1.26-.77a.57.57,0,0,1,.54-.09c3,1.53,6,2.92,8.61,5.1A4.81,4.81,0,0,0,132.51,108.71Z"/><path class="cls-72" d="M134.34,64.2c1.06-.23,1.6-.63,1.37-2a27.83,27.83,0,0,1-.11-4.75c0-1.33.69-1.6,1.7-.88,1.4,1,3.61,1.38,3.13,3.91a4,4,0,0,0,.67.26c0,.11-.09.21-.14.32a41.14,41.14,0,0,0-5.17,3.4.86.86,0,0,1-1.33,0A1.48,1.48,0,0,1,134.34,64.2Z"/><path class="cls-73" d="M134.46,64.49c1,.29,1.39-.67,2.07-1,1.48-.79,2.72-2,4.43-2.36,0,.13,0,.26,0,.39-2.37,1.54-5.08,2.63-6.44,5.46a11.41,11.41,0,0,0-1.24,4.92c0,2.56,0,5.12,0,7.67-.74,2.39-.13,4.85-.35,7.26-.06.78.32,1.65-.38,2.33l-.76-.71c1.16-.09.76-.94.78-1.59a8.92,8.92,0,0,1-.24-5.66,1.76,1.76,0,0,0-.1-1.29c0-3.44-.61-6.92.59-10.31a1.63,1.63,0,0,0-.29-1.93A2.75,2.75,0,0,0,134.46,64.49Z"/><path class="cls-74" d="M81.78,74.17c1.27-.21.6-1,.47-1.6a61.6,61.6,0,0,1,10,5.84c.16.12.47,0,.71,0,.39,1.11-.48,1.33-1.19,1.67-1.63,0-2.7-1.26-4-1.92-1.7-.84-3.26-1.94-4.91-2.87C82.38,75.08,81.76,74.9,81.78,74.17Z"/><path class="cls-75" d="M93.74,67.57c1.49-.06.83-1.21.83-1.85.05-10,0-20,0-29.94,0-1.67,0-3.33,0-5A2.16,2.16,0,0,0,94,28.86c1,0,.87.74.87,1.37q0,18.19,0,36.41C94.87,67.28,95.16,68.53,93.74,67.57Z"/><path class="cls-76" d="M130.53,107.57l-9.15-5-1.11-.89a.92.92,0,0,1,1.07-.2c2.86,1.59,5.71,3.18,8.52,4.86C130.18,106.52,131.08,106.76,130.53,107.57Z"/><path class="cls-77" d="M91.76,80c.34-.57,1.23-.71,1.23-1.54l1.12.67a.69.69,0,0,1,.75.47c1.08,1.19,3,1.19,3.87,2.62-.87.06-.69.73-.76,1.28s.2,1.3-.42,1.77a1,1,0,0,1-.35-.65c-.5-2.64-1.93-3.9-4.73-4.17a1.51,1.51,0,0,1-.52,0A.37.37,0,0,1,91.76,80Z"/><path class="cls-78" d="M98.32,89.48l.39-1.11c1.74,1,3.45,2.08,5.22,3,.58.31,1,.58.87,1.27C102.54,91.81,100.75,90,98.32,89.48Z"/><path class="cls-79" d="M111.05,38.78,110.2,40c-.46-.49-1.21-1-.55-1.71C110.11,37.78,110.65,38.41,111.05,38.78Z"/><path class="cls-80" d="M94.86,79.6l-.75-.47c.18-.87.82-1,1.32-.5S95.37,79.45,94.86,79.6Z"/><path class="cls-61" d="M71.5,54.77l1.54.84C72,56.24,71.6,55.81,71.5,54.77Z"/><path class="cls-61" d="M70.79,47A3,3,0,0,1,71,49,3,3,0,0,1,70.79,47Z"/><path class="cls-5" d="M128.67,175.9c-.5,1.32-1.8,1.71-2.84,2.33-3.35,2-6.8,3.93-10.16,6a3.19,3.19,0,0,1-2,.54c-.09-.24-.07.09-.1-.16-.68-5.47-1.07-10.94.47-16.34l0-.36c1.52-1.82,3.81-2.49,5.73-3.69,4.58-2.88,9.42-5.34,14.08-8.09a1,1,0,0,1,.9-.15c1.33.59.85,1.55.41,2.41-.24.46-.85.77-.36,1.41a1,1,0,0,1,.16.57,28.24,28.24,0,0,0,.2,6.23,25.77,25.77,0,0,1,.14,3.83,11.7,11.7,0,0,1-.17,2.13c-.22.6-.45,1.31-1.24,1.23s-1-.86-1.12-1.58c-.09-.55,0-1.24-.73-1.42s-1.11.45-1.64.79c-.9.57-.58,2.61-2.42,2a1.25,1.25,0,0,0,.12.74C128.33,174.82,128.75,175.29,128.67,175.9Z"/><path class="cls-81" d="M134.82,155.93c-4.36,3.06-9.23,5.25-13.76,8a55,55,0,0,1-7,3.9c-3.92-1.39-7.22-3.91-10.82-5.89-.5-.27-.06-.67,0-1a.29.29,0,0,1,.48-.07l6.41,3.51c.72.48,1.2-.1,1.73-.39,4.2-2.3,8.29-4.8,12.46-7.16a8.62,8.62,0,0,0,3-1.53c1.38-.58,1.87-2,2.72-3a.82.82,0,0,1,.91.51,3.78,3.78,0,0,0,1.91,1.24C133.33,154.9,134.19,155.3,134.82,155.93Z"/><path class="cls-82" d="M134.79,160.13c0-.13.06-.25.08-.38a14.78,14.78,0,0,0,4.2-1.09,9.48,9.48,0,0,1,6.07,0c1.26,1,3.19.46,4.29,1.85l-.83.06c-1.67.43-3.25-.28-4.87-.46a17.85,17.85,0,0,0-7.55.83C135.45,161.13,134.58,161.55,134.79,160.13Z"/><path class="cls-83" d="M145.14,158.65h-6.07l-1.95-.11c.69-.34,1-.65,1.37-.65,2.23-.05,4.46,0,6.7,0,.34,0,.83,0,.78.53C146,158.51,145.43,158.57,145.14,158.65Z"/><path class="cls-84" d="M70.31,69.92c-.45.74,0,1.86-1,2.35-.37.13-.54.51-.85.71-4,1.38-7.62,3.57-11.38,5.45-2.5,1.88-4.38,1.29-5.77-1.42-.23-.44-.79-.64-.88-.94.22.5.92.87,1.36,1.46a1.24,1.24,0,0,1,.17,1.58,1.28,1.28,0,0,1-1.7.38A7.78,7.78,0,0,1,48,78a20.49,20.49,0,0,0-6-4c-1.37-.57-.45-1.88-1.29-2.47-.39-.79.14-1.18.7-1.48a7.38,7.38,0,0,1,4.22-1.3c2.28.77,4.3,0,6.26-1.07A3.12,3.12,0,0,1,54,65.05a21.18,21.18,0,0,0,3.29-1.91,3.25,3.25,0,0,1,3.46-.48,1.87,1.87,0,0,1,2.21.46c2.15,1.77,4.11,3.8,6.67,5C70.45,68.54,70.27,69.25,70.31,69.92Z"/><path class="cls-85" d="M51.9,67.67c-1.46,1.89-3.46,2.36-6.17,1.45-2.08-.36-2.39-.67-2.43-2.83,0-2.87,0-5.74,0-8.6a3.38,3.38,0,0,1,2-3.37c1.54-.71,1.65-1.69.39-2.93a26.08,26.08,0,0,0-4.29-2.83c-.59-.39-1.51-.61-1.1-1.68a2.64,2.64,0,0,0,1.58.36,21.28,21.28,0,0,1,4.78,3.07,4.36,4.36,0,0,1,1.51,2.55,1.8,1.8,0,0,0,1.63,1.78,2.84,2.84,0,0,1,2.42,3.16A72.27,72.27,0,0,1,51.9,67.67Z"/><path class="cls-86" d="M51.87,114.08c0-.13,0-.26,0-.39,1.63.1,3.37-1,4.92.48.32.31.93,0,1-.47s-.32-.65-.72-.74c-2.23-.46-4.2-1.67-6.24-2.54-1.72-.73-3.16-2-5.21-1.75a.36.36,0,0,1-.41-.47c.1-.43.12-.92.72-1a3.49,3.49,0,0,1,2.53.64,6.13,6.13,0,0,0,3.9,1.11c1.28-.06,2.62.77,3.89,1.32a1.66,1.66,0,0,0,2-.13c-2.35,0-2.75-2.65-4.74-3.15-.56-.14-.56-.8-.65-1.3-.06-.31.19-.45.47-.43.74,0,1.8-.34,2.08.51.48,1.55,1.57,1.44,2.73,1.39a3.25,3.25,0,0,1,2,.71c1.18.79,1.93,2.15,3.73,2.27.94.06,2.72.7,2.53,2.59,0,.38.25.9.68.69,2.31-1.13,3.61.82,5.26,1.67.55.28,1,.83,1.7.2,5.09-.52,8.67-4.21,13-6.27.92-.43,1.78-1,2.68-1.45s1.36-.26,1.6.66c0,1,.42,1.83.51,2.77a38.23,38.23,0,0,0,.44,7.78,2.48,2.48,0,0,0,1.31,1.79,10,10,0,0,0,1.47.81c1.59,1.24,3.51.42,5.23.83,2,1.29,2.52,2.59,1.58,4-.5.74-1.06,1.16-1.68.09-.43-2.53-.74-2.67-3-1.55-1.76.85-3.24,2.21-5.15,2.78a1.35,1.35,0,0,1-.75-.06,67.25,67.25,0,0,1-8.46-4.73,1.79,1.79,0,0,1-.65-.92c-.08-2,1.3-3.21,3.51-3.08.55,0,1.11.4,1.66,0,.57-.65.23-1.19-.26-1.65s-.94-.27-1.42,0c-1.93,1-3.76,2.13-5.65,3.16-.81,1.68-.25,3.22.47,4.74a7.94,7.94,0,0,0,2.75,1.83c.72.3,1.17-.31,1.73-.51.69.19.23-.75.73-.74,1.23.58.22,2,1,2.72a4.15,4.15,0,0,0,1.85,1.62c.53.31,1.21.56,1,1.42a5.87,5.87,0,0,1-6.76.17c-.34-.21-.73-.23-1-.45-.92.2-1.42-.78-2.26-.8-1.72-1.05-3.43-2.13-5.17-3.15-3.92-2.28-7.83-4.58-11.83-6.73-.74-.41-1.12-1.5-2.22-1.27-.92-1.05-1.48-2.74-3.45-1.9Z"/><path class="cls-1" d="M28.23,82.25c0-3.69-.12-7.39-.13-11.09q0-13.87,0-27.77c0-.38.06-.76,0-1.15-.09-1.46.61-1.65,1.71-1,3.28,1.86,6.55,3.76,9.82,5.64a3.23,3.23,0,0,1,.92,2.63c-.09,7.16.24,14.32-.18,21.47-.05.89.13,1.78.13,2.68a3.13,3.13,0,0,1-.9,2.44c-2.71,2.27-6.1,3.53-8.76,5.91C30.19,82.58,29.11,82.14,28.23,82.25Z"/><path class="cls-87" d="M41.16,71.44l.65.35c-1,1.56.57,1.72,1.33,2.15a45.39,45.39,0,0,1,6.5,4.68c.61.51,1.31,1.12,2,.33s-.3-1.19-.68-1.72-1.16-.8-1.22-1.76a5.38,5.38,0,0,1,3.11,2.74c.7,1.4,1.22,1.65,2.34.55A2.57,2.57,0,0,1,56.88,78c.14,1-.58,1.4-1.21,1.77a3.59,3.59,0,0,0-1.77,3.53c0,1.43.43,2.95-.47,4.29-.92.76-1.68,0-2.4-.33-2.8-1.41-5.13-3.6-8.24-4.55a3,3,0,0,1-2.06-3.3c.19-1.24-.47-2.48,0-3.73C39.74,74.14,40.37,72.78,41.16,71.44Z"/><path class="cls-88" d="M41.16,71.44c.36.48.18.76-.18,1.23-.68.87-.41,2-.29,3l-1.08.41c.6-3.23.27-6.48.3-9.71,0-5.82,0-11.64,0-17.46,0-.69.19-1.42-.28-2l.69,0c.66,1.4,2.23,1.55,3.32,2.37a16.48,16.48,0,0,1,2.77,2c1.4,1.61,1.1,2.94-.89,3.56a2.25,2.25,0,0,0-1.72,2.42c0,3.19.06,6.38,0,9.56,0,1.5.95,1.86,2,2.34-1.74-.07-3.13,1-4.66,1.54C40.56,70.85,40.69,71.23,41.16,71.44Z"/><path class="cls-89" d="M26.53,87.18a2.35,2.35,0,0,1,.48.58c.15.35-.18,1,.58.93s.68-.66.69-1.14a9.59,9.59,0,0,0-.15-1.3c2.63-.31,5.22-.34,7.66.92,2.18,1.12,2.89,2.73,2.23,5-2.59,3.18-6,3.54-9.75,2.89-1.91-.33-3.15-1.56-4.45-2.77C23.26,89.51,24.07,88,26.53,87.18Z"/><path class="cls-90" d="M53.43,87.58c0-.25,0-.51,0-.76-.31-3.52-.33-6.93,3.47-8.83,2.9-1.13,5.29-3.26,8.3-4.18,1.09-.34,2.14-.8,3.21-1.21,1.27,1.14-.06,1.51-.67,1.84-1.62.89-3.26,1.71-4.85,2.64,1.42-.7,2.81-1.5,4.25-2.17.73-.35,1.68-.54,1.12.91-1.45,1.68-3.57,2.3-5.46,3.59,1.81-.27,3.47-.82,5.21-.66a2.27,2.27,0,0,1-.38,1.56c-.83,1.66-2.55,1.7-4,2.22a2.45,2.45,0,0,0-2.12.56c-1.52.9-3.05,1.79-4.66,2.56-.77.36-1.56.78-.36,1.66.26.19-.1.42-.29.57a2.44,2.44,0,0,1-2.38-.25Z"/><path class="cls-91" d="M53.8,87.63l2.69-.07a3.51,3.51,0,0,1,1.92-1.39c2.4-1.14,4.58-2.69,7-3.79.45-.2.9-.8,1.35-.51s.31,1,.12,1.54c-.28,1.4-.55,2.8-.83,4.2-.23.61-.18,1.48-1.14,1.51A5.17,5.17,0,0,0,61.46,91a3.72,3.72,0,0,1-2.79,1c-1.19.1-1.6,1.62-2.86,1.59a.63.63,0,0,1-.48-.18c-.49-.35-1.64-.52-.64-1.41,1.64-1.46,1-2.41-.53-3.28C53.76,88.42,53.82,88,53.8,87.63Z"/><path class="cls-92" d="M91,108.29c-.17-1.17-.72-.47-1.15-.22-3.36,1.94-6.71,3.89-10.07,5.81-1.75,1-3.45,2.28-5.67,1.41q-12.21-7.19-24.42-14.4c-.49-.29-1.77-.32-1-1.53a.89.89,0,0,1,.56,0c7.72,4.26,15.35,8.7,22.91,13.24,2.65,1.6,4.75,1.73,7.35,0,3.7-2.4,7.56-4.55,11.42-6.69a5.78,5.78,0,0,1,1.89-.9,1,1,0,0,1,.93.55A4.76,4.76,0,0,1,91,108.29Z"/><path class="cls-93" d="M49.17,99.53l-.42-.17c-.35-.65-.78-1.13.32-1.73a36.93,36.93,0,0,0,6.26-4.29h.39c1.35,0,1.83-1.23,2.7-1.9,1.7.43,2.64-.86,3.77-1.7.45-.34.79-1,1.38-.93a2.54,2.54,0,0,0,2.48-1.19L67,89a.88.88,0,0,1-1,.71c-1-.15-.37.28-.23.55-1.69,1-3.37,2-5.13,2.86a7.36,7.36,0,0,0-.89.44c-.46.32-1,.47-1.48.75l-.55.43c-.43.35-1,.46-1.43.8s-.58.81-1.1.94c-.5-.08-.87-.69-1.53-.16C52.22,97.5,50.55,98.31,49.17,99.53Z"/><path class="cls-94" d="M23.82,92.24c.51-.65.67-.07,1,.24,3.12,3.4,9.68,3.17,12.58-.44.29-.35.52-.64.66.08a3.43,3.43,0,0,1-2.23,2.61c-3.61,1.59-7.17,1.65-10.56-.58C24.58,93.72,23.83,93.21,23.82,92.24Z"/><path class="cls-95" d="M37.28,99.91c2.41-1.8,5.19-3,7.74-4.52.25-.15.54-.13.64.12a.76.76,0,0,1-.12.66,2.22,2.22,0,0,1-.7.63c-2.39,1.26-4.57,2.9-7.11,3.9C37,100.76,37.06,100.39,37.28,99.91Z"/><path class="cls-96" d="M37.28,99.91a.84.84,0,0,0,.45.79c-.71.41-1.22,1.38-2.28.88-.14-.07-.33-.38-.29-.43A3.56,3.56,0,0,1,37.28,99.91Z"/><path class="cls-97" d="M128.67,175.9c-1-1-1.57-2.11-.84-3.53.81,0,.18,1,1,1a6,6,0,0,1,1.62-2.61,2,2,0,0,1,2-.69c.75.29.78,1.08.79,1.81,0,.56-.11,1.21.51,1.53s.58-.33.84-.56c1.38.51,1.68,1.43,1,2.72l-.3-.16c-.58-2.17-1.6-.79-2.5-.31-.74-.42-1.06.39-1.61.55-.16.05-.45,0-.51.29a.84.84,0,0,1,.61.35c-.4.52-1,.31-1.51.41S129.08,176.16,128.67,175.9Z"/><path class="cls-98" d="M131.39,176.31h-2c1.2-.75,2-1.28,2.83-1.74.53-.29.62.15.69.55Z"/><path class="cls-99" d="M130.21,152.43a4,4,0,0,1-2.65,3.18,2,2,0,0,0-2.89-.17,26.55,26.55,0,0,1-2.38,1.35c.73.49,1.66-.42,2.28.37q-6.36,3.72-12.71,7.47c-.66.39-1.18.4-1.66-.23a.83.83,0,0,0,.82-.87,30.93,30.93,0,0,0,.2-3.58c0-.71.17-.77.73-1a20.73,20.73,0,0,0,5.73-3.93,18.7,18.7,0,0,0-4.72,2.54c-1.44.92-1.88.69-1.94-1a15.71,15.71,0,0,1,.77-5.61c.13,0,.3,0,.38,0,2.22,1.72,3.61.66,5-1.29,2.51-3.61,6.52-5.25,10.13-7.41.82-.49,1.86-1.2,2.17.62v-2.27c.89.9.28,2,.43,3s-.31,2.39.35,3.51c.37,2,.16,3.52-2,4.46a23,23,0,0,0-4,2.13,9.64,9.64,0,0,1,5.63-1.81A.39.39,0,0,1,130.21,152.43Z"/><path class="cls-100" d="M130.21,152.43c-2.77-.34-5,1.33-7.47,2.17,1.5-1.81,3.65-2.59,5.55-3.62a2.5,2.5,0,0,0,1.56-2.74,3.56,3.56,0,0,1,.36-1.07c.86-.53,1.45.89,2.31.33.88,1.49.47,3.1.35,4.64-.09,1.19-1.22.48-1.87.68Z"/><path class="cls-101" d="M132.56,115.62c.67,1.26.36,2.63.28,3.92-.05.81-.43-.15-.69-.1-.12-.86-.23-1.72-.35-2.58C132,116.38,132,115.86,132.56,115.62Z"/><path class="cls-102" d="M107.94,130.18c1.07-1.44,2.86-1.72,4.25-2.63C111.86,128.79,109.77,130.09,107.94,130.18Z"/><path class="cls-103" d="M115.62,125.6a7,7,0,0,1,3.81-2C118.44,124.83,117.35,125.82,115.62,125.6Z"/><path class="cls-20" d="M44.66,153.27c-1.59.64-2-.2-2.06-1.59-.55-.72-.05-1.46,0-2.19a18,18,0,0,0,.28-2.36,3.65,3.65,0,0,0-1.94,1c-1.53.8-2.87,2-4.61,2.38-1.13,0-1.54-.79-1.74-1.72-.84-3.78-2.2-7.45-2.63-11.34-1.11-1.93,1-2.1,1.72-2.82.92-.87.79.69,1.31.91q1.15,4.24,2.29,8.49c.4,1.31,1.07,1.41,2.21.7,3.53-2.17,7.1-4.26,10.78-6.16.48-.26.91-.75,1.56-.4,1.41-.7,3.05.15,4.47-.66a.81.81,0,0,1,1,.32.89.89,0,0,1-.42.61,3.79,3.79,0,0,0-1.42,1.05,34.67,34.67,0,0,1-6.21,3.8,4.84,4.84,0,0,0-2.89,4.17,13.31,13.31,0,0,1-.66,3.19C45.22,151.51,45.89,152.76,44.66,153.27Z"/><path class="cls-104" d="M20.36,126c2.77-2,5.89-3.41,8.81-5.16,1-.62,2.11-1.18,3.16-1.77a1.17,1.17,0,0,1,1.86.91c.28,1.73.61,3.51-.33,5.18-.08,2.4-2.75,4.88-5.44,5-.51,0-1,0-1.52,0-1.83-.91-3.66-1.82-5.48-2.75A1.85,1.85,0,0,1,20.36,126Z"/><path class="cls-105" d="M51.79,138.21q-6.16,3.53-12.33,7.06c-1.81,1-1.89,1-2.22-1.2.42,0,.43.83,1.23.31,4.56-2.94,9.21-5.76,13.83-8.61a2.44,2.44,0,0,1,.73-.17c.17.81-.47,1.3-.76,1.94Z"/><path class="cls-106" d="M33.86,125.16c0-1.5,0-3,0-4.5,0-1.12-.48-1.62-1.57-1.59.82-.68,1.83-1.64,2.75-1.18.72.37.25,1.75.24,2.68,0,1.12-.33,2.26-.25,3.37.07.92.25,2.27,1.76,1a3.44,3.44,0,0,1,1.22-.41c-.53.91-1.52,1.22-2.34,1.72C34.58,126.89,34.24,125.93,33.86,125.16Z"/><path class="cls-107" d="M107.33,190.82c0,.83,0,1.44-.82,1-1.05-.59-2.08-1.2-3.1-1.82a1.11,1.11,0,0,1-.43-1.5c.39-.75.85,0,1.22.16.79.39,1.53.88,2.3,1.31C107,190.22,107.35,190.52,107.33,190.82Z"/><path class="cls-51" d="M103.79,160.89l-.48.07c-.79,0-1.48-.17-1.53-1.16Z"/><path class="cls-108" d="M56.77,138.27l.5-.4c1.79-.24,3-1.69,4.6-2.28,1,.2,1.09,1.09,1,1.78-.32,1.59,0,3.18-.2,4.76-1,1.46-2.6,2-4,2.84-3.66,2.17-7.41,4.19-11,6.44a4.57,4.57,0,0,1-.84.46c-.46.18-1,.58-1.41.15a1.11,1.11,0,0,1,0-1.4,7.71,7.71,0,0,0,.3-1.68c-.21-3.68,1.94-5.59,5-7a49.4,49.4,0,0,0,4.72-2.82C55.69,138.6,56.34,138.62,56.77,138.27Z"/><path class="cls-109" d="M67.24,144.38a5.93,5.93,0,0,0,1-.5c1.22-.84,1.79-.49,1.81,1C69.08,144.9,67.78,147,67.24,144.38Z"/><path class="cls-65" d="M116.83,141.5c1,.3,2.41.75,3.85,1.24.85.28,1.14.68.35,1.47a56.31,56.31,0,0,0-5.76,6.1c-.35.47-.87.85-1.48.43a16.07,16.07,0,0,0-4.26-1.62c-1.13-.36-1.18-.82-.45-1.54,1.93-1.93,3.9-3.83,5.85-5.74C115.33,141.45,115.77,141.27,116.83,141.5Z"/><path class="cls-110" d="M105.31,142.12c1.88-3.89,4.68-3.25,7.62-1.88.44.2.91.35,1.35.51,0,.69-.55.77-.85,1-.94.84-1.72,2.59-2.79,2.38A14.18,14.18,0,0,1,105.31,142.12Z"/><path class="cls-111" d="M102.65,145.22a3.64,3.64,0,0,1,3.81-1.52c.94.13,2,.4,2.29,1.43s-.64,1.38-1.19,2a3.57,3.57,0,0,1-2.67,0H105C104,146.67,102.66,146.78,102.65,145.22Z"/><path class="cls-112" d="M117.17,140.56a1.78,1.78,0,0,1-2-.77c-.16-1.17,1-1.48,1.47-2.23l.9.35c.17.49-.22.78-.41,1.15.58-.66,1.24-1.25,1.84-1.89a4.33,4.33,0,0,1,1.65,2.16l-.09.24c-.48.5-1,.94-1.52,1.42-.13.11-.25.23-.37.35-.42-.43-1.23-.1-1.52-.79a3.47,3.47,0,0,0,1.29-1.08A5.19,5.19,0,0,1,117.17,140.56Z"/><path class="cls-113" d="M111.87,139c-.41-.6-1.84.36-1.69-1.1,1.56-.54,2.3-2,3.49-3,.59.17.51.77.76,1.17A13.28,13.28,0,0,1,111.87,139Z"/><path class="cls-114" d="M113.67,134.85c-.32,1.7-1.91,2.31-3,3.37-.17.18-.43-.12-.52-.37C111.4,136.91,112.13,135.41,113.67,134.85Z"/><path class="cls-115" d="M119,137.17c-.54,1.39-1.67,2.19-3.08,3.33.22-1.44,1.32-1.76,1.65-2.59C118,137.6,118.31,137,119,137.17Z"/><path class="cls-116" d="M116.69,137.56c0,1.09-1.18,1.36-1.47,2.23l-.72,0c-.59-1.24.39-1.48,1.18-1.85C116,137.74,116.28,137.47,116.69,137.56Z"/><path class="cls-8" d="M102.65,145.22c.48.7.73,1.82,2,1,.33-.22.4-.11.29.86C103,147,102.43,146.55,102.65,145.22Z"/><path class="cls-117" d="M118.69,141.34v-.4c.71-.36,1.14-1.08,1.85-1.45l.12-.16.7.46c.26,1-.63,1.33-1.09,1.91Z"/><path class="cls-118" d="M111.87,139c.29-1.46,1.51-2.12,2.56-2.93a1.23,1.23,0,0,1-.32,1.11,3,3,0,0,1-2,1.83Z"/><path class="cls-117" d="M121.44,142.08l-.88-.39a1.62,1.62,0,0,1,1.59-1.51l.66.87C122.3,141.32,122,141.83,121.44,142.08Z"/><path class="cls-119" d="M112.09,139a7.67,7.67,0,0,1,2-1.83l.35.35c.1,1.07-.86,1.32-1.44,1.85Z"/><path class="cls-120" d="M113,139.33c.13-.89,1-1.23,1.44-1.85l.39,0c.43,1.15-.53,1.41-1.2,1.87Z"/><path class="cls-121" d="M113.65,139.37c.29-.7,1.37-.89,1.2-1.87l.83.42c-.25.71-1.22,1-1.18,1.85Z"/><path class="cls-122" d="M122.15,140.18l-1.59,1.51h-.28c-.24-1,.91-1.17,1.09-1.91C121.91,139.36,122.23,139.37,122.15,140.18Z"/><path class="cls-123" d="M121.44,142.08c.23-.65.58-1.14,1.37-1C122.54,141.65,122.39,142.39,121.44,142.08Z"/><path class="cls-8" d="M104.89,147l2.67,0A2,2,0,0,1,104.89,147Z"/><path class="cls-7" d="M114.08,168.22c.72,1.61-.49,3.05-.43,4.65.15,3.94.06,7.9.06,11.85-3.51-1.13-6.3-3.58-9.54-5.21-2.16-1.08-4.19-2.43-6.29-3.64-.56-.33-1.1-.58-1.09-1.39,0-4.4,0-8.8,0-13.46,3.58,2,7,3.71,10.26,5.82A9.22,9.22,0,0,0,114.08,168.22Z"/><path class="cls-124" d="M81.8,131c1-.17,1.65.55,2.5.72a7.66,7.66,0,0,0,5.21-.71c.38-.54,1.06-.4,1.54-.72a5.52,5.52,0,0,1,.69-.34c2.17-2,4.94-2.92,7.56-4.08a3.84,3.84,0,0,1,1.35.14c.12.54.27.93.8.25,1-1.32.78-2.15-1.2-3.73a.48.48,0,0,1,0-.54,2.7,2.7,0,0,0,.2-3.6c.06-2.31-.15-4.66.78-6.88,1-.68,1.82.08,2.6.53,3.69,2.14,7.46,4.17,11.1,6.39a4.18,4.18,0,0,0,4.81,0c.72-.44,1.38-1.21,2.41-.88,1.67-.88,3.82-.81,5.06-2.54.57-.79.93.54,1.57,0,.26-.54-.66-2.2.93-1.8.8.2,2.24-2.14,2.43.49-4.4,2.57-8.78,5.16-13.18,7.72s-9.07,5.21-13.59,7.83a2.25,2.25,0,0,0-.5.56c-4.22,2.09-8.27,4.47-12.27,7-1.82.46-2.9-1.11-4.28-1.73-1.54-.7-3-1.59-4.61-2.21C82.82,132.49,82.56,131.47,81.8,131Z"/><path class="cls-48" d="M13.48,124.83c2.87,1.9,6.19,3,9,5a.93.93,0,0,0,.32.21c1.88.41,1.88.41,3.36,2.12-.41.38-.83.15-1.25,0s-1.05-.49-1.34.16.12,1.08.69,1.38a1.5,1.5,0,0,1,.95,1.86,1.57,1.57,0,0,1-1.8,1.34,5.85,5.85,0,0,0-1.64-.13c-.33-.08-.19.07-.14.06a1.11,1.11,0,0,1,1.41.66c.27.77-.37,1.13-.9,1.49-.36.24-.83.32-1.16.87.83.31,1.31-.24,1.81-.63a3.19,3.19,0,0,1,1.84-.93c1,0,2,.19,2.38,1.23s-.49,1.68-1.32,2a3.33,3.33,0,0,0-1.77,1.37c-2,0-3.39-1.32-4.9-2.28-1-.64-2.43-.91-2.89-2.28.05-.65.46-.85,1.05-.85.39,0,.82-.07.81-.59s-.48-.5-.85-.57A2.58,2.58,0,0,1,15,134.17a3.21,3.21,0,0,0-.94-1.64c-.6-.56-2.74-.55-.74-2.09.18-.13-.63-.61-.35-1.22,1.22.17,2.58.08,2.51,2,0,.4.75.62.74.28-.05-1.32,1.17-.64,1.87-1.43a49,49,0,0,1-9.86-4.9c1.4-.56,2.18,1.1,3.48.94,0-1.09-1.31-.87-1.32-1.87Z"/><path class="cls-125" d="M16.13,138.34l7.72,4.52c1-.15,1.64.52,2.41.93,2,1.07,3.91,2.33,5.93,3.39a6.44,6.44,0,0,1,2.49,2.29c.44.69,1,1.19,1.86.75l4.17-2.42c1.08-.35,1,.51,1,1.07a7.76,7.76,0,0,1-1.55,5.32c-1.52.27-2.7-.56-3.86-1.3-6.29-4-12.82-7.6-19.33-11.21a20.73,20.73,0,0,1-2.86-2.21.79.79,0,0,1,.1-.82l.46-.81Z"/><path class="cls-17" d="M141,177.05c-.53-.23-.89-.82-1.56-.78-.13-.58-.48-.59-1-.48-1.08.23-2.07-.15-2.16-1.26s1.1-.89,1.85-1.05a3.61,3.61,0,0,0,1.31-.18c1.82-.77,1.82-.77,2.29,1.16,0-.25.06.09.05,0-.34-1.65.27-2.62,2-2.78,1.31-.12,1.93.66,2,2.42a2.71,2.71,0,0,1-.5,2.16C143.63,175.73,142.32,176.55,141,177.05Z"/><path class="cls-47" d="M145.18,176.29c0-.83,0-1.65,0-2.48,0-1-.13-1.83-1.43-1.67s-1.89.67-1.61,2c.06.31.18.61.25.92.1.49,0,1-.54,1s-.46-.45-.52-.8c-.15-.81-.32-1.6-.51-2.57-.59,1.53-1.8,1.26-2.94,1.2a.86.86,0,0,0-.14-.13c-.71-.39-2.08-.17-1.87-1.45.16-1.06,1.28-1.07,2.18-1.16a24.69,24.69,0,0,0,5.7,0,2.44,2.44,0,0,1,2.16.41l.13.15a2.36,2.36,0,0,1,.3,3C146.31,175.53,146.45,176.44,145.18,176.29Z"/><path class="cls-126" d="M146.35,174.75l-.3-3c.87-.17.92.75,1.42,1.06.13.76.27,1.52.4,2.28C147.44,174.69,147,174.21,146.35,174.75Z"/><path class="cls-59" d="M145.25,186.3c.47,2.61-1.35,1.95-2.73,1.91Z"/><path class="cls-127" d="M36.54,150.22c-.77.74-1.48.39-1.95-.28-1.83-2.59-4.9-3.35-7.31-5.08a38.86,38.86,0,0,0-3.43-2c0-.8-.06-1.55,1.12-1.55a1.89,1.89,0,0,0,1.79-1.47c.14-.41-.31-.64-.66-.82a2,2,0,0,0-2.48.08c-1.07,1-2.07,2.12-3.73.8a4,4,0,0,1,1.91-1.26c.51-.17,1.11-.47,1-1-.15-.71-.91-.54-1.47-.5-.35,0-.7.13-1.38.27,1.09-1.47,2.37-1.15,3.43-1s1.25-.4,1.48-1.06-.15-1.25-.92-1.31c-1.81-.14-1-1.73-.94-2.32s1.26-.46,2-.15c.39.19.72.54,1.2.52,1.51.3,2.52,1.61,4,2,.52.12.4.47.36.88-.16,1.51.75,2.8.72,4.5.94-.72.52-1.41.68-2a99.64,99.64,0,0,1,3,11C35.18,149.41,35.31,150.3,36.54,150.22Z"/><path class="cls-15" d="M2.77,120.57,2,119.82c.23-.81.55-1.4,1.49-.71C2.73,119.36,2.69,119.94,2.77,120.57Z"/><path class="cls-128" d="M40,154c.73-1.82,1.53-3.62,1.27-5.67-.06-.46-.31-.45-.57-.57.64-.86,1.71-1,2.64-1.78.18,2.13-.51,3.87-.75,5.66-.22,1-.45,2.07-.67,3.1A58.51,58.51,0,0,1,40,163.26a9,9,0,0,1-.82-4.7A7.33,7.33,0,0,1,40,154Z"/><path class="cls-129" d="M45.36,150.62c0,.88,0,1.59,1.18.87q6.54-3.88,13.1-7.72c1-.58,2-1.09,3-1.64,0,.76,0,1.51,0,2.26,0,1.07,0,2.14-1.45,2.44-.8.16-.81,1.2-1.26,1.78L55,151.37c-.51.32-1.17.27-1.63.69l-9,5.63c.13-1.78.24-3.1.34-4.42C45.28,152.49,44.53,151.35,45.36,150.62Z"/><path class="cls-130" d="M14.24,138.65c0,.25,0,.51,0,.77.43,1.33.25,2.85,1.39,4,.33.33.1,1-.28,1.4H13.46C13.81,142.75,12.65,140.52,14.24,138.65Z"/><path class="cls-4" d="M56.87,117.14a1,1,0,0,1,1.62-.6c.81.62,2.17,1,1.83,2.5C58.93,118.84,58.27,117.32,56.87,117.14Z"/><path class="cls-131" d="M15.4,144.79c0-.84.08-1.55-1-2.14-1.39-.79.14-2.14-.15-3.23,1.56.5,2.69,1.71,4.11,2.48,5.43,2.95,10.76,6.08,16.09,9.2,1.81,1.05,3.4,2.48,5.52,2.94a11.66,11.66,0,0,1-.84,4.52c-2.65-2-5.83-3.13-8.44-5.2-.17-.14-.49-.09-.74-.13A10.5,10.5,0,0,1,27.44,151c-1-1.36-2.75-.79-4-1.57h0c-.29-.4-.79-.48-1.15-.77Z"/><path class="cls-132" d="M23.46,149.41c3.35-.75,4.84,1.71,6.53,3.82-1.37-.71-3-.79-4.23-1.9C25.53,150.05,23.5,150.92,23.46,149.41Z"/><path class="cls-133" d="M37.22,160.48c-1,.15-1.91.19-2.21-1.07C36.24,158.75,36.77,159.53,37.22,160.48Z"/><path class="cls-134" d="M138,171.62a3.93,3.93,0,0,0-.92.14c-.39.15-1,.22-.93.77s.51.63,1,.68,1.16-.21.77.72c-.45.14-1.06-.17-1.34.39-.17.34.16.58.37.79a1.3,1.3,0,0,0,1.72.18c.41-.24.83-.78,1.25-.13.32.47-.39.7-.49,1.11l-3.4.06-.3-.74a3.71,3.71,0,0,0-1-2.72l.24-2.25C136.15,170.29,137.26,170.39,138,171.62Z"/><path class="cls-17" d="M140.13,182.65c0,.91-.59,1.14-.94,1.53a.87.87,0,0,1-1,.38c.73-1.15-.95-.81-.89-1.4a.61.61,0,0,1,1-.39C139,183.36,139.47,182.86,140.13,182.65Z"/><path class="cls-135" d="M53.36,152.06c.23-1,1-.68,1.63-.69A1.39,1.39,0,0,1,53.36,152.06Z"/><path class="cls-132" d="M22.31,148.64c.56,0,1.12,0,1.15.77A1.15,1.15,0,0,1,22.31,148.64Z"/><path class="cls-136" d="M136,160.52a12.66,12.66,0,0,1,6.87-1.07,19.73,19.73,0,0,1,5.78,1.11l2.14,1.61c2.37,1.79,2.46,4.44.24,6.52a1.16,1.16,0,0,1-.84-.95c-.23-2-1.55-1.87-3-1.52a5.74,5.74,0,0,1-1.7.16,16.85,16.85,0,0,0-6.56-1.42c-1,.27-1.85.85-2.9.67s-1.74-.23-1-1.63C135.58,163,134.85,161.49,136,160.52Z"/><path class="cls-137" d="M138,171.62l-3.1-1a11.64,11.64,0,0,1-.12-4.4c.81-1.05,2-.47,3-.7a5.38,5.38,0,0,1,1.91-.18,1,1,0,0,1,.41.36c.36,2.47,2.47,2.53,4.16,2.61,1.52.08,2.19,1.59,3.66,1.6.34,0,0,.73-.39,1-.38.57-1.16.25-1.59.71C143.28,171.69,140.64,172.18,138,171.62Z"/><path class="cls-138" d="M139.81,165.53c-.66,0-1.23.54-1.93.36-.07-.85.78-1,1.16-1.46,2.18.43,4.53.12,6.46,1.54a2.55,2.55,0,0,0,1.31.14c3-.1,3-.11,3.38,2.85a3.22,3.22,0,0,1-2.68,2c.08-.23.15-.47.23-.71-1.14,0-2.2-.17-2.66-1.44-1.25.87-2.28-.44-3.53-.4-1.57,0-1.74-1.51-1.74-2.84.69-.48,1.13.26,1.81.39C141,165.56,140.49,165.1,139.81,165.53Z"/><path class="cls-50" d="M150.19,169c-.22-.39-.63-.77-.64-1.16,0-1.57-1-1.65-2.21-1.57a2.52,2.52,0,0,1-1.84-.26c.66-.17,1.35-.21,2-.36,1.14-.24,2.9-1,2.89,1.46a5.24,5.24,0,0,0,.57,1.62A.81.81,0,0,1,150.19,169Z"/><path class="cls-136" d="M152.48,168.61c0,.59,0,1.19-.08,1.78l-.75-1.06Z"/><path class="cls-139" d="M73.76,31.52c0-3.2,0-6.4,0-9.6,0-1.14,0-1.78,1.41-.88,2,1.3,4.18,2.41,6.29,3.58a2.06,2.06,0,0,1,1.14,2c-.09,6.51.15,13-.14,19.53,0,.85-.17,1.06-1,.58-2.24-1.32-4.53-2.58-6.8-3.87a2.15,2.15,0,0,1-.92-2.16C73.78,37.66,73.76,34.59,73.76,31.52Z"/><path class="cls-139" d="M83.75,47.64c0-3.13,0-6.27,0-9.4,0-1,.19-1.54,1.28-.9,2,1.17,4,2.35,6,3.47A2.16,2.16,0,0,1,92.22,43c0,6.2,0,12.41,0,18.62,0,1,0,1.67-1.33.83-1.92-1.23-4-2.29-6-3.37a2.09,2.09,0,0,1-1.17-2.17C83.78,53.79,83.75,50.72,83.75,47.64Z"/><path class="cls-140" d="M78.27,51.29l-.16.1c-.79.37-.18,2-1.23,1.77C76,53,75.62,51.82,75.24,51c-.92-2.1-.78-4.18.46-4.68,2-.79,3.09.63,4.13,1.9,1.77,2.15,2,4.49.6,6.2C79,53.87,78.8,52.45,78.27,51.29Z"/><path class="cls-141" d="M84.86,30.74c.32-1.69,1.3-2.29,2.76-1.62a4.37,4.37,0,0,1,1.89,1.57c.47,1.17-.2,1.87-1,2.52a1.46,1.46,0,0,1-.85.13A8.74,8.74,0,0,1,84.86,30.74Z"/><path class="cls-142" d="M88.34,33.14a9.05,9.05,0,0,0,1.17-2.45c1.52,2,2.81,4,1.13,6.53A3.69,3.69,0,0,1,88.34,33.14Z"/><path class="cls-143" d="M88.34,33.14a7.41,7.41,0,0,0,2.3,4.08c-1.45,1-2.61.23-3.58-.78a12.14,12.14,0,0,1-1.39-2.21c.31-.89,1.15-.88,1.86-1.1Z"/><path class="cls-144" d="M87.53,33.13c-.37.8-1.24.74-1.86,1.1a3.21,3.21,0,0,1-.81-3.49A6.3,6.3,0,0,1,87.53,33.13Z"/><path class="cls-145" d="M78.27,51.29c1.2.69,1.12,2.28,2.17,3.08C78.22,55.36,77.32,54,78.27,51.29Z"/><path class="cls-146" d="M92.8,30a.47.47,0,0,1,.56.36c.08.37-.06.65-.45.61a.78.78,0,0,1-.48-.46A.38.38,0,0,1,92.8,30Z"/><path class="cls-147" d="M73.39,18.93c0,.26-.09.51-.4.54a.53.53,0,0,1-.6-.57.44.44,0,0,1,.49-.46A.54.54,0,0,1,73.39,18.93Z"/><path class="cls-148" d="M93.39,65.48c0,.41-.22.63-.49.57a.78.78,0,0,1-.51-.46.41.41,0,0,1,.54-.53C93.13,65.11,93.28,65.37,93.39,65.48Z"/><path class="cls-149" d="M72.53,53.47a.51.51,0,0,1,.53.44c.07.38-.11.66-.5.58a.75.75,0,0,1-.45-.5A.45.45,0,0,1,72.53,53.47Z"/><path class="cls-150" d="M122.14,117.53c-6,3.35-4.27,3-9.71,0q-5.5-3.06-11-6.16a1.07,1.07,0,0,1-.94-.78,1.1,1.1,0,0,1,.56-1.08l.57.46c1.21-1.62,3.35-1.84,4.78-3.14,1-.85,1.94-1.94,3.47-1.93.18,0,.44,0,.54-.14,1.4-1.64,2.73-1.35,4,.1a4.83,4.83,0,0,0,2.29,1.2c.79-.37,1.33.17,1.88.54a8.78,8.78,0,0,0,3.46,1.4,3.9,3.9,0,0,1,1.17.75c1.09.88,2.43,1.35,3.57,2.16.51.36,1.15.58,1.34,1.27a1.09,1.09,0,0,1-.22.8c-1.18.7-2.34,1.42-3.53,2.09A4.9,4.9,0,0,0,122.14,117.53Z"/><path class="cls-151" d="M93.79,105.7l-.79-.47a2,2,0,0,1,0-1.13c1.37,0,2-.83,2.23-2.11.43-2,1-4,1.52-6.06a1.87,1.87,0,0,0,1.57,2.31c1.88.52,3.22,2.21,5.24,2.61.66.14,1.51.89,1.47,1.61s-1.07.68-1.7.86c-2.08.59-4.12,1.4-6.35,1.16-.66-.07-.78.25-.57.8A2.35,2.35,0,0,1,93.79,105.7Z"/><path class="cls-152" d="M93.79,105.7l2.62-.42c1,.53,2.18.54,3.1,1.32a3.51,3.51,0,0,1,1.55,2.88c-.13.37-.26.74-.4,1.11a1.51,1.51,0,0,1-.75,1,11.3,11.3,0,0,1-2,.83,3.41,3.41,0,0,1-.55.14,14,14,0,0,1-3.24,0c-.9-.39-2-.38-2.46-1.53a3,3,0,0,1-.66-2.74A10.28,10.28,0,0,1,93.79,105.7Z"/><path class="cls-153" d="M109.88,104.87c-1.14.68-2.13,1.63-3.47,1.93,0-.62-.67-1.2-.2-1.8s.59-1.63,1.47-1.57A2.11,2.11,0,0,1,109.88,104.87Z"/><path class="cls-139" d="M121.38,57.87c0,1.41,0,2.81,0,4.22,0,1.09-.31,1.43-1.32.83l-7.83-4.7A2.33,2.33,0,0,1,111,55.89c.1-2.55.07-5.1,0-7.65,0-1.39.57-1.62,1.6-.93,2.49,1.66,5.26,2.83,7.67,4.63a2.17,2.17,0,0,1,1.12,2.11C121.34,55.32,121.38,56.6,121.38,57.87Z"/><path class="cls-65" d="M122.48,46.78c-1.31.7-1.14,1.92-1.1,3.11,0,.9-.1,1.35-1.17.69-2.59-1.6-5.26-3.06-7.88-4.6-1.13-.66-1.86-3.3-1.26-4.37.42-.74.92-.2,1.29,0,2.44,1.35,4.91,2.65,7.24,4.16.8.52,1.26.61,1.91,0A3.13,3.13,0,0,0,122.48,46.78Z"/><path class="cls-154" d="M122.48,46.78c-1,.36-1.28,0-1-1C122.23,45.73,122.52,46.09,122.48,46.78Z"/><path class="cls-155" d="M93,104.1a1,1,0,0,1,0,1.13c-5.18,3-10.36,6-15.53,9a3.27,3.27,0,0,1-3.58-.26C67,110,60,106,53.06,101.9c-1.31-.77-2.8-1.25-3.89-2.37.25-1.63,1.92-1.76,2.86-2.67.22-.22.73-.09,1-.46.77-1.16,1.58-1.14,2.39,0,.44-.23.72,0,.92.35a.91.91,0,0,1-.2.88c-1.38,1.41-1.06,2.64.89,3.27a11.18,11.18,0,0,0,3.6.47c.62,0,1.39-.09,1.69.6s-.37,1.18-.88,1.5c-1.12.73-1,1.28.1,1.87a18.22,18.22,0,0,1,2.62,1.58c1.58,1.2,3,.66,4.44-.19.91-.54.78-1,0-1.54a13.77,13.77,0,0,1-2-1.18c-.51-.45-1-1,.18-1.26,2,.35,3.6,1.67,5.41,2.5a4.4,4.4,0,0,1,1,.75c.25.19.5.39.77.56a15.2,15.2,0,0,1,1.45.74c.27.17.54.32.82.47.44.24.86.49,1.28.75,1.29.58,2.37,1.73,4,1.4a3.24,3.24,0,0,0,1-.67,7.73,7.73,0,0,1,1.49-.89c.51-.26,1.08-.41,1.57-.71a20.67,20.67,0,0,1,1.91-1.16,6.53,6.53,0,0,0,1.84-1.12c0-1.53-1.55-1.21-2.2-1.94a4.79,4.79,0,0,0-1-.61c-.35-.2-.63-.48-1-.7a13.87,13.87,0,0,0-1.52-.69c-.5-.26-1-.5-1.49-.8-.33-.22-.59-.52-.93-.74a5.64,5.64,0,0,0-1.33-.45,1.27,1.27,0,0,1-.41-.23,4.09,4.09,0,0,0-1-1,13.22,13.22,0,0,1-1.3-.66,7,7,0,0,0-.85-.46,16.55,16.55,0,0,1-1.91-1c-.45-.2-.92-.32-1.35-.56s-.82-.75-1.29-1.06a8.41,8.41,0,0,0-1.23-.72c-.29-.15-.57-.33-.85-.49a10.11,10.11,0,0,1-1.72-1.07,13.42,13.42,0,0,1-1.56-.79c-.31-.27-.72-.47-.71-1-.24-.25-.47-.51-.71-.77A4.6,4.6,0,0,0,67,89c2.88,1.21,4.89,3.69,7.69,5.1,4.16,2.09,8.12,4.56,12.16,6.87.44.38,1.28.1,1.46.9.44,1.08,1.4.07,2.09.53A19.94,19.94,0,0,1,93,104.1Z"/><path class="cls-156" d="M91.76,80a1.31,1.31,0,0,0,.06.27c.31.23.68.46.49.92s-.63.33-1,.23a5,5,0,0,1-1.23-.53c-4.29-2.4-8.55-4.86-12.74-7.42-.68-.42-1.28-.86-2.08-.33-2.12-.4-2.13-.41-2.56,1.7-.62,3.06-1.69,6-2.2,9.09a2,2,0,0,0,1,2.38C76.28,89.19,81.13,92,86,94.84c1.51.89,3.22,1.52,4.42,2.88a2.68,2.68,0,0,0,0,1.41c.3.84-.31,1-1,1.1a2,2,0,0,1-1.63-.94,3.8,3.8,0,0,0-1.79-2.15c-3.47-2.27-7.12-4.23-10.75-6.24a1.82,1.82,0,0,0-1.81-.22c-1.56-.86-3.1-1.76-4.68-2.56-.88-.45-.91-1-.69-1.87,1.34-5.31,2.66-10.64,3.91-16,.28-1.21.63-1.41,1.74-.74,2.67,1.61,5.42,3.1,8.13,4.64Z"/><path class="cls-157" d="M73.37,90.68c.23-1.08.91-.91,1.57-.52,3.89,2.36,8,4.33,11.74,6.92.78.54,1.42,1.06,1.27,2.11-1.28.36-2-.46-2.64-1.3L75.12,91.81C74.53,91.46,74,91.06,73.37,90.68Z"/><path class="cls-158" d="M68,78.75c-2,.84-4.2.75-6.33,1.25,1.76-2,4.41-2.65,6.35-4.32.36-.06.59,0,.4.44A3.73,3.73,0,0,1,68,78.75Z"/><path class="cls-159" d="M66.88,83.41c0-.38-.06-.75-.09-1.27-2.34,1.4-4.82,2.36-7,4-.35.26-.74,1.07-1.4.34a9.14,9.14,0,0,1,5-4.23,16.83,16.83,0,0,0,4.22-1.89A9.24,9.24,0,0,1,66.88,83.41Z"/><path class="cls-160" d="M68.41,76.12l-.4-.44c.26-.65.13-.84-.54-.49-1.53.78-3.07,1.55-4.62,2.28-.35.17-.71.61-1.31.11a33.1,33.1,0,0,1,5.86-3.45c.6-.29,1.65-.38,1-1.53a.81.81,0,0,1,.89-.33A7.94,7.94,0,0,1,68.41,76.12Z"/><path class="cls-161" d="M85.31,97.89c1,.19,1.58,1.22,2.64,1.3a2.08,2.08,0,0,0,1.4.73c.35.08.66.21.68.65-.17,1-1.35.65-1.74,1.34l-1.46-.9c1.24-.73-.13-.75-.3-.85C85.61,99.65,84.73,99.18,85.31,97.89Z"/><path class="cls-162" d="M117.1,70a.12.12,0,0,0,0,.19c-.32.16-.65.51-1,0-.15-.21-.21-.5.07-.66C116.67,69.31,116.84,69.77,117.1,70Z"/><path class="cls-163" d="M132.19,79.87c.78,2.29.2,4.63.34,6.95-.5-.22-.32-.95-.91-1.14-1.65-.52-1.86-1.81-1.81-3.32.07-2.26,0-2.26,2.22-1.18C132.09,80.73,132.14,80.3,132.19,79.87Z"/><path class="cls-164" d="M131.32,75.8c0,.7,0,1.41,0,2.11,0,.43,0,1-.59,1a.94.94,0,0,1-.88-1.06c0-1.54,0-3.07,0-4.61,0-.33.06-.7.43-.75a.76.76,0,0,1,.85.63c.14.87.16,1.77.22,2.65Z"/><path class="cls-165" d="M130.37,52.8A5.45,5.45,0,0,1,132.91,54c.39.37.67.87,1.39.85s1.65-.1.47,1.15c-.92,1-.28,2.67-.31,4.05-.07,2.35-.36,2.52-2.46,1.38-1.5-.83-2.47-1.84-2.21-3.76a31.5,31.5,0,0,0,.05-4C129.84,53.2,129.84,52.7,130.37,52.8Z"/><path class="cls-166" d="M92.34,80.27c.36-.32.64-.83,1.25-.38a6,6,0,0,0,1.3.78c2.16.81,3.26,2.21,2.66,4.6a9.84,9.84,0,0,1-1.15,2.64c-1.86.71-2.76-1.08-4.14-1.61a2.46,2.46,0,0,1-.81-2.75C91.61,82.42,92.61,81.52,92.34,80.27Z"/><path class="cls-167" d="M92.58,86.05c1.36.44,2.22,1.91,3.82,1.86-1,4.16-2,8.31-3,12.49-.29,1.35-.67,1.83-1.93.93a10.86,10.86,0,0,0-1.48-.76l-.68-.65c.48-.12,1.17-.14.42-.87-.91-.86-.19-1,.51-1.1,1.49.22,2-.35,2.4-1.91.52-2.15.52-4.45,1.63-6.45a1,1,0,0,0-.31-1.2c-.53-.53-.65,0-1,.25-.84.62-1.09-.14-1.31-.73C91.35,87,91.84,86.46,92.58,86.05Z"/><path class="cls-168" d="M122.11,108.25c-2.23.33-3.56-1.51-5.35-2.22-.16-.67-1-.71-1.33-1.39a12,12,0,0,1,9.44,1.91c2.27,1.59,5,2.48,7.26,4.46-.79.42-1.29,1.55-2.3.36-1.77-.16-3.05-1.38-4.56-2.1A7.27,7.27,0,0,0,122.11,108.25Z"/><path class="cls-169" d="M122.11,108.25a1.93,1.93,0,0,1,2.31,0c1.81,1,3.61,2.06,5.41,3.09-.22,1-1.07,1.28-1.88,1.58,0-.29,0-.58,0-.87a8.53,8.53,0,0,0-5.06-3Z"/><path class="cls-170" d="M92.34,80.27a3.32,3.32,0,0,1-.47,3.12C88.19,80.5,84,78.43,80,76.13c-1.63-.93-3.46-1.6-4.67-3.15.48-1.32,1.15-.68,1.87-.21,4.48,2.87,9.12,5.46,13.77,8,.31.17.69.71,1.09.16.08-.12-.15-.46-.23-.69Z"/><path class="cls-171" d="M139,164.43c.07.85-.71,1-1.16,1.46l-3.1.33a13.61,13.61,0,0,1,0-6.09c.11,1,.63.69,1.16.39-.11.92-.65,1.81-.15,2.79.41.79-.31,1.07-1,1.4C136.47,165.8,137.72,164.6,139,164.43Z"/><path class="cls-172" d="M124.57,157.16c-1.1,0-2.18.65-3.71-.06a58.26,58.26,0,0,1,5.32-2.9c.84-.36,1.19.65,1.38,1.41C127,156.9,125.62,156.75,124.57,157.16Z"/><path class="cls-173" d="M91.7,111l2.42,1.08a6.43,6.43,0,0,0,3.81,0h0c.51-.09,1.2-.54,1.13.54-.1,1.44.12,2.88,0,4.3-.2,2.84-1.43,5.68-5.34,4a2.19,2.19,0,0,1-1.9-2.07q-.3-3.8-.54-7.59C91.3,111.25,91.56,111.14,91.7,111Z"/><path class="cls-174" d="M91.75,130.13l-.36.45c-.4.32-.69.14-1-.2a3.63,3.63,0,0,0-2.7-3.71c-.91.19-.08,1.81-1.38,1.67-1-.73.11-2-.63-2.76-.41,0-.36.45-.53.69-.36.82-.9,1.29-1.85.91-.22-.37,0-.69.08-1,.28-2,.19-2.09-2.5-3.34-.36.61,0,1.21,0,1.79-.08.37-.12.78-.68.63-1.48-1.25-.49-3.21-1.3-4.68-.14-.25.45-.69,1-.68a2.32,2.32,0,0,0,.93.58c.6.38,1.2.74,1.78,1.13,1.8,2.31,4.67,3,7,4.43a5,5,0,0,0,2.57,1.18,3.8,3.8,0,0,1,.18,1.38C92.28,129.14,92.33,129.76,91.75,130.13Z"/><path class="cls-175" d="M93.74,121c4.27-.06,4.63-.66,4.79-5.09,0-1.06-.81-2.3.23-3.42.28-.3-.55-.17-.82-.37l1.89-.78a.44.44,0,0,1,.62.46c-.17,2.54.19,5.12-.51,7.63a2.57,2.57,0,0,1-.25.53,5.23,5.23,0,0,1-1.46,1.39c-1,.72-2.22.29-3.34.41Z"/><path class="cls-176" d="M92.24,128.31c-.65-.34-.19-.73,0-1.11,1.73-1,3.45-2.08,5.2-3.09,2.28-1.31,3.16-.79,3.25,1.89-.41.39-.76.18-1.11-.09-.79-.57-1.47-.23-2.27.09C95.56,126.69,94.26,128.29,92.24,128.31Z"/><path class="cls-177" d="M94.89,121.76c1-.71,2.39-.15,3.44-.8a2.85,2.85,0,0,0,1.17-1.11h0c.35-.42.16-1.37,1.15-1.17,2.4,1.55.24,2.62-.41,3.85C98.44,122.45,96.52,123.16,94.89,121.76Z"/><path class="cls-178" d="M80.62,120.6c-.45,0-1.13.16-.71-.72,1.75-1,3.5-2.08,5.24-3.13.8-.49,1.62-.86,2.44-.11a1.81,1.81,0,0,1,.37,2.41s-.13.12-.15.11c-2.31-1.7-4,0-5.74,1.11A2.28,2.28,0,0,1,80.62,120.6Z"/><path class="cls-179" d="M80.62,120.6c1.42-.81,2.85-1.59,4.26-2.42,1.06-.63,2.06-1.25,2.42.67,0,.1.43.13.66.2a1.38,1.38,0,0,1-1.78.22,2.67,2.67,0,0,0-3.56,2.32A2,2,0,0,1,80.62,120.6Z"/><path class="cls-4" d="M61,110.63c1.13,0,1.4.92,1.56,1.79.09.52.17,1.29-.73,1.18-1.08-.15-1.54-.89-1.65-2C60.14,110.92,60.43,110.72,61,110.63Z"/><path class="cls-180" d="M86.35,128.34c.77-.5.33-1.28.45-1.93.08-.48.12-1,.79-.5-.27,2.32,1.43,3.21,3,4.19.12.39.44.46.79.48-.48.78-1.22.45-1.88.42C88.54,130,86.86,129.88,86.35,128.34Z"/><path class="cls-181" d="M83.76,126.44l-.42.74a6.71,6.71,0,0,1-3.09-1.94.76.76,0,0,0,.41-.74C82.12,124.47,82.9,125.51,83.76,126.44Z"/><path class="cls-4" d="M60.56,115.9c0,.34-.24.42-.5.42a.74.74,0,0,1-.72-.53.37.37,0,0,1,.39-.5A.75.75,0,0,1,60.56,115.9Z"/><path class="cls-182" d="M85.19,126.27c-.08-.35-.3-.74.16-1,.06,0,.25.19.37.29C85.47,125.75,86.1,126.61,85.19,126.27Z"/><path class="cls-84" d="M46.64,82.21c-1.56.28-1.63-1.3-2.26-2.19-.19-.26.27-.54.6-.47a5.75,5.75,0,0,1,2.92,1.9c.27.3-.11.68-.55.73C47.16,82.2,47,82.2,46.64,82.21Z"/><path class="cls-84" d="M50,80.65c.73.25,1.37.33,1.25.79s-.55.13-.79-.09A3.62,3.62,0,0,1,50,80.65Z"/><path class="cls-183" d="M63.39,82.2l-5,4.23c-.72.24-1,1.24-1.92,1.13a1.27,1.27,0,0,0-1-.38c-.31,0-.71,0-.71-.44a.88.88,0,0,1,.41-.58q3.8-2.18,7.62-4.28C62.88,81.82,63.18,82.09,63.39,82.2Z"/><path class="cls-4" d="M58.42,91.43c-.53,1.16-1.2,2.12-2.7,1.9C56.89,93.09,57.18,91.58,58.42,91.43Z"/><path class="cls-184" d="M65.66,90.36l.81.67c-.11,1-1.09,1.68-1.27,2.69A2.89,2.89,0,0,0,64.43,95a1,1,0,0,1-.34.37.58.58,0,0,1-.48-.07c-.81-1.18-2.27-1.44-3.3-2.31l3.77-2.31A1.46,1.46,0,0,1,65.66,90.36Z"/><path class="cls-185" d="M60.31,92.94c1.45.3,2.93.55,3.45,2.26-.77,1.1-1.59.29-2.39.06A4.16,4.16,0,0,1,60.9,95c-.49-.51-1.5-.61-1.32-1.66Z"/><path class="cls-186" d="M57.62,94.46l.43-.33c1.24-.66,2.1.25,3.06.76l0,0c.46.95-.12,1.25-.9,1.41A4.1,4.1,0,0,1,59,96C58.37,95.67,57.48,95.53,57.62,94.46Z"/><path class="cls-187" d="M57.62,94.46c.28.73,1,.89,1.59,1.17.38,1.34-.94,1.42-1.53,2a1.08,1.08,0,0,1-1.32-.73c.72-.7.57-1.25-.27-1.69C56.46,94.73,57.14,94.79,57.62,94.46Z"/><path class="cls-188" d="M56.09,95.25c.65,0,1.58-.25,1.75.59s-.75.8-1.33.94c-.15.23-.28.22-.39,0l-.73-.4C55.12,95.68,55.58,95.45,56.09,95.25Z"/><path class="cls-187" d="M61.11,94.89c-1-.15-1.89-1.11-3.06-.76.36-.56,1-.46,1.53-.77C59.79,94.17,60.91,94.07,61.11,94.89Z"/><path class="cls-189" d="M120.1,150.65c-2.29,1.57-4.57,3.15-6.88,4.71a.74.74,0,0,1-1.15-.23c-.22-.36.12-.62.37-.77,2.43-1.42,4.88-2.82,7.33-4.23Z"/><path class="cls-9" d="M56.77,138.27a1.89,1.89,0,0,1-1.41.85C55.55,138.37,56.11,138.24,56.77,138.27Z"/><path class="cls-190" d="M117.17,140.56a5.25,5.25,0,0,1,2.57-2.17c-.76.84-1,2.24-2.57,2.16Z"/><path class="cls-191" d="M120.55,139.49c-.42.74-.78,1.55-1.85,1.45C119.15,140.25,119.56,139.5,120.55,139.49Z"/><path class="cls-192" d="M107.33,173.26c0,.56-.1,1.08-.87.62-1-.61-2.07-1.21-3.1-1.83a1.07,1.07,0,0,1-.35-1.5c.4-.69.84,0,1.21.22.79.39,1.54.86,2.31,1.3A1.3,1.3,0,0,1,107.33,173.26Z"/><path class="cls-193" d="M92.24,128.31c1.86-1,3.72-2.12,5.59-3.15.84-.46,1.74-.89,1.71.75-1.46,1.49-3.55,1.77-5.31,2.7-.87.45-1.16,1.86-2.48,1.52A1.79,1.79,0,0,1,92.24,128.31Z"/><path class="cls-194" d="M100.66,118.67c-.61.17-.68.87-1.15,1.17a37.19,37.19,0,0,0,.32-8.5l.83-.75.78.75Z"/><path class="cls-86" d="M90.21,134.08c0,.67-.43.72-.9.73-.63,0-1.18-.16-1.27-.88-.06-.49.2-1,.74-.89A1.51,1.51,0,0,1,90.21,134.08Z"/><path class="cls-137" d="M139.81,165.53c1.82-.67,1.82-.67,2.49,1.43-1.11-.12-1.43-1.49-2.49-1.43Z"/><path class="cls-195" d="M122.9,109.08a.68.68,0,0,1,1-.28c1.43.76,2.87,1.53,4.26,2.36.55.32.72.77-.17.92Z"/><path class="cls-196" d="M98,109.08c-1.25,1-4.46.53-5.39-.78-.23-.33-.19-.48.07-.78,1.29-1.5,4.73-1.54,6.06-.07,1.07,1.19.62,1.6-.75,1.64Z"/><path class="cls-175" d="M97.93,112.13a3.81,3.81,0,0,1-3.81,0Z"/><path class="cls-197" d="M56.12,96.76l.39,0,1.16.69c.95-.13,1.6.51,2.34.91a6.27,6.27,0,0,0,.88.48,17.9,17.9,0,0,1,2,1.09c.9.53,1.85,1,2.73,1.56.52.34,1.33.52,1.17,1.44-.64.1-.59.38-.13.66.92.56,1.86,1.09,2.81,1.61s.73.91,0,1.48c-2.11,1.59-3.52,1.73-5.82.41-1-.61-2.09-1.21-3.11-1.86-.82-.53-1.67-1.08,0-1.72a8.08,8.08,0,0,0,1.76-1.46c-1.87-.53-3.6-.17-5.24-.61a3.32,3.32,0,0,1-2.21-1.64c-.43-.83-1.19-2.12.78-2.33C56,97.45,56.05,97.07,56.12,96.76Z"/><path class="cls-198" d="M66.81,103c-1.14-1.3-2.9-1.62-4.2-2.66-.42-1.09.31-3,1.25-3.32a1.62,1.62,0,0,1,1.59.33c.8.66-.36,1.24-.06,1.88l.34.33a23.63,23.63,0,0,0,3.22,2A11.12,11.12,0,0,0,71.89,103a2.9,2.9,0,0,1,.93.54c1,1,.83,1.75-.59,2.11Z"/><path class="cls-199" d="M85.65,107.92c-.38.54-1,.57-1.56.71-.81-.06-1.43-.79-2.31-.71,0,.7,1.11.76.82,1.56-.19.32-.37.65-.8.69-.87-.88-2.41-1.07-2.7-2.56a2.4,2.4,0,0,0,.79-1.94,2.54,2.54,0,0,0,.36-.84c-.34.18-.18.53-.32.76a3.15,3.15,0,0,0-.78,1.93,3.18,3.18,0,0,1-1.91,1.15L76,108c.45-.49.74-1,.27-1.63a.92.92,0,0,1,.1-.74c.25-.46,1.81.35,1.05-1.08a1.06,1.06,0,0,1,.09-.5,15.67,15.67,0,0,1,1.59-1.19c.5-.11.92.27,1.41.24a3.47,3.47,0,0,0,2.15-.32,1.38,1.38,0,0,1,1.16.47c-.06.7-.58,1.3-.48,2-.26.36-.82.23-1.06.66.5.2,1-.21,1.43,0a.93.93,0,0,1,.3.41C84,107.43,85.11,107.37,85.65,107.92Z"/><path class="cls-200" d="M76.44,105.67c0,.24,0,.48,0,.73a2.09,2.09,0,0,1-1.18,1.19l-1.47-.83c.23-.49,1.2-.44.92-1.29,0-.54.34-.88.77-1.27-.9,0-.6.65-.81,1A3.76,3.76,0,0,1,73,106.31l-.81-.68c1-.5,1.09-1.14.34-1.94.43-.6,1.14-.8,1.69-1.22a1.78,1.78,0,0,1,.49-.17c.31-.14.76.25,1-.22,0-.11-.26-.23-.43-.32a1.84,1.84,0,0,1-.59-.48,1.67,1.67,0,0,1-.28-.74.58.58,0,0,1,.22-.45,1.28,1.28,0,0,1,.77-.11,3.55,3.55,0,0,1,1,.43c.27.12.75.36.8.2.13-.48-.49-.32-.7-.58a2.53,2.53,0,0,1-.64-.81c-.56-1.4.76-1.49,1.42-2l1.49.8c-.14.33-.68.32-.69.77.48.29,1.11-.12,1.54.34v0a3.37,3.37,0,0,1,.22,1.44c-.46,1.38-2,2.12-2.18,3.66a2.72,2.72,0,0,0,0,.28C77.46,105.06,76.78,105.21,76.44,105.67Z"/><path class="cls-201" d="M74.91,101l.43.43c.13.64-.52.72-.79,1.08l-.08.06c-.81.41-1.88-.07-2.56.78-1.3,0-2.12-1-3.22-1.5a2.53,2.53,0,0,0,.12-.23,1.12,1.12,0,0,1,1.22-.28c.36.15.67.69,1.09.32.13-.12-.39-.37-.52-.63a.91.91,0,0,1,.38-.9c.68-.26.8-.87.92-1.48,1.57-.41,1.55-2.21,2.64-3l2,1.12c-1.23.85-1.53,2.23-2,3.5l0,0c-.19.24-.72.45-.68.53C74.05,101.29,74.57,100.73,74.91,101Z"/><path class="cls-202" d="M85.65,107.92c-.78-.28-2.51.69-1.89-1.43.2-.35.24-.76.46-1.09a1.93,1.93,0,0,1,.66-.73,2.06,2.06,0,0,1,.48-.15,2.88,2.88,0,0,1,1.75.41,2.19,2.19,0,0,1,.44.31c.47.5.82,1,0,1.56Z"/><path class="cls-203" d="M87.12,103c.88.46,1.77.89,2.63,1.37,1,.57.71,1-.2,1.32a2,2,0,0,1-2.36-.42h0c-.49-.47-1.19-.59-1.71-1a1,1,0,0,1-.29-.95,1.32,1.32,0,0,1,.44-.3C86.14,103,86.63,102.51,87.12,103Z"/><path class="cls-204" d="M77.24,108.67a2.27,2.27,0,0,1,1.91-1.11l0,0c.52,1.25,2.5,1,2.67,2.63-.93.92-1.7.25-2.5-.24Z"/><path class="cls-205" d="M71.89,94.05c.44.32,1.19.32,1.14,1.12.19.29,0,.49-.16.68-1,.47-.75,2.34-2.39,2-.91-.33-1.54-.78-.82-1.84C70.36,95.31,70,93.39,71.89,94.05Z"/><path class="cls-206" d="M74.53,100.24c-1.29-1.1.61-1.62.49-2-.54-1.73.78-1.25,1.51-1.49l.69.44c0,.6-.43.83-.88,1s-.59.51-.25.93c.45,1-.29.94-.87,1.07Z"/><path class="cls-207" d="M72.71,95.63l.32-.46a2.15,2.15,0,0,1,1.51.45,3,3,0,0,1-2.7,3.09l-.23-.11A9.42,9.42,0,0,1,72.71,95.63Z"/><path class="cls-208" d="M68.05,91.75,70,92.92a3.23,3.23,0,0,0-1.38,2,3.87,3.87,0,0,0-1.1,1.28.83.83,0,0,1-.89.37,1,1,0,0,1-.41-.34,1.81,1.81,0,0,1-.26-.76,1,1,0,0,1,.17-.5c.64-1,1-2.12,1.77-3.06Z"/><path class="cls-209" d="M82.6,109.48c-.41-.77-2.26-1.08-1.6-1.8,1-1.15,2.19.1,3.09.95Z"/><path class="cls-200" d="M80.31,103.3c-.67.88-.79-.33-1.23-.32-.68-.32-.2-.6.07-.74a1.84,1.84,0,0,0,1-1.53,4.35,4.35,0,0,1,1.31-1.18l.8.74c.32.6-1,.91-.27,1.59C81.73,102.72,80.89,102.86,80.31,103.3Z"/><path class="cls-210" d="M68.37,94.84c-.09-1.15.1-2.07,1.59-1.92l.72.43c.21,1.25-1,1.41-1.57,2.07C68.69,95.44,68.26,95.48,68.37,94.84Z"/><path class="cls-211" d="M85.62,103.34l-.28,0a1,1,0,0,1-1.15.2,2.7,2.7,0,0,0-.78-.51c-.38-2,.89-1.39,1.89-1.23.36.16.73.31.81.77A1.13,1.13,0,0,1,85.62,103.34Z"/><path class="cls-212" d="M79.56,99.09a1.66,1.66,0,0,0-.56.07c-.77.45-1.75.45-1.89-.37S78,98,78.71,98C79.15,98.23,79.72,98.38,79.56,99.09Z"/><path class="cls-213" d="M73,106.31c.08-.93.85-.92,1.49-1.08.21.06.29.28.48.37.67,1.51-.72.86-1.21,1.16Z"/><path class="cls-214" d="M81.42,99.53c.06.8-.44,1-1.1,1.12-.46.25-.59-.22-.86-.38-.66-.46.13-.81.09-1.23A2.34,2.34,0,0,1,81.42,99.53Z"/><path class="cls-210" d="M75.27,107.59c0-.83.67-.91,1.18-1.19.43.23,1,.46.93,1s-.9.46-1.4.61Z"/><path class="cls-208" d="M69.27,95.21c-.22-1.15,1.62-.73,1.41-1.86l1.21.7c-.52.39-2-.06-1.15,1.53.35.63-.51.36-.82.52a1.38,1.38,0,0,1-.49-.47A1.08,1.08,0,0,1,69.27,95.21Z"/><path class="cls-215" d="M64.93,93.73A4,4,0,0,1,66.47,91l1.58.72-.14.15c-.47.42-1.3.37-1.43,1.3-.08.61-.71.8-1.34.69Z"/><path class="cls-216" d="M81.84,101.79c-1.47-.92.52-1,.38-1.52l1.51.77c.09.82-.49,1-1.09,1.1A1.12,1.12,0,0,1,81.84,101.79Z"/><path class="cls-200" d="M82.66,101.81a1.06,1.06,0,0,0,1.07-.77c.53.23,1.17.23,1.57.73-.63.21-2-.53-1.48,1.17a.28.28,0,0,1-.06.39l-1.12-.4C81.87,102.54,82,102.17,82.66,101.81Z"/><path class="cls-217" d="M87.19,105.24l2.36.42-2,1.14C88.19,106.09,87.37,105.75,87.19,105.24Z"/><path class="cls-217" d="M85.62,103.34c.08-.32.12-.67.49-.8.35.13.8,0,1,.43Z"/><path class="cls-157" d="M75.32,73c5.24,2.89,10.47,5.8,15.58,8.92a1.63,1.63,0,0,1,1,1.49c0,.93-.73,2.1.71,2.66-.24.82-1.12,1.63,0,2.51.63-.26.22-.92.5-1.34.44.26.9.52,1.34.8s1,.87.53,1.56c-1.51,2.13-1.21,4.75-1.94,7.1s-.47,2.38-2.73,1.27L77,90.19c-2.18-1.29-4.36-2.57-6.53-3.87-.47-.29-1-.63-.8-1.36q1.47-6.08,2.93-12.15c.18-.77.55-1.13,1.35-.57A14.2,14.2,0,0,0,75.32,73Z"/><path class="cls-218" d="M83.76,126.44c-1.24-.33-2.07-1.29-3.1-1.94-.48-.75-.22-1.58-.27-2.39C84.19,123.52,84.58,124,83.76,126.44Z"/><path class="cls-219" d="M90.6,130.1c-2.91-.55-4.12-2.24-3-4.19a8.42,8.42,0,0,0,1.44.9A2.38,2.38,0,0,1,90.6,130.1Z"/><path class="cls-194" d="M99.5,119.85A1,1,0,0,1,98.33,121,2.43,2.43,0,0,1,99.5,119.85Z"/><path class="cls-187" d="M69.52,95.27c.37.16.39.49.4.83-.76,1,.21,1.17.79,1.51a.59.59,0,0,1,.06.74c-.59.35-1.17-.27-1.83,0,.08.37.55.36.69.65a.8.8,0,0,1,0,.75c-.25.36-1.43.38-.43,1.2.16.43-.17.6-.43.82l-.09.07c-1-.91-2.64-1-3.38-2.38.29-.31.68-.24,1.28-.29a1.12,1.12,0,0,0-1.27.3c-1.15-.32-1.15-.32.13-1.67-1.52-.9-1.57-.91-1.86.67-.14.74-1.82.58-1,1.8l-2-1.14a3,3,0,0,0,1.39-2c.07-.12.28-.29.13-.38s-.35.11-.47.3a1.28,1.28,0,0,1-1.46,1.1,1.53,1.53,0,0,1-.3-2.1c.73,0,1.19-.35,1.14-1.16.94-.24,1.68,1.06,2.68.33l.41.07.17.18c.48,1,1.32.39,2,.49l.12.59c.5.82,1.06.91,1.67.11A5.14,5.14,0,0,1,69.52,95.27Z"/><path class="cls-187" d="M64.17,95.27l.06-.42a1.25,1.25,0,0,1,.89-.52c.5.13,1.11.16,1,1v0a1.35,1.35,0,0,1-1.94,0Z"/><path class="cls-215" d="M65,94.41a.76.76,0,0,1-.8.44c-.19-.64-.12-1.12.7-1.12h0A.51.51,0,0,1,65,94.41Z"/><path class="cls-220" d="M59.94,96l.39,2c.13.37-.06.55-.37.67l-2.29-1.2c0-1,1.65-.71,1.54-1.84A.78.78,0,0,1,59.94,96Z"/><path class="cls-152" d="M98,109.08c-.39,0-.83-.11-.56-.66.09-.17.49-.37.6-.3.48.3,0,.64,0,1Z"/><path class="cls-202" d="M60,98.67c.12-.22.24-.45.37-.67.41-.31,1.26-.31.85-1.21.56-.37.88-.09,1.11.42.2,1.28-.19,2.06-1.64,1.94Z"/><path class="cls-221" d="M71.91,103.36c.3-2.08,1.63-.79,2.56-.78-.35.86-1.12,1-1.9,1.11Z"/><path class="cls-222" d="M79.46,100.27l.86.38c.42,1.23-.09,1.84-1.3,2,0,0-.06.11,0,.16s.07.11.11.16c0,1-.85,1-1.49,1.16-.44-.4-1.16-.6-.11-1.33A10.35,10.35,0,0,0,79.46,100.27Z"/><path class="cls-223" d="M82.66,101.81a.68.68,0,0,0,0,1.12c-.63,1.07-1.45.89-2.33.37,0-1.06,1.27-.75,1.53-1.51Z"/><path class="cls-224" d="M83.66,105.94c-.15.12-.3.24-.45.34a1.28,1.28,0,0,1-1.71,0c-.22-.18-.4-.35-.23-.6.37-.54,1-.51,1.53-.5h.56l.22.1C83.74,105.52,83.87,105.71,83.66,105.94Z"/><path class="cls-225" d="M83.76,103.33l.06-.39a3.83,3.83,0,0,1,.28.29c.3.39,1,.5.92,1.17a2.29,2.29,0,0,1-1.2,1,.52.52,0,0,1-.47-.16h0C82.05,104.31,82.87,103.81,83.76,103.33Z"/><path class="cls-226" d="M79.15,107.56c-1.28-1.25-.07-1.51.77-1.92h0c1,1.15.56,1.7-.77,1.91Z"/><path class="cls-222" d="M76.44,105.67c-.34-1.1.81-.8,1.16-1.25,0,.57,1.3.45.72,1.19S77.08,106.08,76.44,105.67Z"/><path class="cls-212" d="M79.92,105.64c0-.5-1.22-1-.07-1.49.46-.2,1.2-.2,1.32.36.17.86-.81.76-1.27,1.12Z"/><path class="cls-227" d="M83.35,105.23l.35,0c.45-.18.62.15.8.45-.07.44-.45.61-.74.86,0-.18-.07-.37-.1-.55S83.45,105.47,83.35,105.23Z"/><path class="cls-228" d="M75,105.6l-.48-.37a2.64,2.64,0,0,0-.18-.71c-.41-.69.07-.9.57-1.07a1.13,1.13,0,0,1,1.32.48c.33.54-.26.74-.65.88S74.91,105.12,75,105.6Z"/><path class="cls-229" d="M76.46,100c.64-.15,1.27-.21,1.71.41.18.24,0,.46-.2.61a1.32,1.32,0,0,1-2-.34C75.89,100.23,76.11,100.05,76.46,100Z"/><path class="cls-230" d="M74.91,101c-.57.34-1.08,1-1.86.36-.21-.17-.43-.36-.27-.6.41-.63,1.09-.53,1.72-.5Z"/><path class="cls-224" d="M74.55,102.52c0-.56.51-.73.79-1.08.59.12,1.57.14,1.31.9C76.24,103.52,75.28,102.54,74.55,102.52Z"/><path class="cls-201" d="M76.46,100l-.46.68-.78-.47c.35-.31.89-.46.87-1.07C76.43,99.3,76.44,99.63,76.46,100Z"/><path class="cls-231" d="M70.68,100.91l1.51.64c-1,.9-1.77,1.3-2.36-.15C69.89,100.84,70.22,100.76,70.68,100.91Z"/><path class="cls-232" d="M71.84,98.71c.14.39.87.47.64,1s-.87.59-1.43.58l-.26,0c-.34-.13-.64-.29-.58-.73.35-.69.73-1.29,1.65-.79Z"/><path class="cls-233" d="M70.68,100.91l-.85.49-1,.39c.12-.26.25-.51.38-.76a1.13,1.13,0,0,1,.67-.76c.4-.09.81-.38,1.21,0h0Z"/><path class="cls-227" d="M84.82,104.41l-.72-1.18,1.24.08.42.73c.13.45-.2.61-.49.79l-.37.11A.37.37,0,0,1,84.82,104.41Z"/><path class="cls-217" d="M85.27,104.83c.16-.26.33-.52.49-.79.46.43,1.21.51,1.45,1.21Z"/><path class="cls-199" d="M84.82,104.41c0,.17.06.35.08.53-.13.23-.26.46-.4.69l-.8-.45Z"/><path class="cls-233" d="M71.86,98.73a1.74,1.74,0,0,0-1.55,1.14.55.55,0,0,1-.63.18l-.19-.14c0-.25.05-.5.07-.75.08-.65.61-.66,1.07-.77,0-.26.05-.52.08-.78.5-.24,1.22-.22,1-1.19s.52-.74,1-.79c-.09.84.14,1.79-.95,2.26C71.46,98,71.8,98.44,71.86,98.73Z"/><path class="cls-234" d="M65,94.41l-.09-.68c.52-.25,1.56.22,1.16-1.23-.2-.72,1-.82,1.81-.6.13.13.26.27.38.41-1.13.69-.62,2.61-2.2,3Z"/><path class="cls-231" d="M68.35,96.72c-.07,1-.68,1.23-1.51,1-.66-.18-.88-.6-.37-1.2.34-.07.7-.11.85-.5C68.06,95.66,68.37,95.94,68.35,96.72Z"/><path class="cls-216" d="M64.16,95.25H66.1c.08.22.16.45.25.68C64.57,97,64.19,96.87,64.16,95.25Z"/><path class="cls-235" d="M68.35,96.72a1.09,1.09,0,0,0-1-.69c-.17-.86.36-1.1,1.05-1.19a.78.78,0,0,0,.9.37.54.54,0,0,1,.25.06C69.46,96,68.82,96.3,68.35,96.72Z"/><path class="cls-198" d="M65.32,99.49a1,1,0,0,1,.6-.88,1.13,1.13,0,0,1,1.38.19c.22.16.34.39.11.63a1.11,1.11,0,0,1-1.2.33l-.9-.28Z"/><path class="cls-236" d="M70.63,98.39l-1.07.77-1.44-.61C69,97.41,69.81,97.74,70.63,98.39Z"/><path class="cls-237" d="M69.87,100.61l-.71.42c-.53,0-1.39.08-1.29-.61s.9-.89,1.62-.51h0C69.76,100.08,70.16,100.17,69.87,100.61Z"/><path class="cls-238" d="M62.29,97.21l-1.11-.42c.23-.83.78-.91,1.46-.59.24.12.72.21.46.62C63,97,62.57,97.08,62.29,97.21Z"/><path class="cls-187" d="M69.87,100.61l-.36-.7.8,0a.73.73,0,0,1,.73.41Z"/></g></g></g></svg>